<svg xmlns="http://www.w3.org/2000/svg" width="56.834" height="55.167" viewBox="0 0 56.834 55.167">
  <g id="Grupo_83567" data-name="Grupo 83567" transform="translate(-134.072 -846.971)">
    <path id="Trazado_117335" data-name="Trazado 117335" d="M179.732,904.712a.17.17,0,0,1-.086-.025c-.013-.015-.166-.123-.181-.137q-3.4-3.449-6.808-6.881a2.823,2.823,0,0,0-2.064-.87,7.342,7.342,0,0,0-2.5.623,13.289,13.289,0,0,1-1.6.52c-.848.2-1.718.417-2.6.642a38.912,38.912,0,0,1-9.244,1.581h0q-.283,0-.564-.01c-8.242-.29-9.762-6.135-11.686-13.534l-.166-.638c-.343-1.316-.817-2.8-1.319-4.365-1.959-6.122-4.4-13.74-1.4-18.652,1.5-2.446,4.865-3.647,7.633-4.418,2.254-.629,4.5-1.3,6.738-1.973,2.388-.716,4.858-1.456,7.3-2.128.716-.2,1.5-.426,2.345-.672,3.981-1.161,9.433-2.752,14.107-2.752a11.371,11.371,0,0,1,6.858,1.839c4.162,3.079,5.376,8.943,6.447,14.117.2.963.394,1.9.6,2.8.126.543.257,1.094.39,1.648,1.388,5.807,2.822,11.813-.458,16.845-1.416,2.173-4.145,3.9-8.11,5.133a5.635,5.635,0,0,1-1.285.249c-1.3.12-1.352.717-1.484,2.314l-.023.277c-.212,2.53-.376,5.173-.5,8.078-.009.032-.017.062-.023.093a.251.251,0,0,1-.107.2A.385.385,0,0,1,179.732,904.712Z" transform="translate(-3.3 -3.312)" fill="#fff"/>
    <path id="Trazado_117336" data-name="Trazado 117336" d="M188.964,866.3c-1.35-5.836-2.148-13.513-7.329-17.344-6.029-4.459-17.7-.251-23.945,1.467-4.7,1.294-9.343,2.792-14.04,4.1-2.844.793-6.426,2.064-8.064,4.745-3.978,6.506.946,17.131,2.63,23.588,2.024,7.759,3.5,14.406,12.541,14.723,4.154.146,8.61-1.3,12.6-2.231,2.113-.49,3.982-1.968,5.473-.472q3.414,3.428,6.8,6.878a.907.907,0,0,0,.359.271.943.943,0,0,0,1.043-.105.967.967,0,0,0,.434-.681.924.924,0,0,0,.026-.108c0-.009.006-.015.006-.024.117-2.711.278-5.413.5-8.117.222-2.653.044-1.5,2.275-2.2,3.128-.973,6.651-2.583,8.509-5.434C192.578,879.558,190.4,872.526,188.964,866.3Zm-.609,15.355c-1.318,5.064-7.062,6.686-11.433,7.984a1.079,1.079,0,0,0-.765,1c-.293,2.606-.475,5.223-.611,7.842-2.534-3.088-5.4-6.968-9.157-6.016-5.783,1.465-16.631,5.721-21.858,1.115-2.8-2.463-3.4-7.9-4.3-11.28-1.089-4.08-2.086-8.187-3.087-12.289-.708-2.9-1.479-6.058-.227-8.919,1.686-3.855,7.468-4.588,11.027-5.633,6.832-2.007,13.623-4.192,20.64-5.475,3.433-.628,7.2-.94,10.582.059,3.328.982,4.714,4.807,5.553,7.8,1.412,5.044,2.6,10.186,3.622,15.323A18.7,18.7,0,0,1,188.355,881.655ZM173.423,858.6a6.923,6.923,0,0,1,1.449-2.088,7.793,7.793,0,0,1,2.024-1.932.189.189,0,0,1,.275.212,4.542,4.542,0,0,1-1.441,2.192,11.358,11.358,0,0,1-2.031,1.827A.189.189,0,0,1,173.423,858.6Zm3.649-.341c-.043.549-.423.782-.853,1.065a3.237,3.237,0,0,1-1.259.564.206.206,0,0,1-.229-.3,3.378,3.378,0,0,1,1.062-1.115,1.329,1.329,0,0,1,1.123-.419A.209.209,0,0,1,177.072,858.256ZM152.857,884.2a7.154,7.154,0,0,1-1.184,2.456c-.4.566-.758,1.358-1.515,1.434a.135.135,0,0,1-.133-.1c-.111-.757.566-1.287,1-1.836.545-.7,1.093-1.377,1.674-2.047C152.761,884.03,152.879,884.113,152.857,884.2Zm-2.665.3a2.24,2.24,0,0,1,1.342-1.185.215.215,0,0,1,.261.26,2.408,2.408,0,0,1-1.059,1.468A.4.4,0,0,1,150.193,884.506Zm4.376.126a1.617,1.617,0,0,1,.08,1.154,3.819,3.819,0,0,1-.348,1.254c-.157.256-.649.257-.7-.091a2.891,2.891,0,0,1,.24-1.385,2.012,2.012,0,0,1,.524-.958A.133.133,0,0,1,154.569,884.631Zm25.072-4.317a.326.326,0,0,1-.306.4c-.7.083-1.313-.725-1.768-1.165a19.844,19.844,0,0,1-1.551-1.564.09.09,0,0,1,.063-.153,3.547,3.547,0,0,1,2.087.94C178.666,879.158,179.543,879.645,179.641,880.314Zm-2.578-3.334c-.1-.042-.055-.18.027-.208.689-.241,1.84-.028,2.11.726a.13.13,0,0,1-.091.16,1.37,1.37,0,0,1-.911-.21C177.822,877.286,177.439,877.142,177.063,876.98Zm-.915,3.468a.373.373,0,0,1-.057.445c-.024.02-.049.039-.074.058a.372.372,0,0,1-.445-.058,3.309,3.309,0,0,1-.913-1.5.123.123,0,0,1,.15-.15A2.436,2.436,0,0,1,176.148,880.448Zm-27.51-16.833a2.453,2.453,0,0,1,.359.723.147.147,0,0,1-.141.186,1.707,1.707,0,0,1-.939-.263,9.522,9.522,0,0,1-.842-.659c-.518-.441-1.133-.805-1.289-1.512a.213.213,0,0,1,.148-.26c.76-.157,1.282.368,1.8.85A9.157,9.157,0,0,1,148.638,863.616Zm1.436-.1a1.22,1.22,0,0,1-.554-.256,2.23,2.23,0,0,1-.475-.638,2.63,2.63,0,0,1-.492-1.363.518.518,0,0,1,.769-.441,2.592,2.592,0,0,1,.931,1.291,3.3,3.3,0,0,1,.254.734,1.192,1.192,0,0,1-.032.367A.32.32,0,0,1,150.074,863.512Zm-3.688,9.8a2.415,2.415,0,0,1-2.731-.09.175.175,0,0,1,0-.242,2.494,2.494,0,0,1,2.731-.346A.4.4,0,0,1,146.385,873.315Zm14.156-15.873a2.938,2.938,0,0,1,.142-1.621.181.181,0,0,1,.245-.064c1.018.459,1.085,2.336.392,3.112a.129.129,0,0,1-.158.02A1.965,1.965,0,0,1,160.542,857.442Zm20.875,9.074c-.3.883-1.936,1.1-2.694.751a.18.18,0,0,1-.036-.281,3.538,3.538,0,0,1,1.158-.656,1.945,1.945,0,0,1,1.288-.315A.41.41,0,0,1,181.417,866.516Zm-11.559,20.229a.191.191,0,0,1-.256.067c-.515-.259-.578-.7-.819-1.183a5.7,5.7,0,0,1-.5-1.256.255.255,0,0,1,.37-.285C169.445,884.5,170.365,885.877,169.858,886.745Zm3.284-23.92c-4.237-4.371-10.224-.16-12.271,4.518-1.713-1.93-3.861-3.3-6.623-2.892-2.827.422-4.174,3.415-4.492,5.906-.991,7.769,8.4,12.837,14.778,13.57a.671.671,0,0,0,.68-.3C170.364,879.508,179.76,869.651,173.141,862.825Zm-21.592,10.326c-.314-.593-.541-1.841.257-2.165.094-.038.179.041.21.119a2.951,2.951,0,0,1,.122.957c.014.307.069.6.064.912A.352.352,0,0,1,151.549,873.151Zm10.592,8.094c-2.22.09-4.2-1.25-5.908-2.533a10.435,10.435,0,0,1-3.778-4.422.049.049,0,0,1,.072-.055c1.707,1.152,2.986,2.873,4.718,4.03,1.588,1.061,3.339,1.695,5,2.616A.2.2,0,0,1,162.141,881.246Zm7-17.723a.066.066,0,0,1,.016-.119c2.405-.754,6.047,3.431,4.324,5.541a.2.2,0,0,1-.307-.04c-.62-1-.6-2.221-1.33-3.2A10.237,10.237,0,0,0,169.142,863.523Zm4.279,8.152a.157.157,0,0,1-.211-.055c-.2-.3-.079-.556-.006-.882.064-.285.058-.542.3-.732a.152.152,0,0,1,.208,0A1.258,1.258,0,0,1,173.421,871.675Z" transform="translate(0 0)"/>
  </g>
</svg>
