<svg xmlns="http://www.w3.org/2000/svg" width="115.938" height="123.394" viewBox="0 0 115.938 123.394">
  <g id="Grupo_88526" data-name="Grupo 88526" transform="translate(-1315 -381.977)">
    <g id="Grupo_88080" data-name="Grupo 88080" transform="translate(577.392 -715.004) rotate(34)">
      <path id="Trazado_120190" data-name="Trazado 120190" d="M1284.952,492.873l-.082,0-.06,0-.06,0-.082,0a.608.608,0,0,1-.378-.1.89.89,0,0,0-.22-.122c-7.422-2.813-13.862-10.522-11.324-18.071a6.855,6.855,0,0,1,6.122-4.655,6.255,6.255,0,0,1,5.239,2.659.883.883,0,0,0,.7.347h.007a.882.882,0,0,0,.7-.359,5.666,5.666,0,0,1,4.556-2.686,5.116,5.116,0,0,1,.573.033,7.034,7.034,0,0,1,6.229,4.661c2.533,7.551-3.907,15.26-11.326,18.071a.892.892,0,0,0-.22.122.609.609,0,0,1-.379.1Z" transform="translate(-1.989 -1.952)" fill="#fff"/>
      <path id="Trazado_120191" data-name="Trazado 120191" d="M1295.724,472.342a7.924,7.924,0,0,0-6.966-5.256c-2.564-.293-4.538,1.106-5.939,3.006a7.165,7.165,0,0,0-5.933-3.006,7.727,7.727,0,0,0-6.966,5.256c-2.83,8.42,4.437,16.369,11.848,19.177a2.128,2.128,0,0,0,2.107,0C1291.285,488.711,1298.548,480.762,1295.724,472.342Zm-12.883,15.495c-4.843-1.839-9.167-6.024-9.685-11.387-.544-5.637,5.6-7.411,7.71-2.054a1.754,1.754,0,0,0,1.678,1.515,2.108,2.108,0,0,0,.285.03,2.082,2.082,0,0,0,.247-.026,1.756,1.756,0,0,0,1.7-1.522c2.175-5.573,7.83-3.428,7.712,2.056C1292.372,481.716,1287.43,486.066,1282.842,487.837Z"/>
    </g>
    <g id="Grupo_86681" data-name="Grupo 86681" transform="translate(2357.432 -1116.191) rotate(-11)">
      <path id="Trazado_119583" data-name="Trazado 119583" d="M-1218.576,1347.377c.037-1.713-.116-3.464-1.135-4.481-.8-.794-2.31-.705-3.315-.688l-2.415.043c.008-.96.046-1.922.053-2.882a1.959,1.959,0,0,0,.626-.367c.79-.709.711-1.68.672-2.659-.028-.691.243-2-.125-2.629-.445-.767-1.436-.821-2.229-.889-3.945-.23-7.936.068-11.878.23-.995.042-2.192.026-2.861.9a3.394,3.394,0,0,0-.382,2.492,5.54,5.54,0,0,0,.43,2.553,1.758,1.758,0,0,0,.947.655c.011.954.04,1.907.048,2.86l-4.642.083a.665.665,0,0,0-.2.037,27.1,27.1,0,0,0-3.4-.4c.217-4.571.294-9.161.293-13.737,0-2.14.183-4.608-.96-6.5-1.114-1.848-4.189-1.277-5.949-1.277-4.864,0-9.958-.516-14.7.676-1.557.391-3.962.658-4.182,2.645a109.775,109.775,0,0,0-.167,11.148,6.925,6.925,0,0,0-2.972,2.467c-.985,1.5-.661,3.743-.548,5.518l-4.07.075c.109-1.053.163-2.287-1.036-2.71a11.043,11.043,0,0,0-3.8-.312,14.141,14.141,0,0,0-4.037.451c-1.161.372-.969,1.742-.987,2.755l-.875.016a.674.674,0,0,0,.023-.168c0-1.106.054-2.211.06-3.317a2.08,2.08,0,0,0,.685-.4c.838-.753.75-1.784.707-2.822-.03-.73.261-2.129-.127-2.8-.468-.807-1.52-.858-2.353-.932-4.234-.249-8.518.073-12.749.248-1.047.044-2.326.021-3.031.942a3.609,3.609,0,0,0-.4,2.651,5.909,5.909,0,0,0,.455,2.718,1.858,1.858,0,0,0,1.022.694c.012,1.106.051,2.211.055,3.317-1.05.059-2.089.153-3.1.31-4.364.675-3.628,4.95-3.575,8.442-2.472.775-4.05,2.776-3.924,6.019a5.427,5.427,0,0,0,3.959,5.038c.02,7.849.028,15.7.081,23.549.031,4.669,1.045,8.365,6.22,8.577a162.311,162.311,0,0,0,16.772-.463c9.616-.605,19.219-1.455,28.815-2.316a.768.768,0,0,0,.084-.016,31.6,31.6,0,0,0,19.332,1.343.621.621,0,0,0,.229-.107,21.259,21.259,0,0,0,9.1-3.974.614.614,0,0,0,.2.014c3.9-.383,7.878-.578,11.748-1.2,2.335-.377,2.922-2.292,3.178-4.388a85.9,85.9,0,0,0,.17-10.021q.022-6.294.035-12.589c0-1.159,0-2.319,0-3.478a5.825,5.825,0,0,0,3.551-4.912A5.7,5.7,0,0,0-1218.576,1347.377Z" fill="#fff"/>
      <g id="Grupo_86680" data-name="Grupo 86680" transform="translate(-1318.642 1320.609)">
        <path id="Trazado_119584" data-name="Trazado 119584" d="M-582.8,1755.156c-1.223-5.623-6.156-9.016-11.847-7.088a8.8,8.8,0,0,0-5.129,4.777.609.609,0,0,0-.142.312,13.576,13.576,0,0,0-.654,8.519,8.7,8.7,0,0,0,11.488,5.742c4.8-1.865,6.965-7.251,6.3-12.118A.688.688,0,0,0-582.8,1755.156Zm-14.728,2.683c.153,1.8.638,3.6,2.611,3.995a.067.067,0,0,1,.023.014h0a.079.079,0,0,1,.027.033l0,.008a.091.091,0,0,1,0,.025.071.071,0,0,1,0,.023.069.069,0,0,1-.023.04c-1.913,1.684-4.056-1.213-4.314-2.987-.29-1.986.051-5.349,2.012-6.494a.06.06,0,0,1,.062,0l.006,0a.067.067,0,0,1,.028.048s0,0,0,.006c-.01.77-.323,1.582-.409,2.358A15.152,15.152,0,0,0-597.528,1757.839Zm9.287,7.73c-3.763,2.608-8.6.842-10.614-2.945,2.828,1.987,7.511.552,8.761-3.487a6.819,6.819,0,0,0-1.927-7.336,5.136,5.136,0,0,0-4.783-.839,8.946,8.946,0,0,1,1.558-1.25,7.857,7.857,0,0,1,7.282-.142c2.387,1.1,3.44,3.5,3.964,5.916A10.284,10.284,0,0,1-588.242,1765.569Z" transform="translate(667.951 -1707.681)"/>
        <path id="Trazado_119585" data-name="Trazado 119585" d="M-677.109,1708.4c5.429,3.247,12.3,1.35,16.443-3.029a.734.734,0,0,0,.07-.09,15.4,15.4,0,0,0,5.274-14.506,15.2,15.2,0,0,0-2.049-5.186.673.673,0,0,0-.057-.172c-2.482-4.995-7.379-8.563-13.112-7.772-7.419,1.024-12.812,7.083-13.9,14.343C-685.4,1698.319-682.655,1705.088-677.109,1708.4Zm14.059-2.881c-5.8,3.547-13.2.148-15.3-6.04-2.18-6.415.793-14.595,7.288-17.125a11.448,11.448,0,0,1,9.032.553c3.253,1.579,4.793,4.829,5.51,8.2A14.151,14.151,0,0,1-663.05,1705.524Zm-20.255-12.566a15.52,15.52,0,0,1,11.4-13.824,10.707,10.707,0,0,1,9.973,2.414,12.948,12.948,0,0,0-9.464-.39c-7.483,2.479-10.131,11.71-8.156,18.656a12.074,12.074,0,0,0,12.129,8.381,11.734,11.734,0,0,1-9.058-.865C-681.6,1704.611-683.622,1698.411-683.306,1692.959Z" transform="translate(743.801 -1644.228)"/>
        <path id="Trazado_119586" data-name="Trazado 119586" d="M-716.842,1356.705c3.05,0,6.12-.139,9.167.042a.628.628,0,0,0,.622-.622c.119-2.033.138-4.077.123-6.113-.008-1.037-.019-1.673-1.164-1.837a48.684,48.684,0,0,0-8.582-.056.622.622,0,0,0-.326.1l-.016.01c-.01.007-.02.013-.029.021a.567.567,0,0,0-.251.488c-.014,2.448-.118,4.9-.166,7.342A.627.627,0,0,0-716.842,1356.705Zm7.282-7.4a10.5,10.5,0,0,1,1.372.115c.013.312.013.624.015.935.013,1.705-.01,3.417-.094,5.121-.231-.011-.462-.022-.693-.03.03-1.286.048-2.573.037-3.859,0-.455.139-1.236-.415-1.432a9.649,9.649,0,0,0-2.96-.256c-1.258-.023-2.516,0-3.774.03q0-.293.008-.584C-713.9,1349.271-711.725,1349.229-709.56,1349.3Z" transform="translate(773.57 -1345.399)"/>
        <path id="Trazado_119587" data-name="Trazado 119587" d="M-1218.576,1347.377c.037-1.713-.116-3.464-1.135-4.481-.8-.794-2.31-.705-3.315-.688l-2.415.043c.008-.96.046-1.922.053-2.882a1.959,1.959,0,0,0,.626-.367c.79-.709.711-1.68.672-2.659-.028-.691.243-2-.125-2.629-.445-.767-1.436-.821-2.229-.889-3.945-.23-7.936.068-11.878.23-.995.042-2.192.026-2.861.9a3.394,3.394,0,0,0-.382,2.492,5.54,5.54,0,0,0,.43,2.553,1.758,1.758,0,0,0,.947.655c.011.954.04,1.907.048,2.86l-4.642.083a.665.665,0,0,0-.2.037,27.1,27.1,0,0,0-3.4-.4c.217-4.571.294-9.161.293-13.737,0-2.14.183-4.608-.96-6.5-1.114-1.848-4.189-1.277-5.949-1.277-4.864,0-9.958-.516-14.7.676-1.557.391-3.962.658-4.182,2.645a109.775,109.775,0,0,0-.167,11.148,6.925,6.925,0,0,0-2.972,2.467c-.985,1.5-.661,3.743-.548,5.518l-4.07.075c.109-1.053.163-2.287-1.036-2.71a11.043,11.043,0,0,0-3.8-.312,14.141,14.141,0,0,0-4.037.451c-1.161.372-.969,1.742-.987,2.755l-.875.016a.674.674,0,0,0,.023-.168c0-1.106.054-2.211.06-3.317a2.08,2.08,0,0,0,.685-.4c.838-.753.75-1.784.707-2.822-.03-.73.261-2.129-.127-2.8-.468-.807-1.52-.858-2.353-.932-4.234-.249-8.518.073-12.749.248-1.047.044-2.326.021-3.031.942a3.608,3.608,0,0,0-.4,2.651,5.907,5.907,0,0,0,.455,2.718,1.858,1.858,0,0,0,1.022.694c.012,1.106.051,2.211.055,3.317-1.05.059-2.089.153-3.1.31-4.364.675-3.628,4.95-3.575,8.442-2.472.775-4.05,2.776-3.924,6.019a5.427,5.427,0,0,0,3.959,5.038c.02,7.849.028,15.7.081,23.549.031,4.669,1.045,8.365,6.22,8.577a162.311,162.311,0,0,0,16.772-.463c9.616-.605,19.219-1.455,28.815-2.316a.768.768,0,0,0,.084-.016,31.6,31.6,0,0,0,19.332,1.343.621.621,0,0,0,.229-.107,21.259,21.259,0,0,0,9.1-3.974.614.614,0,0,0,.2.014c3.9-.383,7.878-.578,11.748-1.2,2.335-.377,2.922-2.292,3.178-4.388a85.9,85.9,0,0,0,.17-10.021q.022-6.294.035-12.589c0-1.159,0-2.319,0-3.478a5.825,5.825,0,0,0,3.551-4.912A5.7,5.7,0,0,0-1218.576,1347.377Zm-14.756,40.417a8.594,8.594,0,0,0-.6-1.148,26.12,26.12,0,0,0,4.725-5.583c3.086-4.867,3.38-10.836,2.531-16.378a19.907,19.907,0,0,0-7.375-12.59c-3.749-2.98-8.24-3.563-12.91-2.789a18.317,18.317,0,0,0-4.429,1.32c-.373-.655-.523-1.45-.938-2.077a23.317,23.317,0,0,1,4.014-1.288c10.846-2.417,20.117,5.273,22.364,15.65C-1223.948,1372.176-1226.534,1381.874-1233.332,1387.794Zm-28.584-11.336c-2.628-11.262,3.534-23.413,15.282-25.953,9.675-2.092,17.135,5.531,18.754,14.51,1.854,10.279-3.2,21.114-13.526,24.464C-1250.993,1392.591-1259.5,1385.379-1261.916,1376.459Zm37.75-3.663c.908-7.6-1.206-15.651-6.317-21.161a.69.69,0,0,0-.074-.124,23.288,23.288,0,0,0-3.559-3.806c4.756-.147,9.549-.209,14.282-.65.062,1.8-.116,3.764-.115,4.475q.009,5.135,0,10.27-.017,9.354-.057,18.708c0,.454.018.978.03,1.531-.81,1.576-3.1,1.658-4.644,1.816q-1.958.2-3.917.389A25.658,25.658,0,0,0-1224.167,1372.8Zm-1.158-38.335c-.009.5-.062.978-.029,1.486.037.568.251,1.555-.14,2.043-.349.435-1.214.372-1.7.391l-.061,0a36.74,36.74,0,0,1,.25-4.338c.187.009.374.013.56.024C-1226.136,1334.1-1225.318,1334.043-1225.325,1334.461Zm-2.424-.447a43.625,43.625,0,0,0-.243,4.4q-.995.045-1.991.1c-.035-1.507-.056-3.014-.036-4.522C-1229.261,1333.986-1228.5,1333.991-1227.749,1334.014Zm-10.347,4.66a6.6,6.6,0,0,0,.147-2.026c0-.8.1-1.578.035-2.366q.96-.042,1.924-.088c0,.734-.059,1.466-.041,2.2a12.558,12.558,0,0,1,.005,2.317Q-1237.061,1338.713-1238.1,1338.674Zm2.83-1.959c-.055-.854.021-1.7.022-2.557q1.054-.05,2.11-.092c-.01.776-.031,1.552-.035,2.328a10.071,10.071,0,0,1-.028,2.262q-1.041.037-2.082.05A10.159,10.159,0,0,0-1235.266,1336.715Zm2.85-.043c-.047-.874.006-1.757.026-2.634q.812-.027,1.624-.04c-.02,1.518,0,3.035.037,4.552q-.856.042-1.713.078A8.849,8.849,0,0,0-1232.416,1336.672Zm-7.9-1.763c.153-.591,1.054-.6,1.66-.605a21.319,21.319,0,0,1-.044,2.344,5.393,5.393,0,0,1-.178,1.995c-.517-.025-1.191-.094-1.32-.555a10.433,10.433,0,0,1-.128-1.641A4.34,4.34,0,0,1-1240.312,1334.909Zm1.372,4.964.436.032c3.762.177,7.551-.126,11.31-.28.179-.007.367-.014.557-.026-.011.891-.042,1.783-.049,2.674l-1.647.029-10.564.19C-1238.9,1341.62-1238.927,1340.747-1238.94,1339.874Zm7.862,3.723c3.171-.057,6.909-.651,10.034-.011.654.134.974,1.055,1.119,2.233-5.212.48-10.5.5-15.723.693a22.445,22.445,0,0,0-5.188-2.74Zm-32.227-21.608q3.842-.017,7.685-.023,1.453,0,2.906,0c2.123.007,3.009.8,3.269,2.914a48.9,48.9,0,0,1,.1,6.438c-.04,3.625-.1,7.257-.275,10.878a32.208,32.208,0,0,0-6.606.629.63.63,0,0,0-.251-.045q-4.583.083-9.167.17c0-3.545.013-7.091,0-10.636-.014-3.309.406-7.076-.242-10.355C-1265.026,1321.936-1264.148,1321.992-1263.305,1321.988Zm-8.2,1.208c1.293-.435,2.64-.734,3.967-1.044.137-.032.277-.056.416-.079,0,.017,0,.034.006.052.7,3.353.214,7.312.228,10.716.014,3.378,0,6.756,0,10.133l-1.268.024c0-3,.627-9.141-4.087-8.364-.184.031-.368.074-.55.12q.045-4.2.076-8.407C-1272.71,1325.105-1272.94,1323.678-1271.507,1323.2Zm.692,19.852c-.077-1.747.057-3.491-.131-5.238a6.375,6.375,0,0,0-.433-1.933,1.95,1.95,0,0,1,1.743,1.86c.192,1.749.2,3.526.231,5.284Zm-5.462-3.923c.3-1.518,1.922-2.5,3.248-3.02a3.792,3.792,0,0,1,.8-.214c.63.754.6,2.391.642,3.192.073,1.326-.016,2.653.035,3.979l-4.765.089A16.456,16.456,0,0,1-1276.276,1339.125Zm-13.479,2.631a14.206,14.206,0,0,1,2.893-.275c.833-.031,1.667-.021,2.5.016,1.252.057,1.523.713,1.468,1.775l-7.37.137C-1290.284,1342.73-1290.485,1341.939-1289.755,1341.756Zm-2.38-7.03c-.009.54-.066,1.051-.031,1.6.04.629.269,1.686-.164,2.225-.383.478-1.321.412-1.856.433l-.07,0c.061-.857.055-1.718.147-2.573a14.325,14.325,0,0,0,.163-2.174c.188.009.377.013.565.024C-1293.03,1334.291-1292.126,1334.237-1292.134,1334.726Zm-2.554-.522a13.911,13.911,0,0,1-.2,2.522c-.082.761-.068,1.527-.118,2.289q-.987.045-1.976.1c.136-1.642.144-3.292.143-4.94Q-1295.762,1334.17-1294.688,1334.2Zm-11.637,5.075h0a22.036,22.036,0,0,0,.057-4.769c.048,0,.1,0,.142,0l1.05-.047a14.5,14.5,0,0,1,.2,4.865C-1305.362,1339.317-1305.844,1339.3-1306.325,1339.28Zm1.986-4.852,1.89-.089c-.011.915-.039,1.827-.082,2.742a8.925,8.925,0,0,1-.113,2.246q-.735.011-1.47.006A15.708,15.708,0,0,0-1304.339,1334.427Zm2.536,3.417c.033-1.182.082-2.36.1-3.541q.9-.04,1.793-.072a26.36,26.36,0,0,0-.169,2.7,17.007,17.007,0,0,1,.017,2.322q-.912.037-1.825.059A9.372,9.372,0,0,0-1301.8,1337.845Zm2.481-.313a19.007,19.007,0,0,1,.164-3.322q.786-.023,1.572-.032c0,1.658-.007,3.318-.146,4.97q-.787.039-1.573.074A12.131,12.131,0,0,0-1299.321,1337.532Zm-9-.674a4.678,4.678,0,0,1,.011-1.662c.128-.494.711-.629,1.276-.667a19.177,19.177,0,0,1-.04,4.706c-.49-.051-.991-.182-1.109-.6A11.247,11.247,0,0,1-1308.32,1336.857Zm1.481,3.629c.179.014.354.026.514.037,4.038.192,8.105-.134,12.14-.3.206-.008.423-.016.644-.03-.011,1.029-.052,2.057-.056,3.086a.648.648,0,0,0,.029.191l-4.281.079c-2.9.054-5.95-.1-8.939-.013C-1306.793,1342.52-1306.825,1341.5-1306.839,1340.487Zm-5.955,5.3c1.131-1.274,4.242-.794,5.815-.822q6.678-.121,13.355-.247,16.373-.307,32.745-.607a24.862,24.862,0,0,0-6.2,3.415.653.653,0,0,0-.1-.007c-15.463.411-30.945.95-46.412.617A4.031,4.031,0,0,1-1312.794,1345.785Zm38.319,10.283c-.008,0-.014,0-.023,0-1.477.324-3.134-.335-4.547.3a3.855,3.855,0,0,0-2.135,2.353,33.077,33.077,0,0,0-1.456,10.781c.006,3.065.007,7.16,1.351,10.011,1.381,2.929,3.8,2.091,6.4,2.226q.259.476.536.941a27.734,27.734,0,0,1-6-.152c-1.608-.245-1.976-2.64-2.34-3.924a45.444,45.444,0,0,1-1.323-7.58,30.815,30.815,0,0,1,1.316-11.18c.451-1.69,1.174-3.57,2.987-4.139a18.685,18.685,0,0,1,5.648-.353C-1274.2,1355.586-1274.341,1355.826-1274.475,1356.068Zm-.431.8a27.854,27.854,0,0,0-3.081,12.467,25.656,25.656,0,0,0,2.716,11.664c-.767.028-1.538.15-2.311.128-2.144-.061-2.959-1.382-3.455-3.267a36.523,36.523,0,0,1-.853-9.049,38.255,38.255,0,0,1,1.052-8.62c.389-1.7,1.08-3.107,3.012-3.335C-1276.844,1356.744-1275.884,1356.946-1274.907,1356.872Zm1.623-2.765c-3.649.052-7.769-.6-9.754,3.086-2.108,3.914-2.526,9.521-2.218,13.828a38.939,38.939,0,0,0,1.368,7.911c.448,1.552.859,3.224,2.081,4.36.731.679,2.318.59,3.222.641a36.4,36.4,0,0,0,4.989-.072,24.685,24.685,0,0,0,3.4,4.023c-8.695.657-17.4,1.253-26.109,1.628-3.521.152-7.057.309-10.58.151-.02-6.793-.147-13.588-.239-20.38q-.092-6.8-.215-13.608c-.039-2.024.092-4.175-.147-6.209,12.942.1,25.891-.314,38.828-.664A27.089,27.089,0,0,0-1273.284,1354.106Zm-38.28,8.506c-2.9.072-5.449-1.124-5.827-4.256a5.136,5.136,0,0,1,1.283-4.029c1.111-1.249,3.116-1.188,4.627-1.1.8.048.8-1.2,0-1.244a9.974,9.974,0,0,0-2,.078c-.039-.776-.13-1.731-.146-2.689.011,0,.02,0,.031,0,1.623.035,3.246.055,4.869.072.251,1.894.118,4.559.157,6.616q.132,6.863.214,13.725c.089,6.6.212,13.2.232,19.8a12.232,12.232,0,0,1-5.117-1.306.708.708,0,0,0-.13-.056c-.012-.856.018-1.668.014-2.32-.046-7.4-.055-14.8-.073-22.2a9.313,9.313,0,0,0,1.867.141A.622.622,0,0,0-1311.564,1362.612Zm6.568,31.632c-2.048.012-4.474.4-6.349-.612-1.332-.722-1.8-2.322-1.957-3.99,4.356,2.089,10.053,1.364,14.651,1.2,9.93-.344,19.849-1.061,29.755-1.817a23.988,23.988,0,0,0,3.98,2.659C-1278.245,1392.9-1291.607,1394.17-1305,1394.245Zm28.382-22.481a25.813,25.813,0,0,1,16.566-26.64c7.394-2.644,15.654-2.42,22.157,1.4-4.609-1.716-10.467-1.135-14.824.778a26.15,26.15,0,0,0-12.992,12.479,26.621,26.621,0,0,0-1.561,17.729c2.215,8.07,8.091,14.358,15.8,16.2a31.566,31.566,0,0,1-10.586-2.072C-1270.484,1388.408-1275.607,1380.569-1276.614,1371.764Zm10.547,5.419c-2.763-11.441,2.6-23.5,13.033-28.33a9.751,9.751,0,0,1,1,2.079c-9.113,4.474-13.361,16.085-11.081,25.857,2.669,9.857,11.7,16.816,22.041,13.892a18.189,18.189,0,0,0,6.566-3.545,7.2,7.2,0,0,1,.58,1.166,22.356,22.356,0,0,1-7.184,3.872C-1252.491,1395.878-1263.085,1388.045-1266.067,1377.183Zm43.643,10.414a81.3,81.3,0,0,1-9.963,1.032,24.742,24.742,0,0,0,2.856-3.043c2.274-.221,4.562-.393,6.822-.724a6.408,6.408,0,0,0,2.69-.935C-1220.153,1385.647-1220.672,1387.236-1222.424,1387.6Zm3.715-30.667c0-2.14.006-4.28,0-6.42,0-.531.039-1.153.076-1.813C-1215.355,1350.288-1215.868,1355.144-1218.709,1356.931Z" transform="translate(1318.642 -1320.609)"/>
        <path id="Trazado_119588" data-name="Trazado 119588" d="M-1289.224,1690.6a.638.638,0,0,0-.086-.141,1.864,1.864,0,0,0-2.522-.839,2.122,2.122,0,0,0-.877,2.752,1.953,1.953,0,0,0,2.64,1.052,2.047,2.047,0,0,0,.9-2.664A.677.677,0,0,0-1289.224,1690.6Zm-2.387,1.192a.876.876,0,0,1,.333-1.056c.447-.294.78.1.978.491A.723.723,0,1,1-1291.611,1691.79Z" transform="translate(1295.305 -1654.989)"/>
        <path id="Trazado_119589" data-name="Trazado 119589" d="M-815.778,1634.47c-7.758-5.9-12.5-15.207-10.74-25.034,1.638-9.163,8.441-16.452,16.936-19.792a.064.064,0,0,0-.034-.123c-9.052,2.325-15.888,10.715-17.656,19.708a24.77,24.77,0,0,0,1.332,13.508,23.219,23.219,0,0,0,10.076,11.881C-815.766,1634.675-815.693,1634.535-815.778,1634.47Z" transform="translate(873.504 -1564.421)"/>
        <path id="Trazado_119590" data-name="Trazado 119590" d="M-481.075,1798a13.95,13.95,0,0,1,1.2,3.805,9.115,9.115,0,0,1-.478,3.69,10.616,10.616,0,0,1-1.916,3.4c-.685.837-1.586,1.444-2.312,2.238a.066.066,0,0,0,.064.11c2.346-.61,4-3.469,4.7-5.6.786-2.4.575-5.731-1.216-7.664C-481.053,1797.961-481.083,1797.976-481.075,1798Z" transform="translate(562.442 -1753.419)"/>
        <path id="Trazado_119591" data-name="Trazado 119591" d="M-1074.544,1598.026a132.1,132.1,0,0,0,14,0c4.565-.1,9.087-.239,13.626-.729a.084.084,0,0,0,0-.167c-4.548-.054-9.076.02-13.626.142a137.036,137.036,0,0,0-14,.62A.068.068,0,0,0-1074.544,1598.026Z" transform="translate(1097.385 -1571.305)"/>
        <path id="Trazado_119592" data-name="Trazado 119592" d="M-418.736,1583.469a19.314,19.314,0,0,0,4.1.1,28.213,28.213,0,0,0,4.406-.361c.081-.015.057-.135-.019-.138-1.338-.049-2.675.022-4.012.075-1.472.058-2.988-.025-4.45.16C-418.8,1583.315-418.837,1583.45-418.736,1583.469Z" transform="translate(502.777 -1558.56)"/>
        <path id="Trazado_119593" data-name="Trazado 119593" d="M-1131.047,2027.972a27.858,27.858,0,0,0-5.424.552c-.031.008-.036.061,0,.067a26.943,26.943,0,0,0,5.163-.018c2.745-.129,5.489-.264,8.233-.421,4.72-.268,9.383-.629,14.072-1.191.08-.01.084-.134,0-.128-1.888.146-3.8.08-5.693.186-2.794.156-5.586.331-8.38.487Q-1127.062,2027.731-1131.047,2027.972Z" transform="translate(1153.495 -1960.923)"/>
        <path id="Trazado_119594" data-name="Trazado 119594" d="M-321.716,1969.554c-.847.317-1.664.713-2.531.97s-1.752.369-2.6.652a.051.051,0,0,0,.013.1c1.77.234,4-.155,5.213-1.556C-321.561,1969.652-321.615,1969.517-321.716,1969.554Z" transform="translate(419.441 -1908.984)"/>
        <path id="Trazado_119595" data-name="Trazado 119595" d="M-623.666,1662.919a33.162,33.162,0,0,1,3.955-2.426,15.348,15.348,0,0,1,5.062-1.307c3.708-.3,6.526,1.226,9.251,3.571a.061.061,0,0,0,.095-.073c-1.736-3.122-5.669-4.252-9.03-4.115-3.209.131-7.449,1.559-9.394,4.289C-623.754,1662.895-623.7,1662.942-623.666,1662.919Z" transform="translate(688.589 -1627.018)"/>
        <path id="Trazado_119596" data-name="Trazado 119596" d="M-545.552,1984.755a13.8,13.8,0,0,1-5.211,3.5,18.109,18.109,0,0,1-6.933,1.044.049.049,0,0,0-.013.1c2.211.9,4.967.2,7.094-.6a9.431,9.431,0,0,0,5.176-3.949C-545.4,1984.773-545.5,1984.691-545.552,1984.755Z" transform="translate(628.756 -1922.751)"/>
      </g>
    </g>
  </g>
</svg>
