<svg xmlns="http://www.w3.org/2000/svg" width="67.667" height="55.042" viewBox="0 0 67.667 55.042">
  <g id="Grupo_88079" data-name="Grupo 88079" transform="translate(-1095.085 -127.542)">
    <path id="Trazado_120188" data-name="Trazado 120188" d="M1135.463,184.37a15.862,15.862,0,0,1-12.577-6.283.524.524,0,0,0-.7-.121,13.04,13.04,0,0,1-7.044,1.939,18.668,18.668,0,0,1-9.838-2.964,15.76,15.76,0,0,1-6.461-7.567,14.961,14.961,0,0,1,1.894-13.724,14.228,14.228,0,0,1,11.55-6.319c.369,0,.744.016,1.115.047l.044,0a.524.524,0,0,0,.514-.628,11.8,11.8,0,0,1,2.739-9.88,14.284,14.284,0,0,1,10.67-5.341,11.205,11.205,0,0,1,8.329,3.771.524.524,0,0,0,.383.167h.04a.524.524,0,0,0,.393-.228,15.817,15.817,0,0,1,12.9-6.862,13.922,13.922,0,0,1,11.559,5.975c5.011,6.974,4.753,15.883-.614,21.183a.524.524,0,0,0,.022.766,10.369,10.369,0,0,1,2.931,11.829,10.731,10.731,0,0,1-9.775,7.183,11.042,11.042,0,0,1-4.417-.966.524.524,0,0,0-.669.228,14.837,14.837,0,0,1-5.539,5.883A15.487,15.487,0,0,1,1135.463,184.37Z" transform="translate(-2.341 -2.31)" fill="#fff"/>
    <path id="Trazado_120189" data-name="Trazado 120189" d="M1158.39,155.6c5.646-5.575,5.75-14.792.671-21.861-6.52-9.075-19.493-7.665-25.318.9-9.245-9.923-24.9.719-22.634,11.912-10.6-.888-18.869,10.559-15.094,20.7,3.261,8.759,16.095,13.972,24.116,8.851a16.215,16.215,0,0,0,20.694,4.51,15.356,15.356,0,0,0,5.749-6.091C1158.393,179.663,1167.8,163.873,1158.39,155.6Zm-10.854,16.871c1.731-4.387,1.609-9.323-2.205-12.259-5.9-4.543-15.117-1.5-12.778,6.9,1.655,5.944,9.767,3.165,8.511-2.666-.309-1.434-2.5-.826-2.193.6q.3,4.363-3.455,2.48a4.829,4.829,0,0,1,.122-6.1c1.691-2.021,5.2-1.219,7.146-.284,5.817,2.792,3.31,9.747.771,13.835-5.142,8.28-17.219,6.269-22.085-1.013a1.229,1.229,0,0,0-.222-.247.9.9,0,0,0-1.334-.161c-6.689,5.114-16.141,1.071-20.6-5.119-6.206-8.62,2.731-21.26,12.661-19.514a14.311,14.311,0,0,0,3,4.316c5.485,5.526,15.654,1.069,14.246-6.813-1.183-6.618-10.019-4.949-10.543,1.1-.127,1.462,2.15,1.45,2.275,0,.362-4.181,4.843-3.892,6.074-.5,1.8,4.959-5.3,7.272-8.78,5.743-4.915-2.161-6.084-8.993-3.984-13.4,3.512-7.379,13.875-8.808,18.748-2.237a1.2,1.2,0,0,0,.4.349,1.241,1.241,0,0,0,1.725-.611,13.233,13.233,0,0,1,22.631-1.193c5.272,7.339,3.373,17.846-5.344,21.219-1.353.524-.765,2.724.6,2.194a16.556,16.556,0,0,0,3.719-2.007C1164.723,163.545,1157.054,176.633,1147.536,172.468Z"/>
  </g>
</svg>
