<svg xmlns="http://www.w3.org/2000/svg" width="156.667" height="171.12" viewBox="0 0 156.667 171.12">
  <g id="Grupo_88524" data-name="Grupo 88524" transform="translate(-1053.333 -108.199)">
    <g id="Grupo_88487" data-name="Grupo 88487" transform="translate(3239.801 -9.998)">
      <path id="Trazado_120381" data-name="Trazado 120381" d="M-2125.333,269.706c-1.236-7.9-2.376-16.085-3.481-24-1.229-8.824-2.5-17.949-3.909-26.712a50.021,50.021,0,0,1-.5-6.1c-.258-6.307-.479-11.754-10.405-12.321a64.875,64.875,0,0,0-13.726,1.179c-2.527.4-5.142.812-7.689,1.031-.866.075-1.8.133-2.779.193a65.858,65.858,0,0,0-7.312.73c-3.9.685-6.73,1.947-8.664,3.858-4,3.954-2.567,10.994-1.619,15.652.056.281.112.554.166.82a104.184,104.184,0,0,1,1.417,11.613c.269,3.208.548,6.523,1.076,9.793l.293,1.8c.979,6.049,1.907,11.762,2.746,17.736.722,5.15,1.818,10.755,2.878,16.057,1.088,5.437,5.14,8.527,10.843,8.263,1.377-.065,2.8-.115,4.177-.165a117.2,117.2,0,0,0,15.867-1.3c.529-.093,1.056-.195,1.562-.3a44.444,44.444,0,0,1,4.749-.6c1.6-.147,3.248-.3,4.849-.579a18.617,18.617,0,0,0,4.013-1.12,10.341,10.341,0,0,0,2.907-1.794C-2124.075,280.064-2124.571,274.581-2125.333,269.706Z" transform="translate(0 0)" fill="#fff"/>
      <g id="Grupo_88486" data-name="Grupo 88486" transform="translate(-2186.468 200.52)">
        <g id="Grupo_88485" data-name="Grupo 88485" transform="translate(0 0)">
          <path id="Trazado_120382" data-name="Trazado 120382" d="M-2143.632,200.574c9.927.567,10.147,6.014,10.405,12.322a50.016,50.016,0,0,0,.5,6.1c1.407,8.763,2.68,17.887,3.909,26.712,1.105,7.915,2.245,16.1,3.481,24,.763,4.875,1.259,10.358-2.546,13.741a10.341,10.341,0,0,1-2.907,1.794,18.619,18.619,0,0,1-4.013,1.12c-1.6.282-3.252.432-4.849.579a44.389,44.389,0,0,0-4.749.6c-.506.1-1.033.205-1.562.3a117.2,117.2,0,0,1-15.867,1.3c-1.377.05-2.8.1-4.177.165-5.7.264-9.755-2.826-10.843-8.263-1.06-5.3-2.155-10.907-2.878-16.057-.839-5.974-1.767-11.687-2.746-17.736l-.293-1.8c-.528-3.27-.807-6.585-1.076-9.793a104.184,104.184,0,0,0-1.417-11.613c-.053-.266-.11-.539-.166-.82-.949-4.657-2.381-11.7,1.619-15.652,1.934-1.911,4.769-3.173,8.664-3.858a65.926,65.926,0,0,1,7.313-.73c.983-.061,1.913-.118,2.779-.193,2.546-.219,5.162-.632,7.689-1.031A64.893,64.893,0,0,1-2143.632,200.574Zm8.708,12.391c-.26-6.371-.415-10.218-8.806-10.695a63.583,63.583,0,0,0-13.363,1.16c-2.556.4-5.2.822-7.807,1.045-.888.076-1.828.134-2.822.2a64.4,64.4,0,0,0-7.122.707c-3.544.623-6.084,1.734-7.765,3.394-3.346,3.307-2.076,9.548-1.147,14.1.056.281.113.558.167.824a105.529,105.529,0,0,1,1.444,11.8c.265,3.176.541,6.46,1.059,9.665l.293,1.8c.981,6.057,1.909,11.778,2.75,17.769.717,5.108,1.807,10.684,2.863,15.961.935,4.677,4.166,7.129,9.1,6.9,1.385-.065,2.812-.115,4.194-.166a115.631,115.631,0,0,0,15.635-1.273c.512-.09,1.021-.186,1.512-.289.2-.042.408-.081.617-.117,1.347-.237,2.791-.37,4.321-.51,1.564-.144,3.178-.291,4.711-.561a11.972,11.972,0,0,0,6.085-2.51c3.166-2.813,2.689-7.778,2-12.209-1.237-7.915-2.38-16.106-3.484-24.028-1.229-8.816-2.5-17.932-3.9-26.676A52.239,52.239,0,0,1-2134.924,212.965Z" transform="translate(2186.468 -200.52)"/>
          <path id="Trazado_120383" data-name="Trazado 120383" d="M-2027.058,223.852a.851.851,0,0,1,.181,1.188.844.844,0,0,1-.536.334.836.836,0,0,1-.65-.153l-.131-.1a.851.851,0,0,1-.181-1.186.849.849,0,0,1,1.188-.181Z" transform="translate(2072.887 -217.113)"/>
          <path id="Trazado_120384" data-name="Trazado 120384" d="M-2026.723,235.785a1.1,1.1,0,0,1,.58.857.849.849,0,0,1-.694.928l-.059.008a.85.85,0,0,1-.849-.467.846.846,0,0,1-.128-.986A.848.848,0,0,1-2026.723,235.785Z" transform="translate(2072.482 -225.808)"/>
          <path id="Trazado_120385" data-name="Trazado 120385" d="M-2025.492,246.832a.85.85,0,0,1,.738.948l-.031.242a.85.85,0,0,1-.695.732.847.847,0,0,1-.253.006.847.847,0,0,1-.738-.946l.03-.245A.85.85,0,0,1-2025.492,246.832Z" transform="translate(2071.403 -233.822)"/>
          <path id="Trazado_120386" data-name="Trazado 120386" d="M-2037.117,225.562a.851.851,0,0,1-.648,1.011l-.046.008a.94.94,0,0,1-.766-.187.946.946,0,0,1-.349-.745.851.851,0,0,1,.846-.852.853.853,0,0,1,.568.217A.849.849,0,0,1-2037.117,225.562Z" transform="translate(2080.356 -217.981)"/>
          <path id="Trazado_120387" data-name="Trazado 120387" d="M-2037.288,236.071a.85.85,0,0,1,.942.746l.025.218a.849.849,0,0,1-.7.933l-.05.009a.852.852,0,0,1-.942-.746l-.025-.218A.849.849,0,0,1-2037.288,236.071Z" transform="translate(2079.72 -226.084)"/>
          <path id="Trazado_120388" data-name="Trazado 120388" d="M-2034.67,248.22a1.173,1.173,0,0,1,.108,1.091.846.846,0,0,1-.644.527.849.849,0,0,1-.454-.043.849.849,0,0,1-.537-.886.851.851,0,0,1,.347-.919A.852.852,0,0,1-2034.67,248.22Z" transform="translate(2078.415 -234.556)"/>
          <path id="Trazado_120389" data-name="Trazado 120389" d="M-2094.011,296.822a.2.2,0,0,1,.013.049c0,.008,0,.017,0,.026,0,.032,0,.062.005.094s0,.049,0,.075-.007.058-.013.086-.008.051-.015.076-.019.053-.029.081-.017.048-.028.072-.028.048-.043.072a.467.467,0,0,1-.044.068.6.6,0,0,1-.05.056.623.623,0,0,1-.064.065.466.466,0,0,1-.051.039.8.8,0,0,1-.088.061.131.131,0,0,1-.018.012c-.018.01-.036.015-.054.024s-.04.018-.062.026a.8.8,0,0,1-.14.038h-.01c-1.119.182-2.26.415-3.362.643-.72.146-1.465.3-2.2.439h-.01a.794.794,0,0,1-.162.011c-.019,0-.037,0-.055-.005a.78.78,0,0,1-.1-.012c-.023,0-.041-.012-.064-.019s-.057-.018-.085-.028-.042-.021-.061-.03a.812.812,0,0,1-.077-.043l-.057-.04c-.022-.018-.045-.037-.066-.057a.443.443,0,0,1-.048-.05.712.712,0,0,1-.055-.068c-.014-.019-.029-.04-.041-.06a.615.615,0,0,1-.039-.077.442.442,0,0,1-.03-.07c0-.01-.01-.02-.014-.032a43.135,43.135,0,0,0-2.819-6.6,27.133,27.133,0,0,0-3.664-5.723,6.088,6.088,0,0,0-4.965-2.177,6.535,6.535,0,0,0-4.868,3.05,28.8,28.8,0,0,0-4.272,13.583c0,.006,0,.011,0,.018a.729.729,0,0,1-.014.1c0,.02-.006.042-.011.062s-.021.064-.032.1-.015.039-.022.058-.036.062-.055.092-.018.031-.029.044a.867.867,0,0,1-.093.107.049.049,0,0,0-.01.013.892.892,0,0,1-.276.171l-.052.013a.892.892,0,0,1-.1.029h0l-.008,0a.275.275,0,0,1-.04,0c-1.475.167-2.981.356-4.436.539q-1.471.184-2.957.367h-.018a.821.821,0,0,1-.146,0,.017.017,0,0,0-.01,0,.805.805,0,0,1-.143-.027.242.242,0,0,1-.044-.014l-.043-.012c-.014-.006-.026-.015-.038-.019-.028-.012-.057-.027-.083-.042a.712.712,0,0,1-.066-.042.727.727,0,0,1-.065-.051.455.455,0,0,1-.06-.058.38.38,0,0,1-.054-.061.793.793,0,0,1-.046-.065c-.015-.023-.03-.047-.043-.072l-.032-.074c-.009-.024-.018-.051-.027-.077s-.014-.058-.02-.087-.007-.029-.01-.044v-.032a.657.657,0,0,1,0-.09.78.78,0,0,1,0-.08c0-.027.01-.054.016-.081a.522.522,0,0,1,.024-.086l.007-.034c.227-.6.439-1.217.644-1.818a27.247,27.247,0,0,1,1.51-3.792c1.082-2.083,2.332-4.572,3.4-7.232a63.441,63.441,0,0,0,2.777-8.651c-.051.015-.1.029-.158.047a.933.933,0,0,1-.107.025.849.849,0,0,1-.956-.582.846.846,0,0,1,.557-1.064c.355-.112.721-.213,1.09-.31.344-1.636.621-3.286.812-4.919q.159-1.324.326-2.668c.27-2.177.545-4.413.756-6.636-.262.1-.517.212-.763.328a.825.825,0,0,1-.217.068.848.848,0,0,1-.913-.473.847.847,0,0,1,.4-1.13,15.421,15.421,0,0,1,1.646-.664c.129-1.754.191-3.336.191-4.819,0-2-.086-4.083-.165-6.1-.034-.893-.069-1.792-.1-2.694-.233.035-.469.067-.712.095a.85.85,0,0,1-.943-.744.848.848,0,0,1,.744-.942c.3-.037.584-.077.867-.12q-.02-.87-.023-1.738l-.088.011a.847.847,0,0,1-.94-.747.85.85,0,0,1,.746-.942c.1-.011.2-.028.3-.043a48.462,48.462,0,0,1,.347-5.159.3.3,0,0,1,.011-.049c.005-.031.013-.06.021-.09s.019-.051.028-.076a.724.724,0,0,1,.034-.075c.013-.024.028-.048.043-.072s.029-.042.047-.064.036-.041.056-.062l.059-.056c.021-.017.044-.033.067-.048s.045-.029.066-.042a.7.7,0,0,1,.088-.041.331.331,0,0,1,.044-.021.1.1,0,0,0,.023-.006.684.684,0,0,1,.091-.021.479.479,0,0,1,.075-.013c.027,0,.053,0,.081,0s.061,0,.089,0l.026,0c.017,0,.036.009.054.012a.566.566,0,0,1,.083.018l.083.031c.021.011.044.02.066.031a.862.862,0,0,1,.08.046c.02.014.039.028.059.044s.043.038.064.058a.7.7,0,0,1,.053.058.668.668,0,0,1,.051.069c.014.021.029.044.042.066s.027.056.041.086c0,.014.016.029.021.046.523,1.5.986,3.023,1.409,4.555a13.431,13.431,0,0,1,1.441-.249.849.849,0,0,1,.938.751.848.848,0,0,1-.752.936,10.917,10.917,0,0,0-1.192.206q.174.674.339,1.354c.359-.167.709-.345,1.051-.543a.851.851,0,0,1,1.161.311.848.848,0,0,1-.311,1.161,15.33,15.33,0,0,1-1.5.758c.447,1.954.857,3.906,1.26,5.831.514,2.46,1.05,4.991,1.652,7.472.232-.032.463-.066.692-.1l.62-.09a.851.851,0,0,1,.962.719.845.845,0,0,1-.719.963l-.622.09-.524.075c.249.958.5,1.853.751,2.715a50.072,50.072,0,0,0,4.294,9.945c.44-.2.869-.427,1.283-.672a.848.848,0,0,1,1.164.3.848.848,0,0,1-.3,1.164q-.644.382-1.319.7c1.024,1.805,2.109,3.606,3.166,5.352.754,1.247,1.533,2.537,2.279,3.811.834,1.42,1.7,2.838,2.531,4.207,1.46,2.392,2.969,4.869,4.344,7.421.009.015.012.032.021.048s.025.054.034.083A.632.632,0,0,1-2094.011,296.822Zm-4.393,0c.739-.151,1.494-.306,2.253-.448-.98-1.761-2.018-3.5-3.048-5.187-.228-.376-.458-.751-.685-1.123-.837-1.375-1.7-2.8-2.546-4.232-.087-.149-.175-.3-.264-.449-.658-1.117-1.339-2.243-2-3.338-1.1-1.816-2.229-3.691-3.3-5.579a43.237,43.237,0,0,1-8.113,1.793c-1.593.248-3.122.487-4.574.811a65.09,65.09,0,0,1-3.057,9.768c-1.094,2.727-2.366,5.262-3.468,7.382a25.845,25.845,0,0,0-1.409,3.559c-.063.184-.129.372-.193.56.527-.067,1.059-.13,1.582-.2,1.229-.156,2.491-.313,3.746-.458a30.79,30.79,0,0,1,4.519-13.737,8.217,8.217,0,0,1,6.154-3.8,7.75,7.75,0,0,1,6.348,2.731,17.787,17.787,0,0,1,1.4,1.776,39.589,39.589,0,0,1,2.511,4.3c.2.377.412.8.637,1.259a44.423,44.423,0,0,1,2.056,4.9C-2099.366,297.018-2098.881,296.92-2098.4,296.823Zm-10.424-21.863a52.151,52.151,0,0,1-4.336-10.1c-.276-.932-.542-1.9-.809-2.942a38.455,38.455,0,0,0-4.489.936c-.217,2.493-.523,5-.824,7.437-.111.89-.222,1.779-.326,2.657-.167,1.428-.4,2.87-.679,4.3,1.3-.26,2.623-.468,3.926-.671A43.3,43.3,0,0,0-2108.827,274.96Zm-5.554-14.694c-.484-2.006-.926-4.036-1.345-6.032-.1-.451-.191-.9-.285-1.349-.385-1.844-.775-3.711-1.2-5.578-.4.126-.805.237-1.226.334.031.988.069,1.975.107,2.954.05,1.291.1,2.61.133,3.921.018.751.031,1.5.031,2.238,0,1.343-.049,2.759-.15,4.3C-2117.036,260.727-2115.7,260.476-2114.382,260.266Zm-3.222-14.619q-.19-.788-.391-1.574c-.167.042-.335.083-.5.123q0,.853.016,1.709C-2118.182,245.828-2117.891,245.74-2117.6,245.647Zm-.829-3.217c-.013-.047-.025-.095-.041-.144,0,.051,0,.1,0,.156Z" transform="translate(2146.514 -226.684)"/>
          <path id="Trazado_120390" data-name="Trazado 120390" d="M-2048.47,226.791a.849.849,0,0,1,.942.746l.012.108a.849.849,0,0,1-.7.933.473.473,0,0,1-.053.007.848.848,0,0,1-.939-.747l-.012-.108A.849.849,0,0,1-2048.47,226.791Z" transform="translate(2087.762 -219.41)"/>
          <path id="Trazado_120391" data-name="Trazado 120391" d="M-2047.211,237.616a.852.852,0,0,1,.942.746l.025.218a.85.85,0,0,1-.7.933l-.05.009a.85.85,0,0,1-.942-.746l-.025-.218A.846.846,0,0,1-2047.211,237.616Z" transform="translate(2086.856 -227.195)"/>
          <path id="Trazado_120392" data-name="Trazado 120392" d="M-2045.357,249.948a.849.849,0,0,1,.941.744l.025.218a.85.85,0,0,1-.7.935.433.433,0,0,1-.051.007.85.85,0,0,1-.942-.746l-.025-.215A.846.846,0,0,1-2045.357,249.948Z" transform="translate(2085.522 -236.064)"/>
          <path id="Trazado_120393" data-name="Trazado 120393" d="M-2017.582,440.659a.982.982,0,0,1,.365.781.849.849,0,0,1-.7.846.832.832,0,0,1-.14.012.844.844,0,0,1-.617-.258.84.84,0,0,1-.393-.541.849.849,0,0,1,.641-1.016A.991.991,0,0,1-2017.582,440.659Z" transform="translate(2066.089 -373.079)"/>
          <path id="Trazado_120394" data-name="Trazado 120394" d="M-2024.291,429.615a.849.849,0,0,1-.246,1.175.835.835,0,0,1-.316.124.848.848,0,0,1-.858-.371l-.192-.294a.829.829,0,0,1-.079-.154.849.849,0,0,1,.325-1.02.848.848,0,0,1,1.175.246Z" transform="translate(2071.09 -364.796)"/>
          <path id="Trazado_120395" data-name="Trazado 120395" d="M-2044.452,470.062a.849.849,0,0,1,.913.779.848.848,0,0,1-.7.9c-.027,0-.055.007-.082.01-3.438.272-6.886.691-10.1,1.1a.849.849,0,0,1-.948-.736.852.852,0,0,1,.734-.948C-2051.4,470.758-2047.926,470.337-2044.452,470.062Z" transform="translate(2092.187 -394.371)"/>
          <path id="Trazado_120396" data-name="Trazado 120396" d="M-2030.682,419.728a.975.975,0,0,1,.365.779.848.848,0,0,1-.7.845.775.775,0,0,1-.14.012.836.836,0,0,1-.617-.258.843.843,0,0,1-.393-.543.849.849,0,0,1,.643-1.014A.982.982,0,0,1-2030.682,419.728Z" transform="translate(2075.511 -358.024)"/>
          <path id="Trazado_120397" data-name="Trazado 120397" d="M-2039.278,483.728a.849.849,0,0,1-.538,1.073,18.039,18.039,0,0,1-2.5.6,31.439,31.439,0,0,1-5.557.475.849.849,0,0,1-.833-.865.848.848,0,0,1,.865-.833,27.375,27.375,0,0,0,7.489-.987A.849.849,0,0,1-2039.278,483.728Z" transform="translate(2087.39 -403.783)"/>
          <path id="Trazado_120398" data-name="Trazado 120398" d="M-2036.273,408.57a.847.847,0,0,1,.01.88.85.85,0,0,1-.584.4.841.841,0,0,1-.579-.105,1.247,1.247,0,0,1-.391-.358,1.2,1.2,0,0,1-.213-.575.85.85,0,0,1,.751-.936.85.85,0,0,1,.883.537A.859.859,0,0,1-2036.273,408.57Z" transform="translate(2079.716 -349.648)"/>
          <path id="Trazado_120399" data-name="Trazado 120399" d="M-2044.409,396.588a.852.852,0,0,1-.246,1.177.841.841,0,0,1-.317.125.85.85,0,0,1-.858-.371l-.192-.294a.848.848,0,0,1,.246-1.175.849.849,0,0,1,1.175.246Z" transform="translate(2085.56 -341.044)"/>
          <path id="Trazado_120400" data-name="Trazado 120400" d="M-2052.032,384.974a.847.847,0,0,1,.132,1.031.845.845,0,0,1-.584.407.846.846,0,0,1-.577-.106,1.2,1.2,0,0,1-.605-.932.849.849,0,0,1,.751-.936A.848.848,0,0,1-2052.032,384.974Z" transform="translate(2090.962 -332.789)"/>
          <path id="Trazado_120401" data-name="Trazado 120401" d="M-2077.607,347.55a.831.831,0,0,1,.205.421.849.849,0,0,1-.689.983h0a8.751,8.751,0,0,1-1.174.105l-.13.006a10.878,10.878,0,0,0-1.377.162c-.207.036-.415.077-.625.121l-.025,0a.855.855,0,0,1-.775-.265c-.344-.373-.267-.662.021-1.734.041-.16.1-.375.115-.449a11.319,11.319,0,0,0,.053-1.169c0-.352.008-.715.037-1.08.013-.159.03-.318.048-.476.028-.255.054-.5.06-.728,0-.089.007-.189.014-.3a2.762,2.762,0,0,0,.01-.459.85.85,0,0,1,.45-1.094.85.85,0,0,1,1.116.441l0,0c.113.262.238.521.368.8.218.455.443.924.627,1.424a12.157,12.157,0,0,0,.661,1.516c.153.292.313.564.484.855.1.162.191.324.287.493.031.055.061.11.09.165C-2077.705,347.386-2077.656,347.479-2077.607,347.55Zm-2.061-.17c-.151-.258-.305-.524-.455-.808-.068-.128-.134-.261-.2-.4a9.418,9.418,0,0,1-.062.957,2.431,2.431,0,0,1-.07.325C-2080.18,347.423-2079.921,347.4-2079.668,347.38Z" transform="translate(2111.645 -301.934)"/>
          <path id="Trazado_120402" data-name="Trazado 120402" d="M-2082.979,297.233c0,.017,0,.034.007.051l.019.156a.85.85,0,0,1-.7.935.371.371,0,0,1-.051.007.849.849,0,0,1-.941-.744l-.019-.156c0-.028-.005-.055-.006-.083a.846.846,0,0,1,.752-.859A.852.852,0,0,1-2082.979,297.233Z" transform="translate(2113.252 -269.572)"/>
          <path id="Trazado_120403" data-name="Trazado 120403" d="M-2081.877,309.214a.849.849,0,0,1,.943.744l.036.313a.849.849,0,0,1-.7.933l-.05.009a.853.853,0,0,1-.941-.746l-.035-.311A.848.848,0,0,1-2081.877,309.214Z" transform="translate(2111.786 -278.688)"/>
          <path id="Trazado_120404" data-name="Trazado 120404" d="M-2068.351,488.276a.85.85,0,0,1,.74.945.852.852,0,0,1-.7.735.86.86,0,0,1-.251.005,9.422,9.422,0,0,0-3.013.295.852.852,0,0,1-1.018-.638.85.85,0,0,1,.638-1.018A11.305,11.305,0,0,1-2068.351,488.276Z" transform="translate(2104.583 -407.441)"/>
          <path id="Trazado_120405" data-name="Trazado 120405" d="M-2096.707,475.766a.85.85,0,0,1,.95.734.85.85,0,0,1-.7.946.214.214,0,0,1-.038,0c-3.526.454-7.288.922-11.122,1.216a.849.849,0,0,1-.912-.782.847.847,0,0,1,.782-.911C-2103.948,476.682-2100.21,476.216-2096.707,475.766Z" transform="translate(2130.413 -398.47)"/>
          <path id="Trazado_120406" data-name="Trazado 120406" d="M-2091.752,391.338a.852.852,0,0,1,.3,1.152.856.856,0,0,1-.6,1.031c-.025.006-.05.013-.074.017a.84.84,0,0,1-.963-.609,1.643,1.643,0,0,1,.173-1.3A.85.85,0,0,1-2091.752,391.338Z" transform="translate(2119.355 -337.669)"/>
          <path id="Trazado_120407" data-name="Trazado 120407" d="M-2095.526,402.843a.846.846,0,0,1,.608,1.033,1.35,1.35,0,0,1-.758.914.825.825,0,0,1-.193.058.849.849,0,0,1-.926-.5.851.851,0,0,1,.273-1.022A.853.853,0,0,1-2095.526,402.843Z" transform="translate(2122.025 -346.009)"/>
          <path id="Trazado_120408" data-name="Trazado 120408" d="M-2097.531,490.72a.847.847,0,0,1,.859.838.85.85,0,0,1-.7.848,1.035,1.035,0,0,1-.138.013,14.476,14.476,0,0,0-2.457.32,20.678,20.678,0,0,1-2.146.322.846.846,0,0,1-.915-.777.85.85,0,0,1,.779-.915,19.286,19.286,0,0,0,1.971-.3A16.016,16.016,0,0,1-2097.531,490.72Z" transform="translate(2126.46 -409.229)"/>
          <path id="Trazado_120409" data-name="Trazado 120409" d="M-2099.736,415.181a.85.85,0,0,1-.3.95.855.855,0,0,1-.634.5.9.9,0,0,1-.223.009.849.849,0,0,1-.77-.921,1.235,1.235,0,0,1,.853-1.079A.849.849,0,0,1-2099.736,415.181Z" transform="translate(2125.479 -354.483)"/>
          <path id="Trazado_120410" data-name="Trazado 120410" d="M-2149.964,243.306a4.335,4.335,0,0,1,.014,4,5.054,5.054,0,0,1-1.454,1.756,4.7,4.7,0,0,1-2.032.909,3.9,3.9,0,0,1-2.772-.526,4.221,4.221,0,0,1-1.864-3.636,5.17,5.17,0,0,1,2.034-4.358,4.035,4.035,0,0,1,1.547-.63A4.341,4.341,0,0,1-2149.964,243.306Zm-1.505,3.244a2.651,2.651,0,0,0-.005-2.469,2.661,2.661,0,0,0-2.723-1.586,2.334,2.334,0,0,0-.9.369,3.548,3.548,0,0,0-1.281,2.918,2.568,2.568,0,0,0,1.061,2.221,2.236,2.236,0,0,0,.759.3,2.311,2.311,0,0,0,.823,0A3.278,3.278,0,0,0-2151.469,246.55Z" transform="translate(2166.046 -229.463)"/>
          <path id="Trazado_120411" data-name="Trazado 120411" d="M-2104.163,427.571a.839.839,0,0,1-.1.664.851.851,0,0,1-.494.658.9.9,0,0,1-.2.061.851.851,0,0,1-.923-.491,1.1,1.1,0,0,1-.012-.94,1.043,1.043,0,0,1,.691-.557A.85.85,0,0,1-2104.163,427.571Z" transform="translate(2128.589 -363.358)"/>
          <path id="Trazado_120412" data-name="Trazado 120412" d="M-2110.116,438.973a.85.85,0,0,1,.139,1.193l-.276.346a.842.842,0,0,1-.519.309.846.846,0,0,1-.675-.17.847.847,0,0,1-.136-1.192l.273-.348A.85.85,0,0,1-2110.116,438.973Z" transform="translate(2132.744 -371.882)"/>
          <path id="Trazado_120413" data-name="Trazado 120413" d="M-2114.957,450.035a1.094,1.094,0,0,1,.012.94,1.038,1.038,0,0,1-.689.555c-.025.006-.048.013-.071.017a.852.852,0,0,1-.969-.619.852.852,0,0,1,.1-.667.847.847,0,0,1,.494-.658A.849.849,0,0,1-2114.957,450.035Z" transform="translate(2136.292 -379.606)"/>
        </g>
      </g>
    </g>
    <g id="Grupo_88490" data-name="Grupo 88490" transform="translate(2225.448 -1179.385)">
      <path id="Trazado_120414" data-name="Trazado 120414" d="M-1016.719,1301.848a11.174,11.174,0,0,0-5.961-4.58,41.782,41.782,0,0,0-5.38-1.529c-.376-.089-.748-.176-1.109-.264-2.524-.613-5.1-1.184-7.589-1.735-3.5-.775-7.119-1.576-10.641-2.509-6.659-1.759-14.406-3.568-21.385-3.647-4.63-.052-8.124,2.675-10.381,8.108-1.878,4.519-2.617,10.054-3.211,14.5-.176,1.314-.341,2.556-.515,3.592-.11.644-.249,1.373-.394,2.144a52.727,52.727,0,0,0-1.16,8.985c-.047,3.889.841,6.62,2.716,8.354a13.042,13.042,0,0,0,4.274,2.542,26.924,26.924,0,0,0,2.794.878c.949.248,1.906.461,2.847.672,1.178.264,2.29.512,3.352.817a116.729,116.729,0,0,0,14.928,2.947,48.855,48.855,0,0,1,9.169,2.666c4.265,1.544,8.675,3.142,13.327,2.958,7.351-.29,9.055-5.511,10.274-11.3.911-4.327,1.872-8.7,2.8-12.922q.681-3.1,1.363-6.216C-1015.541,1311.456-1014.6,1305.427-1016.719,1301.848Z" transform="translate(0 0)" fill="#fff"/>
      <g id="Grupo_88489" data-name="Grupo 88489" transform="translate(-1084.448 1287.583)">
        <g id="Grupo_88488" data-name="Grupo 88488" transform="translate(0)">
          <path id="Trazado_120415" data-name="Trazado 120415" d="M-1020.764,1335.444c-1.219,5.791-2.922,11.013-10.274,11.3-4.651.183-9.061-1.415-13.327-2.958a48.849,48.849,0,0,0-9.169-2.666,116.723,116.723,0,0,1-14.928-2.947c-1.062-.3-2.174-.553-3.352-.817-.942-.211-1.9-.424-2.847-.672a26.944,26.944,0,0,1-2.794-.879,13.038,13.038,0,0,1-4.274-2.542c-1.875-1.733-2.764-4.465-2.716-8.354a52.714,52.714,0,0,1,1.16-8.985c.145-.771.284-1.5.394-2.144.173-1.036.339-2.278.515-3.592.594-4.447,1.333-9.981,3.211-14.5,2.258-5.432,5.752-8.159,10.381-8.108,6.979.079,14.727,1.888,21.385,3.647,3.521.932,7.141,1.733,10.641,2.509,2.49.551,5.066,1.122,7.589,1.735.362.088.733.175,1.109.264a41.8,41.8,0,0,1,5.38,1.529,11.175,11.175,0,0,1,5.961,4.58c2.12,3.579,1.179,9.608.121,14.458q-.679,3.118-1.363,6.216C-1018.892,1326.748-1019.854,1331.118-1020.764,1335.444Zm-10.322,10.083c6.5-.255,7.929-4.634,9.129-10.335.912-4.331,1.875-8.7,2.806-12.933q.681-3.1,1.362-6.213c.65-2.978,2.169-9.951.023-13.577a9.9,9.9,0,0,0-5.349-4.063,40.753,40.753,0,0,0-5.224-1.48c-.379-.09-.752-.177-1.117-.265-2.512-.61-5.081-1.18-7.565-1.731-3.512-.778-7.143-1.582-10.689-2.519-6.586-1.741-14.242-3.531-21.087-3.608-9.478-.106-11.218,12.927-12.37,21.55-.177,1.325-.343,2.576-.521,3.634-.111.656-.251,1.391-.4,2.17a51.986,51.986,0,0,0-1.139,8.772c-.042,3.523.718,5.957,2.324,7.442a10.048,10.048,0,0,0,1.719,1.268,14.144,14.144,0,0,0,2.166,1.031,39.469,39.469,0,0,0,5.47,1.5c1.143.255,2.326.519,3.424.834a113.728,113.728,0,0,0,14.773,2.912,49.914,49.914,0,0,1,9.4,2.726C-1039.794,1344.146-1035.5,1345.7-1031.087,1345.528Z" transform="translate(1084.448 -1287.583)"/>
          <path id="Trazado_120416" data-name="Trazado 120416" d="M-811.164,1510.033a.611.611,0,0,1-.746.436,13.363,13.363,0,0,0-1.621-.287,15.147,15.147,0,0,1-1.7-.3.635.635,0,0,1-.071-.024.609.609,0,0,1-.372-.717.61.61,0,0,1,.74-.443,14,14,0,0,0,1.563.271,14.838,14.838,0,0,1,1.765.316A.61.61,0,0,1-811.164,1510.033Z" transform="translate(869.9 -1464.085)"/>
          <path id="Trazado_120417" data-name="Trazado 120417" d="M-817.588,1532.813a.608.608,0,0,1-.647.568,9.462,9.462,0,0,0-1.268,0,.623.623,0,0,1-.263-.039.611.611,0,0,1-.389-.526.609.609,0,0,1,.564-.653,10.732,10.732,0,0,1,1.436,0A.611.611,0,0,1-817.588,1532.813Z" transform="translate(873.468 -1482.81)"/>
          <path id="Trazado_120418" data-name="Trazado 120418" d="M-783.014,1423.109a.611.611,0,0,1-.727.465.621.621,0,0,1-.088-.027.61.61,0,0,1-.376-.7l.023-.1a.61.61,0,0,1,.727-.464.61.61,0,0,1,.464.727Z" transform="translate(844.779 -1395.097)"/>
          <path id="Trazado_120419" data-name="Trazado 120419" d="M-857,1525.631a.611.611,0,0,1,.206.838.611.611,0,0,1-.839.206,10.108,10.108,0,0,0-3.432-.94c-.532-.085-1.034-.165-1.5-.269a.618.618,0,0,1-.088-.026.611.611,0,0,1-.376-.7.611.611,0,0,1,.727-.464c.435.1.919.175,1.433.257A11.078,11.078,0,0,1-857,1525.631Z" transform="translate(907.706 -1476.52)"/>
          <path id="Trazado_120420" data-name="Trazado 120420" d="M-833.952,1506.61a.608.608,0,0,1-.726.463l-.715-.158a.63.63,0,0,1-.088-.026.61.61,0,0,1-.376-.7.61.61,0,0,1,.727-.465l.717.159A.607.607,0,0,1-833.952,1506.61Z" transform="translate(886.013 -1461.71)"/>
          <path id="Trazado_120421" data-name="Trazado 120421" d="M-792.706,1389.313a.611.611,0,0,1-.728.464.614.614,0,0,1-.086-.026.608.608,0,0,1-.376-.7l.021-.1a.611.611,0,0,1,.728-.464.611.611,0,0,1,.464.727Z" transform="translate(852.516 -1368.118)"/>
          <path id="Trazado_120422" data-name="Trazado 120422" d="M-788.294,1369.366a.609.609,0,0,1-.727.465.623.623,0,0,1-.088-.026.611.611,0,0,1-.376-.7l.023-.1a.608.608,0,0,1,.726-.463.61.61,0,0,1,.464.727Z" transform="translate(848.995 -1352.196)"/>
          <path id="Trazado_120423" data-name="Trazado 120423" d="M-871.027,1498.708a.61.61,0,0,1,.227.832.609.609,0,0,1-.832.227,6.933,6.933,0,0,0-2.107-.609c-.278-.051-.567-.1-.842-.164a.6.6,0,0,1-.086-.026.61.61,0,0,1-.376-.7.61.61,0,0,1,.729-.462c.251.057.515.1.793.155A7.734,7.734,0,0,1-871.027,1498.708Z" transform="translate(917.295 -1455.387)"/>
          <path id="Trazado_120424" data-name="Trazado 120424" d="M-820.584,1358.278a.609.609,0,0,1-.444.74.608.608,0,0,1-.366-.021.612.612,0,0,1-.374-.423l-.058-.228a.611.611,0,0,1,.444-.741.61.61,0,0,1,.74.444Z" transform="translate(874.814 -1343.466)"/>
          <path id="Trazado_120425" data-name="Trazado 120425" d="M-900.3,1515.906a.609.609,0,0,1-.727.464c-.191-.042-.389-.079-.589-.116a8.759,8.759,0,0,1-1.556-.389,3.79,3.79,0,0,1-.58-.278.61.61,0,0,1-.213-.836.611.611,0,0,1,.836-.213,5.484,5.484,0,0,0,1.737.518c.206.038.419.079.627.124A.61.61,0,0,1-900.3,1515.906Z" transform="translate(940.437 -1468.689)"/>
          <path id="Trazado_120426" data-name="Trazado 120426" d="M-869.971,1354.784a3.209,3.209,0,0,1-.563,2.99,3.8,3.8,0,0,1-3.256,1.314,4.723,4.723,0,0,1-1.347-.3,5.076,5.076,0,0,1-1.315-.753.611.611,0,0,1-.165-.762.612.612,0,0,1,.72-.3,2.167,2.167,0,0,0,2.505-.805,1.851,1.851,0,0,0-.263-2.3,4.344,4.344,0,0,0-.925-.475,2.1,2.1,0,0,0-.386-.117.609.609,0,0,1-.688-.277.609.609,0,0,1,.212-.835,0,0,0,0,1,0,0,3.2,3.2,0,0,1,2.828-.178A4.456,4.456,0,0,1-869.971,1354.784Zm-1.51,2.221a1.985,1.985,0,0,0,.337-1.885,3.206,3.206,0,0,0-1.311-1.683,2.988,2.988,0,0,1,.086,3.394,3.169,3.169,0,0,1-1.123,1.049A2.547,2.547,0,0,0-871.48,1357.005Z" transform="translate(918.594 -1338.802)"/>
          <path id="Trazado_120427" data-name="Trazado 120427" d="M-874.488,1400.089l-.023.1a.61.61,0,0,1-.728.464.615.615,0,0,1-.086-.026.608.608,0,0,1-.377-.7l.022-.1a.612.612,0,0,1,.728-.464A.61.61,0,0,1-874.488,1400.089Z" transform="translate(917.82 -1376.802)"/>
          <path id="Trazado_120428" data-name="Trazado 120428" d="M-981.741,1500.465a.611.611,0,0,1-.728.464c-.35-.079-.717-.18-1.1-.289a7.654,7.654,0,0,0-2.72-.445.619.619,0,0,1-.3-.035.612.612,0,0,1-.387-.487.61.61,0,0,1,.521-.687,8.416,8.416,0,0,1,3.215.478c.371.1.721.2,1.039.272A.611.611,0,0,1-981.741,1500.465Z" transform="translate(1006.646 -1456.317)"/>
          <path id="Trazado_120429" data-name="Trazado 120429" d="M-917.344,1353.706a.611.611,0,0,1-.728.464.612.612,0,0,1-.086-.026.611.611,0,0,1-.378-.7l.023-.1a.611.611,0,0,1,.728-.464.607.607,0,0,1,.463.726Z" transform="translate(952.014 -1339.694)"/>
          <path id="Trazado_120430" data-name="Trazado 120430" d="M-947.837,1367.884a.612.612,0,0,1-.728.464.582.582,0,0,1-.086-.027.608.608,0,0,1-.376-.7l.022-.1a.611.611,0,0,1,.728-.464.61.61,0,0,1,.464.727Z" transform="translate(976.355 -1351.011)"/>
          <path id="Trazado_120431" data-name="Trazado 120431" d="M-999.007,1472.627a.608.608,0,0,1,.313.8.609.609,0,0,1-.8.314,7.446,7.446,0,0,0-1.822-.542.708.708,0,0,1-.124-.035.61.61,0,0,1-.384-.665.612.612,0,0,1,.7-.506A8.7,8.7,0,0,1-999.007,1472.627Z" transform="translate(1018.499 -1434.792)"/>
          <path id="Trazado_120432" data-name="Trazado 120432" d="M-1023.158,1489.244a.61.61,0,0,1-.77.389,10.211,10.211,0,0,0-1.854-.348c-.463-.058-.941-.119-1.409-.22a.652.652,0,0,1-.09-.026.609.609,0,0,1-.377-.7.608.608,0,0,1,.724-.467c.415.089.847.143,1.3.2a11.213,11.213,0,0,1,2.08.4A.612.612,0,0,1-1023.158,1489.244Z" transform="translate(1039.124 -1447.461)"/>
          <path id="Trazado_120433" data-name="Trazado 120433" d="M-956.908,1333.282a.611.611,0,0,1-.728.464.6.6,0,0,1-.088-.026.612.612,0,0,1-.376-.7l.046-.206a.61.61,0,0,1,.727-.464.611.611,0,0,1,.464.727Z" transform="translate(983.598 -1323.307)"/>
          <path id="Trazado_120434" data-name="Trazado 120434" d="M-1030.66,1325.692a2.413,2.413,0,0,1-1.089,1.708,1.723,1.723,0,0,1-1.348.045,2.168,2.168,0,0,1-1.309-1.685,12.57,12.57,0,0,1-.109-2.531,10.373,10.373,0,0,1-1.608,1.932,2.889,2.889,0,0,1-2.829.691h0c-.034-.013-.07-.027-.1-.043a1.619,1.619,0,0,1-.89-.985,1.7,1.7,0,0,0-.059.162c-.175.585.372,1.25.616,1.508a2.586,2.586,0,0,0,1.937.721c.22.006.456,0,.706-.01a5.784,5.784,0,0,1,2.036.181,5.435,5.435,0,0,1,1.3.714,4.066,4.066,0,0,0,1.068.592,1.093,1.093,0,0,0,1.131-.4A3.252,3.252,0,0,0-1030.66,1325.692Zm-20.951,5.252a6.461,6.461,0,0,0,1.729.45,1.618,1.618,0,0,0,1.34-.455,1.585,1.585,0,0,0,.4-1.084,1.767,1.767,0,0,1-.779.887c-.245.123-1.108.436-1.938-.727a5.232,5.232,0,0,1-.566-3.328c-.087-.045-.176-.092-.261-.138-.114-.06-.228-.12-.342-.178a2.574,2.574,0,0,0-2.313-.1c-.087.027-.173.056-.261.085-.274.089-.556.181-.846.252a9.632,9.632,0,0,1-1.593,2.324,2.711,2.711,0,0,1-1.963.979,1.538,1.538,0,0,1-.814-.195,1.6,1.6,0,0,0,.054.205,1.05,1.05,0,0,0,.568.649,5.376,5.376,0,0,0,3.525-.167,3.366,3.366,0,0,1,.556-.135.209.209,0,0,1,.034,0,3.789,3.789,0,0,1,.435-.045h.015a4.6,4.6,0,0,1,1.343.149c.089.023.176.048.262.074.379.114.75.255,1.108.391l.285.108.012,0Zm-3.449,2.189c-.07-.014-.139-.029-.208-.041-.02,0-.037-.011-.054-.016a.2.2,0,0,1-.033-.008l-.017-.006h0a.686.686,0,0,1-.1-.051l-.029-.022a.578.578,0,0,1-.059-.046.415.415,0,0,1-.032-.032c-.015-.016-.029-.032-.042-.049a.2.2,0,0,1-.026-.039.429.429,0,0,1-.033-.054.334.334,0,0,1-.019-.043.635.635,0,0,1-.021-.06c0-.015-.009-.029-.012-.045s-.007-.04-.009-.061l-.005-.051c0-.02,0-.04,0-.061l.005-.052a.046.046,0,0,0,0-.016c0-.015.009-.028.012-.041s.007-.03.011-.046c.05-.144.106-.293.161-.445.029-.075.057-.151.084-.228a6.931,6.931,0,0,1-4,.151c-.088-.034-.174-.071-.257-.113a2.289,2.289,0,0,1-1.181-1.366,3.48,3.48,0,0,1-.121-.519c-.875-.268-1.794-.471-2.685-.668-.411-.091-.833-.184-1.253-.284-1.187,5.841-1.3,11.766,4.485,14.3.483.211.985.417,1.495.612,5.173,1.983,10.956,2.838,16.547,3.666,2.994.442,6.091.9,9.02,1.526,1.262.27,2.814.772,4.611,1.353,5.251,1.7,12.444,4.026,15.82,1.124,2.452-2.106,3.162-6.94,3.722-10.871q-.643-.107-1.283-.216c-1.542-.258-3.137-.525-4.708-.8a5.763,5.763,0,0,1-1.73.158,4.562,4.562,0,0,1-2.423-.918l-.208-.04c-.057.26-.109.523-.152.783,0,.02-.011.037-.016.054a.431.431,0,0,1-.016.063.4.4,0,0,1-.027.053c-.008.018-.016.036-.026.054s-.025.033-.038.049a.547.547,0,0,1-.033.044c-.016.015-.032.027-.047.042s-.026.025-.041.035a.512.512,0,0,1-.053.032c-.016.009-.03.02-.048.027a.359.359,0,0,1-.057.021c-.019.006-.035.014-.053.019a.608.608,0,0,1-.062.009.526.526,0,0,1-.057.008.37.37,0,0,1-.061,0,.575.575,0,0,1-.059,0l-.361-.055c-.41-.061-.831-.124-1.249-.2a.1.1,0,0,1-.022-.007.076.076,0,0,1-.02,0,.557.557,0,0,1-.067-.021h0a.607.607,0,0,1-.1-.048l-.027-.02-.06-.044c-.01-.009-.018-.02-.029-.031s-.03-.029-.043-.046a.305.305,0,0,1-.025-.037.425.425,0,0,1-.034-.052c-.007-.012-.013-.026-.019-.04s-.017-.037-.024-.057-.008-.031-.012-.045-.01-.038-.013-.057,0-.034-.005-.051,0-.038,0-.057,0-.035,0-.052,0-.026,0-.038.005-.013.006-.019l0-.021c.069-.277.143-.553.219-.826-.619-.124-1.2-.244-1.755-.359a5.3,5.3,0,0,1-2.5-.225c-.043-.016-.087-.033-.13-.052a4.119,4.119,0,0,1-.807-.455c-.506-.111-1-.22-1.494-.329a2.646,2.646,0,0,1,.362.851,4.319,4.319,0,0,1-.814,3.417c-1.368,1.868-3.738,1.933-5.029,1.807a8.363,8.363,0,0,1-3.289-1.222c-.164.836-.278,1.526-.358,2.169a.608.608,0,0,1-.242.414.609.609,0,0,1-.465.113c-.078-.014-.16-.025-.246-.039a7.553,7.553,0,0,1-1.5-.344,2.421,2.421,0,0,1-.514-.262.61.61,0,0,1-.259-.6,22.959,22.959,0,0,1,.543-2.374l-.353.017a8.908,8.908,0,0,1-3.763-.345c-.08-.03-.159-.063-.238-.1a5.219,5.219,0,0,1-2.646-2.127,4.49,4.49,0,0,1-.1-3.431,4.158,4.158,0,0,1,.965-1.627c-.545-.1-1.089-.207-1.63-.315l-.784-.157a3.373,3.373,0,0,1-.585.008,7.486,7.486,0,0,1-2.027-.511l-.728-.145c-.043.282-.085.565-.118.845,0,.017-.009.032-.012.049s-.007.041-.014.062a.373.373,0,0,1-.022.054c-.009.019-.015.038-.025.056s-.022.032-.034.049a.368.368,0,0,1-.034.047.3.3,0,0,1-.04.04.411.411,0,0,1-.044.042.4.4,0,0,1-.046.031.593.593,0,0,1-.05.033c-.016.009-.035.015-.053.022a.422.422,0,0,1-.057.022.513.513,0,0,1-.056.013c-.021,0-.04.007-.061.009s-.041,0-.061,0-.033,0-.053,0l-.117-.01c-.321-.028-.652-.059-.988-.106C-1054.771,1333.192-1054.918,1333.162-1055.06,1333.134Zm47,7.437c-.59,4.156-1.325,9.327-4.153,11.756-3.9,3.348-11.156,1-16.99-.889-1.765-.572-3.289-1.065-4.491-1.322-2.891-.617-5.969-1.071-8.945-1.512-2.829-.418-5.7-.843-8.535-1.419a51.916,51.916,0,0,1-8.269-2.314c-.527-.2-1.047-.416-1.547-.634-6.776-2.965-6.41-9.943-5.06-16.27,0-.013,0-.028.006-.043a.05.05,0,0,0,.006-.014c.312-1.447.672-2.86,1.01-4.181l.167-.658c.489-1.923.825-3.911,1.15-5.832.287-1.7.583-3.464.988-5.189.561-2.387,2.279-8.094,6.127-9.561,3.09-1.175,7.078.086,10.6,1.2,1.269.4,2.467.781,3.5,1,3.265.7,6.608,1.371,9.84,2.019,5.7,1.141,11.6,2.323,17.323,3.729a35.572,35.572,0,0,1,4.252,1.243c3.412,1.308,5.346,3.287,5.914,6.05.985,4.788-.476,11.2-1.651,16.35-.256,1.119-.5,2.176-.7,3.158C-1007.722,1338.2-1007.884,1339.35-1008.058,1340.571Zm-2.307-1.459,1.253.211c.124-.839.249-1.629.4-2.33.206-.994.449-2.057.706-3.182,1.147-5.036,2.576-11.3,1.646-15.832-.484-2.355-2.122-3.994-5.155-5.157a34.64,34.64,0,0,0-4.106-1.2c-5.7-1.4-11.581-2.578-17.271-3.719-3.237-.648-6.583-1.318-9.857-2.022-1.09-.233-2.315-.621-3.611-1.032-3.328-1.054-7.1-2.247-9.793-1.221-3.394,1.292-4.971,6.984-5.373,8.7-.4,1.688-.689,3.43-.974,5.114-.328,1.947-.669,3.959-1.169,5.93l-.169.659c-.3,1.163-.606,2.374-.882,3.6.419.1.843.194,1.259.285.819.182,1.661.367,2.488.608a1.557,1.557,0,0,1,.647-.9.61.61,0,0,1,.58-.039.611.611,0,0,1,.349.467c.092.637.209.634.385.633a1.527,1.527,0,0,0,1.056-.556,11.418,11.418,0,0,0,1.082-1.421,2.435,2.435,0,0,1-.507-.131,2.393,2.393,0,0,1-.69-.411,2.55,2.55,0,0,1-.859-2.374,2.506,2.506,0,0,1,1.513-1.965.612.612,0,0,1,.733.219.61.61,0,0,1-.055.763c-.138.148-.159.279-.066.4a.359.359,0,0,0,.469.088,3.67,3.67,0,0,0,.893-.946c.1-.135.21-.276.317-.4s.181-.226.259-.332c-.052-.017-.1-.032-.156-.052a3.306,3.306,0,0,1-1.061-.671,2.514,2.514,0,0,1-.78-2.2,2.177,2.177,0,0,1,1.247-1.665,1.24,1.24,0,0,1,.8-.071c.029.006.064.011.084.014a.611.611,0,0,1,.742.4.61.61,0,0,1-.4.766.317.317,0,0,0-.21.208.407.407,0,0,0,.057.362.634.634,0,0,0,.3.224,1.158,1.158,0,0,0,.922-.066,7.4,7.4,0,0,0,2.553-3.942c.01-.043.02-.085.031-.127a.609.609,0,0,1,.731-.447.607.607,0,0,1,.455.726c-.009.044-.019.089-.031.134a5.759,5.759,0,0,0,.171,3.3,1.034,1.034,0,0,0,.531.625c.333.128.691-.112.935-.625a.612.612,0,0,1,.694-.332.61.61,0,0,1,.467.61,3.58,3.58,0,0,1-1.479,3.121,1.913,1.913,0,0,1-1.5.234,2.56,2.56,0,0,0,.378,1.334c.09.139.27.373.469.374.166,0,.445-.148.73-.575a.611.611,0,0,1,.616-.262.61.61,0,0,1,.484.462,3.1,3.1,0,0,1-1.736,3.52,2.421,2.421,0,0,1-1.407.138,3.665,3.665,0,0,0,.367,2.166c.217.3.368.361.4.348a1.349,1.349,0,0,0,.271-1.353.612.612,0,0,1,.129-.6.613.613,0,0,1,.586-.183,1.829,1.829,0,0,1,1.527,1.786,2.951,2.951,0,0,1-.64,2.412c1.273.246,2.556.477,3.817.7a2.9,2.9,0,0,1-.41-.451,2.938,2.938,0,0,1-.449-2.331,3.511,3.511,0,0,1,1.6-2.388,1.887,1.887,0,0,1,1.619-.15l.01,0a.607.607,0,0,1,.388.56.61.61,0,0,1-.372.57.284.284,0,0,0-.174.2.421.421,0,0,0,.088.359c.323.411,1.193.049,1.7-.293.2-.135.381-.274.556-.416a3.223,3.223,0,0,1-1.055-.746,2.893,2.893,0,0,1-.9-2.7,2.424,2.424,0,0,1,1.179-1.477,2.039,2.039,0,0,1,1.616-.093l.016.006a.611.611,0,0,1,.357.772.611.611,0,0,1-.618.405.78.78,0,0,0-.135.093.133.133,0,0,0-.023.119.4.4,0,0,0,.225.235,1.68,1.68,0,0,0,1.615-.439,16.466,16.466,0,0,0,2.83-4.109.61.61,0,0,1,.746-.279.609.609,0,0,1,.386.7,16.158,16.158,0,0,0-.223,4.99.968.968,0,0,0,.543.751.506.506,0,0,0,.4-.014,1.53,1.53,0,0,0,.407-.849.607.607,0,0,1-.455-.3.609.609,0,0,1,.022-.658,1.291,1.291,0,0,1,1.59-.529,2.137,2.137,0,0,1,1.224,1.459,4.429,4.429,0,0,1-.842,3.687,2.585,2.585,0,0,1-1.034.713,2.553,2.553,0,0,1,1.266.565,2.559,2.559,0,0,1,.6,2.063,4.9,4.9,0,0,1-.491,1.925,3.459,3.459,0,0,1-.544.8c.593.136,1.195.27,1.809.408a2.841,2.841,0,0,1-.128-.484,3.237,3.237,0,0,1,1.146-2.926.611.611,0,0,1,.815-.006.61.61,0,0,1,.093.81c-.3.421-.329.765-.092,1.023.587.637,2.094-.257,2.905-.97a3.837,3.837,0,0,0,.745-.933,2.471,2.471,0,0,1-.506-.134,2.582,2.582,0,0,1-.668-.38,2.588,2.588,0,0,1-.918-3.132,1.886,1.886,0,0,1,.36-.535c.041-.048.1-.116.124-.152a.611.611,0,0,1,.734-.4.613.613,0,0,1,.436.746h0c-.056.21-.029.356.081.433a.6.6,0,0,0,.651-.066,3.3,3.3,0,0,0,.908-1.146,3.117,3.117,0,0,1-.68-.539,2.086,2.086,0,0,1-.531-1.644,2.711,2.711,0,0,1,1-1.914,1.521,1.521,0,0,1,1.214-.3,1.566,1.566,0,0,0,.314.013.611.611,0,0,1,.661.555.61.61,0,0,1-.555.661c-.118.01-.123.035-.129.063a.668.668,0,0,0,.32.6c.015.007.029.014.044.02a.358.358,0,0,0,.195.016c.658-.119,1.3-1.071,1.777-1.767.054-.081.106-.159.158-.232a5.468,5.468,0,0,0,.911-1.792.611.611,0,0,1,.7-.457.611.611,0,0,1,.5.661c-.013.118-.03.271-.052.45a19.1,19.1,0,0,0-.177,2.575c.032,1.233.318,1.4.321,1.4.044.017.205,0,.5-.174.152-.09.307-.256.3-.81a.614.614,0,0,1,.459-.6.61.61,0,0,1,.69.305,2.789,2.789,0,0,1-.016,3.176,1.939,1.939,0,0,1-1.824.736c0,1.184.152,1.886.469,2.084.187.117.268.077.31.055a1.927,1.927,0,0,0,.645-1.363.609.609,0,0,1,.468-.552.611.611,0,0,1,.667.285,3.119,3.119,0,0,1,.471,2.415,2.346,2.346,0,0,1-1.241,1.434,2.984,2.984,0,0,1-1.9.3c.035.172.067.341.1.5.152.855.264,1.359.782,1.747.109.083.386.258.59.105a.745.745,0,0,0,.1-.857.61.61,0,0,1,.211-.706.61.61,0,0,1,.736.011c1.353,1.058,1.44,2.641.238,4.341a3.539,3.539,0,0,1-.347.419C-1012.529,1338.749-1011.435,1338.933-1010.365,1339.111Zm-3.906-1.671a3.31,3.31,0,0,0,.585-1.231,1.5,1.5,0,0,1-.145.122,1.665,1.665,0,0,1-2.055-.107,3.559,3.559,0,0,1-1.25-2.508c-.036-.2-.074-.416-.122-.62q-.061-.268-.117-.53c-.129-.061-.263-.127-.41-.2a4.023,4.023,0,0,0-2.919-.616c-.181.038-.368.086-.549.131s-.364.09-.55.13a5.731,5.731,0,0,1-1.356,1.933c-1.324,1.163-3.25,2.091-4.457,1.03a2.156,2.156,0,0,0,1.352,1.441,4.186,4.186,0,0,0,2.1.179l.009,0,.5-.057a8.1,8.1,0,0,1,2.325-.054,3.911,3.911,0,0,1,.938.276,6.188,6.188,0,0,1,.687.358c.25.15.482.307.706.458l.14.094,0,0a3.613,3.613,0,0,0,1.9.782,4.407,4.407,0,0,0,1.454-.142l.011,0A2.221,2.221,0,0,0-1014.271,1337.44Zm-.435-5.821a1.5,1.5,0,0,1-1.4-.164c-1.081-.682-1.059-2.495-1.035-3.423l-.093-.031a5.77,5.77,0,0,0-1.9-.166,8.9,8.9,0,0,1-1.729-.086,4.692,4.692,0,0,1-1.368,1.731,1.8,1.8,0,0,1-2.049.067.131.131,0,0,0-.016-.013,1.463,1.463,0,0,0,.65,1.087,1.531,1.531,0,0,0,1.31.252c.249-.04.508-.106.783-.175.191-.047.388-.1.589-.14a5.246,5.246,0,0,1,3.738.726c.229.117.43.212.613.287A2.118,2.118,0,0,0-1014.707,1331.619Zm-.185-5.046-.013.008a1.783,1.783,0,0,1-1.561.262c-.862-.33-1.108-1.438-1.1-2.78a4.215,4.215,0,0,1-2.379,2.005,1.56,1.56,0,0,1-.849-.078,1.668,1.668,0,0,1-.181-.082,1.908,1.908,0,0,1-.908-1.164,1.645,1.645,0,0,0-.125.5.924.924,0,0,0,.193.7,1.94,1.94,0,0,0,.715.473,5.338,5.338,0,0,0,1.953.192,6.753,6.753,0,0,1,2.31.229l.124.043c.871.3,1.319.388,1.668-.047A1.053,1.053,0,0,0-1014.892,1326.573Zm-6.333,12.083.344.052c.052-.256.108-.511.165-.753-.055-.028-.111-.056-.165-.08-.039-.018-.077-.033-.117-.048-.029.111-.059.222-.09.333Zm-9.253,1.646a3.173,3.173,0,0,0,.611-2.416,1.4,1.4,0,0,0-.251-.542,2.7,2.7,0,0,1-.066.876,1.755,1.755,0,0,1-.964,1.318,1.717,1.717,0,0,1-1.322-.015,2.836,2.836,0,0,1-.349-.165,3.564,3.564,0,0,1-1.251-1.729l-.026-.057c-.33-.724-.6-1.4-.831-2.063-.054-.156-.1-.3-.142-.447a.071.071,0,0,1-.006-.015c-.072-.243-.128-.471-.172-.688a2.836,2.836,0,0,0-1.157-.525,8.053,8.053,0,0,0-1.61-.087c-.341,0-.692.007-1.041-.012l-.048,0c-.344-.019-.79-.045-1.274-.1a12.407,12.407,0,0,1-1.928,1.936l-.205.165c-.748.6-1.875,1.517-2.933.8a1.553,1.553,0,0,1-.634-1.781,2.625,2.625,0,0,1,.825-1.244,1.775,1.775,0,0,0-.462.135,2.4,2.4,0,0,0-1.078,1.445,3.357,3.357,0,0,0,.017,2.461,4.111,4.111,0,0,0,2.064,1.589,7.421,7.421,0,0,0,3.445.341c.387-.02.789-.042,1.192-.046l.055,0h.015a4.077,4.077,0,0,1,1.9.6l.185.105.007,0,.362.206a8.1,8.1,0,0,0,3.146,1.26C-1033.371,1341.717-1031.487,1341.682-1030.478,1340.3Zm-1.162-1.881c.11-.048.208-.224.268-.482a1.208,1.208,0,0,0,.014-.587c-.077-.025-.235-.069-.322-.086a.6.6,0,0,1-.473-.159.607.607,0,0,1-.065-.819c.006-.008.011-.017.017-.024a.1.1,0,0,0,.014-.019l.046-.044a1.681,1.681,0,0,1,.143-.117l-.355-.083a2.955,2.955,0,0,1-1.176-.227c.161.416.339.842.543,1.289l.026.059a3.079,3.079,0,0,0,.736,1.169A.752.752,0,0,0-1031.64,1338.422Zm.577-4.589a3.689,3.689,0,0,0,.341-1.135,1.776,1.776,0,0,1-.94.734,1.5,1.5,0,0,1-1.259-.181c-1.336-.834-1.394-2.578-1.435-3.851q-.007-.179-.013-.348c0-.044,0-.085-.006-.126a3.319,3.319,0,0,0-.73-.386,4.843,4.843,0,0,0-1.6-.115c-.256.008-.523.017-.78.01-.1,0-.2-.01-.291-.017a8.94,8.94,0,0,1-1.316,1.081c-1.013.688-2.5,1.111-3.342.039a1.672,1.672,0,0,1-.359-.952,2.508,2.508,0,0,0-.642,1.263,1.754,1.754,0,0,0,.235,1.4,3.867,3.867,0,0,0,2.648,1.136c.566.078,1.1.109,1.522.133l.048,0c.307.017.624.014.96.01a9.024,9.024,0,0,1,1.86.11,4.07,4.07,0,0,1,1.87.92,5.829,5.829,0,0,1,.73.74,1.643,1.643,0,0,0,1.756.366A1.8,1.8,0,0,0-1031.063,1333.833Zm-.6-1.956a1.32,1.32,0,0,0-.1-.893.61.61,0,0,1-.479-.693.614.614,0,0,1,.179-.34,2.07,2.07,0,0,1-.646-.093,3.159,3.159,0,0,1-.42-.162c.052,1.181.184,2.106.85,2.521a.284.284,0,0,0,.25.05A.69.69,0,0,0-1031.661,1331.877Zm-7.634,11.123c.088-.6.207-1.248.364-2.015a3.658,3.658,0,0,0-.666-.261c-.186.686-.376,1.389-.513,2.087A5.505,5.505,0,0,0-1039.294,1343Zm-2.983-9.081-.948-.169c.011.078.02.156.026.23a.609.609,0,0,1-.471.646.611.611,0,0,1-.657-.276,1.342,1.342,0,0,0-.581.761.331.331,0,0,0,.146.417c.313.21,1.046-.386,1.486-.742.074-.06.147-.118.217-.173A9.9,9.9,0,0,0-1042.277,1333.919Zm-7.012-8.045a1.711,1.711,0,0,0,.887-.883,1.592,1.592,0,0,1-.528.087,1.768,1.768,0,0,1-1.484-.935,4,4,0,0,1-.566-2.455c-.044-.013-.088-.027-.127-.035a4.52,4.52,0,0,0-1.611.024c-.262.035-.526.068-.794.086a6.728,6.728,0,0,1-.682.965c-.089.106-.183.232-.284.363a4.415,4.415,0,0,1-1.279,1.277,1.582,1.582,0,0,1-1.978-.358,1.337,1.337,0,0,0,.443,1.227,1.431,1.431,0,0,0,1.292.242,8.213,8.213,0,0,0,1.021-.286l.272-.087a3.755,3.755,0,0,1,3.229.178c.122.062.244.126.365.191.2.109.4.211.589.3A1.437,1.437,0,0,0-1049.289,1325.873Zm.4-5.008a1.425,1.425,0,0,0,.482-.5,1.732,1.732,0,0,1-.913-.089,2.213,2.213,0,0,1-1.234-1.327,6.014,6.014,0,0,1-.283-.987,5.9,5.9,0,0,1-1.9,1.972,2.329,2.329,0,0,1-.961.278,2.325,2.325,0,0,1-.986-.141,1.865,1.865,0,0,1-.862-.657,1.561,1.561,0,0,1-.126-.212,1.282,1.282,0,0,0,.4.79,2.073,2.073,0,0,0,.671.431,3.453,3.453,0,0,0,1.715.042,5.612,5.612,0,0,1,2.044,0,3.4,3.4,0,0,1,.466.144c.131.05.259.106.383.161.1.044.2.089.3.127A.784.784,0,0,0-1048.887,1320.865Zm-5.095,11.2c.027-.2.056-.388.087-.582-.083-.014-.167-.025-.25-.032-.057.192-.122.383-.19.572C-1054.218,1332.036-1054.1,1332.051-1053.981,1332.063Z" transform="translate(1070.394 -1299.106)"/>
          <path id="Trazado_120435" data-name="Trazado 120435" d="M-1040.307,1463.207a.61.61,0,0,1-.727.465l-4.868-1.076a.619.619,0,0,1-.086-.027.608.608,0,0,1-.376-.7.611.611,0,0,1,.727-.464l4.866,1.077A.61.61,0,0,1-1040.307,1463.207Z" transform="translate(1054.058 -1426.33)"/>
          <path id="Trazado_120436" data-name="Trazado 120436" d="M-988.039,1338.609a.612.612,0,0,1-.728.464.617.617,0,0,1-.086-.026.611.611,0,0,1-.378-.7l.023-.1a.611.611,0,0,1,.728-.464.607.607,0,0,1,.463.726Z" transform="translate(1008.449 -1327.642)"/>
          <path id="Trazado_120437" data-name="Trazado 120437" d="M-1012.483,1323.01a.611.611,0,0,1-.727.464.613.613,0,0,1-.088-.027.608.608,0,0,1-.376-.7l.022-.1a.611.611,0,0,1,.728-.464.607.607,0,0,1,.463.726Z" transform="translate(1027.962 -1315.189)"/>
          <path id="Trazado_120438" data-name="Trazado 120438" d="M-1029.835,1357.387a.611.611,0,0,1-.727.464.611.611,0,0,1-.088-.027.609.609,0,0,1-.376-.7l.046-.206a.61.61,0,0,1,.727-.464.611.611,0,0,1,.464.728Z" transform="translate(1041.813 -1342.549)"/>
        </g>
      </g>
    </g>
    <g id="Grupo_88493" data-name="Grupo 88493" transform="translate(3020.731 -953.167)">
      <path id="Trazado_120439" data-name="Trazado 120439" d="M-1899.983,1092.052c-2.177-2.579-4.764-5.415-7.942-6.423a19.772,19.772,0,0,0-5.818-.755,24.912,24.912,0,0,0-6.923.91,21.145,21.145,0,0,0-9.041,5.213,18.628,18.628,0,0,0-5.555,15.489,16.883,16.883,0,0,0,8.371,12.587,29.034,29.034,0,0,0,4.266,2.088.614.614,0,0,0,.076.03,24.5,24.5,0,0,0,8.753,1.735h0a15.963,15.963,0,0,0,13.272-6.414,26.8,26.8,0,0,0,1.91-2.905.112.112,0,0,0,.007-.012,21.181,21.181,0,0,0,2.85-9.3A17.332,17.332,0,0,0-1899.983,1092.052Z" fill="#fff"/>
      <g id="Grupo_88492" data-name="Grupo 88492" transform="translate(-1935.398 1084.874)">
        <g id="Grupo_88491" data-name="Grupo 88491" transform="translate(0)">
          <path id="Trazado_120440" data-name="Trazado 120440" d="M-1899.983,1092.052a17.332,17.332,0,0,1,4.228,12.239,21.177,21.177,0,0,1-2.851,9.3.07.07,0,0,1-.007.012,26.819,26.819,0,0,1-1.91,2.905,15.963,15.963,0,0,1-13.272,6.414h0a24.5,24.5,0,0,1-8.753-1.735.6.6,0,0,1-.076-.03,29.025,29.025,0,0,1-4.266-2.088,16.882,16.882,0,0,1-8.371-12.587,18.628,18.628,0,0,1,5.555-15.489,21.144,21.144,0,0,1,9.041-5.213,24.911,24.911,0,0,1,6.923-.91,19.772,19.772,0,0,1,5.818.755C-1904.747,1086.637-1902.16,1089.473-1899.983,1092.052Zm.686,20.062a19.166,19.166,0,0,0,2.241-7.851c-.3-.238-.6-.474-.914-.7a.664.664,0,0,1-.248.319.665.665,0,0,1-.682.043,15.846,15.846,0,0,1-3.864-3.269,22.574,22.574,0,0,0-2.183-2.1c-.427,1.208-.985,2.4-1.526,3.549-.23.492-.465,1-.688,1.5.136.28.281.583.447.932a6.459,6.459,0,0,1,.252.649,1.834,1.834,0,0,0,.526.944,1.758,1.758,0,0,0,.571.177,3,3,0,0,1,1.134.42,19.782,19.782,0,0,1,4.019,4.223c.175.225.348.445.517.659Q-1899.5,1111.866-1899.3,1112.114Zm1.205-10.245c.351.232.7.474,1.038.723a16.158,16.158,0,0,0-3.941-9.687c-2.056-2.438-4.489-5.113-7.33-6.015a18.76,18.76,0,0,0-5.418-.692,23.6,23.6,0,0,0-6.535.853,19.611,19.611,0,0,0-8.492,4.883,17.311,17.311,0,0,0-5.178,14.388,15.374,15.374,0,0,0,2.273,6.379c.393-.515.781-1.045,1.141-1.583a10.33,10.33,0,0,0,.722-1.452,6.687,6.687,0,0,1,1.524-2.476.663.663,0,0,1,.874.015,5.759,5.759,0,0,1,1.328,2.2,6.147,6.147,0,0,0,.69,1.372c1.586-.669,2.355.415,2.985,1.3.017.022.031.043.048.066a16.555,16.555,0,0,1,.725-2.779.661.661,0,0,1,.621-.434h0a7.617,7.617,0,0,1,3.332,1.245l.02.01c1.548-1.836,2.167-4.673,2.717-7.194q.079-.36.156-.705c.026-.126.056-.255.084-.384l.1-.425a35.274,35.274,0,0,0,1.117-7.13.662.662,0,0,1,.5-.64.664.664,0,0,1,.743.329q.683,1.269,1.379,2.531c.57,1.04,1.157,2.115,1.727,3.18.455.849.856,1.612,1.222,2.331.084-.179.169-.361.251-.538a30.623,30.623,0,0,0,1.738-4.233.669.669,0,0,1,.4-.432.665.665,0,0,1,.586.056,17.256,17.256,0,0,1,3.142,2.8,19.872,19.872,0,0,0,2.71,2.51.657.657,0,0,1,.324-.412A.662.662,0,0,1-1898.092,1101.869Zm-1.9,11.49c-.242-.3-.49-.607-.742-.925-.169-.214-.343-.437-.521-.665a18.848,18.848,0,0,0-3.721-3.945,1.863,1.863,0,0,0-.659-.215,2.765,2.765,0,0,1-1.046-.383,2.921,2.921,0,0,1-1.03-1.6c-.066-.187-.128-.364-.2-.52-.218-.46-.4-.839-.574-1.19-.4-.808-.824-1.645-1.319-2.586-.127.194-.249.386-.359.578-.03.05-.106.235-.162.371-.409.973-.743,1.675-1.336,1.819a.991.991,0,0,1-.243.031,1.6,1.6,0,0,1-1.068-.586,2.079,2.079,0,0,0-.179-.167c-.162-.117-.308-.227-.447-.333-.018.079-.035.159-.053.238-.6,2.731-1.338,6.13-3.405,8.21a.663.663,0,0,1-.785.118c-.152-.083-.316-.174-.487-.27a9.721,9.721,0,0,0-2.235-1.018,19.513,19.513,0,0,0-.722,3.589c-.1.864-.164,1.761-.189,2.667-.007.225-.011.447-.018.67-.023.937-.05,1.9-.149,2.874a25.108,25.108,0,0,0,3.956,1.1,21.038,21.038,0,0,0,3.892.377,14.761,14.761,0,0,0,12.214-5.886A26.7,26.7,0,0,0-1899.994,1113.359Zm-11.316-12.12c.237-.406.5-.809.8-1.227-.5-.939-1.021-1.882-1.523-2.8l-.3-.551c-.21,1.667-.593,3.377-.949,4.954.273.214.558.435.9.685a2.842,2.842,0,0,1,.339.3l.069.068a9.782,9.782,0,0,0,.421-.907A4.911,4.911,0,0,1-1911.31,1101.239Zm-11.321,12.782-.154-.205q-.188-.256-.372-.5c-.119-.161-.23-.316-.334-.463-.717-1.01-.846-1.192-1.713-.685a.662.662,0,0,1-.761-.068,5.3,5.3,0,0,1-1.347-2.188,7.853,7.853,0,0,0-.556-1.185,10.85,10.85,0,0,0-.73,1.471,11.2,11.2,0,0,1-.833,1.654c-.457.687-.957,1.353-1.445,1.988a16.509,16.509,0,0,0,4.663,4.1,27.661,27.661,0,0,0,3.291,1.672c.065-.785.086-1.574.106-2.4.007-.224.011-.449.02-.674C-1922.775,1115.688-1922.717,1114.842-1922.631,1114.021Z" transform="translate(1935.398 -1084.874)"/>
          <path id="Trazado_120441" data-name="Trazado 120441" d="M-1775.257,1177.993a.663.663,0,0,1,.419.838l-.245.732a.663.663,0,0,1-.628.454.666.666,0,0,1-.21-.035.663.663,0,0,1-.419-.838l.245-.733A.662.662,0,0,1-1775.257,1177.993Z" transform="translate(1811.192 -1157.578)"/>
          <path id="Trazado_120442" data-name="Trazado 120442" d="M-1819.243,1196.026a.661.661,0,0,1-.061.934c-.306.268-.566.48-.795.667a2.273,2.273,0,0,0-1.18,2.083,6.791,6.791,0,0,1-.329,1.344,5.074,5.074,0,0,0-.28,1.185.662.662,0,0,1-.66.624h-.04a.662.662,0,0,1-.621-.7,6.09,6.09,0,0,1,.339-1.51,5.873,5.873,0,0,0,.275-1.088,3.482,3.482,0,0,1,1.658-2.961c.22-.18.47-.384.76-.639A.661.661,0,0,1-1819.243,1196.026Z" transform="translate(1847.774 -1171.513)"/>
          <path id="Trazado_120443" data-name="Trazado 120443" d="M-1847.642,1214.621a.662.662,0,0,1,.348.869.661.661,0,0,1-.608.4.667.667,0,0,1-.261-.055l-.854-.366a.662.662,0,0,1-.347-.869.66.66,0,0,1,.869-.348Z" transform="translate(1868.244 -1185.885)"/>
          <path id="Trazado_120444" data-name="Trazado 120444" d="M-1897.55,1128.009a3.317,3.317,0,0,1-.351,3.466,3.239,3.239,0,0,1-2.587,1.157,3.053,3.053,0,0,1-2.984-1.857,2.648,2.648,0,0,1,.261-2.228,4.213,4.213,0,0,1,2.6-2,3.339,3.339,0,0,1,.632-.063A2.659,2.659,0,0,1-1897.55,1128.009Zm-1.4,2.66a2.016,2.016,0,0,0,.214-2.076,1.341,1.341,0,0,0-1.238-.783,2.021,2.021,0,0,0-.376.038,2.89,2.89,0,0,0-1.707,1.347,1.381,1.381,0,0,0-.172,1.124,1.388,1.388,0,0,0,.732.768,2.384,2.384,0,0,0,1.01.22A1.949,1.949,0,0,0-1898.95,1130.669Z" transform="translate(1910.572 -1117.375)"/>
          <path id="Trazado_120445" data-name="Trazado 120445" d="M-1897.167,1215.386a.662.662,0,0,1,.3.889l-.366.732a.663.663,0,0,1-.593.366.658.658,0,0,1-.3-.07.663.663,0,0,1-.3-.889l.366-.732A.662.662,0,0,1-1897.167,1215.386Z" transform="translate(1906.573 -1186.756)"/>
        </g>
      </g>
    </g>
  </g>
</svg>
