<svg xmlns="http://www.w3.org/2000/svg" width="169.753" height="162.107" viewBox="0 0 169.753 162.107">
  <g id="Grupo_88525" data-name="Grupo 88525" transform="translate(-1250.247 -85.064)">
    <g id="Grupo_81064" data-name="Grupo 81064" transform="translate(1230.86 -69.51) rotate(32)">
      <g id="Grupo_81059" data-name="Grupo 81059" transform="translate(119.183 107.796)">
        <g id="Grupo_81053" data-name="Grupo 81053" transform="translate(1.599 1.599)" style="mix-blend-mode: overlay;isolation: isolate">
          <path id="Trazado_114995" data-name="Trazado 114995" d="M157.094,131.323l5.527,22.544-40.067,13.726Z" transform="translate(-121.881 -121.914)" fill="#3c384f"/>
          <path id="Trazado_114996" data-name="Trazado 114996" d="M122.229,167.941a.674.674,0,0,1-.488-1.139l34.539-36.271a.674.674,0,0,1,1.143.3l5.528,22.544a.674.674,0,0,1-.436.8L122.447,167.9A.666.666,0,0,1,122.229,167.941Zm34.178-35.587-31.789,33.382L161.494,153.1Z" transform="translate(-121.555 -121.588)" fill="#3c384f"/>
          <path id="Trazado_114997" data-name="Trazado 114997" d="M161.243,136.349l-38.688,32.882,53.6-21.956Z" transform="translate(-121.881 -123.552)" fill="#3c384f"/>
          <path id="Trazado_114998" data-name="Trazado 114998" d="M122.229,169.579a.674.674,0,0,1-.437-1.188l38.688-32.882a.675.675,0,0,1,.835-.03l14.915,10.926a.674.674,0,0,1-.143,1.168l-53.6,21.956A.669.669,0,0,1,122.229,169.579Zm38.719-32.7-35.056,29.794,48.571-19.894Z" transform="translate(-121.555 -123.226)" fill="#3c384f"/>
          <path id="Trazado_114999" data-name="Trazado 114999" d="M157.094,127.1l-34.539,36.27,22.734-45Z" transform="translate(-121.881 -117.692)" fill="#3c384f"/>
          <path id="Trazado_115000" data-name="Trazado 115000" d="M122.228,163.719a.674.674,0,0,1-.6-.978l22.734-45a.675.675,0,0,1,1-.238l11.805,8.734a.674.674,0,0,1,.087,1.006L122.717,163.51A.673.673,0,0,1,122.228,163.719ZM145.2,119.057l-20.315,40.216,30.864-32.411Z" transform="translate(-121.555 -117.366)" fill="#3c384f"/>
          <path id="Trazado_115001" data-name="Trazado 115001" d="M149.335,131.49q-2.838,5.875-5.987,11.591c-.419.76.745,1.441,1.164.68q3.148-5.714,5.987-11.59C150.875,131.393,149.713,130.709,149.335,131.49Z" transform="translate(-128.628 -121.856)" fill="#3c384f"/>
          <path id="Trazado_115002" data-name="Trazado 115002" d="M149.5,145.27a.686.686,0,0,0-.31-.4.679.679,0,0,0-.519-.068.665.665,0,0,0-.4.31l-.687,1.437a.721.721,0,0,0-.068.519.686.686,0,0,0,.31.4.679.679,0,0,0,.519.068.663.663,0,0,0,.4-.31l.687-1.437A.721.721,0,0,0,149.5,145.27Z" transform="translate(-130.006 -126.297)" fill="#3c384f"/>
          <path id="Trazado_115003" data-name="Trazado 115003" d="M180.418,152.878q-6.571,2.839-13.082,5.813c-.788.36-.1,1.522.68,1.164q6.511-2.974,13.082-5.813C181.893,153.7,181.207,152.537,180.418,152.878Z" transform="translate(-136.36 -128.919)" fill="#3c384f"/>
        </g>
        <g id="Grupo_81058" data-name="Grupo 81058">
          <g id="Grupo_81057" data-name="Grupo 81057">
            <g id="Grupo_81054" data-name="Grupo 81054" transform="translate(0 8.735)">
              <path id="Trazado_115004" data-name="Trazado 115004" d="M154.723,128.951,160.25,151.5l-40.067,13.727Z" transform="translate(-119.509 -128.277)" fill="#fff"/>
              <path id="Trazado_115005" data-name="Trazado 115005" d="M119.857,165.57a.675.675,0,0,1-.488-1.139l34.54-36.27a.674.674,0,0,1,1.143.3l5.528,22.544a.674.674,0,0,1-.436.8l-40.067,13.727A.685.685,0,0,1,119.857,165.57Zm34.178-35.588-31.789,33.383,36.877-12.634Z" transform="translate(-119.183 -127.952)"/>
            </g>
            <g id="Grupo_81055" data-name="Grupo 81055" transform="translate(0 12.123)">
              <path id="Trazado_115006" data-name="Trazado 115006" d="M158.872,133.978,120.183,166.86l53.6-21.956Z" transform="translate(-119.509 -133.304)" fill="#fff"/>
              <path id="Trazado_115007" data-name="Trazado 115007" d="M119.858,167.208a.674.674,0,0,1-.437-1.188l38.688-32.883a.675.675,0,0,1,.835-.03l14.915,10.925a.674.674,0,0,1-.143,1.168l-53.6,21.957A.666.666,0,0,1,119.858,167.208Zm38.718-32.7L123.521,164.3l48.571-19.9Z" transform="translate(-119.183 -132.978)"/>
            </g>
            <g id="Grupo_81056" data-name="Grupo 81056">
              <path id="Trazado_115008" data-name="Trazado 115008" d="M154.723,124.729,120.183,161l22.734-45Z" transform="translate(-119.509 -115.32)" fill="#fff"/>
              <path id="Trazado_115009" data-name="Trazado 115009" d="M119.857,161.348a.674.674,0,0,1-.6-.978l22.734-45a.673.673,0,0,1,1-.238l11.806,8.734a.675.675,0,0,1,.087,1.007l-34.539,36.27A.674.674,0,0,1,119.857,161.348Zm22.975-44.662L122.518,156.9l30.864-32.411Z" transform="translate(-119.183 -114.994)"/>
            </g>
            <path id="Trazado_115010" data-name="Trazado 115010" d="M146.963,129.119q-2.838,5.874-5.987,11.591c-.419.76.745,1.441,1.164.68q3.148-5.714,5.987-11.59C148.5,129.022,147.341,128.337,146.963,129.119Z" transform="translate(-126.256 -119.485)"/>
            <path id="Trazado_115011" data-name="Trazado 115011" d="M147.126,142.9a.688.688,0,0,0-.31-.4.681.681,0,0,0-.52-.068.663.663,0,0,0-.4.309q-.344.719-.687,1.437a.721.721,0,0,0-.068.519.688.688,0,0,0,.309.4.681.681,0,0,0,.52.068.666.666,0,0,0,.4-.31l.688-1.437A.726.726,0,0,0,147.126,142.9Z" transform="translate(-127.635 -123.926)"/>
            <path id="Trazado_115012" data-name="Trazado 115012" d="M178.047,150.507q-6.571,2.838-13.082,5.813c-.789.36-.1,1.522.68,1.164q6.511-2.973,13.082-5.813C179.521,151.327,178.836,150.166,178.047,150.507Z" transform="translate(-133.989 -126.547)"/>
          </g>
        </g>
      </g>
      <g id="Grupo_81063" data-name="Grupo 81063" transform="translate(158.486 92.907)">
        <g id="Grupo_81060" data-name="Grupo 81060" transform="translate(0)">
          <path id="Trazado_115013" data-name="Trazado 115013" d="M178.159,117.755a.675.675,0,0,1-.507-1.118,68.181,68.181,0,0,1,5.735-5.812.674.674,0,1,1,.9,1,66.776,66.776,0,0,0-5.621,5.7A.674.674,0,0,1,178.159,117.755Zm10.905-10.009a.674.674,0,0,1-.4-1.217c1.455-1.072,2.971-2.1,4.505-3.055a.674.674,0,1,1,.713,1.145c-1.5.937-2.992,1.945-4.419,3A.672.672,0,0,1,189.064,107.747Zm77.471-2.975a.668.668,0,0,1-.357-.1q-.613-.383-1.232-.754a.674.674,0,0,1,.692-1.157q.632.378,1.257.77a.674.674,0,0,1-.359,1.245Zm-65.912-3.924a.674.674,0,0,1-.289-1.283c2.047-.969,4.161-1.847,6.283-2.61a.674.674,0,1,1,.456,1.268c-2.082.75-4.156,1.611-6.163,2.56A.666.666,0,0,1,200.624,100.848Zm58.718,0a.675.675,0,0,1-.286-.064,68.662,68.662,0,0,0-7.435-2.97.674.674,0,0,1,.427-1.279,70.007,70.007,0,0,1,7.581,3.029.675.675,0,0,1-.287,1.285Zm-47.354-4.209a.674.674,0,0,1-.177-1.324,67.987,67.987,0,0,1,7.991-1.68.674.674,0,0,1,.2,1.334,66.747,66.747,0,0,0-7.833,1.646A.651.651,0,0,1,211.987,96.637Zm34.671-.3a.649.649,0,0,1-.164-.02c-2.152-.537-4.355-.976-6.545-1.3a.674.674,0,1,1,.2-1.333c2.233.334,4.477.781,6.672,1.329a.674.674,0,0,1-.162,1.328Zm-20.053-2.013a.674.674,0,0,1-.03-1.348c1.8-.083,3.633-.1,5.444-.036a.674.674,0,1,1-.044,1.348c-1.776-.058-3.571-.046-5.338.036Z" transform="translate(-177.486 -92.907)"/>
        </g>
      </g>
    </g>
    <g id="Grupo_88496" data-name="Grupo 88496">
      <g id="Grupo_81051" data-name="Grupo 81051" transform="translate(1058.661 -29.683) rotate(14)">
        <g id="Grupo_81049" data-name="Grupo 81049" transform="translate(300.029 105.515)">
          <g id="Grupo_81048" data-name="Grupo 81048">
            <g id="Grupo_81047" data-name="Grupo 81047">
              <path id="Trazado_114989" data-name="Trazado 114989" d="M397.779,152.305c-1.048,10.392-5.279,23.1-15.112,29.419-9.883,6.354-25.2,2.817-36.409.1a130.9,130.9,0,0,1-18.79-5.9,37.1,37.1,0,0,1-13.793,7.987c3.871-4.18,4.109-9.794,3.878-12.893a48.326,48.326,0,0,1-7.337-5.363c-9.24-8.314-10.385-19.774-8.308-30.313a51,51,0,0,1,5.485-15.446,24.678,24.678,0,0,1,1.891-3.35c7.711-11.266,23.169-11.015,36.827-8.855,13.208,2.084,27.858,6.045,38.564,13.774A33.2,33.2,0,0,1,395.8,134.647C398.274,140.319,398.364,146.466,397.779,152.305Z" transform="translate(-300.213 -105.702)" fill="#fff"/>
              <path id="Trazado_114990" data-name="Trazado 114990" d="M368.04,185.92c-7.757,0-15.9-1.971-22.158-3.487a131.612,131.612,0,0,1-18.424-5.738,37.652,37.652,0,0,1-13.747,7.821.816.816,0,0,1-.818-1.339c3.517-3.8,3.853-8.9,3.69-11.864a48.778,48.778,0,0,1-7.1-5.232c-8.161-7.344-11.122-18.09-8.563-31.078a51.014,51.014,0,0,1,5.58-15.7,24.761,24.761,0,0,1,1.919-3.4c8.39-12.258,25.495-11.122,37.631-9.2,16.67,2.629,29.762,7.312,38.913,13.917a34.151,34.151,0,0,1,11.394,13.511c2.812,6.438,2.513,13.394,2.046,18.066h0c-.651,6.455-3.464,22.3-15.482,30.024C378.664,184.961,373.445,185.92,368.04,185.92Zm-40.756-10.991a.807.807,0,0,1,.31.061,128.7,128.7,0,0,0,18.672,5.858c10.349,2.506,25.992,6.293,35.777,0,11.422-7.336,14.114-22.6,14.741-28.816.45-4.49.74-11.163-1.917-17.25a32.51,32.51,0,0,0-10.855-12.842c-8.942-6.455-21.8-11.04-38.213-13.63-11.7-1.85-28.162-2.983-36.029,8.51a23.844,23.844,0,0,0-1.824,3.235,49.558,49.558,0,0,0-5.424,15.26c-1.7,8.641-1.689,20.784,8.054,29.549a47.615,47.615,0,0,0,7.213,5.27.814.814,0,0,1,.392.637,19.235,19.235,0,0,1-2.394,11.263,36.237,36.237,0,0,0,10.938-6.889A.816.816,0,0,1,327.284,174.929Zm70.311-22.81h0Z" transform="translate(-300.029 -105.515)"/>
              <g id="Grupo_81052" data-name="Grupo 81052" transform="translate(3.467 25.333)">
                <path id="Trazado_114991" data-name="Trazado 114991" d="M316.225,173.852a19.807,19.807,0,0,1-6.928-8.217.821.821,0,0,0-1.115-.292.834.834,0,0,0-.293,1.115,21.36,21.36,0,0,0,7.513,8.8C316.275,175.847,317.092,174.436,316.225,173.852Z" transform="translate(-304.932 -141.898)"/>
                <path id="Trazado_114992" data-name="Trazado 114992" d="M409.969,136.881c-.65-.823-1.8.337-1.152,1.152a22.776,22.776,0,0,1,4.758,15.661c-.075,1.047,1.556,1.042,1.63,0A24.435,24.435,0,0,0,409.969,136.881Z" transform="translate(-323.589 -136.599)"/>
                <path id="Trazado_114993" data-name="Trazado 114993" d="M412.477,152.823a.815.815,0,1,0-1.571.434,19.339,19.339,0,0,1,.474,1.944c.029.151.055.3.081.455q.022.133.042.266c0,.019.016.108.022.153q.064.483.1.968a.815.815,0,1,0,1.63,0A20.508,20.508,0,0,0,412.477,152.823Z" transform="translate(-324.005 -139.489)"/>
                <path id="Trazado_114994" data-name="Trazado 114994" d="M307.472,160.187a15.029,15.029,0,0,1-.943-2.14,17.643,17.643,0,0,1-.654-2.376.821.821,0,0,0-1-.569.835.835,0,0,0-.57,1,18.344,18.344,0,0,0,1.761,4.9.821.821,0,0,0,1.115.293A.833.833,0,0,0,307.472,160.187Z" transform="translate(-304.283 -140.017)"/>
              </g>
            </g>
          </g>
        </g>
      </g>
      <g id="Grupo_88494" data-name="Grupo 88494" transform="matrix(0.875, 0.485, -0.485, 0.875, 1399.934, -113.964)">
        <path id="Trazado_120448" data-name="Trazado 120448" d="M96.427,302.249c-2.118,0-8.154-7.968-10.4-10.933,0,3.1.054,5.533.054,6.83,0,1.721,0,3.891-2.224,3.891a2.493,2.493,0,0,1-2.462-2.726c0-12.655-.053-14.217-.08-14.72,0-1.8.212-3.257,2.251-3.257a2.549,2.549,0,0,1,2.144,1.43,128.772,128.772,0,0,0,8.233,11.464c-.026-5.931-.079-8.922-.079-10.378,0-1.827.556-3.257,2.435-3.257,1.192,0,2.33.8,2.383,3.15-.079,1.695-.079,4.025-.079,5.719,0,2.648.053,7.175.053,8.9S98.651,302.249,96.427,302.249Z"/>
        <path id="Trazado_120449" data-name="Trazado 120449" d="M105.056,301.958a2.716,2.716,0,0,1-2.647-2.727c-.027-10.616-.079-13.555-.079-14.931,0-1.827.582-3.257,2.435-3.257,1.165,0,2.594.8,2.568,3.151-.026,1.694-.079,3.786-.079,5.48,0,.82.053,6.089.053,8.365C107.307,299.761,107.307,301.958,105.056,301.958Z"/>
        <path id="Trazado_120450" data-name="Trazado 120450" d="M123.111,280.488c1.3.343,3.945,1.508,4.1,3.574a2.3,2.3,0,0,1-2.356,2.488c-1.376-.424-1.879-1.377-3.785-1.377-3.045,0-6.222,3.257-6.222,6.407,0,3.071,1.615,5.507,5,5.507a12.857,12.857,0,0,0,4.5-.9,4.8,4.8,0,0,1,1.245-.371c1.165,0,2.3,1.853,2.3,2.673,0,2.066-3.071,3.839-7.651,3.839-6.327,0-10.51-4.42-10.51-9.9,0-5.851,4.553-12.151,11.172-12.151A11.406,11.406,0,0,1,123.111,280.488Z"/>
        <path id="Trazado_120451" data-name="Trazado 120451" d="M141.668,293.8c-3.229.053-5.638,1.959-5.638,3.229,0,.212.4.265,1.085.265,3.177,0,4.024-1.164,6.169-1.164a2.528,2.528,0,0,1,2.779,2.3c0,3.6-7.307,3.865-8.948,3.865-2.991,0-6.751-.4-6.751-3.706a7.943,7.943,0,0,1,2.409-5.348,3.925,3.925,0,0,1-3.124-3.919c0-4.791,6.142-8.762,12.285-8.762,2.409,0,4.42,1.059,4.42,3.1a2.613,2.613,0,0,1-2.382,2.912c-1.4,0-1.641-.767-3.76-.767-1.826,0-5.665.529-5.665,2.435,0,1.033,2.171,1.271,3.2,1.271,2.039,0,3.045-.37,4.184-.37,1.72,0,2.461.953,2.461,2.091A2.688,2.688,0,0,1,141.668,293.8Z"/>
        <path id="Trazado_120452" data-name="Trazado 120452" d="M152.019,295.737a2.122,2.122,0,0,1,2.251,2.409c0,1.773-1.192,3.891-3.2,3.891a2.2,2.2,0,0,1-2.25-2.356C148.816,297.722,149.98,295.737,152.019,295.737Zm3.256-14.455c0,2.594-.741,5.242-1.641,10.166-.238,1.244-.9,3.15-2.2,3.15-1.483,0-1.774-2.329-1.774-7.942,0-3.945.82-7.333,3.865-7.333A1.814,1.814,0,0,1,155.275,281.282Z"/>
      </g>
    </g>
  </g>
</svg>
