<svg xmlns="http://www.w3.org/2000/svg" xmlns:xlink="http://www.w3.org/1999/xlink" width="1320" height="506.835" viewBox="0 0 1320 506.835">
  <defs>
    <clipPath id="clip-path">
      <path id="Rectangle_652" data-name="Rectangle 652" d="M1299.213,0H20.787C9.307,0,0,8.4,0,18.772V488.063c0,10.367,9.307,18.772,20.787,18.772H1299.213c11.48,0,20.787-8.4,20.787-18.772V18.772C1320,8.4,1310.693,0,1299.213,0Z" transform="translate(144.333 70)" fill="#ffd947"/>
    </clipPath>
  </defs>
  <g id="Grupo_88524" data-name="Grupo 88524" transform="translate(-144.333 -70)">
    <path id="Rectangle_652-2" data-name="Rectangle 652" d="M1299.213,0H20.787C9.307,0,0,8.4,0,18.772V488.063c0,10.367,9.307,18.772,20.787,18.772H1299.213c11.48,0,20.787-8.4,20.787-18.772V18.772C1320,8.4,1310.693,0,1299.213,0Z" transform="translate(144.333 70)" fill="#ffd947"/>
    <g id="Enmascarar_grupo_86" data-name="Enmascarar grupo 86" clip-path="url(#clip-path)">
      <g id="Grupo_81201" data-name="Grupo 81201" transform="translate(97.728 -1397.084)">
        <path id="Trazado_115134" data-name="Trazado 115134" d="M73.524,1697.663a61.009,61.009,0,0,0,35.713-48.433c1.952-18.021-4.153-37.323,3.366-53.816,8.961-19.659,33.661-26.761,55.251-25.96s43.044,7.137,64.5,4.645c28.9-3.356,55.118-24.007,65.148-51.322,6.547-17.828,6-37.952-.7-55.693H43.6v234.965A59.839,59.839,0,0,0,73.524,1697.663Z" fill="#ffe891" opacity="0.34"/>
        <path id="Trazado_115135" data-name="Trazado 115135" d="M97.583,1726.888c22.746-16.924,35.872-45.981,33.534-74.236-1.251-15.123-6.39-31.356.753-44.745,5.848-10.961,18.692-16.624,31.076-17.62s24.706,1.845,36.977,3.792c28.9,4.584,59.019,4.152,86.813-5s53.109-27.58,67.251-53.2c11.456-20.753,14.768-46.315,7.925-68.8h-65.1c6.693,17.741,7.243,37.865.7,55.693-10.03,27.315-36.244,47.966-65.148,51.322-21.46,2.492-42.914-3.843-64.5-4.645s-46.29,6.3-55.251,25.96c-7.519,16.493-1.414,35.8-3.366,53.816a61.009,61.009,0,0,1-35.713,48.433,59.839,59.839,0,0,1-29.919,4.386v41.158A85.365,85.365,0,0,0,97.583,1726.888Z" fill="#fff7da" opacity="0.34"/>
        <path id="Trazado_115136" data-name="Trazado 115136" d="M1041.51,1936.14c-22.788,17.621-41.469,40.489-65.961,55.654-33.64,20.83-74.727,25.061-114.252,26.864s-80.074,1.879-117.076,15.892c-29.572,11.2-56.827,33.771-67.941,62.534h75.914c16.916-26.329,42.463-47.2,72.244-56.951,59.454-19.462,128.594,2.72,184.606-25.142,39.678-19.737,66.491-62.067,108.972-74.688,30.736-9.131,64.558-.5,92.076,15.959a222.085,222.085,0,0,1,33.513,25.055v-61.773C1180.479,1886.971,1098.059,1892.411,1041.51,1936.14Z" transform="translate(123.992 -120)" fill="#fff7da" opacity="0.34"/>
        <path id="Trazado_115137" data-name="Trazado 115137" d="M1118.016,1940.3c-42.481,12.621-69.294,54.951-108.972,74.688-56.012,27.862-125.152,5.68-184.606,25.142-29.781,9.749-55.328,30.622-72.244,56.951H1243.6V1981.317a222.085,222.085,0,0,0-33.513-25.055C1182.574,1939.805,1148.752,1931.172,1118.016,1940.3Z" transform="translate(123.992 -120)" fill="#ffe891" opacity="0.34"/>
        <g id="Grupo_81202" data-name="Grupo 81202" transform="translate(-327.603 1053.251)">
          <g id="Grupo_81065" data-name="Grupo 81065" transform="translate(142.989 194.851)" style="mix-blend-mode: overlay;isolation: isolate">
            <path id="Trazado_115015" data-name="Trazado 115015" d="M486.285,376.232c-25.158,25.743-51.156,50.54-77.651,74.9,11.456-25.9,23.805-51.386,34.682-77.557,12.328-29.669,26.662-70.111,11.117-101.232-35.424-70.936-124.969-1.332-157.923,34.374-3.509,3.807-6.861,7.78-10.255,11.707,11.775-28.834,22.375-58.461,19.576-89.614-3.848-42.833-43.115-53.109-76.92-33.2-36.3,21.367-65.459,58.341-89.8,91.922-20.678,28.521,26.636,55.673,47.151,27.56a370.886,370.886,0,0,1,36.859-43.115q-2.937,5.381-5.937,10.741c-13.226,23.628-26.291,47.35-37.068,72.22-20.636,47.616-51.156,113.539-25.195,163.625,13.086,25.241,43.768,27.805,66.868,17.534,31.053-13.806,52.561-44.285,73.3-70.08,21.644-26.933,40.708-55.532,60.743-83.635,8.37-11.743,16.735-23.654,26.322-34.452.219-.251.449-.48.668-.726l-.24.757c-5.321,16.542-12.161,32.416-19.09,48.332-12.887,29.612-29.513,60.78-34.233,93-4.172,28.489,7.362,60.42,41.627,58.352,32.212-1.942,58.028-32.969,79.562-53.689,26.077-25.1,51.689-50.686,77.306-76.252C554.5,391,512.712,349.2,486.285,376.232Z" transform="translate(-128.709 -180.607)" fill="#3c384f"/>
            <path id="Trazado_115016" data-name="Trazado 115016" d="M372.087,557.187c-12.642,0-23.372-4.438-31.178-12.939-10.851-11.817-15.54-31.064-12.548-51.485,3.9-26.625,15.513-52.128,26.74-76.784,2.689-5.906,5.352-11.754,7.869-17.54,2.386-5.488,4.9-11.253,7.389-17.216q-2.287,3.188-4.527,6.339l-1.483,2.083c-5.206,7.3-10.344,14.631-15.477,21.962-14.417,20.573-29.325,41.851-45.449,61.913-2.355,2.929-4.72,5.921-7.112,8.945-18.49,23.382-39.444,49.882-68.132,62.634-25.576,11.357-59.072,8.177-73.62-19.9-26.145-50.436,2.083-115.336,22.7-162.722l2.339-5.389c6.062-14,12.861-27.664,20.072-41.267q-2.507,3.266-4.919,6.579c-12.683,17.378-34.9,17.117-49.052,6.819-11.707-8.516-18.276-24.349-6.548-40.525,25.988-35.846,55.047-71.97,91.384-93.358,20.166-11.869,42.238-13.8,59.057-5.154,14.809,7.608,23.941,22.662,25.711,42.394,2.078,23.142-2.919,45.292-10.161,66.424,26.813-26.2,76.4-63.349,116.187-57.72,18.276,2.6,32.421,13.686,42.045,32.959,15.832,31.7,3.342,71.155-10.965,105.571-6.809,16.386-14.3,32.729-21.539,48.54l-2.564,5.592c21.55-20.208,40.828-39.032,58.519-57.13v.005c8.746-8.955,19.858-12.245,31.257-9.284a38.474,38.474,0,0,1,26.62,26.427c3.123,11.514-.068,22.761-8.992,31.664l-2.914,2.9c-24.255,24.208-49.334,49.24-74.461,73.411-3.1,2.982-6.276,6.172-9.556,9.462-19.508,19.555-43.783,43.9-73.312,45.679C374.327,557.156,373.2,557.187,372.087,557.187Zm14.981-210.751a4.929,4.929,0,0,1,2.527.674,5.08,5.08,0,0,1,2.465,5.927l-.245.762c-5.577,17.346-12.85,34.061-19.268,48.807-2.543,5.843-5.232,11.743-7.942,17.7-10.924,24-22.223,48.812-25.91,73.975-2.5,17.085,1.295,33.528,9.905,42.906,6.386,6.955,15.2,10.1,26.234,9.477,25.565-1.546,47.339-23.372,66.55-42.635,3.331-3.337,6.564-6.579,9.707-9.608,25.059-24.108,50.107-49.1,74.33-73.281l2.908-2.9c7.9-7.874,7.775-16.057,6.292-21.534a28.109,28.109,0,0,0-19.169-19.054c-5.4-1.41-13.451-1.42-21.158,6.47v.005c-22.855,23.377-48.321,47.94-77.86,75.087a5.222,5.222,0,0,1-8.308-5.958c4.329-9.791,8.788-19.519,13.247-29.246,7.2-15.728,14.652-31.988,21.388-48.2,13.4-32.238,25.221-68.962,11.268-96.893-8.109-16.25-19.289-25.174-34.176-27.283-37.089-5.253-89.248,34.7-115.236,62.869-2.773,3-5.441,6.109-8.114,9.221l-2.021,2.355a5.222,5.222,0,0,1-8.788-5.384c11.211-27.466,21.931-56.822,19.205-87.181-1.462-16.265-8.407-28.035-20.082-34.035-13.618-7-31.93-5.175-48.989,4.861-34.682,20.422-62.9,55.558-88.225,90.491-8,11.039-3.06,20.646,4.235,25.952,9.879,7.18,25.314,8.026,34.473-4.532a378.147,378.147,0,0,1,37.377-43.726,5.224,5.224,0,0,1,8.287,6.188q-2.953,5.4-5.968,10.788c-13.388,23.926-26.286,47.418-36.828,71.745l-2.345,5.4c-19.78,45.465-46.859,107.733-23.007,153.751,11.587,22.354,39.011,24.536,60.112,15.164,26.333-11.7,45.574-36.035,64.179-59.568,2.407-3.039,4.793-6.057,7.169-9.007,15.905-19.8,30.708-40.927,45.031-61.365q7.723-11.028,15.524-22.03l1.483-2.078c7.859-11.033,15.983-22.437,25.189-32.813l.465-.506A5.7,5.7,0,0,1,387.068,346.436ZM490.56,380.466h0Z" transform="translate(-132.979 -184.841)" fill="#3c384f"/>
            <path id="Trazado_115017" data-name="Trazado 115017" d="M160.229,225.421c-19.237,38.661-30.092,83.985-13.19,125.539,2.5,6.146,12.6,3.457,10.067-2.778-15.863-39.016-5.953-81.129,12.14-117.492C172.234,224.7,163.227,219.4,160.229,225.421Z" transform="translate(-108.991 -24.736)" fill="#3c384f"/>
            <path id="Trazado_115018" data-name="Trazado 115018" d="M158.8,267.243c-.089-.01-.172-.036-.256-.052-.146-.282-.277-.59-.324-.674l-.026-.031c-.01-.042.005-.01-.01-.073-.674-2.334-1.154-4.694-1.666-7.07q-1.77-8.263-3.546-16.526a5.258,5.258,0,0,0-6.423-3.645,5.344,5.344,0,0,0-3.65,6.423q2.005,9.344,4.015,18.693c1.112,5.185,2.893,11.989,9.107,13.028,2.684.449,5.754-.7,6.423-3.65C163.017,271.143,161.68,267.723,158.8,267.243Z" transform="translate(-91.701 43.655)" fill="#3c384f"/>
            <path id="Trazado_115019" data-name="Trazado 115019" d="M202.244,202.259c-5.927-3.164-11.206,5.848-5.269,9.018,8.2,4.376,10.7,13.284,11.023,22.035a151.018,151.018,0,0,1-2.355,29.936,198.677,198.677,0,0,1-18.124,56.091c-2.982,6,6.021,11.294,9.018,5.269a208.975,208.975,0,0,0,20.27-66.059C219.266,239.73,222.211,212.917,202.244,202.259Z" transform="translate(94.745 -114.106)" fill="#3c384f"/>
          </g>
          <g id="Grupo_81068" data-name="Grupo 81068" transform="translate(130.608 182.47)">
            <g id="Grupo_81067" data-name="Grupo 81067">
              <g id="Grupo_81066" data-name="Grupo 81066">
                <path id="Trazado_115020" data-name="Trazado 115020" d="M483.918,373.863c-25.158,25.743-51.156,50.54-77.656,74.894,11.456-25.894,23.811-51.386,34.687-77.552,12.328-29.669,26.657-70.111,11.117-101.232-35.424-70.936-124.97-1.337-157.923,34.374-3.514,3.8-6.861,7.775-10.255,11.707,11.77-28.834,22.37-58.461,19.576-89.614-3.848-42.833-43.115-53.109-76.92-33.21-36.306,21.372-65.459,58.347-89.807,91.927-20.678,28.521,26.641,55.673,47.157,27.56a371.356,371.356,0,0,1,36.854-43.12q-2.937,5.381-5.932,10.746c-13.226,23.628-26.291,47.35-37.068,72.215-20.641,47.621-51.156,113.539-25.194,163.63,13.085,25.241,43.763,27.805,66.868,17.534,31.053-13.806,52.561-44.285,73.3-70.08,21.644-26.933,40.7-55.532,60.738-83.635,8.376-11.743,16.741-23.654,26.322-34.458.219-.245.454-.475.674-.726l-.24.762c-5.321,16.542-12.166,32.416-19.09,48.332-12.892,29.607-29.513,60.775-34.233,93-4.177,28.489,7.363,60.42,41.627,58.352,32.207-1.943,58.023-32.969,79.557-53.689,26.082-25.1,51.694-50.692,77.312-76.257C552.128,388.635,510.339,346.83,483.918,373.863Z" transform="translate(-126.342 -178.237)" fill="#ff5f65"/>
                <path id="Trazado_115021" data-name="Trazado 115021" d="M369.711,554.811c-12.642,0-23.367-4.433-31.173-12.934C327.687,530.06,323,510.814,325.99,490.386c3.9-26.62,15.508-52.122,26.74-76.784,2.684-5.906,5.347-11.749,7.869-17.534,2.386-5.488,4.9-11.253,7.389-17.216-1.525,2.12-3.034,4.24-4.527,6.339l-1.483,2.078c-5.206,7.3-10.344,14.636-15.482,21.962-14.412,20.578-29.32,41.857-45.444,61.913q-3.532,4.4-7.112,8.95c-18.49,23.377-39.444,49.877-68.132,62.634-25.581,11.357-59.072,8.172-73.62-19.9-26.145-50.431,2.083-115.33,22.693-162.722l2.344-5.384c6.062-14,12.861-27.664,20.067-41.267q-2.5,3.266-4.919,6.574c-12.678,17.383-34.891,17.122-49.047,6.825-11.707-8.516-18.276-24.349-6.548-40.525,25.988-35.846,55.047-71.97,91.379-93.363,20.171-11.864,42.238-13.79,59.062-5.149,14.809,7.608,23.936,22.657,25.711,42.389,2.078,23.142-2.919,45.3-10.167,66.425,26.818-26.192,76.4-63.344,116.187-57.715,18.276,2.6,32.426,13.686,42.05,32.959,15.827,31.7,3.337,71.15-10.965,105.571-6.809,16.38-14.3,32.729-21.539,48.535l-2.564,5.592c21.55-20.2,40.828-39.026,58.519-57.125h0c8.746-8.955,19.858-12.239,31.257-9.279a38.457,38.457,0,0,1,26.615,26.427c3.128,11.514-.063,22.756-8.986,31.659l-2.914,2.908c-24.255,24.207-49.334,49.235-74.461,73.411-3.1,2.982-6.276,6.172-9.561,9.462-19.5,19.555-43.778,43.9-73.307,45.679C371.951,554.78,370.828,554.811,369.711,554.811Zm14.981-210.75a4.921,4.921,0,0,1,2.527.679,5.074,5.074,0,0,1,2.47,5.927l-.245.762c-5.577,17.341-12.85,34.061-19.268,48.807-2.543,5.838-5.232,11.738-7.942,17.7-10.929,24-22.229,48.812-25.915,73.97-2.5,17.085,1.295,33.528,9.911,42.911,6.381,6.95,15.2,10.1,26.234,9.477,25.565-1.546,47.339-23.372,66.545-42.635,3.331-3.342,6.569-6.584,9.712-9.608,25.059-24.108,50.107-49.1,74.33-73.28l2.908-2.909c7.89-7.869,7.775-16.051,6.287-21.534a28.092,28.092,0,0,0-19.169-19.049c-5.4-1.41-13.446-1.42-21.153,6.47h0c-22.855,23.377-48.321,47.94-77.86,75.092a5.222,5.222,0,0,1-8.308-5.958c4.329-9.791,8.788-19.519,13.242-29.252,7.206-15.722,14.652-31.983,21.393-48.2,13.4-32.238,25.221-68.962,11.268-96.9-8.114-16.245-19.294-25.168-34.176-27.283C380.394,244,328.23,283.959,302.242,312.12c-2.767,3-5.436,6.115-8.109,9.221l-2.026,2.36a5.223,5.223,0,0,1-8.788-5.389c11.216-27.461,21.936-56.822,19.21-87.175-1.462-16.271-8.407-28.04-20.082-34.04-13.623-6.992-31.93-5.169-48.989,4.867-34.687,20.417-62.9,55.558-88.225,90.491-8,11.039-3.06,20.641,4.235,25.946,9.879,7.185,25.315,8.031,34.473-4.527a377.208,377.208,0,0,1,37.376-43.726,5.22,5.22,0,0,1,8.282,6.182q-2.953,5.412-5.963,10.793c-13.393,23.926-26.286,47.418-36.833,71.745l-2.344,5.4c-19.774,45.465-46.854,107.733-23,153.746,11.587,22.359,39.011,24.542,60.111,15.169,26.333-11.7,45.574-36.04,64.179-59.568q3.611-4.566,7.164-9.013c15.91-19.79,30.714-40.922,45.037-61.359q7.723-11.028,15.524-22.035l1.483-2.073c7.859-11.033,15.983-22.443,25.184-32.813l.47-.507A5.694,5.694,0,0,1,384.691,344.06ZM488.184,378.1h0Z" transform="translate(-130.608 -182.47)"/>
              </g>
              <path id="Trazado_115022" data-name="Trazado 115022" d="M157.861,223.051c-19.242,38.661-30.092,83.98-13.2,125.539,2.5,6.141,12.605,3.457,10.073-2.778-15.869-39.021-5.958-81.129,12.14-117.492C169.86,222.32,160.858,217.025,157.861,223.051Z" transform="translate(-106.623 -22.366)"/>
              <path id="Trazado_115023" data-name="Trazado 115023" d="M156.426,264.872c-.089-.01-.172-.036-.256-.052-.146-.287-.282-.59-.329-.674l-.021-.031c-.01-.042.005-.016-.01-.078-.674-2.329-1.159-4.694-1.666-7.065q-1.778-8.263-3.545-16.526a5.261,5.261,0,0,0-6.428-3.645,5.343,5.343,0,0,0-3.645,6.423l4.01,18.688c1.117,5.19,2.9,11.994,9.112,13.033,2.684.444,5.754-.7,6.423-3.65C160.646,268.772,159.3,265.352,156.426,264.872Z" transform="translate(-89.33 46.027)"/>
              <path id="Trazado_115024" data-name="Trazado 115024" d="M199.874,199.888c-5.927-3.164-11.211,5.848-5.269,9.018,8.2,4.376,10.694,13.284,11.023,22.03a151.069,151.069,0,0,1-2.355,29.941,198.678,198.678,0,0,1-18.124,56.091c-2.987,6,6.021,11.294,9.018,5.269a209.191,209.191,0,0,0,20.27-66.059C216.9,237.354,219.842,210.54,199.874,199.888Z" transform="translate(97.115 -111.735)"/>
            </g>
          </g>
        </g>
        <g id="Grupo_81203" data-name="Grupo 81203" transform="translate(-128.027 1703.266)">
          <g id="Grupo_81065-2" data-name="Grupo 81065" transform="translate(136.488 188.349)" style="mix-blend-mode: overlay;isolation: isolate">
            <path id="Trazado_115015-2" data-name="Trazado 115015" d="M301.286,276.254c-11.947,12.225-24.293,24-36.874,35.568,5.44-12.3,11.3-24.4,16.47-36.83,5.854-14.089,12.661-33.294,5.279-48.072-16.822-33.686-59.345-.632-74.993,16.323-1.666,1.808-3.258,3.695-4.87,5.559,5.592-13.692,10.625-27.762,9.3-42.555-1.827-20.34-20.474-25.22-36.527-15.768-17.238,10.147-31.084,27.7-42.644,43.651-9.819,13.544,12.649,26.438,22.391,13.087a176.121,176.121,0,0,1,17.5-20.474q-1.395,2.555-2.819,5.1c-6.281,11.22-12.485,22.485-17.6,34.3-9.8,22.612-24.293,53.917-11.964,77.7,6.214,11.986,20.784,13.2,31.754,8.327,14.746-6.556,24.96-21.03,34.806-33.279,10.278-12.79,19.331-26.371,28.845-39.716a193.293,193.293,0,0,1,12.5-16.36c.1-.119.213-.228.317-.345l-.114.36c-2.527,7.855-5.775,15.393-9.066,22.951-6.12,14.062-14.015,28.863-16.256,44.162-1.981,13.529,3.5,28.692,19.767,27.71,15.3-.922,27.556-15.656,37.782-25.5,12.383-11.917,24.546-24.07,36.711-36.21C333.679,283.269,313.835,263.417,301.286,276.254Z" transform="translate(-131.483 -183.357)" fill="#3c384f"/>
            <path id="Trazado_115016-2" data-name="Trazado 115016" d="M246.525,361.658a19.438,19.438,0,0,1-14.806-6.144c-5.153-5.611-7.379-14.751-5.958-24.449,1.852-12.644,7.367-24.754,12.7-36.463,1.277-2.8,2.542-5.582,3.737-8.329,1.133-2.606,2.326-5.344,3.509-8.175q-1.086,1.514-2.15,3.01l-.7.989c-2.472,3.466-4.912,6.948-7.35,10.429-6.846,9.77-13.926,19.874-21.583,29.4-1.118,1.391-2.242,2.812-3.377,4.248-8.78,11.1-18.731,23.688-32.354,29.743-12.145,5.393-28.052,3.883-34.96-9.45-12.415-23.951.989-54.77,10.779-77.272l1.111-2.559c2.879-6.648,6.107-13.137,9.532-19.6q-1.19,1.551-2.336,3.124c-6.023,8.252-16.571,8.128-23.294,3.238-5.559-4.044-8.679-11.562-3.109-19.244,12.341-17.022,26.14-34.176,43.4-44.333,9.576-5.636,20.058-6.551,28.044-2.447,7.032,3.613,11.369,10.761,12.21,20.132.987,10.99-1.386,21.508-4.825,31.543,12.733-12.44,36.282-30.083,55.174-27.41,8.679,1.232,15.4,6.5,19.966,15.651,7.518,15.051,1.587,33.79-5.207,50.133-3.233,7.781-6.789,15.542-10.228,23.051l-1.217,2.656c10.233-9.6,19.388-18.535,27.789-27.129v0c4.153-4.253,9.43-5.815,14.843-4.409a18.27,18.27,0,0,1,12.641,12.549,15.033,15.033,0,0,1-4.27,15.036l-1.384,1.379c-11.518,11.5-23.427,23.383-35.359,34.861-1.47,1.416-2.98,2.931-4.538,4.493-9.264,9.286-20.792,20.846-34.814,21.692C247.589,361.643,247.053,361.658,246.525,361.658Zm7.114-100.08a2.341,2.341,0,0,1,1.2.32,2.412,2.412,0,0,1,1.17,2.814l-.117.362c-2.648,8.237-6.1,16.175-9.15,23.177-1.208,2.775-2.485,5.577-3.771,8.4-5.187,11.4-10.553,23.179-12.3,35.129-1.188,8.113.615,15.922,4.7,20.375,3.033,3.3,7.218,4.8,12.458,4.5,12.14-.734,22.48-11.1,31.6-20.246,1.582-1.585,3.117-3.124,4.61-4.563,11.9-11.448,23.794-23.318,35.3-34.8l1.381-1.379a10.085,10.085,0,0,0,2.988-10.226,13.348,13.348,0,0,0-9.1-9.048c-2.566-.67-6.388-.674-10.047,3.072v0c-10.853,11.1-22.946,22.765-36.974,35.657a2.48,2.48,0,0,1-3.945-2.829c2.056-4.649,4.173-9.269,6.291-13.888,3.419-7.469,6.958-15.19,10.156-22.889,6.365-15.309,11.977-32.748,5.351-46.012-3.851-7.717-9.16-11.954-16.229-12.956-17.613-2.495-42.382,16.48-54.723,29.855-1.317,1.423-2.584,2.9-3.853,4.379l-.96,1.118a2.48,2.48,0,0,1-4.173-2.556c5.324-13.043,10.414-26.983,9.12-41.4-.694-7.724-3.992-13.313-9.537-16.162-6.467-3.323-15.163-2.457-23.264,2.309-16.47,9.7-29.869,26.383-41.9,42.972-3.8,5.242-1.453,9.8,2.011,12.324,4.691,3.409,12.021,3.811,16.37-2.152a179.573,179.573,0,0,1,17.749-20.764,2.481,2.481,0,0,1,3.935,2.938q-1.4,2.566-2.834,5.123c-6.358,11.362-12.482,22.517-17.489,34.07l-1.113,2.564c-9.393,21.59-22.252,51.159-10.925,73.012,5.5,10.615,18.525,11.652,28.545,7.2,12.5-5.557,21.642-17.112,30.477-28.287,1.143-1.443,2.276-2.876,3.4-4.277,7.553-9.4,14.583-19.435,21.384-29.14q3.667-5.237,7.372-10.461l.7-.987a184.479,184.479,0,0,1,11.962-15.582l.221-.241A2.707,2.707,0,0,1,253.639,261.578Zm49.146,16.16h0Z" transform="translate(-132.979 -184.841)" fill="#3c384f"/>
            <path id="Trazado_115017-2" data-name="Trazado 115017" d="M148.9,224.026c-9.135,18.359-14.29,39.882-6.264,59.615,1.185,2.919,5.983,1.641,4.781-1.319-7.533-18.528-2.827-38.526,5.765-55.794C154.6,223.682,150.327,221.165,148.9,224.026Z" transform="translate(-124.572 -128.727)" fill="#3c384f"/>
            <path id="Trazado_115018-2" data-name="Trazado 115018" d="M150.374,252.394c-.042,0-.082-.017-.121-.025-.069-.134-.131-.28-.154-.32l-.012-.015c0-.02,0,0,0-.035-.32-1.108-.548-2.229-.791-3.357q-.841-3.924-1.684-7.848a2.5,2.5,0,0,0-3.05-1.731,2.538,2.538,0,0,0-1.733,3.05q.952,4.437,1.907,8.877c.528,2.462,1.374,5.693,4.324,6.187a2.54,2.54,0,0,0,3.05-1.733A2.508,2.508,0,0,0,150.374,252.394Z" transform="translate(-118.512 -104.757)" fill="#3c384f"/>
            <path id="Trazado_115019-2" data-name="Trazado 115019" d="M194.2,201.911c-2.814-1.5-5.321,2.777-2.5,4.282,3.893,2.078,5.081,6.308,5.234,10.464a71.716,71.716,0,0,1-1.118,14.216,94.346,94.346,0,0,1-8.607,26.636c-1.416,2.849,2.859,5.363,4.282,2.5a99.237,99.237,0,0,0,9.626-31.37C202.281,219.7,203.68,206.972,194.2,201.911Z" transform="translate(-53.166 -160.049)" fill="#3c384f"/>
          </g>
          <g id="Grupo_81068-2" data-name="Grupo 81068" transform="translate(130.608 182.47)">
            <g id="Grupo_81067-2" data-name="Grupo 81067">
              <g id="Grupo_81066-2" data-name="Grupo 81066">
                <path id="Trazado_115020-2" data-name="Trazado 115020" d="M298.916,273.883c-11.947,12.224-24.293,24-36.877,35.565,5.44-12.3,11.307-24.4,16.472-36.827,5.854-14.089,12.659-33.294,5.279-48.072-16.822-33.686-59.345-.635-74.993,16.323-1.669,1.805-3.258,3.692-4.87,5.559,5.589-13.692,10.623-27.762,9.3-42.555-1.827-20.34-20.474-25.22-36.527-15.77-17.241,10.149-31.084,27.707-42.647,43.654C124.23,245.3,146.7,258.2,156.442,244.847a176.349,176.349,0,0,1,17.5-20.477q-1.395,2.555-2.817,5.1c-6.281,11.22-12.485,22.485-17.6,34.293-9.8,22.614-24.293,53.917-11.964,77.7,6.214,11.986,20.782,13.2,31.754,8.327,14.746-6.556,24.96-21.03,34.806-33.279,10.278-12.79,19.329-26.371,28.843-39.716a194.791,194.791,0,0,1,12.5-16.363c.1-.117.216-.226.32-.345l-.114.362c-2.527,7.855-5.778,15.393-9.065,22.951-6.122,14.059-14.015,28.86-16.256,44.162-1.984,13.529,3.5,28.692,19.768,27.71,15.294-.922,27.553-15.656,37.779-25.5,12.386-11.917,24.548-24.072,36.713-36.212C331.307,280.9,311.463,261.047,298.916,273.883Z" transform="translate(-129.113 -180.986)" fill="#6b8dff"/>
                <path id="Trazado_115021-2" data-name="Trazado 115021" d="M244.151,359.284a19.43,19.43,0,0,1-14.8-6.142c-5.153-5.611-7.379-14.751-5.959-24.452,1.85-12.641,7.364-24.751,12.7-36.463,1.275-2.8,2.539-5.579,3.737-8.326,1.133-2.606,2.326-5.344,3.509-8.175-.724,1.007-1.441,2.013-2.15,3.01l-.7.987c-2.472,3.467-4.912,6.95-7.352,10.429-6.844,9.772-13.923,19.877-21.58,29.4q-1.677,2.09-3.377,4.25c-8.78,11.1-18.731,23.685-32.354,29.743-12.148,5.393-28.052,3.881-34.96-9.452-12.415-23.948.989-54.767,10.776-77.272l1.113-2.557c2.879-6.648,6.107-13.137,9.529-19.6q-1.187,1.551-2.336,3.122c-6.02,8.255-16.569,8.131-23.291,3.241-5.559-4.044-8.679-11.562-3.109-19.244,12.341-17.023,26.14-34.176,43.393-44.335,9.579-5.634,20.058-6.549,28.047-2.445,7.032,3.613,11.367,10.759,12.21,20.13.987,10.99-1.386,21.511-4.828,31.543,12.735-12.438,36.282-30.08,55.174-27.407,8.679,1.232,15.4,6.5,19.968,15.651,7.516,15.051,1.584,33.787-5.207,50.133-3.233,7.779-6.789,15.542-10.228,23.048l-1.217,2.656c10.233-9.594,19.388-18.533,27.789-27.127h0c4.153-4.253,9.43-5.812,14.843-4.406a18.262,18.262,0,0,1,12.639,12.549,15.022,15.022,0,0,1-4.267,15.034l-1.384,1.381c-11.518,11.5-23.427,23.38-35.359,34.861-1.47,1.416-2.98,2.931-4.54,4.493-9.261,9.286-20.789,20.846-34.811,21.692C245.215,359.27,244.682,359.284,244.151,359.284Zm7.114-100.08a2.337,2.337,0,0,1,1.2.322,2.409,2.409,0,0,1,1.173,2.814l-.117.362c-2.648,8.235-6.1,16.175-9.15,23.177-1.208,2.772-2.485,5.574-3.772,8.4-5.19,11.4-10.556,23.179-12.306,35.126-1.188,8.113.615,15.922,4.706,20.377,3.03,3.3,7.218,4.8,12.458,4.5,12.14-.734,22.48-11.1,31.6-20.246,1.582-1.587,3.119-3.127,4.612-4.562,11.9-11.448,23.794-23.318,35.3-34.8l1.381-1.381a10.08,10.08,0,0,0,2.985-10.226,13.34,13.34,0,0,0-9.1-9.046c-2.564-.67-6.385-.674-10.045,3.072h0c-10.853,11.1-22.946,22.765-36.973,35.659a2.48,2.48,0,0,1-3.945-2.829c2.056-4.649,4.173-9.269,6.288-13.891,3.422-7.466,6.958-15.188,10.159-22.887,6.363-15.309,11.977-32.748,5.351-46.014-3.853-7.714-9.162-11.952-16.229-12.956-17.613-2.492-42.384,16.482-54.725,29.855-1.314,1.426-2.581,2.9-3.851,4.379l-.962,1.121a2.48,2.48,0,0,1-4.173-2.559c5.326-13.04,10.417-26.983,9.122-41.4-.694-7.726-3.992-13.316-9.537-16.165-6.469-3.32-15.163-2.455-23.264,2.311-16.472,9.7-29.869,26.383-41.9,42.972-3.8,5.242-1.453,9.8,2.011,12.321,4.691,3.412,12.021,3.814,16.37-2.15a179.125,179.125,0,0,1,17.749-20.764,2.479,2.479,0,0,1,3.933,2.936q-1.4,2.57-2.832,5.125c-6.36,11.362-12.482,22.517-17.491,34.07L156.18,268.8c-9.39,21.59-22.25,51.159-10.923,73.01,5.5,10.618,18.525,11.654,28.545,7.2,12.5-5.557,21.642-17.114,30.477-28.287q1.715-2.168,3.4-4.28c7.555-9.4,14.585-19.433,21.387-29.138,2.445-3.491,4.892-6.985,7.372-10.464l.7-.984A184.562,184.562,0,0,1,249.1,260.278l.223-.241A2.7,2.7,0,0,1,251.265,259.2Zm49.146,16.162h0Z" transform="translate(-130.608 -182.47)"/>
              </g>
              <path id="Trazado_115022-2" data-name="Trazado 115022" d="M146.533,221.656c-9.137,18.359-14.29,39.88-6.266,59.615,1.188,2.916,5.986,1.641,4.783-1.319-7.536-18.53-2.829-38.526,5.765-55.794C152.231,221.309,147.957,218.794,146.533,221.656Z" transform="translate(-122.202 -126.356)" fill="#3c3fa7"/>
              <path id="Trazado_115023-2" data-name="Trazado 115023" d="M148,250.023c-.042,0-.082-.017-.121-.025-.069-.136-.134-.28-.156-.32l-.01-.015c0-.02,0-.007,0-.037-.32-1.106-.55-2.229-.791-3.355q-.844-3.924-1.684-7.848a2.5,2.5,0,0,0-3.052-1.731,2.537,2.537,0,0,0-1.731,3.05l1.9,8.875c.531,2.465,1.376,5.7,4.327,6.189a2.542,2.542,0,0,0,3.05-1.733A2.51,2.51,0,0,0,148,250.023Z" transform="translate(-116.141 -102.385)" fill="#3c3fa7"/>
              <path id="Trazado_115024-2" data-name="Trazado 115024" d="M191.827,199.54c-2.814-1.5-5.324,2.777-2.5,4.282,3.893,2.078,5.078,6.308,5.234,10.462a71.739,71.739,0,0,1-1.118,14.218,94.347,94.347,0,0,1-8.607,26.636c-1.418,2.849,2.859,5.363,4.282,2.5a99.34,99.34,0,0,0,9.626-31.37C199.911,217.331,201.309,204.6,191.827,199.54Z" transform="translate(-50.795 -157.678)"/>
            </g>
          </g>
        </g>
      </g>
    </g>
  </g>
</svg>
