<svg xmlns="http://www.w3.org/2000/svg" xmlns:xlink="http://www.w3.org/1999/xlink" width="87" height="86" viewBox="0 0 87 86">
  <defs>
    <clipPath id="clip-path">
      <rect id="Rectángulo_35521" data-name="Rectángulo 35521" width="85" height="75" transform="translate(265 5863)" fill="#fff" stroke="#707070" stroke-width="1"/>
    </clipPath>
  </defs>
  <g id="Grupo_158916" data-name="Grupo 158916" transform="translate(-263 -5827)">
    <circle id="Elipse_4877" data-name="Elipse 4877" cx="42.5" cy="42.5" r="42.5" transform="translate(263 5827)" fill="#ffd947"/>
    <g id="Enmascarar_grupo_102" data-name="Enmascarar grupo 102" transform="translate(0 -25)" clip-path="url(#clip-path)">
      <g id="alunizaje" transform="translate(265 5859)">
        <g id="Grupo_93457" data-name="Grupo 93457">
          <g id="Grupo_93456" data-name="Grupo 93456">
            <path id="Trazado_120669" data-name="Trazado 120669" d="M7.222,38.957V45a.608.608,0,0,0,.608.608h9.522V38.349H7.83a.608.608,0,0,0-.608.608Z" fill="#fe646f"/>
            <path id="Trazado_120670" data-name="Trazado 120670" d="M82.573,77.423A1.184,1.184,0,0,0,83.706,75.9a42.962,42.962,0,0,0-82.411,0,1.184,1.184,0,0,0,1.133,1.522Z" fill="#ffefd2"/>
            <path id="Trazado_120671" data-name="Trazado 120671" d="M83.706,75.9A42.966,42.966,0,0,0,42.5,45.1c-.556,0-1.109.012-1.66.033A42.97,42.97,0,0,1,80.385,75.9a1.184,1.184,0,0,1-1.133,1.522h3.32A1.184,1.184,0,0,0,83.706,75.9Z" fill="#fedbbd"/>
            <g id="Grupo_93454" data-name="Grupo 93454">
              <path id="Trazado_120672" data-name="Trazado 120672" d="M61.762,24.992l-6.975,4.662V13.368l6.975,4.662a1.073,1.073,0,0,1,.477.893V24.1A1.075,1.075,0,0,1,61.762,24.992Z" fill="#fee45a"/>
              <path id="Trazado_120673" data-name="Trazado 120673" d="M23.238,24.992l6.975,4.662V13.368l-6.975,4.662a1.073,1.073,0,0,0-.477.893V24.1A1.074,1.074,0,0,0,23.238,24.992Z" fill="#fee45a"/>
            </g>
            <path id="Trazado_120674" data-name="Trazado 120674" d="M60.608,52.486H54.963a.469.469,0,0,0-.469.469v1.386a3.291,3.291,0,0,0,6.583,0V52.954a.469.469,0,0,0-.469-.469Z" fill="#8d9ca8"/>
            <path id="Trazado_120675" data-name="Trazado 120675" d="M24.392,52.486h5.645a.469.469,0,0,1,.469.469v1.386a3.291,3.291,0,0,1-6.583,0V52.954A.469.469,0,0,1,24.392,52.486Z" fill="#8d9ca8"/>
            <path id="Trazado_120676" data-name="Trazado 120676" d="M45.323,52.486H39.677a.469.469,0,0,0-.469.469v1.386a3.291,3.291,0,0,0,6.583,0V52.954A.469.469,0,0,0,45.323,52.486Z" fill="#8d9ca8"/>
            <path id="Trazado_120677" data-name="Trazado 120677" d="M51.773,35.444H33.227v6.8a.97.97,0,0,0,.28.681L36.829,46.3a.689.689,0,0,0,.49.2H47.681a.688.688,0,0,0,.49-.2l3.323-3.368a.97.97,0,0,0,.28-.681v-6.8Z" fill="#fec165"/>
            <path id="Trazado_120678" data-name="Trazado 120678" d="M48.453,35.444v6.8a.97.97,0,0,1-.28.681L44.85,46.3a.688.688,0,0,1-.49.2h3.32a.688.688,0,0,0,.49-.2l3.323-3.368a.97.97,0,0,0,.28-.681v-6.8Z" fill="#fe9901"/>
            <path id="Trazado_120679" data-name="Trazado 120679" d="M30.252,7.577h24.5a1.685,1.685,0,0,1,1.685,1.685v24.5a1.685,1.685,0,0,1-1.685,1.685h-24.5a1.685,1.685,0,0,1-1.685-1.685V9.263A1.685,1.685,0,0,1,30.252,7.577Z" fill="#3692bc"/>
            <path id="Trazado_120680" data-name="Trazado 120680" d="M54.748,7.577h-3.32a1.685,1.685,0,0,1,1.685,1.685v24.5a1.685,1.685,0,0,1-1.685,1.685h3.32a1.685,1.685,0,0,0,1.685-1.685V9.263A1.685,1.685,0,0,0,54.748,7.577Z" fill="#017297"/>
            <path id="Trazado_120681" data-name="Trazado 120681" d="M45.229,24.673H39.771a.433.433,0,0,1-.433-.433V18.782a.433.433,0,0,1,.433-.433h5.458a.433.433,0,0,1,.433.433v5.458a.433.433,0,0,1-.433.433Z" fill="#fed2a4"/>
            <g id="Grupo_93455" data-name="Grupo 93455">
              <path id="Trazado_120682" data-name="Trazado 120682" d="M29.43,76.97a5.507,5.507,0,0,0-11.013,0c0,.153.008.3.02.453H29.41c.012-.15.02-.3.02-.453Z" fill="#fedbbd"/>
              <circle id="Elipse_4886" data-name="Elipse 4886" cx="3.856" cy="3.856" r="3.856" transform="translate(56.433 63.211)" fill="#fedbbd"/>
              <path id="Trazado_120683" data-name="Trazado 120683" d="M7.492,63.166a3.856,3.856,0,1,0,4.352-5.2,43.188,43.188,0,0,0-4.352,5.2Z" fill="#fedbbd"/>
            </g>
          </g>
        </g>
        <g id="Grupo_93458" data-name="Grupo 93458">
          <path id="Trazado_120684" data-name="Trazado 120684" d="M84.9,75.548A44.121,44.121,0,0,0,71.535,54.73,1.245,1.245,0,0,0,69.9,56.606,41.637,41.637,0,0,1,82.488,76.177H30.626a6.741,6.741,0,0,0-.845-2.567,1.245,1.245,0,1,0-2.159,1.24,4.236,4.236,0,0,1,.488,1.327H19.738a4.285,4.285,0,0,1,4.11-3.469,1.245,1.245,0,1,0-.043-2.49,6.787,6.787,0,0,0-6.584,5.959H2.512a41.447,41.447,0,0,1,4.981-10.8,5.1,5.1,0,1,0,6.531-7.79A41.863,41.863,0,0,1,25.97,49.754V51.24H24.392a1.716,1.716,0,0,0-1.714,1.714V54.34a4.536,4.536,0,0,0,9.073,0V52.954a1.716,1.716,0,0,0-1.714-1.714H28.46V48.769a41.259,41.259,0,0,1,7.215-1.87l.267.27a1.944,1.944,0,0,0,1.377.576h3.936V51.24H39.677a1.716,1.716,0,0,0-1.714,1.714V54.34a4.536,4.536,0,0,0,9.073,0V52.954a1.716,1.716,0,0,0-1.714-1.714H43.745V47.746h3.936a1.944,1.944,0,0,0,1.376-.576l.266-.27a41.4,41.4,0,0,1,7.216,1.86v2.48H54.963a1.716,1.716,0,0,0-1.714,1.714V54.34a4.536,4.536,0,0,0,9.073,0V52.954a1.716,1.716,0,0,0-1.714-1.714H59.03v-1.5a41.687,41.687,0,0,1,6.4,3.463A1.245,1.245,0,0,0,66.8,51.129a44.073,44.073,0,0,0-7.773-4.084V43.328A1.98,1.98,0,0,0,57.8,41.493L53.017,39.52V36.689h1.73a2.934,2.934,0,0,0,2.931-2.931v-4.54l4.773-3.19A2.314,2.314,0,0,0,63.484,24.1V18.923a2.313,2.313,0,0,0-1.031-1.928L57.678,13.8V9.263a2.934,2.934,0,0,0-2.931-2.931H38.956a1.245,1.245,0,0,0,0,2.49H54.747a.441.441,0,0,1,.44.44v24.5a.441.441,0,0,1-.44.44H30.252a.441.441,0,0,1-.44-.44V9.263a.441.441,0,0,1,.44-.44h2.894a1.245,1.245,0,1,0,0-2.49H30.252a2.934,2.934,0,0,0-2.931,2.931V13.8l-4.773,3.19a2.314,2.314,0,0,0-1.033,1.929V24.1a2.313,2.313,0,0,0,1.031,1.928l4.774,3.191v4.54a2.934,2.934,0,0,0,2.931,2.931h1.73V39.52L27.2,41.494a1.979,1.979,0,0,0-1.228,1.834v3.726A44.173,44.173,0,0,0,18.6,50.88V38.349A1.245,1.245,0,0,0,17.353,37.1H7.831a1.856,1.856,0,0,0-1.853,1.854V45a1.855,1.855,0,0,0,1.853,1.853h8.277v5.76A44.46,44.46,0,0,0,.1,75.548a2.429,2.429,0,0,0,2.327,3.119H82.572A2.429,2.429,0,0,0,84.9,75.548ZM29.261,54.34a2.046,2.046,0,0,1-4.092,0v-.61h4.092Zm15.285,0a2.046,2.046,0,0,1-4.093,0v-.61h4.093Zm15.285,0a2.046,2.046,0,0,1-4.092,0v-.61h4.092Zm1.162-35.326v4.993l-3.315,2.216V16.8ZM24.006,24.008V19.015L27.322,16.8v9.425ZM56.54,43.666v2.461a43.729,43.729,0,0,0-5.1-1.372l.94-.952a2.2,2.2,0,0,0,.639-1.556v-.033Zm-6.012-6.977v5.445l-3.08,3.121h-3.7V40.474a1.245,1.245,0,1,0-2.49,0v4.781h-3.7l-3.08-3.121V36.689ZM28.46,43.666l3.522-1.453v.033A2.2,2.2,0,0,0,32.62,43.8l.942.955a43.783,43.783,0,0,0-5.1,1.377Zm-19.992.692V39.594h7.64v4.765Zm2.61,20a2.593,2.593,0,0,1-2.121-1.09A41.874,41.874,0,0,1,12.206,59.4a2.61,2.61,0,0,1-1.127,4.964Z"/>
          <path id="Trazado_120685" data-name="Trazado 120685" d="M45.229,25.918a1.681,1.681,0,0,0,1.679-1.679V18.782A1.681,1.681,0,0,0,45.229,17.1H39.771a1.681,1.681,0,0,0-1.679,1.679V24.24a1.681,1.681,0,0,0,1.679,1.679Zm-4.646-6.325h3.835v3.835H40.583Z"/>
          <path id="Trazado_120686" data-name="Trazado 120686" d="M55.188,67.066a5.1,5.1,0,1,0,5.1-5.1A5.106,5.106,0,0,0,55.188,67.066Zm7.711,0a2.61,2.61,0,1,1-2.61-2.61A2.613,2.613,0,0,1,62.9,67.066Z"/>
        </g>
      </g>
    </g>
  </g>
</svg>
