<svg xmlns="http://www.w3.org/2000/svg" width="114" height="114" viewBox="0 0 114 114">
  <g id="Grupo_88528" data-name="Grupo 88528" transform="translate(-1164 -5316)">
    <circle id="Elipse_4827" data-name="Elipse 4827" cx="57" cy="57" r="57" transform="translate(1164 5316)" fill="#ffd947"/>
    <path id="Trazado_120455" data-name="Trazado 120455" d="M-21.418,2.258h-4.426L-12.186-26.3h4.444ZM-9.44-9.81a14.218,14.218,0,0,1,2.818-7.407,6.984,6.984,0,0,1,5.89-2.692,5.327,5.327,0,0,1,4.137,2.1L5.3-27.75h5.962L6.459,0H1.165l.253-2.114A6.1,6.1,0,0,1-3.442.379,5.385,5.385,0,0,1-7.859-1.707a9.2,9.2,0,0,1-1.707-5.5,16.92,16.92,0,0,1,.072-2.222Zm5.926.416A14.188,14.188,0,0,0-3.64-7.371q0,3,2.023,3.053A3.79,3.79,0,0,0,1.509-6l1.337-7.5A2.407,2.407,0,0,0,.461-15.212a3.039,3.039,0,0,0-2.683,1.436A9.264,9.264,0,0,0-3.514-9.395ZM11.716,2.258H7.29L20.948-26.3h4.444Z" transform="translate(1221 5386)" fill="#12263f"/>
  </g>
</svg>
