<svg xmlns="http://www.w3.org/2000/svg" width="158" height="158" viewBox="0 0 158 158">
  <g id="alerta" transform="translate(-11.05 -11.05)">
    <g id="Grupo_80778" data-name="Grupo 80778" transform="translate(36.969 48.073)">
      <path id="Trazado_114329" data-name="Trazado 114329" d="M76.718,35.865a38.57,38.57,0,0,0-38.57,38.57v58.423h77.135V74.435a38.57,38.57,0,0,0-38.564-38.57Z" transform="translate(-23.637 -35.865)" fill="#e5384f"/>
      <path id="Trazado_114330" data-name="Trazado 114330" d="M50.667,85.968l19.892-14.9-19.892-14.9Z" transform="translate(-17.478 -25.877)" fill="#fdbe00"/>
      <path id="Trazado_114331" data-name="Trazado 114331" d="M64,71.067l19.892,14.9v-29.8Z" transform="translate(-10.919 -25.877)" fill="#fdbe00"/>
      <path id="Trazado_114332" data-name="Trazado 114332" d="M35.625,96.442l-7.2,27.986H134.585l-7.2-27.986Z" transform="translate(-28.422 -6.063)" fill="#223b59"/>
    </g>
    <g id="Grupo_80779" data-name="Grupo 80779" transform="translate(11.05 11.05)">
      <path id="Trazado_114333" data-name="Trazado 114333" d="M43.8,79.663a2.612,2.612,0,0,0-2.611,2.611v42.178h-4.7a2.611,2.611,0,0,0-2.529,1.954L26.752,154.4a2.612,2.612,0,0,0,2.536,3.261H97.345a2.611,2.611,0,1,0,0-5.222H32.65l5.86-22.767h87.71l5.86,22.767h-5.762a2.611,2.611,0,1,0,0,5.222h9.131a2.612,2.612,0,0,0,2.536-3.261l-7.214-27.991a2.611,2.611,0,0,0-2.529-1.954h-4.7V75.262a41.178,41.178,0,0,0-82.182-3.675,2.611,2.611,0,1,0,5.2.457,35.957,35.957,0,0,1,71.764,3.218v49.19H84.976V87.095l15.716,11.773a2.611,2.611,0,0,0,4.178-2.089v-29.8a2.611,2.611,0,0,0-4.177-2.089L82.365,78.614,64.038,64.888a2.611,2.611,0,0,0-4.178,2.089v29.8a2.611,2.611,0,0,0,4.178,2.089L79.754,87.095v37.357H46.409V82.274A2.612,2.612,0,0,0,43.8,79.663Zm55.849-7.469V91.56L86.72,81.877ZM65.084,91.56V72.194L78.01,81.877Z" transform="translate(-3.365 0.336)"/>
      <path id="Trazado_114334" data-name="Trazado 114334" d="M90.027,118.672a2.611,2.611,0,1,0,0-5.222H81.881a2.611,2.611,0,0,0,0,5.222Z" transform="translate(22.512 39.328)"/>
      <path id="Trazado_114335" data-name="Trazado 114335" d="M67.472,34.35V13.661a2.611,2.611,0,1,0-5.222,0V34.35a2.611,2.611,0,1,0,5.222,0Z" transform="translate(14.139 -11.05)"/>
      <path id="Trazado_114336" data-name="Trazado 114336" d="M93.1,45.129l14.629-14.621a2.61,2.61,0,1,0-3.691-3.691L89.419,41.437a2.61,2.61,0,1,0,3.691,3.691Z" transform="translate(27.129 -3.67)"/>
      <path id="Trazado_114337" data-name="Trazado 114337" d="M43.282,45.894a2.611,2.611,0,0,0,1.846-4.457L30.506,26.816a2.61,2.61,0,0,0-3.691,3.691L41.436,45.136A2.6,2.6,0,0,0,43.282,45.894Z" transform="translate(-3.67 -3.67)"/>
      <path id="Trazado_114338" data-name="Trazado 114338" d="M34.35,67.472a2.611,2.611,0,1,0,0-5.222H13.661a2.611,2.611,0,1,0,0,5.222Z" transform="translate(-11.05 14.139)"/>
      <path id="Trazado_114339" data-name="Trazado 114339" d="M122.883,67.472a2.611,2.611,0,1,0,0-5.222H102.194a2.611,2.611,0,1,0,0,5.222Z" transform="translate(32.506 14.139)"/>
    </g>
  </g>
</svg>
