<svg xmlns="http://www.w3.org/2000/svg" width="213" height="236" viewBox="0 0 213 236">
  <g id="Grupo_158908" data-name="Grupo 158908" transform="translate(-217 -2892)">
    <g id="Rectángulo_34985" data-name="Rectángulo 34985" transform="translate(217 2892)" fill="#d5d6f0" stroke="#3c3fa7" stroke-width="1">
      <rect width="213" height="236" rx="10" stroke="none"/>
      <rect x="0.5" y="0.5" width="212" height="235" rx="9.5" fill="none"/>
    </g>
    <rect id="Rectángulo_34990" data-name="Rectángulo 34990" width="185" height="111" rx="10" transform="translate(231 2987)" fill="#fff"/>
    <path id="Trazado_135535" data-name="Trazado 135535" d="M-11.918-4.808-9.246-12.8h3.041L-10.846,0h-3.111l-.519-7.251L-17.235,0h-3.111l-.642-12.8h2.927l.176,7.954L-14.95-12.8h2.558Zm8.886-3.665A3.107,3.107,0,0,1-.58-9.694,2.472,2.472,0,0,1,1.542-8.648a3.981,3.981,0,0,1,.5,2.742L1.055,0H-1.837l.993-5.948a3.079,3.079,0,0,0,.018-.563.878.878,0,0,0-.967-.9,1.873,1.873,0,0,0-1.389.572L-4.395,0H-7.286l2.347-13.5h2.892ZM7.453.176a4.421,4.421,0,0,1-2.272-.6A3.793,3.793,0,0,1,3.674-2.079a4.44,4.44,0,0,1-.4-2.333L3.3-4.658a5.829,5.829,0,0,1,1.63-3.713A4.51,4.51,0,0,1,8.341-9.686a3.678,3.678,0,0,1,2.092.621A3.468,3.468,0,0,1,11.707-7.4a5.1,5.1,0,0,1,.264,2.381L11.8-3.814H6.144A1.854,1.854,0,0,0,6.565-2.6a1.549,1.549,0,0,0,1.178.492A2.993,2.993,0,0,0,10-3.076l1.213,1.6a3.578,3.578,0,0,1-1.5,1.2,5.263,5.263,0,0,1-2.1.451Zm.7-7.576a1.487,1.487,0,0,0-1.068.385A3.229,3.229,0,0,0,6.3-5.669H9.193l.053-.254A1.929,1.929,0,0,0,9.264-6.5,1.017,1.017,0,0,0,8.156-7.4Zm8.455-2.118-.2,1.143A3.38,3.38,0,0,1,19.16-9.694a2.27,2.27,0,0,1,1.964.98,4.1,4.1,0,0,1,.47,2.729L20.593,0h-2.9L18.7-6.01a3.108,3.108,0,0,0,.018-.563q-.062-.836-.984-.836a1.807,1.807,0,0,0-1.4.678L15.152,0H12.261l1.652-9.51ZM-29.936,20.192l2.672-7.989h3.041L-28.863,25h-3.111l-.519-7.251L-35.253,25h-3.111l-.642-12.8h2.927l.176,7.954,2.936-7.954h2.558Zm8.886-3.665A3.107,3.107,0,0,1-18.6,15.306a2.472,2.472,0,0,1,2.123,1.046,3.981,3.981,0,0,1,.5,2.742L-16.963,25h-2.892l.993-5.948a3.079,3.079,0,0,0,.018-.563.878.878,0,0,0-.967-.9,1.873,1.873,0,0,0-1.389.572L-22.412,25H-25.3l2.347-13.5h2.892ZM-9.932,25a2.578,2.578,0,0,1-.123-.861,2.933,2.933,0,0,1-2.329,1.037,2.866,2.866,0,0,1-2.057-.826,2.483,2.483,0,0,1-.765-1.96,2.79,2.79,0,0,1,1.292-2.377,6.091,6.091,0,0,1,3.41-.831l.967.018.105-.536L-9.4,18.2a.755.755,0,0,0-.8-.826,1.111,1.111,0,0,0-1.169,1.046l-2.9.009a2.754,2.754,0,0,1,.624-1.666,3.7,3.7,0,0,1,1.578-1.09,5.512,5.512,0,0,1,2.123-.356,4.251,4.251,0,0,1,1.894.453,2.82,2.82,0,0,1,1.217,1.187,3.031,3.031,0,0,1,.308,1.753l-.712,4.474-.044.545a2.4,2.4,0,0,0,.167,1.107L-7.119,25Zm-1.652-1.916a1.865,1.865,0,0,0,1.556-.782l.29-1.529-.747-.009a1.969,1.969,0,0,0-1.2.409,1.55,1.55,0,0,0-.589,1.068.778.778,0,0,0,.136.593A.7.7,0,0,0-11.584,23.084ZM-.519,13.126-.932,15.49H.589l-.36,2.057H-1.292l-.738,4.368a1.164,1.164,0,0,0,.057.677q.119.229.593.246a6.873,6.873,0,0,0,.756-.044l-.211,2.145a4.673,4.673,0,0,1-1.556.22A2.563,2.563,0,0,1-4.4,24.367a2.7,2.7,0,0,1-.545-2.1l.773-4.72H-5.353L-5,15.49h1.178l.413-2.364Zm10.521,0L9.589,15.49h1.521l-.36,2.057H9.229L8.49,21.915a1.164,1.164,0,0,0,.057.677q.119.229.593.246a6.873,6.873,0,0,0,.756-.044l-.211,2.145a4.673,4.673,0,0,1-1.556.22,2.563,2.563,0,0,1-2.013-.791,2.7,2.7,0,0,1-.545-2.1l.773-4.72H5.168L5.52,15.49H6.7l.413-2.364ZM13.711,25h-2.9l1.652-9.51h2.9Zm-.993-11.909a1.341,1.341,0,0,1,.453-1.072,1.625,1.625,0,0,1,1.138-.431,1.678,1.678,0,0,1,1.129.387,1.318,1.318,0,0,1,.47,1.011,1.344,1.344,0,0,1-.448,1.077,1.63,1.63,0,0,1-1.143.426,1.7,1.7,0,0,1-1.121-.382A1.3,1.3,0,0,1,12.718,13.091Zm7.189,2.391-.193,1.143a3.414,3.414,0,0,1,2.777-1.31,2.509,2.509,0,0,1,1.415.4,1.843,1.843,0,0,1,.738,1.028,3.619,3.619,0,0,1,2.892-1.433,2.241,2.241,0,0,1,1.956.989,4.117,4.117,0,0,1,.461,2.711L28.96,25h-2.9l1.011-5.987.035-.518q0-.869-.817-.9a1.872,1.872,0,0,0-1.424.781L23.713,25h-2.9l1-5.969.035-.527q0-.9-.817-.9a1.86,1.86,0,0,0-1.406.781L18.457,25H15.565l1.652-9.51Zm15.5,9.694a4.421,4.421,0,0,1-2.272-.6,3.793,3.793,0,0,1-1.507-1.652,4.44,4.44,0,0,1-.4-2.333l.026-.246a5.829,5.829,0,0,1,1.63-3.713,4.51,4.51,0,0,1,3.415-1.314,3.678,3.678,0,0,1,2.092.621A3.468,3.468,0,0,1,39.656,17.6a5.1,5.1,0,0,1,.264,2.381l-.167,1.206h-5.66a1.854,1.854,0,0,0,.422,1.213,1.549,1.549,0,0,0,1.178.492,2.993,2.993,0,0,0,2.259-.967l1.213,1.6a3.578,3.578,0,0,1-1.5,1.2,5.263,5.263,0,0,1-2.1.451Zm.7-7.576a1.487,1.487,0,0,0-1.068.385,3.229,3.229,0,0,0-.787,1.347h2.892l.053-.254a1.929,1.929,0,0,0,.018-.577A1.017,1.017,0,0,0,36.105,17.6ZM-21.665,50h-2.988l.923-5.344h-4.386L-29.048,50h-3.006l2.215-12.8h3.015l-.888,5.08h4.395l.879-5.08h3Zm7.383-9.686a3.994,3.994,0,0,1,2.206.637,3.59,3.59,0,0,1,1.367,1.727A5.33,5.33,0,0,1-10.4,45.14l-.018.193a5.636,5.636,0,0,1-1.626,3.533,4.575,4.575,0,0,1-3.41,1.31,3.977,3.977,0,0,1-2.188-.628,3.612,3.612,0,0,1-1.367-1.709,5.179,5.179,0,0,1-.321-2.443,5.863,5.863,0,0,1,1.6-3.727A4.547,4.547,0,0,1-14.282,40.314ZM-16.436,45.4l-.026.518q-.123,1.957,1.2,1.992,1.705.053,1.978-2.764l.035-.8a2.155,2.155,0,0,0-.294-1.259,1.073,1.073,0,0,0-.918-.487,1.512,1.512,0,0,0-1.314.654A4.278,4.278,0,0,0-16.436,45.4Zm15.117.69,1.907-5.6h2.83L-.4,50H-2.839l-.545-5.607L-5.889,50H-8.341l-.527-9.51h2.716l-.088,5.66,2.435-5.66h2.013Zm14.133-5.774a3.994,3.994,0,0,1,2.206.637,3.59,3.59,0,0,1,1.367,1.727A5.33,5.33,0,0,1,16.7,45.14l-.018.193a5.636,5.636,0,0,1-1.626,3.533,4.575,4.575,0,0,1-3.41,1.31,3.977,3.977,0,0,1-2.188-.628A3.612,3.612,0,0,1,8.09,47.838a5.179,5.179,0,0,1-.321-2.443,5.863,5.863,0,0,1,1.6-3.727A4.547,4.547,0,0,1,12.814,40.314ZM10.661,45.4l-.026.518q-.123,1.957,1.2,1.992,1.705.053,1.978-2.764l.035-.8a2.155,2.155,0,0,0-.294-1.259,1.073,1.073,0,0,0-.918-.487,1.512,1.512,0,0,0-1.314.654A4.278,4.278,0,0,0,10.661,45.4ZM20.215,50h-2.9l2.338-13.5h2.9Zm2.312-4.772a6.917,6.917,0,0,1,1.371-3.6,3.4,3.4,0,0,1,2.865-1.31,2.592,2.592,0,0,1,2.013,1.02L29.7,36.5h2.9L30.261,50H27.686l.123-1.028a2.968,2.968,0,0,1-2.364,1.213A2.62,2.62,0,0,1,23.3,49.169a4.476,4.476,0,0,1-.831-2.676,8.231,8.231,0,0,1,.035-1.081Zm2.883.2a6.9,6.9,0,0,0-.062.984q0,1.459.984,1.485a1.844,1.844,0,0,0,1.521-.817l.65-3.647a1.171,1.171,0,0,0-1.16-.835,1.478,1.478,0,0,0-1.305.7A4.507,4.507,0,0,0,25.409,45.43Z" transform="translate(324 3024)" fill="#3c3fa7"/>
    <rect id="Rectángulo_34268" data-name="Rectángulo 34268" width="177" height="48" rx="10" transform="translate(235 2918)" fill="#3c3fa7"/>
    <path id="Trazado_135534" data-name="Trazado 135534" d="M-27.84-4.273l2.375-7.1h2.7L-26.887,0h-2.766l-.461-6.445L-32.566,0h-2.766l-.57-11.375h2.6l.156,7.07,2.609-7.07h2.273ZM-14.309,0h-2.656l.82-4.75h-3.9L-20.871,0h-2.672l1.969-11.375h2.68l-.789,4.516h3.906L-15-11.375h2.664ZM-7-3.891h-4.57l.352-2.031h4.57ZM5.98-3.477l1.7-4.977h2.516L6.793,0H4.629L4.145-4.984,1.918,0H-.262L-.73-8.453H1.684L1.605-3.422,3.77-8.453H5.559ZM14.6-8.609a3.55,3.55,0,0,1,1.961.566,3.191,3.191,0,0,1,1.215,1.535,4.737,4.737,0,0,1,.277,2.188l-.016.172A5.01,5.01,0,0,1,16.59-1.008,4.067,4.067,0,0,1,13.559.156,3.535,3.535,0,0,1,11.613-.4,3.211,3.211,0,0,1,10.4-1.922a4.6,4.6,0,0,1-.285-2.172,5.211,5.211,0,0,1,1.426-3.312A4.041,4.041,0,0,1,14.6-8.609ZM12.684-4.09l-.023.46q-.109,1.739,1.063,1.771,1.516.047,1.758-2.457l.031-.71a1.916,1.916,0,0,0-.262-1.119.954.954,0,0,0-.816-.433A1.344,1.344,0,0,0,13.266-6,3.8,3.8,0,0,0,12.684-4.09ZM24.566-6.07a7.354,7.354,0,0,0-.8-.078,1.985,1.985,0,0,0-1.766.8L21.051,0H18.48l1.469-8.453,2.4-.008-.2,1.109a2.347,2.347,0,0,1,1.953-1.281,3.683,3.683,0,0,1,.8.109ZM24.7-4.242a6.148,6.148,0,0,1,1.219-3.2,3.02,3.02,0,0,1,2.547-1.164,2.3,2.3,0,0,1,1.789.906l.82-4.3h2.578L31.574,0H29.285l.109-.914a2.638,2.638,0,0,1-2.1,1.078,2.328,2.328,0,0,1-1.91-.9,3.979,3.979,0,0,1-.738-2.379,7.317,7.317,0,0,1,.031-.961Zm2.563.18a6.135,6.135,0,0,0-.055.875q0,1.3.875,1.32a1.639,1.639,0,0,0,1.352-.727l.578-3.242a1.041,1.041,0,0,0-1.031-.742,1.314,1.314,0,0,0-1.16.621A4.006,4.006,0,0,0,27.262-4.062ZM-60.5,14.141V18h-2.742V6.625H-58.7a5.287,5.287,0,0,1,2.309.48,3.621,3.621,0,0,1,1.555,1.367,3.734,3.734,0,0,1,.551,2.012,3.291,3.291,0,0,1-1.191,2.66,4.943,4.943,0,0,1-3.27,1Zm0-2.117h1.8a1.7,1.7,0,0,0,1.215-.4,1.48,1.48,0,0,0,.418-1.125,1.83,1.83,0,0,0-.43-1.273,1.522,1.522,0,0,0-1.172-.484H-60.5ZM-48.27,18a2.973,2.973,0,0,1-.25-.758,2.448,2.448,0,0,1-2.031.914,3,3,0,0,1-2.031-.723,2.3,2.3,0,0,1-.836-1.816A2.364,2.364,0,0,1-52.4,13.539a5.174,5.174,0,0,1,2.953-.7h.813v-.448q0-1.17-1.008-1.17a.824.824,0,0,0-.937.926h-2.633a2.36,2.36,0,0,1,1.043-1.99,4.383,4.383,0,0,1,2.66-.765,3.843,3.843,0,0,1,2.555.789A2.743,2.743,0,0,1-46,12.344v3.742a3.832,3.832,0,0,0,.359,1.781V18Zm-1.648-1.719a1.469,1.469,0,0,0,.816-.211,1.322,1.322,0,0,0,.465-.477V14.242H-49.4q-1.375,0-1.375,1.234a.754.754,0,0,0,.242.582A.876.876,0,0,0-49.918,16.281ZM-41.762,18H-44.4V6h2.641Zm6.383,0a2.973,2.973,0,0,1-.25-.758,2.448,2.448,0,0,1-2.031.914,3,3,0,0,1-2.031-.723,2.3,2.3,0,0,1-.836-1.816,2.364,2.364,0,0,1,1.016-2.078,5.174,5.174,0,0,1,2.953-.7h.813v-.448q0-1.17-1.008-1.17a.824.824,0,0,0-.937.926h-2.633a2.36,2.36,0,0,1,1.043-1.99,4.383,4.383,0,0,1,2.66-.765,3.843,3.843,0,0,1,2.555.789,2.743,2.743,0,0,1,.961,2.164v3.742a3.832,3.832,0,0,0,.359,1.781V18Zm-1.648-1.719a1.469,1.469,0,0,0,.816-.211,1.322,1.322,0,0,0,.465-.477V14.242h-.766q-1.375,0-1.375,1.234a.754.754,0,0,0,.242.582A.876.876,0,0,0-37.027,16.281ZM-23.8,13.844a5.152,5.152,0,0,1-.859,3.2,2.878,2.878,0,0,1-2.422,1.117,2.5,2.5,0,0,1-2.078-1.023L-29.27,18h-2.359V6H-29v4.227a2.41,2.41,0,0,1,1.9-.836,2.879,2.879,0,0,1,2.438,1.133,5.179,5.179,0,0,1,.859,3.188Zm-2.641-.168a3.437,3.437,0,0,0-.324-1.735,1.093,1.093,0,0,0-1-.519A1.261,1.261,0,0,0-29,12.1v3.354a1.268,1.268,0,0,0,1.25.671,1.118,1.118,0,0,0,1.18-.9A6.5,6.5,0,0,0-26.441,13.676Zm8.914-1.746-.867-.062a1.558,1.558,0,0,0-1.594.781V18h-2.633V9.547h2.469l.086,1.086a2.039,2.039,0,0,1,1.852-1.242,2.567,2.567,0,0,1,.734.094ZM-12.051,18a2.973,2.973,0,0,1-.25-.758,2.448,2.448,0,0,1-2.031.914,3,3,0,0,1-2.031-.723,2.3,2.3,0,0,1-.836-1.816,2.364,2.364,0,0,1,1.016-2.078,5.174,5.174,0,0,1,2.953-.7h.813v-.448q0-1.17-1.008-1.17a.824.824,0,0,0-.937.926H-17a2.36,2.36,0,0,1,1.043-1.99,4.383,4.383,0,0,1,2.66-.765,3.843,3.843,0,0,1,2.555.789,2.743,2.743,0,0,1,.961,2.164v3.742a3.832,3.832,0,0,0,.359,1.781V18ZM-13.7,16.281a1.469,1.469,0,0,0,.816-.211,1.322,1.322,0,0,0,.465-.477V14.242h-.766q-1.375,0-1.375,1.234a.754.754,0,0,0,.242.582A.876.876,0,0,0-13.7,16.281Zm12.938-.156a1.171,1.171,0,0,0,.859-.3,1.1,1.1,0,0,0,.3-.84H2.863a2.922,2.922,0,0,1-1,2.281A3.705,3.705,0,0,1-.7,18.156,3.751,3.751,0,0,1-3.605,17a4.556,4.556,0,0,1-1.062-3.2v-.109A5.149,5.149,0,0,1-4.2,11.426,3.441,3.441,0,0,1-2.832,9.918,4.065,4.065,0,0,1-.723,9.391a3.658,3.658,0,0,1,2.617.914,3.242,3.242,0,0,1,.969,2.477H.395a1.445,1.445,0,0,0-.32-1.008,1.106,1.106,0,0,0-.859-.352q-1.023,0-1.2,1.3a9.206,9.206,0,0,0-.055,1.141,3.616,3.616,0,0,0,.3,1.766A1.055,1.055,0,0,0-.762,16.125ZM3.645,13.7a4.989,4.989,0,0,1,.492-2.254,3.52,3.52,0,0,1,1.414-1.52,4.259,4.259,0,0,1,2.164-.531,3.887,3.887,0,0,1,2.992,1.176,4.512,4.512,0,0,1,1.094,3.2v.094A4.378,4.378,0,0,1,10.7,17a3.9,3.9,0,0,1-2.973,1.16,3.942,3.942,0,0,1-2.9-1.082,4.232,4.232,0,0,1-1.18-2.934Zm2.633.164a3.145,3.145,0,0,0,.367,1.719,1.223,1.223,0,0,0,1.086.547q1.406,0,1.438-2.164V13.7q0-2.273-1.453-2.273-1.32,0-1.43,1.961Zm9.1-4.312.086.992a2.867,2.867,0,0,1,2.414-1.148,2.412,2.412,0,0,1,1.973.789,3.757,3.757,0,0,1,.676,2.375V18H17.887V12.664a1.426,1.426,0,0,0-.258-.941,1.193,1.193,0,0,0-.937-.3,1.256,1.256,0,0,0-1.148.609V18H12.91V9.547Zm12.18-3.859,1.156.625a4.733,4.733,0,0,0-.664,2.164V9.859H26.129V8.57a3.484,3.484,0,0,1,.422-1.527A4.64,4.64,0,0,1,27.559,5.688Zm2.742,0,1.156.625a4.733,4.733,0,0,0-.664,2.164V9.859H28.871V8.57a3.484,3.484,0,0,1,.422-1.527A4.64,4.64,0,0,1,30.3,5.688Zm11.438,8.07,1.3-7.133h2.719L43.348,18H40.5L38.98,11.516,37.488,18H34.652L32.23,6.625h2.727l1.3,7.133,1.563-7.133h2.328ZM56.34,18H53.613V13.25H49.574V18H46.832V6.625h2.742v4.516h4.039V6.625H56.34ZM59,10.188,57.84,9.563a4.533,4.533,0,0,0,.664-2.2V6h1.922V7.273a3.445,3.445,0,0,1-.418,1.551A4.665,4.665,0,0,1,59,10.188Zm2.828,0-1.156-.625a4.533,4.533,0,0,0,.664-2.2V6h1.922V7.273a3.445,3.445,0,0,1-.418,1.551A4.665,4.665,0,0,1,61.824,10.188Z" transform="translate(324 2938)" fill="#fff"/>
  </g>
</svg>
