<svg xmlns="http://www.w3.org/2000/svg" width="91.23" height="91.333" viewBox="0 0 91.23 91.333">
  <g id="espana" transform="translate(-0.292)">
    <g id="Grupo_88442" data-name="Grupo 88442" transform="translate(1.943 1.539)">
      <path id="Trazado_120298" data-name="Trazado 120298" d="M9.624,15.514l9.464-6.845,8.876,4.172,1.775-3.373H40.39l5.325,5.148,18.639,1.775,10.651,5.325,7.988-2.652,5.325,2.652,9.486-2.652V29.621L90.094,40.367,76.781,43.018,71.455,60.331,79.443,65.2,68.793,87.4H43.075l-5.325,9.475L24.414,92.723V87.4L11.122,82.072,16.448,66.1,9.591,55.444l4.172-4.97V39.717l8.01-5.574v-7.1L9.6,25.266Z" transform="translate(-9.591 -8.669)" fill="#ff6b43"/>
      <path id="Trazado_120299" data-name="Trazado 120299" d="M350.308,68.223v8.422l-6.228,8.68-14.017,2.792-6.76,21.976,7.6,4.631-10,20.84h3.938l10.651-22.2-7.988-4.866,5.325-17.313,13.314-2.652,7.711-10.746V67.231Z" transform="translate(-265.644 -56.835)" fill="#ff2900"/>
      <path id="Trazado_120300" data-name="Trazado 120300" d="M90.094,146.107l6.369-8.876H21.773v2.652l-8.01,5.574v10.757l-4.172,4.97,6.857,10.651-1.775,5.325H76.457l2.986-6.224-7.988-4.866,5.325-17.313Z" transform="translate(-9.591 -114.409)" fill="#fff08a"/>
      <path id="Trazado_120301" data-name="Trazado 120301" d="M357.246,146.107l6.369-8.876h-4.37l-4.067,5.668-14.017,2.792-6.76,21.976L342,172.3l-2.333,4.863h3.938l2.986-6.224-7.988-4.866,5.325-17.313Z" transform="translate(-276.742 -114.409)" fill="#ffc472"/>
      <path id="Trazado_120302" data-name="Trazado 120302" d="M135.452,242.752h-4.26a7.1,7.1,0,0,1-7.1-7.1V223.669h18.462v11.982A7.1,7.1,0,0,1,135.452,242.752Z" transform="translate(-103.765 -185.503)" fill="#fff"/>
      <path id="Trazado_120303" data-name="Trazado 120303" d="M175.192,223.669v11.982a7.1,7.1,0,0,1-7.1,7.1h3.55a7.1,7.1,0,0,0,7.1-7.1V223.669Z" transform="translate(-139.955 -185.503)" fill="#bedaee"/>
      <path id="Trazado_120304" data-name="Trazado 120304" d="M124.091,223.669h9.231v8.654h-9.231Z" transform="translate(-103.765 -185.503)" fill="#ff6b43"/>
      <path id="Trazado_120305" data-name="Trazado 120305" d="M176.091,272.419v10.429h2.13a7.1,7.1,0,0,0,7.1-7.1v-3.328Z" transform="translate(-146.535 -225.599)" fill="#ff6b43"/>
      <path id="Trazado_120306" data-name="Trazado 120306" d="M181.772,272.419v3.328a7.1,7.1,0,0,1-5.681,6.958v.142h2.13a7.1,7.1,0,0,0,7.1-7.1v-3.328Z" transform="translate(-146.535 -225.599)" fill="#ff2900"/>
      <path id="Trazado_120307" data-name="Trazado 120307" d="M154.387,194.06h-9.874l-.775-2.79a2.84,2.84,0,0,1,2.737-3.6h5.951a2.84,2.84,0,0,1,2.737,3.6Z" transform="translate(-119.838 -155.894)" fill="#ff6b43"/>
      <path id="Trazado_120308" data-name="Trazado 120308" d="M176.715,187.669h-3.55a2.84,2.84,0,0,1,2.737,3.6l-.775,2.79h3.55l.775-2.79A2.84,2.84,0,0,0,176.715,187.669Z" transform="translate(-144.128 -155.894)" fill="#ff2900"/>
      <path id="Trazado_120309" data-name="Trazado 120309" d="M447.589,251.41H440.41l-1.775-4.46-3.807-1.742,3.345-7.977,9.417,3.806Z" transform="translate(-359.342 -196.658)" fill="#fff08a"/>
      <path id="Trazado_120310" data-name="Trazado 120310" d="M486.716,250.586v11.808h3.55V252.021Z" transform="translate(-402.019 -207.642)" fill="#ffc472"/>
    </g>
    <g id="Grupo_88443" data-name="Grupo 88443" transform="translate(0.292 0)">
      <path id="Trazado_120311" data-name="Trazado 120311" d="M70.171,37.039l13.05-2.6,8.267-11.521V10.18L80.806,13.166,75.447,10.5,67.46,13.149,57.08,7.959l-4.247-.4-.252,2.651,3.753.357,10.921,5.461,7.989-2.652,5.292,2.635,8.289-2.317v8.373l-.694.967h-60.6v2.663H86.221l-4.55,6.341-13.577,2.7L62.23,53.8l7.844,4.778-2.1,4.383H8.871l1.393-4.178L3.593,48.419l3.853-4.59V33.282l8.01-5.574V25.692h9.357V23.029H15.456V18.761L3.282,16.985l.023-7.919,8.279-5.988L20.9,7.457l1.994-3.788H32.2l5.274,5.1L49.929,9.953,50.181,7.3,38.657,6.2l-5.377-5.2H21.287L19.73,3.964,11.3,0,.646,7.7.612,19.286l12.181,1.777v5.254l-8.01,5.574V42.859L.292,48.21l7.042,10.94L1.814,75.711l13.62,5.457v5.4l15.3,4.761L36.206,81.6H46.05V78.936h-11.4l-5.179,9.215L18.1,84.613V79.366L5.133,74.172l2.85-8.55h58.71L60.306,78.936H48.777V81.6h13.2L73.516,57.556,65.384,52.6Z" transform="translate(-0.292 0)"/>
      <path id="Trazado_120312" data-name="Trazado 120312" d="M79.591,224.669h2.663v16.864H79.591Z" transform="translate(-65.514 -184.787)"/>
      <path id="Trazado_120313" data-name="Trazado 120313" d="M258.591,224.669h2.663v16.864h-2.663Z" transform="translate(-212.739 -184.787)"/>
      <path id="Trazado_120314" data-name="Trazado 120314" d="M125.822,165.169v2.663h-1.589a4.172,4.172,0,0,0-4.019,5.288l.306,1.1h-3.929v13.314a8.442,8.442,0,0,0,8.432,8.432h4.26a8.442,8.442,0,0,0,8.432-8.432V174.222H133.9l.306-1.1a4.172,4.172,0,0,0-4.019-5.288h-1.7v-2.663Zm0,11.716v5.991h-6.568v-5.991Zm-6.568,10.651v-2h6.568v7.766h-.8A5.776,5.776,0,0,1,119.254,187.536Zm10.03,5.769h-.8v-7.766h6.568v2A5.776,5.776,0,0,1,129.283,193.305Zm5.769-16.42v5.991h-6.568v-5.991Zm-3.667-5.795a1.5,1.5,0,0,1,.253,1.317l-.5,1.815h-7.85l-.5-1.815a1.509,1.509,0,0,1,1.454-1.913h5.951a1.5,1.5,0,0,1,1.2.6Z" transform="translate(-95.946 -135.849)"/>
      <path id="Trazado_120315" data-name="Trazado 120315" d="M429.454,227.5,425.1,237.882l4.493,2.056,1.912,4.8h9.414v-12.6Zm8.8,14.574h-4.945l-1.639-4.117-3.12-1.428,2.338-5.576,7.365,2.977v8.144Z" transform="translate(-349.692 -187.118)"/>
    </g>
  </g>
</svg>
