<svg xmlns="http://www.w3.org/2000/svg" width="91.333" height="91.333" viewBox="0 0 91.333 91.333">
  <g id="casa-de-campo" transform="translate(0)">
    <path id="Trazado_120316" data-name="Trazado 120316" d="M177.913,278.5H194.4v8.759H177.913Z" transform="translate(-146.176 -228.82)" fill="#7a6d79"/>
    <path id="Trazado_120317" data-name="Trazado 120317" d="M66.173,179.906H41.913V151.333L54.043,145l12.13,6.333Z" transform="translate(-34.436 -119.134)" fill="#918291"/>
    <path id="Trazado_120318" data-name="Trazado 120318" d="M83.294,145l-5.78,3.017,12.558,6.7v25.189h5.352V151.333Z" transform="translate(-63.687 -119.134)" fill="#7a6d79"/>
    <circle id="Elipse_4828" data-name="Elipse 4828" cx="4.281" cy="4.281" r="4.281" transform="translate(15.326 34.919)" fill="#fff9df"/>
    <path id="Trazado_120319" data-name="Trazado 120319" d="M48.927,137.511,35.09,130.3a2.675,2.675,0,0,0-2.472,0L18.78,137.511a2.676,2.676,0,0,0,2.472,4.746l12.6-6.565,12.6,6.565a2.676,2.676,0,0,0,2.472-4.746Z" transform="translate(-14.247 -106.81)" fill="#fe7d43"/>
    <path id="Trazado_120320" data-name="Trazado 120320" d="M140.879,24.281H95.926a.535.535,0,0,1-.528-.618,4.934,4.934,0,0,1,5.7-4.082,6.579,6.579,0,0,1,8.55-5.171,8.021,8.021,0,0,1,15.965,1.113,8.142,8.142,0,0,1-.06.982,5.86,5.86,0,0,1,8.93,3.452,4.944,4.944,0,0,1,6.929,3.707A.534.534,0,0,1,140.879,24.281Z" transform="translate(-78.374 -6.162)" fill="#eaf9fa"/>
    <path id="Trazado_120321" data-name="Trazado 120321" d="M223.912,23.663a4.944,4.944,0,0,0-6.929-3.707,5.86,5.86,0,0,0-8.93-3.452,8.14,8.14,0,0,0,.06-.982A8.019,8.019,0,0,0,195.808,8.74a8.026,8.026,0,0,1,5.628,7.66v.015a.548.548,0,0,0,.779.5,5.865,5.865,0,0,1,7.93,3.385.54.54,0,0,0,.677.331,4.944,4.944,0,0,1,6.362,3.648h6.2a.534.534,0,0,0,.528-.618Z" transform="translate(-160.879 -6.161)" fill="#dcf5f8"/>
    <path id="Trazado_120322" data-name="Trazado 120322" d="M93.3,478.208H10.354a2.854,2.854,0,1,1,0-5.708H93.3a2.854,2.854,0,1,1,0,5.708Z" transform="translate(-6.162 -388.213)" fill="#22b37f"/>
    <path id="Trazado_120323" data-name="Trazado 120323" d="M463.852,472.5H458.5a2.854,2.854,0,1,1,0,5.708h5.352a2.854,2.854,0,1,0,0-5.708Z" transform="translate(-376.71 -388.213)" fill="#09a76d"/>
    <path id="Trazado_120324" data-name="Trazado 120324" d="M82.815,313.107H42.5V290.6l20.158-12.1,20.158,12.1Z" transform="translate(-34.918 -228.82)" fill="#918291"/>
    <path id="Trazado_120325" data-name="Trazado 120325" d="M134.9,278.5l-4.473,2.685,19.279,11.57v20.353h5.352V290.6Z" transform="translate(-107.157 -228.82)" fill="#7a6d79"/>
    <path id="Trazado_120326" data-name="Trazado 120326" d="M94.2,392.8H83.5v-16.59a.714.714,0,0,1,.714-.714H93.49a.714.714,0,0,1,.714.714Z" transform="translate(-68.605 -308.516)" fill="#fff9df"/>
    <path id="Trazado_120327" data-name="Trazado 120327" d="M182.476,384.152H173.2a.714.714,0,0,1-.714-.714v-7.225a.714.714,0,0,1,.714-.714h9.276a.714.714,0,0,1,.714.714v7.225A.714.714,0,0,1,182.476,384.152Z" transform="translate(-141.717 -308.516)" fill="#fff9df"/>
    <path id="Trazado_120328" data-name="Trazado 120328" d="M58.98,276.781,35.255,262.868a2.676,2.676,0,0,0-2.707,0L8.823,276.781A2.676,2.676,0,0,0,11.53,281.4L33.9,268.278,56.273,281.4a2.676,2.676,0,1,0,2.707-4.616Z" transform="translate(-6.162 -215.674)" fill="#fe7d43"/>
    <path id="Trazado_120329" data-name="Trazado 120329" d="M349.219,151.117c0,13.178-6.158,19.73-13.754,19.73s-13.754-6.552-13.754-19.73,6.158-27.991,13.754-27.991S349.219,137.939,349.219,151.117Z" transform="translate(-264.322 -101.162)" fill="#ffd15b"/>
    <path id="Trazado_120330" data-name="Trazado 120330" d="M386.49,123.126a6.321,6.321,0,0,0-2.676.619c6.315,2.931,11.078,15.783,11.078,27.372s-4.763,18.051-11.078,19.442a12.418,12.418,0,0,0,2.676.288c7.6,0,13.754-6.552,13.754-19.73S394.086,123.126,386.49,123.126Z" transform="translate(-315.347 -101.162)" fill="#ffc344"/>
    <path id="Trazado_120331" data-name="Trazado 120331" d="M268.5,423.5h37v8.741h-37Z" transform="translate(-220.603 -347.954)" fill="#dd7f66"/>
    <g id="Grupo_88444" data-name="Grupo 88444" transform="translate(0)">
      <path id="Trazado_120332" data-name="Trazado 120332" d="M84.037,188.25a5.619,5.619,0,1,0,5.619,5.619A5.626,5.626,0,0,0,84.037,188.25Zm0,8.563a2.943,2.943,0,1,1,2.943-2.943A2.947,2.947,0,0,1,84.037,196.813Z" transform="translate(-64.429 -154.669)"/>
      <path id="Trazado_120333" data-name="Trazado 120333" d="M89.769,19.457h44.953a1.873,1.873,0,0,0,1.849-2.168,6.288,6.288,0,0,0-7.43-5.157,7.21,7.21,0,0,0-8.414-3.852,9.359,9.359,0,0,0-18.255-1.631,7.921,7.921,0,0,0-8.566,5.367,6.249,6.249,0,0,0-5.987,5.274,1.873,1.873,0,0,0,1.849,2.168Zm4.352-4.769a3.618,3.618,0,0,1,.595.051,1.338,1.338,0,0,0,1.541-1.1,5.24,5.24,0,0,1,6.811-4.118,1.338,1.338,0,0,0,1.744-1.087,6.683,6.683,0,0,1,13.3.929,6.868,6.868,0,0,1-.051.82,1.338,1.338,0,0,0,2.072,1.273,4.522,4.522,0,0,1,6.889,2.664,1.338,1.338,0,0,0,1.853.893,3.611,3.611,0,0,1,4.771,1.769h-42.8a3.588,3.588,0,0,1,3.278-2.094Z" transform="translate(-72.217)"/>
      <path id="Trazado_120334" data-name="Trazado 120334" d="M87.141,177.949h-.907v-7.4a1.338,1.338,0,0,0-1.338-1.338H72.869v-3.294a13.34,13.34,0,0,0,9.066-5.345c2.813-3.713,4.3-9.112,4.3-15.614a48.906,48.906,0,0,0-3.568-18.174,1.338,1.338,0,1,0-2.469,1.032,46.137,46.137,0,0,1,3.361,17.142c0,5.914-1.3,10.755-3.757,14a10.591,10.591,0,0,1-6.933,4.26V147.885h1.408a2.472,2.472,0,0,0,1.76-.729l1.618-1.618a1.338,1.338,0,0,0-1.892-1.892L74.2,145.209H72.869V133.385a1.338,1.338,0,0,0-2.676,0v2.1h-.458L68.1,133.844a1.338,1.338,0,0,0-1.892,1.892l1.674,1.674a2.533,2.533,0,0,0,1.8.747h.51v13.284H67.52a.743.743,0,0,1-.633-.358l-1.79-2.977a1.338,1.338,0,1,0-2.293,1.379l1.79,2.977a3.432,3.432,0,0,0,2.926,1.655h2.673V163.3a10.55,10.55,0,0,1-7.709-4.35c-2.458-3.244-3.757-8.085-3.757-14a45.742,45.742,0,0,1,3.9-18.373c2.448-5.262,5.55-8.28,8.512-8.28,2.638,0,4.846,2.331,6.233,4.286a1.338,1.338,0,0,0,2.182-1.548c-2.513-3.541-5.423-5.413-8.415-5.413-8.638,0-15.092,15.484-15.092,29.329,0,6.5,1.487,11.9,4.3,15.614a13.314,13.314,0,0,0,9.842,5.42v3.219H49.235v-7.447l.2.117a4.014,4.014,0,1,0,4.061-6.924l-3.928-2.3v-7.97a1.338,1.338,0,0,0-1.338-1.338H46.953v-3.523H48.3a1.338,1.338,0,0,0,0-2.676H33.075V132.07c.122.011.245.019.367.019a4.014,4.014,0,0,0,1.857-7.574l-13.837-7.209a4.015,4.015,0,0,0-3.709,0l-3.378,1.76a1.338,1.338,0,0,0,1.236,2.373l3.378-1.76a1.338,1.338,0,0,1,1.236,0l13.837,7.209a1.338,1.338,0,0,1-.62,2.525,1.319,1.319,0,0,1-.616-.152l-.435-.227-.053-.028L20.226,122.7a1.338,1.338,0,0,0-1.236,0L6.886,129l-.067.035-.43.224a1.338,1.338,0,1,1-1.236-2.373l4.922-2.564a1.338,1.338,0,0,0-1.236-2.373l-4.922,2.564A4.013,4.013,0,0,0,6.14,132.07v20.447l-4.155,2.437a4.014,4.014,0,1,0,4.061,6.924l.2-.117v16.188H4.193a4.192,4.192,0,1,0,0,8.384H55.733a1.338,1.338,0,1,0,0-2.676H4.193a1.516,1.516,0,1,1,0-3.033H87.141a1.516,1.516,0,1,1,0,3.033H61.906a1.338,1.338,0,0,0,0,2.676H87.141a4.192,4.192,0,1,0,0-8.384ZM38.259,146.018h8.632v5.062Zm6.018-2.676H39.744v-3.523h4.533Zm-7.209-3.523v3.523h-3.3c-.023,0-.045,0-.068,0l-.627-.368v-3.159ZM8.815,131.014l10.793-5.623L30.4,131.014v10.4l-.629-.369a4.019,4.019,0,0,0-4.061,0L8.816,150.948V131.014ZM4.692,159.57a1.338,1.338,0,1,1-1.354-2.308l23.724-13.914a1.338,1.338,0,0,1,1.354,0l23.725,13.914a1.337,1.337,0,0,1,.477,1.831,1.345,1.345,0,0,1-1.156.661,1.317,1.317,0,0,1-.674-.184L28.417,146.45a1.338,1.338,0,0,0-1.354,0Zm4.228.622L27.74,149.155l18.819,11.037v17.757H26.937V162.7a2.054,2.054,0,0,0-2.051-2.051H15.61a2.054,2.054,0,0,0-2.051,2.051v15.252H8.92Zm7.314,17.757V163.322h8.027v14.628Zm33,0v-6.065H83.559v6.065Z" transform="translate(0 -95)"/>
      <path id="Trazado_120335" data-name="Trazado 120335" d="M167.041,379.327h9.276a2.054,2.054,0,0,0,2.051-2.051v-7.225A2.054,2.054,0,0,0,176.317,368h-9.276a2.054,2.054,0,0,0-2.051,2.051v7.225a2.054,2.054,0,0,0,2.051,2.051Zm8.652-2.676h-2.676v-5.976h2.676Zm-8.027-5.976h2.676v5.976h-2.676Z" transform="translate(-135.558 -302.354)"/>
    </g>
  </g>
</svg>
