<svg xmlns="http://www.w3.org/2000/svg" xmlns:xlink="http://www.w3.org/1999/xlink" width="87" height="85" viewBox="0 0 87 85">
  <defs>
    <clipPath id="clip-path">
      <rect id="Rectángulo_35522" data-name="Rectángulo 35522" width="85" height="85" transform="translate(810 5859)" fill="#fff" stroke="#707070" stroke-width="1"/>
    </clipPath>
  </defs>
  <g id="Grupo_158917" data-name="Grupo 158917" transform="translate(-808 -5827)">
    <circle id="Elipse_4882" data-name="Elipse 4882" cx="42.5" cy="42.5" r="42.5" transform="translate(808 5827)" fill="#ffd947"/>
    <g id="Enmascarar_grupo_101" data-name="Enmascarar grupo 101" transform="translate(0 -32)" clip-path="url(#clip-path)">
      <g id="torre-eiffel" transform="translate(808.629 5857.629)">
        <path id="Trazado_120637" data-name="Trazado 120637" d="M58.952,66.114l-2.61-5.791q-1.66-4.041-2.934-8.226l-1.49-5.484A93.237,93.237,0,0,1,49.355,24.9v-5.7H38.387v5.7a93.229,93.229,0,0,1-2.562,21.715L34.335,52.1q-1.273,4.179-2.934,8.226l-2.46,5.484A93.212,93.212,0,0,1,16.452,85H32.9V82.258a10.968,10.968,0,0,1,21.935,0V85H71.29A93.277,93.277,0,0,1,58.952,66.114Z" fill="#a8b0bc"/>
        <path id="Trazado_120638" data-name="Trazado 120638" d="M38.387,13.71H49.355v5.484H38.387Z" fill="#4d5d7a"/>
        <path id="Trazado_120639" data-name="Trazado 120639" d="M41.129,8.226h5.484V13.71H41.129Z" fill="#8892a0"/>
        <path id="Trazado_120640" data-name="Trazado 120640" d="M24.677,60.323H63.065v5.484H24.677Z" fill="#4d5d7a"/>
        <path id="Trazado_120641" data-name="Trazado 120641" d="M30.161,46.613H57.581V52.1H30.161Z" fill="#4d5d7a"/>
        <circle id="Elipse_4884" data-name="Elipse 4884" cx="5.484" cy="5.484" r="5.484" transform="translate(2.742 65.806)" fill="#78b75b"/>
        <circle id="Elipse_4885" data-name="Elipse 4885" cx="5.484" cy="5.484" r="5.484" transform="translate(74.032 65.806)" fill="#78b75b"/>
        <path id="Trazado_120642" data-name="Trazado 120642" d="M20.565,35.645c-.047,0-.09.012-.137.014a6.853,6.853,0,0,0-13.435,0c-.047,0-.09-.014-.137-.014A4.113,4.113,0,1,0,9.793,42.63a6.8,6.8,0,0,0,7.834,0,4.111,4.111,0,1,0,2.938-6.985Z" fill="#a1cdfb"/>
        <path id="Trazado_120643" data-name="Trazado 120643" d="M80.887,35.645c-.047,0-.09.012-.137.014a6.853,6.853,0,0,0-13.435,0c-.047,0-.09-.014-.137-.014a4.113,4.113,0,1,0,2.938,6.985,6.8,6.8,0,0,0,7.834,0,4.111,4.111,0,1,0,2.938-6.985Z" fill="#a1cdfb"/>
        <path id="Trazado_120644" data-name="Trazado 120644" d="M1.371,83.629h85v2.742h-85Z"/>
        <path id="Trazado_120645" data-name="Trazado 120645" d="M8.226,78.145a6.855,6.855,0,1,1,6.855-6.855A6.863,6.863,0,0,1,8.226,78.145Zm0-10.968a4.113,4.113,0,1,0,4.113,4.113A4.118,4.118,0,0,0,8.226,67.177Z"/>
        <path id="Trazado_120646" data-name="Trazado 120646" d="M6.855,69.919H9.6V85H6.855Z"/>
        <path id="Trazado_120647" data-name="Trazado 120647" d="M79.516,78.145a6.855,6.855,0,1,1,6.855-6.855A6.863,6.863,0,0,1,79.516,78.145Zm0-10.968a4.113,4.113,0,1,0,4.113,4.113A4.118,4.118,0,0,0,79.516,67.177Z"/>
        <path id="Trazado_120648" data-name="Trazado 120648" d="M78.145,69.919h2.742V85H78.145Z"/>
        <path id="Trazado_120649" data-name="Trazado 120649" d="M49.355,20.565H38.387a1.371,1.371,0,0,1-1.371-1.371V13.71a1.371,1.371,0,0,1,1.371-1.371H49.355a1.371,1.371,0,0,1,1.371,1.371v5.484A1.371,1.371,0,0,1,49.355,20.565Zm-9.6-2.742h8.226V15.081H39.758Z"/>
        <path id="Trazado_120650" data-name="Trazado 120650" d="M47.984,13.71H45.242V9.6H42.5V13.71H39.758V8.226a1.371,1.371,0,0,1,1.371-1.371h5.484a1.371,1.371,0,0,1,1.371,1.371Z"/>
        <path id="Trazado_120651" data-name="Trazado 120651" d="M42.5,1.371h2.742V8.226H42.5Z"/>
        <path id="Trazado_120652" data-name="Trazado 120652" d="M17.5,85.884l-2.1-1.767A92.012,92.012,0,0,0,27.709,65.206l2.465,1.2A94.842,94.842,0,0,1,17.5,85.884Z"/>
        <path id="Trazado_120653" data-name="Trazado 120653" d="M32.67,60.844,30.132,59.8c1.086-2.645,2.058-5.371,2.89-8.1l2.623.8c-.857,2.816-1.858,5.624-2.975,8.348Z"/>
        <path id="Trazado_120654" data-name="Trazado 120654" d="M37.159,46.931l-2.667-.638a92.079,92.079,0,0,0,2.524-21.4v-5.7h2.742v5.7A94.78,94.78,0,0,1,37.159,46.931Z"/>
        <path id="Trazado_120655" data-name="Trazado 120655" d="M70.242,85.884A94.845,94.845,0,0,1,57.722,66.72l2.46-1.211A92.026,92.026,0,0,0,72.339,84.116Z"/>
        <path id="Trazado_120656" data-name="Trazado 120656" d="M55.072,60.844c-1.116-2.721-2.118-5.53-2.976-8.346l2.623-.8c.834,2.735,1.807,5.462,2.891,8.105Z"/>
        <path id="Trazado_120657" data-name="Trazado 120657" d="M50.583,46.931a94.78,94.78,0,0,1-2.6-22.034v-5.7h2.742v5.7a92.079,92.079,0,0,0,2.524,21.4Z"/>
        <path id="Trazado_120658" data-name="Trazado 120658" d="M56.21,85H53.468V82.258a9.6,9.6,0,0,0-19.194,0V85H31.532V82.258a12.339,12.339,0,0,1,24.677,0Z"/>
        <path id="Trazado_120659" data-name="Trazado 120659" d="M63.065,67.177H24.677a1.371,1.371,0,0,1-1.371-1.371V60.323a1.371,1.371,0,0,1,1.371-1.371H63.065a1.371,1.371,0,0,1,1.371,1.371v5.484A1.371,1.371,0,0,1,63.065,67.177ZM26.048,64.435H61.694V61.694H26.048Z"/>
        <path id="Trazado_120660" data-name="Trazado 120660" d="M57.581,53.468H30.161A1.371,1.371,0,0,1,28.79,52.1V46.613a1.371,1.371,0,0,1,1.371-1.371H57.581a1.371,1.371,0,0,1,1.371,1.371V52.1A1.371,1.371,0,0,1,57.581,53.468ZM31.532,50.726H56.21V47.984H31.532Z"/>
        <path id="Trazado_120661" data-name="Trazado 120661" d="M35.431,54.851H44.1v2.743H35.431Z" transform="matrix(0.316, -0.949, 0.949, 0.316, -26.143, 76.142)"/>
        <path id="Trazado_120662" data-name="Trazado 120662" d="M46.624,51.887h2.743V60.56H46.624Z" transform="matrix(0.949, -0.316, 0.316, 0.949, -15.312, 18.058)"/>
        <path id="Trazado_120663" data-name="Trazado 120663" d="M42.494,16.919h2.742V32.428H42.494Z" transform="translate(-4.6 38.25) rotate(-45)"/>
        <path id="Trazado_120664" data-name="Trazado 120664" d="M36.11,23.3H51.619v2.742H36.11Z" transform="translate(-4.6 38.25) rotate(-45)"/>
        <path id="Trazado_120665" data-name="Trazado 120665" d="M43.368,27.524H46.11V45.5H43.368Z" transform="translate(-12.717 42.335) rotate(-45)"/>
        <path id="Trazado_120666" data-name="Trazado 120666" d="M34,35.144h17.98v2.742H34Z" transform="translate(-13.23 41.1) rotate(-45)"/>
        <path id="Trazado_120667" data-name="Trazado 120667" d="M20.565,45.242a5.421,5.421,0,0,1-3.06-.935,8.282,8.282,0,0,1-7.588,0,5.429,5.429,0,0,1-3.061.935,5.484,5.484,0,0,1-.928-10.888,8.226,8.226,0,0,1,15.566,0,5.484,5.484,0,0,1-.928,10.888Zm-2.939-3.981a1.37,1.37,0,0,1,.98.413,2.741,2.741,0,1,0,2.014-4.657,1.68,1.68,0,0,1-.192.014,1.371,1.371,0,0,1-1.344-1.1,5.483,5.483,0,0,0-10.748,0,1.4,1.4,0,0,1-1.383,1.1c-.052,0-.166-.014-.217-.021a2.747,2.747,0,1,0,2.078,4.663,1.369,1.369,0,0,1,1.764-.165,5.522,5.522,0,0,0,6.263,0,1.371,1.371,0,0,1,.784-.247Z"/>
        <path id="Trazado_120668" data-name="Trazado 120668" d="M80.887,45.242a5.421,5.421,0,0,1-3.06-.935,8.282,8.282,0,0,1-7.588,0,5.429,5.429,0,0,1-3.061.935,5.484,5.484,0,0,1-.928-10.888,8.226,8.226,0,0,1,15.566,0,5.484,5.484,0,0,1-.928,10.888Zm-2.939-3.981a1.37,1.37,0,0,1,.98.413,2.741,2.741,0,1,0,2.014-4.657,1.66,1.66,0,0,1-.192.014,1.371,1.371,0,0,1-1.344-1.1,5.483,5.483,0,0,0-10.748,0,1.39,1.39,0,0,1-1.383,1.1c-.052,0-.166-.014-.217-.021a2.747,2.747,0,1,0,2.078,4.663,1.369,1.369,0,0,1,1.764-.165,5.522,5.522,0,0,0,6.263,0,1.371,1.371,0,0,1,.784-.247Z"/>
      </g>
    </g>
  </g>
</svg>
