<svg xmlns="http://www.w3.org/2000/svg" xmlns:xlink="http://www.w3.org/1999/xlink" width="85" height="85" viewBox="0 0 85 85">
  <defs>
    <clipPath id="clip-path">
      <rect id="Rectángulo_35498" data-name="Rectángulo 35498" width="85" height="85" transform="translate(265 2660)" fill="#fff" stroke="#707070" stroke-width="1"/>
    </clipPath>
  </defs>
  <g id="Grupo_158908" data-name="Grupo 158908" transform="translate(-265 -2660)">
    <circle id="Elipse_4860" data-name="Elipse 4860" cx="42.5" cy="42.5" r="42.5" transform="translate(265 2660)" fill="#ffd947"/>
    <g id="Enmascarar_grupo_92" data-name="Enmascarar grupo 92" clip-path="url(#clip-path)">
      <g id="excalibur" transform="translate(269.195 2660)">
        <path id="Trazado_120455" data-name="Trazado 120455" d="M32.058,25.828H44.552V63.634H32.058Zm0,0" fill="#b2b0bc"/>
        <path id="Trazado_120456" data-name="Trazado 120456" d="M44.552,25.828c-5.274-6-4.219-20.2-4.219-20.2H36.277s1.054,14.2-4.219,20.2Zm0,0" fill="#4f4c5f"/>
        <path id="Trazado_120457" data-name="Trazado 120457" d="M52.328,23.88H24.283A3.583,3.583,0,0,0,20.7,27.463a1.777,1.777,0,0,0,1.777,1.778h5.111a12.529,12.529,0,0,1,7.93,2.828L37.267,33.5a1.639,1.639,0,0,0,2.075,0l1.749-1.429a12.529,12.529,0,0,1,7.93-2.828h5.112a1.777,1.777,0,0,0,1.777-1.778,3.583,3.583,0,0,0-3.582-3.583Zm0,0" fill="#f9ed80"/>
        <path id="Trazado_120458" data-name="Trazado 120458" d="M25.681,27.463a3.583,3.583,0,0,1,3.583-3.583h-4.98A3.583,3.583,0,0,0,20.7,27.463a1.777,1.777,0,0,0,1.777,1.778h4.98A1.777,1.777,0,0,1,25.681,27.463Zm0,0" fill="#fab659"/>
        <path id="Trazado_120459" data-name="Trazado 120459" d="M71.172,79.262a8.126,8.126,0,0,1-1.128-1.531l-3.235-5.685a8.106,8.106,0,0,0-4.851-3.8,8.1,8.1,0,0,1-3.466-2l-4.134-4.034a8.114,8.114,0,0,0-2.369-1.605l-2.571-1.143a8.115,8.115,0,0,0-4.057-.663L32.894,59.986a8.1,8.1,0,0,0-1.632.327l-9.481,2.934a17.9,17.9,0,0,0-6.06,3.261l-.108.089a17.891,17.891,0,0,0-5.222,7.082,17.893,17.893,0,0,1-5.785,7.526L1.232,83.755H75.378Zm0,0" fill="#938ea3"/>
        <path id="Trazado_120460" data-name="Trazado 120460" d="M17.032,73.679A17.9,17.9,0,0,1,22.253,66.6l.108-.089a17.912,17.912,0,0,1,6.06-3.261L37.9,60.312a8.1,8.1,0,0,1,1.632-.326l8.989-.852a8.1,8.1,0,0,0-3.163-.329L32.894,59.986a8.1,8.1,0,0,0-1.632.326l-9.481,2.934a17.912,17.912,0,0,0-6.06,3.261l-.108.089a17.9,17.9,0,0,0-5.222,7.082,17.893,17.893,0,0,1-5.785,7.526L1.232,83.755H7.873l3.374-2.549a17.893,17.893,0,0,0,5.785-7.526Zm0,0" fill="#77718c"/>
        <path id="Trazado_120461" data-name="Trazado 120461" d="M41.875,4.815a3.57,3.57,0,1,1-3.569-3.57,3.569,3.569,0,0,1,3.569,3.57Zm0,0" fill="#f9ed80"/>
        <path id="Trazado_120462" data-name="Trazado 120462" d="M39.966,6.724A3.563,3.563,0,0,1,36.754,1.6a3.567,3.567,0,1,0,4.763,4.763A3.556,3.556,0,0,1,39.966,6.724Zm0,0" fill="#fab659"/>
        <path id="Trazado_120463" data-name="Trazado 120463" d="M26.457,70.106a1.245,1.245,0,0,0-1.245,1.245v2.144a1.245,1.245,0,0,0,2.49,0V71.351A1.245,1.245,0,0,0,26.457,70.106Zm0,0"/>
        <path id="Trazado_120464" data-name="Trazado 120464" d="M50.147,74.739a1.245,1.245,0,0,0,1.245-1.245V71.351a1.245,1.245,0,0,0-2.49,0v2.143A1.245,1.245,0,0,0,50.147,74.739Zm0,0"/>
        <path id="Trazado_120465" data-name="Trazado 120465" d="M42.045,72.408a1.245,1.245,0,0,0-1.757.118,2.707,2.707,0,0,1-3.972,0,1.245,1.245,0,0,0-1.875,1.639,5.2,5.2,0,0,0,7.722,0,1.245,1.245,0,0,0-.118-1.757Zm0,0"/>
        <path id="Trazado_120466" data-name="Trazado 120466" d="M32.055,52.969a1.245,1.245,0,0,0-1.245,1.245v4.933l-9.4,2.91A19.507,19.507,0,0,0,9.235,73.21a16.652,16.652,0,0,1-5.383,7L.478,82.761A1.256,1.256,0,0,0,1.228,85H75.375a1.256,1.256,0,0,0,.909-2.1l-4.206-4.493a6.865,6.865,0,0,1-.955-1.3l-3.235-5.686a9.3,9.3,0,0,0-5.6-4.377,6.879,6.879,0,0,1-2.934-1.694l-4.134-4.033a17.115,17.115,0,0,0-5.3-3,9.3,9.3,0,0,0-3.8-.805c-.109,0-.219,0-.328.008V41.661a1.245,1.245,0,0,0-2.49,0V57.749l-3.757.356V34.828a2.87,2.87,0,0,0,.58-.366A25.781,25.781,0,0,1,43.3,32.044v4.744a1.245,1.245,0,0,0,2.49,0V30.96a11.25,11.25,0,0,1,3.224-.474H54.13a3.026,3.026,0,0,0,3.023-3.023,4.834,4.834,0,0,0-4.828-4.828H43.949c-2.181-4.458-2.466-11-2.459-14.216a4.815,4.815,0,1,0-6.377,0c.007,3.218-.278,9.758-2.459,14.216H24.279a4.834,4.834,0,0,0-4.828,4.828,3.026,3.026,0,0,0,3.023,3.022h5.111a11.276,11.276,0,0,1,3.224.474V49.241a1.245,1.245,0,0,0,2.49,0v-17.2a11.2,11.2,0,0,1,1.428.99,12.625,12.625,0,0,0,2.329,1.8V58.34L33.3,58.7V54.215a1.245,1.245,0,0,0-1.245-1.245ZM38.3,2.49a2.327,2.327,0,0,1,2.325,2.325,2.358,2.358,0,0,1-2.319,2.324H38.3a2.353,2.353,0,0,1-2.319-2.324A2.328,2.328,0,0,1,38.3,2.49ZM37.6,9.578h.012a4.635,4.635,0,0,0,1.388,0h.011c.062,3.673.5,8.875,2.213,13.058H35.384c1.712-4.182,2.15-9.384,2.212-13.058ZM35.852,30.75A13.864,13.864,0,0,0,27.585,28H22.474a.533.533,0,0,1-.532-.532,2.34,2.34,0,0,1,2.338-2.338H52.324a2.34,2.34,0,0,1,2.338,2.338A.533.533,0,0,1,54.13,28H49.018a13.847,13.847,0,0,0-8.266,2.756c-.752.564-1.425,1.262-2.2,1.785a.4.4,0,0,1-.5,0c-.73-.6-1.447-1.217-2.2-1.785ZM48.909,60.6c1.572.7,3.332,1.258,4.576,2.5L57.62,67.14a9.374,9.374,0,0,0,4,2.308,6.823,6.823,0,0,1,4.106,3.212s3.235,5.685,3.235,5.686A23.984,23.984,0,0,0,72.5,82.51H4.942l.411-.311a19.148,19.148,0,0,0,6.187-8.05,17.012,17.012,0,0,1,10.606-9.713L31.627,61.5a6.869,6.869,0,0,1,1.381-.276l11.659-1.105c.484-.046.968-.107,1.455-.107a6.826,6.826,0,0,1,2.787.591Zm0,0"/>
      </g>
    </g>
  </g>
</svg>
