<svg xmlns="http://www.w3.org/2000/svg" width="38.49" height="45.5" viewBox="0 0 38.49 45.5">
  <g id="carta-a" transform="translate(-39.44)">
    <g id="Grupo_80951" data-name="Grupo 80951" transform="translate(40.105 0.667)">
      <path id="Trazado_114781" data-name="Trazado 114781" d="M82.849,45.261,70.44,12.382C69.546,10.009,68.1,8.5,65.565,8.5a6.069,6.069,0,0,0-2.668.525,6.194,6.194,0,0,0-3.042,3.22l-12.571,33A5.414,5.414,0,0,0,57.4,49.1l1.573-4.129a.889.889,0,0,1,.831-.572H71.224a.889.889,0,0,1,.832.575l1.552,4.111a5.373,5.373,0,0,0,2.421,2.788,5.474,5.474,0,0,0,4.579.011C83.4,50.828,83.9,48.059,82.849,45.261ZM67.11,33.571H63.962a.444.444,0,0,1-.415-.6l1.581-4.152a.444.444,0,0,1,.831,0l1.567,4.152A.444.444,0,0,1,67.11,33.571Z" transform="translate(-46.928 -8.411)" fill="#6bd9e7"/>
      <g id="Grupo_80949" data-name="Grupo 80949" transform="translate(15.969)">
        <path id="Trazado_114782" data-name="Trazado 114782" d="M247.462,44.35,235.054,11.47A6.206,6.206,0,0,0,229.29,7.5a6.135,6.135,0,0,0-2.668.615,6.164,6.164,0,0,1,3.1,3.356l12.408,32.88a5.415,5.415,0,0,1-2.375,6.61,5.393,5.393,0,0,0,7.708-6.61Z" transform="translate(-226.622 -7.5)" fill="#02c7dd"/>
      </g>
      <path id="Trazado_114783" data-name="Trazado 114783" d="M132.435,13.293V10.248a1.393,1.393,0,0,1,1.679-1.55l.074.034c1.088,0,1.478,1.056,1.22,2.113l-.812,3.125Z" transform="translate(-124.836 -8.57)" fill="#c68d7a"/>
      <path id="Trazado_114784" data-name="Trazado 114784" d="M144,7.5a1.668,1.668,0,0,0-.715.161,1.679,1.679,0,0,1,.911,1.916l-.7,2.869,1.37.259.765-3.128A1.679,1.679,0,0,0,144,7.5Z" transform="translate(-134.719 -7.5)" fill="#bc7c63"/>
      <path id="Trazado_114785" data-name="Trazado 114785" d="M61.981,53.975c-1.31-3.468-2.227-3.136-4.853-2.914l-.043.021a3.115,3.115,0,0,1-2.73,0c-2.4-1.176-5.375-.7-6.692,2.79-1.446,3.83-.8,7.112,2.3,10.289,1.888,1.94,3.619,1.837,4.68,1.462a3.222,3.222,0,0,1,.606-.15c.158-.023.59-.073.749-.073.366,0,.5-.165.85-.041,1.062.375,1.148-1.092,3.036-3.032C62.969,59.15,63.427,57.805,61.981,53.975Z" transform="translate(-46.927 -46.684)" fill="#fe93d3"/>
      <g id="Grupo_80950" data-name="Grupo 80950" transform="translate(8.317 3.822)">
        <path id="Trazado_114786" data-name="Trazado 114786" d="M149.046,53.877c-1.31-3.468-4.253-3.959-6.649-2.81a5.238,5.238,0,0,1,2.2,2.81c1.446,3.83.8,7.112-2.3,10.289a5.992,5.992,0,0,1-1.793,1.313,3.28,3.28,0,0,1,.475-.035,3.246,3.246,0,0,1,1.081.184c1.062.375,2.793.478,4.68-1.462C149.842,60.989,150.492,57.707,149.046,53.877Z" transform="translate(-140.513 -50.511)" fill="#fe73c5"/>
      </g>
    </g>
    <g id="Grupo_80952" data-name="Grupo 80952" transform="translate(39.44 0)">
      <path id="Trazado_114787" data-name="Trazado 114787" d="M229.849,227.095a1.1,1.1,0,0,0-1.038-.719h0a1.1,1.1,0,0,0-1.038.715l-1.581,4.152a1.111,1.111,0,0,0,1.038,1.506h3.148a1.111,1.111,0,0,0,1.039-1.5Zm-2.3,4.322,1.258-3.3,1.247,3.3Z" transform="translate(-209.528 -206.259)"/>
      <path id="Trazado_114788" data-name="Trazado 114788" d="M309.019,175.946l-8.8-23.323a.666.666,0,0,0-1.247.471l8.8,23.323a4.752,4.752,0,0,1-2.765,6.117,4.587,4.587,0,0,1-1.625.295,4.823,4.823,0,0,1-4.493-3.06l-1.551-4.111a1.563,1.563,0,0,0-1.455-1.006h-1.719a.667.667,0,1,0,0,1.333h1.719a.223.223,0,0,1,.208.144l1.551,4.111a6.03,6.03,0,0,0,3.191,3.372,6.145,6.145,0,0,0,2.537.554,5.96,5.96,0,0,0,2.107-.385A6.087,6.087,0,0,0,309.019,175.946Z" transform="translate(-270.92 -138.667)"/>
      <path id="Trazado_114789" data-name="Trazado 114789" d="M59.836,35.985H52.985a1.564,1.564,0,0,0-1.453,1l-1.573,4.129a4.822,4.822,0,0,1-4.487,3.046,4.6,4.6,0,0,1-1.638-.3,4.752,4.752,0,0,1-2.747-6.126l6.629-17.4c.107-.029.215-.062.324-.1a2.612,2.612,0,0,1,1.719,0,4.4,4.4,0,0,0,1.473.259,5.679,5.679,0,0,0,3.907-1.884,10.756,10.756,0,0,0,3.023-5.223,9.991,9.991,0,0,0-.582-5.766,5.662,5.662,0,0,0-3.12-3.456c-.144-.057-.291-.105-.439-.148a5.5,5.5,0,0,1,9.779.648l2.655,7.029a.666.666,0,1,0,1.247-.471l-2.66-7.042-.01-.024A6.835,6.835,0,0,0,52.61,3.821a5.607,5.607,0,0,0-1.206.137L51.662,2.9a2.345,2.345,0,1,0-4.623-.557v1.8a5.38,5.38,0,0,0-3.508-.049.666.666,0,1,0,.437,1.259,4.27,4.27,0,0,1,3.273.313,3.782,3.782,0,0,0,3.316,0A4.208,4.208,0,0,1,53.969,5.4,4.376,4.376,0,0,1,56.333,8.09a8.707,8.707,0,0,1,.526,5.012,9.476,9.476,0,0,1-2.676,4.576,3.8,3.8,0,0,1-3.981,1.3,3.932,3.932,0,0,0-2.607,0,3.8,3.8,0,0,1-3.981-1.3A9.474,9.474,0,0,1,40.94,13.1a8.705,8.705,0,0,1,.526-5.012,6.078,6.078,0,0,1,.581-1.166A.666.666,0,1,0,40.93,6.2a7.408,7.408,0,0,0-.711,1.422,9.991,9.991,0,0,0-.582,5.766,10.756,10.756,0,0,0,3.023,5.223,5.851,5.851,0,0,0,3.574,1.87L39.841,37.262a6.087,6.087,0,0,0,3.518,7.846,5.966,5.966,0,0,0,2.127.392A6.141,6.141,0,0,0,48,44.955a6.03,6.03,0,0,0,3.2-3.364l1.573-4.129a.224.224,0,0,1,.208-.143h6.851a.667.667,0,1,0,0-1.333ZM48.373,4.655V2.345a1.012,1.012,0,1,1,1.995.24L49.9,4.5a2.431,2.431,0,0,1-1.527.157Z" transform="translate(-39.44 0)"/>
    </g>
  </g>
</svg>
