<svg xmlns="http://www.w3.org/2000/svg" width="213" height="236" viewBox="0 0 213 236">
  <g id="Grupo_158909" data-name="Grupo 158909" transform="translate(-455 -2892)">
    <g id="Rectángulo_34986" data-name="Rectángulo 34986" transform="translate(455 2892)" fill="#d0f9e5" stroke="#01ac57" stroke-width="1">
      <rect width="213" height="236" rx="10" stroke="none"/>
      <rect x="0.5" y="0.5" width="212" height="235" rx="9.5" fill="none"/>
    </g>
    <rect id="Rectángulo_34991" data-name="Rectángulo 34991" width="185" height="111" rx="10" transform="translate(469 2987)" fill="#fff"/>
    <path id="Trazado_135537" data-name="Trazado 135537" d="M-13.065,0l2.215-12.8,3.762.009a4.9,4.9,0,0,1,2.9.875A4.7,4.7,0,0,1-2.43-9.527a6.536,6.536,0,0,1,.272,2.865l-.062.536a7.561,7.561,0,0,1-1.143,3.12A6.545,6.545,0,0,1-5.691-.813,6.347,6.347,0,0,1-8.767,0Zm4.816-10.424-1.4,8.042.879.009a3,3,0,0,0,2.483-1.2A6.7,6.7,0,0,0-5.172-7.225l.018-.29A3.492,3.492,0,0,0-5.594-9.65a1.784,1.784,0,0,0-1.5-.765ZM1.226,0h-2.9L-.022-9.51h2.9ZM.233-11.909a1.341,1.341,0,0,1,.453-1.072,1.625,1.625,0,0,1,1.138-.431,1.678,1.678,0,0,1,1.129.387,1.318,1.318,0,0,1,.47,1.011,1.344,1.344,0,0,1-.448,1.077,1.63,1.63,0,0,1-1.143.426,1.7,1.7,0,0,1-1.121-.382A1.3,1.3,0,0,1,.233-11.909Zm3.3,7.137a6.917,6.917,0,0,1,1.371-3.6,3.4,3.4,0,0,1,2.865-1.31,2.592,2.592,0,0,1,2.013,1.02l.923-4.834h2.9L11.272,0H8.7L8.82-1.028A2.968,2.968,0,0,1,6.456.185,2.62,2.62,0,0,1,4.307-.831a4.476,4.476,0,0,1-.831-2.676,8.231,8.231,0,0,1,.035-1.081Zm2.883.2a6.9,6.9,0,0,0-.062.984q0,1.459.984,1.485a1.844,1.844,0,0,0,1.521-.817l.65-3.647A1.171,1.171,0,0,0,8.354-7.4a1.478,1.478,0,0,0-1.305.7A4.507,4.507,0,0,0,6.42-4.57Z" transform="translate(562 3049)" fill="#3c3fa7"/>
    <rect id="Rectángulo_35476" data-name="Rectángulo 35476" width="177" height="48" rx="10" transform="translate(473 2918)" fill="#01ac57"/>
    <path id="Trazado_135536" data-name="Trazado 135536" d="M-59.43-2.133h-3.633L-64.07,0h-2.945l6.023-11.375h2.516L-56.375,0h-2.781Zm-2.633-2.109H-59.7l-.5-3.922Zm11.625,3.32A2.8,2.8,0,0,1-52.719.164,2.215,2.215,0,0,1-54.59-.7a3.2,3.2,0,0,1-.488-2.281l.914-5.469h2.57l-.93,5.507a1.835,1.835,0,0,0,0,.415.68.68,0,0,0,.758.665,1.661,1.661,0,0,0,1.383-.641l1.047-5.945h2.586L-48.219,0h-2.391Zm7.906-5.219,1.555-2.312H-38.2l-2.883,4.234L-39.531,0h-2.562l-.891-2.484L-44.633,0h-2.812l3.031-4.453-1.477-4H-43.3ZM-36.062,0h-2.578l1.469-8.453h2.578Zm-.883-10.586a1.192,1.192,0,0,1,.4-.953,1.444,1.444,0,0,1,1.012-.383,1.491,1.491,0,0,1,1,.344,1.172,1.172,0,0,1,.418.9,1.194,1.194,0,0,1-.4.957,1.449,1.449,0,0,1-1.016.379,1.51,1.51,0,0,1-1-.34A1.158,1.158,0,0,1-36.945-10.586ZM-31.719,0H-34.3l2.078-12h2.578Zm4.344,0h-2.578l1.469-8.453h2.578Zm-.883-10.586a1.192,1.192,0,0,1,.4-.953,1.444,1.444,0,0,1,1.012-.383,1.491,1.491,0,0,1,1,.344,1.172,1.172,0,0,1,.418.9,1.194,1.194,0,0,1-.4.957,1.449,1.449,0,0,1-1.016.379,1.51,1.51,0,0,1-1-.34A1.158,1.158,0,0,1-28.258-10.586ZM-20.977,0a2.292,2.292,0,0,1-.109-.766,2.608,2.608,0,0,1-2.07.922,2.548,2.548,0,0,1-1.828-.734,2.207,2.207,0,0,1-.68-1.742,2.48,2.48,0,0,1,1.148-2.113,5.415,5.415,0,0,1,3.031-.738l.859.016.094-.477.031-.414a.671.671,0,0,0-.711-.734.988.988,0,0,0-1.039.93l-2.578.008a2.448,2.448,0,0,1,.555-1.48,3.288,3.288,0,0,1,1.4-.969,4.9,4.9,0,0,1,1.887-.316,3.778,3.778,0,0,1,1.684.4,2.506,2.506,0,0,1,1.082,1.055,2.694,2.694,0,0,1,.273,1.559l-.633,3.977-.039.484a2.135,2.135,0,0,0,.148.984L-18.477,0Zm-1.469-1.7a1.658,1.658,0,0,0,1.383-.7l.258-1.359-.664-.008a1.75,1.75,0,0,0-1.062.363,1.378,1.378,0,0,0-.523.949.692.692,0,0,0,.121.527A.619.619,0,0,0-22.445-1.7ZM-11.328-6.07a7.354,7.354,0,0,0-.8-.078,1.985,1.985,0,0,0-1.766.8L-14.844,0h-2.57l1.469-8.453,2.4-.008-.2,1.109a2.347,2.347,0,0,1,1.953-1.281,3.683,3.683,0,0,1,.8.109Zm3.883,2.352,2.188-4.734h2.836L-7.375,1.266a4.235,4.235,0,0,1-1.277,1.66,2.9,2.9,0,0,1-1.723.512,4.865,4.865,0,0,1-1.133-.172l.2-1.883h.3a2.128,2.128,0,0,0,.836-.152,1.273,1.273,0,0,0,.6-.59l.367-.7-1.352-8.391h2.656ZM1.5.977H-.414L5.492-11.375H7.414Zm16.125-3.1H13.867L13.211,0h-2.93l4.172-11.375h2.578L21.234,0H18.289Zm-3.1-2.117h2.445L15.742-8.187ZM26.891-.914A2.714,2.714,0,0,1,24.633.156a2.662,2.662,0,0,1-2.105-.809,3.4,3.4,0,0,1-.715-2.324V-8.453h2.633v5.492A.946.946,0,0,0,25.5-1.875a1.376,1.376,0,0,0,1.289-.648v-5.93h2.648V0H26.969ZM34.3-6.125l1.227-2.328h2.734L36.039-4.336,38.375,0h-2.75L34.3-2.5,32.992,0H30.227L32.57-4.336,30.352-8.453h2.766ZM41.891,0H39.25V-8.453h2.641Zm-2.8-10.641a1.186,1.186,0,0,1,.406-.927,1.527,1.527,0,0,1,1.055-.362,1.527,1.527,0,0,1,1.055.362,1.186,1.186,0,0,1,.406.927,1.186,1.186,0,0,1-.406.927,1.527,1.527,0,0,1-1.055.362A1.527,1.527,0,0,1,39.5-9.713,1.186,1.186,0,0,1,39.094-10.641ZM46.289,0H43.648V-12h2.641Zm4.4,0H48.047V-8.453h2.641Zm-2.8-10.641a1.186,1.186,0,0,1,.406-.927,1.527,1.527,0,0,1,1.055-.362,1.527,1.527,0,0,1,1.055.362,1.186,1.186,0,0,1,.406.927,1.186,1.186,0,0,1-.406.927,1.527,1.527,0,0,1-1.055.362A1.527,1.527,0,0,1,48.3-9.713,1.186,1.186,0,0,1,47.891-10.641ZM57.07,0a2.973,2.973,0,0,1-.25-.758,2.448,2.448,0,0,1-2.031.914,3,3,0,0,1-2.031-.723,2.3,2.3,0,0,1-.836-1.816,2.364,2.364,0,0,1,1.016-2.078,5.174,5.174,0,0,1,2.953-.7H56.7v-.448q0-1.17-1.008-1.17a.824.824,0,0,0-.937.926H52.125a2.36,2.36,0,0,1,1.043-1.99,4.383,4.383,0,0,1,2.66-.765,3.843,3.843,0,0,1,2.555.789,2.743,2.743,0,0,1,.961,2.164v3.742A3.832,3.832,0,0,0,59.7-.133V0ZM55.422-1.719a1.469,1.469,0,0,0,.816-.211,1.322,1.322,0,0,0,.465-.477V-3.758h-.766q-1.375,0-1.375,1.234a.754.754,0,0,0,.242.582A.876.876,0,0,0,55.422-1.719ZM65.914-6.07l-.867-.062a1.558,1.558,0,0,0-1.594.781V0H60.82V-8.453h2.469l.086,1.086a2.039,2.039,0,0,1,1.852-1.242,2.567,2.567,0,0,1,.734.094Z" transform="translate(560 2947)" fill="#12263f"/>
  </g>
</svg>
