<svg xmlns="http://www.w3.org/2000/svg" width="585" height="388" viewBox="0 0 585 388">
  <g id="Grupo_158911" data-name="Grupo 158911" transform="translate(-205 -9735.474)">
    <path id="Rectángulo_35564" data-name="Rectángulo 35564" d="M20,0H474A111,111,0,0,1,585,111V368a20,20,0,0,1-20,20H20A20,20,0,0,1,0,368V20A20,20,0,0,1,20,0Z" transform="translate(205 9735.474)" fill="#acade1"/>
    <g id="Grupo_94753" data-name="Grupo 94753" transform="translate(272 9735.822)">
      <g id="Background_Complete" data-name="Background Complete" transform="translate(64.328 43.627)">
        <path id="Trazado_121004" data-name="Trazado 121004" d="M296.833,449.072c-31.555-1.853-63.109-4.422-94.664-6.276-4.676-.274-9.457-.573-13.775-2.39-4.046-1.7-7.432-4.633-11.164-6.946s-8.2-4.05-12.458-2.971-7.653,6-5.79,9.975c-2.211-7.094-4.586-14.469-9.762-19.793s-14.055-7.836-20.143-3.585c-6.786,4.738-6.8,14.606-6.1,22.859-2.15-6.186-4.405-12.554-8.794-17.412s-11.507-7.862-17.617-5.519c-4.456,1.71-7.579,5.945-9.038,10.495s-1.473,9.424-1.3,14.2l-.147,7.608Z" transform="translate(-73.229 -105.711)" fill="#585bc3"/>
        <g id="Grupo_94448" data-name="Grupo 94448" transform="translate(44.925 26.684)">
          <path id="Trazado_121005" data-name="Trazado 121005" d="M228.8,100.894c.8-5.79-7.374-10.552-13.513-11.047-2.928-.237-5.97.211-8.743-.755-6.01-2.095-8.41-9.859-14.275-12.332-4.383-1.85-9.43-.2-13.68,1.935s-8.45,4.831-13.2,5.135c-4.13.264-8.615-1.268-12.228.75-2.692,1.5-4.1,4.606-6.585,6.436-2.428,1.791-5.6,2.17-8.608,2.334s-6.132.2-8.875,1.45-5.013,4.157-4.443,7.12Z" transform="translate(-124.56 -75.959)" fill="#ebebeb"/>
        </g>
        <g id="Grupo_94449" data-name="Grupo 94449" transform="translate(251.248)">
          <path id="Trazado_121006" data-name="Trazado 121006" d="M422.556,56.016c.385-2.8-3.57-5.109-6.542-5.348-1.417-.114-2.889.1-4.232-.366-2.91-1.014-4.072-4.772-6.911-5.97-2.122-.9-4.565-.1-6.622.937s-4.091,2.339-6.39,2.486c-2,.128-4.17-.613-5.92.363-1.3.728-1.986,2.23-3.188,3.116a7.6,7.6,0,0,1-4.167,1.129,11.741,11.741,0,0,0-4.3.7,3.394,3.394,0,0,0-2.151,3.447Z" transform="translate(-372.095 -43.944)" fill="#f5f5f5"/>
        </g>
        <g id="Grupo_94450" data-name="Grupo 94450" transform="translate(0 6.284)">
          <path id="Trazado_121007" data-name="Trazado 121007" d="M134.854,66.84c.491-3.565-4.541-6.5-8.322-6.8-1.8-.145-3.676.131-5.384-.464-3.7-1.29-5.179-6.071-8.791-7.595-2.7-1.139-5.808-.125-8.425,1.193s-5.2,2.975-8.128,3.162c-2.544.163-5.305-.78-7.531.463-1.659.926-2.527,2.836-4.056,3.964a9.673,9.673,0,0,1-5.3,1.437,14.928,14.928,0,0,0-5.465.893c-1.69.773-3.087,2.561-2.736,4.385Z" transform="translate(-70.662 -51.484)" fill="#ebebeb"/>
        </g>
      </g>
      <g id="Background_Simple" data-name="Background Simple" transform="translate(63.346 78.508)">
        <path id="Trazado_121008" data-name="Trazado 121008" d="M372.139,125.292h0A82.19,82.19,0,0,0,313.35,86.566a84.055,84.055,0,0,0-28.536.985c-27.962,5.91-52.292,26.79-62.377,53.531-5.93,15.727-7.587,33.834-18.843,46.317-14.647,16.247-39.516,16.757-61.381,16.083s-46.749-.1-61.326,16.211c-9.129,10.215-12.031,24.741-11.295,38.422,1.95,36.218,27.507,68.6,60.009,84.7s70.771,17.538,106.343,10.457c49.833-9.92,97.223-37.16,125.709-79.235,27.139-40.087,34.966-94.015,15.933-138.3A81.195,81.195,0,0,0,372.139,125.292Z" transform="translate(-69.484 -85.792)" fill="#8284d2"/>
      </g>
      <g id="Character" transform="translate(39.598 79.227)">
        <g id="Grupo_94687" data-name="Grupo 94687">
          <g id="Grupo_94452" data-name="Grupo 94452" transform="translate(0 68.489)">
            <path id="Trazado_121010" data-name="Trazado 121010" d="M42.665,176.942s65.741,32.349,84,38.61c14.928,5.119,38.922,6.75,53.454,5.179a43.117,43.117,0,0,0,8.113-1.527c11.478-3.652,69.392-15.652,69.392-15.652l69.282-3.783-1.544-9.426L245.9,195.16s-45.928,6.364-52.351,13.941c0,0-5.46,7.577-15.1,8.863s-52.351-8.993-57.169-13.81-6.1-7.066-19.913-10.278S56.41,168.824,56.41,168.824l-15.417,7.707" transform="translate(-40.993 -168.824)" fill="#e8505b"/>
            <path id="Trazado_121011" data-name="Trazado 121011" d="M42.665,176.942s65.741,32.349,84,38.61c14.928,5.119,38.922,6.75,53.454,5.179a43.117,43.117,0,0,0,8.113-1.527c11.478-3.652,69.392-15.652,69.392-15.652l69.282-3.783-.592-3.613-.953-5.813L245.9,195.16s-45.928,6.364-52.351,13.941c0,0-5.46,7.577-15.1,8.863s-52.351-8.993-57.169-13.81-6.1-7.066-19.913-10.278S56.41,168.824,56.41,168.824l-15.417,7.707" transform="translate(-40.993 -168.824)" opacity="0.5"/>
          </g>
          <g id="Grupo_94679" data-name="Grupo 94679" transform="translate(70.976)">
            <path id="Trazado_121012" data-name="Trazado 121012" d="M341.281,147.422l-90.466.391a16.731,16.731,0,0,1-6.551-1.747c-3.146-1.482-9.8-5.542-11.837-6.8a2.385,2.385,0,0,0-1.717-.337c-.377.077-.667.251-.508.628.218.514,5.859,5.351,5.859,5.351l-10-3.152a2,2,0,0,0-1.68.185c-.228.147-.393.335-.356.568.07.43,6.053,3.266,6.053,3.266l-7.592-1.3a1.335,1.335,0,0,0-1.572,1.044,1.058,1.058,0,0,0-.01.212c.043.707,10.874,4.193,10.874,4.193l-9.975,0a1.5,1.5,0,0,0-1.344,2.164c.568,1.121,15.622,1.511,15.772,3.2s-4.281,2.035-5.781,4.314a1.987,1.987,0,0,0,.937,3.185c1.536-1.836,7.42-3.33,7.42-3.33l9.144.487h0l85.657,12.2,13.2-8.383,5.079-9.2Z" transform="translate(-141.821 -95.351)" fill="#ffbe9d"/>
            <g id="Grupo_94454" data-name="Grupo 94454" transform="translate(53.8 51.773)">
              <path id="Trazado_121013" data-name="Trazado 121013" d="M314.079,148.769l-92.372,18.337a17.406,17.406,0,0,1-7.042-.486c-3.509-.891-11.114-3.721-13.444-4.6a2.487,2.487,0,0,0-1.822,0c-.37.153-.632.389-.393.743.324.482,7.048,4.307,7.048,4.307l-10.848-1.238a2.082,2.082,0,0,0-1.68.523.626.626,0,0,0-.251.651c.157.426,6.833,2.136,6.833,2.136l-8.016.182a1.39,1.39,0,0,0-1.4,1.379,1.079,1.079,0,0,0,.033.218c.183.714,11.943,2.129,11.943,2.129l-10.195,1.976a1.561,1.561,0,0,0-.944,2.478c.8,1.033,16.264-1.553,16.753.14s-3.972,2.929-5.054,5.556a2.069,2.069,0,0,0,1.59,3.068c1.205-2.181,6.922-4.874,6.922-4.874l9.44-1.316h0l89.954-4.521,11.823-11.183,3.367-10.407Z" transform="translate(-190.692 -148.769)" fill="#ffbe9d"/>
              <g id="Grupo_94453" data-name="Grupo 94453" transform="translate(30.773 6.412)">
                <path id="Trazado_121014" data-name="Trazado 121014" d="M287.254,156.465a3.336,3.336,0,0,1-.6.163l-1.73.388-6.381,1.333-21.094,4.183-21.1,4.187L229.966,168l-1.741.334a3.347,3.347,0,0,1-.613.088,3.242,3.242,0,0,1,.594-.173l1.724-.414c1.5-.352,3.672-.837,6.362-1.42,5.38-1.168,12.83-2.7,21.074-4.312l21.12-4.058,6.407-1.2,1.745-.307A3.261,3.261,0,0,1,287.254,156.465Z" transform="translate(-227.612 -156.461)" fill="#eb996e"/>
              </g>
            </g>
            <g id="Grupo_94588" data-name="Grupo 94588" transform="translate(195.143)">
              <g id="Grupo_94505" data-name="Grupo 94505">
                <g id="Grupo_94456" data-name="Grupo 94456" transform="translate(1.708 9.806)">
                  <g id="Grupo_94455" data-name="Grupo 94455">
                    <path id="Trazado_121015" data-name="Trazado 121015" d="M370.03,98.419a4.615,4.615,0,0,1-3.1,3.676c-.919.293-1.916.286-2.821.62a2.109,2.109,0,0,0-1.551,2.15c.146.707.8,1.169,1.33,1.656s1.012,1.239.7,1.89c-.343.716-1.374.768-1.915,1.349a1.853,1.853,0,0,0,.109,2.306,8.241,8.241,0,0,0,1.955,1.557,3.225,3.225,0,0,1,1.495,1.935" transform="translate(-362.317 -98.419)" fill="#263238"/>
                  </g>
                </g>
                <g id="Grupo_94504" data-name="Grupo 94504">
                  <g id="Grupo_94458" data-name="Grupo 94458" transform="translate(5.272)">
                    <g id="Grupo_94457" data-name="Grupo 94457">
                      <path id="Trazado_121016" data-name="Trazado 121016" d="M403.645,111.159c2.486-5.154.749-11.618-3.034-15.913s-9.238-6.751-14.725-8.377c-.788-.233-1.768-.405-2.325.2a1.553,1.553,0,0,0,.126,1.98,4.525,4.525,0,0,0,1.835,1.114,17.183,17.183,0,0,0-7.149-2.008,4.549,4.549,0,0,0-2.525.523,2.067,2.067,0,0,0-1.007,2.215,1.359,1.359,0,0,0,2.067.722,10.537,10.537,0,0,0-6.806,1.542c-1.436.908-2.742,2.471-2.41,4.137a24.515,24.515,0,0,0,1.229,2.716c.572,1.731-.3,3.563-.971,5.257a16.339,16.339,0,0,0-1.227,8.311,9.644,9.644,0,0,0,4.378,6.952" transform="translate(-366.593 -86.655)" fill="#263238"/>
                    </g>
                  </g>
                  <g id="Grupo_94470" data-name="Grupo 94470" transform="translate(0 7.063)">
                    <g id="Grupo_94469" data-name="Grupo 94469">
                      <g id="Grupo_94468" data-name="Grupo 94468">
                        <path id="Trazado_121017" data-name="Trazado 121017" d="M392.061,96.14l-.8-.3a16.343,16.343,0,0,0-20.525,11.3l-10.468,34.518L378.519,157.1l5.579-14.5s8.76,1.777,11.926-6.467c1.53-3.983,4.013-12.443,6.171-20.124A16.45,16.45,0,0,0,392.061,96.14Z" transform="translate(-360.268 -95.129)" fill="#ffbe9d"/>
                        <g id="Grupo_94467" data-name="Grupo 94467" transform="translate(14.226 40.299)">
                          <g id="Grupo_94466" data-name="Grupo 94466">
                            <g id="Grupo_94465" data-name="Grupo 94465">
                              <g id="Grupo_94464" data-name="Grupo 94464">
                                <g id="Grupo_94463" data-name="Grupo 94463">
                                  <g id="Grupo_94462" data-name="Grupo 94462">
                                    <g id="Grupo_94461" data-name="Grupo 94461">
                                      <g id="Grupo_94460" data-name="Grupo 94460">
                                        <g id="Grupo_94459" data-name="Grupo 94459">
                                          <path id="Trazado_121018" data-name="Trazado 121018" d="M387,150.54a20.538,20.538,0,0,1-9.662-7.063s.348,6.9,8.888,9.216Z" transform="translate(-377.336 -143.477)" fill="#eb996e"/>
                                        </g>
                                      </g>
                                    </g>
                                  </g>
                                </g>
                              </g>
                            </g>
                          </g>
                        </g>
                      </g>
                    </g>
                  </g>
                  <g id="Grupo_94475" data-name="Grupo 94475" transform="translate(7.424 6.025)">
                    <g id="Grupo_94472" data-name="Grupo 94472">
                      <g id="Grupo_94471" data-name="Grupo 94471">
                        <path id="Trazado_121019" data-name="Trazado 121019" d="M384.373,100.6c-.668-1.5-1.5-4.759-2.65-5.933s-3.03-.8-4.614-.367a5.338,5.338,0,0,0-3.571,3.294c-2.225,5.968-2.538,11.611-4.208,17.485a2.157,2.157,0,0,0-.106,1.192c.3,1,1.394,1.363,2.427,1.522,2.547.39,3.863-1.459,5.084-3.689a26.6,26.6,0,0,0,.914-4.131,11.26,11.26,0,0,1,6.326-9.186Z" transform="translate(-369.175 -93.883)" fill="#263238"/>
                      </g>
                    </g>
                    <g id="Grupo_94474" data-name="Grupo 94474" transform="translate(15.396 7.298)">
                      <g id="Grupo_94473" data-name="Grupo 94473">
                        <path id="Trazado_121020" data-name="Trazado 121020" d="M387.646,102.639" transform="translate(-387.646 -102.639)" fill="#263238"/>
                      </g>
                    </g>
                  </g>
                  <g id="Grupo_94495" data-name="Grupo 94495" transform="translate(4.523 22.594)">
                    <g id="Grupo_94484" data-name="Grupo 94484">
                      <g id="Grupo_94483" data-name="Grupo 94483">
                        <g id="Grupo_94482" data-name="Grupo 94482">
                          <g id="Grupo_94481" data-name="Grupo 94481">
                            <g id="Grupo_94480" data-name="Grupo 94480">
                              <g id="Grupo_94479" data-name="Grupo 94479">
                                <g id="Grupo_94478" data-name="Grupo 94478">
                                  <g id="Grupo_94477" data-name="Grupo 94477">
                                    <g id="Grupo_94476" data-name="Grupo 94476">
                                      <path id="Trazado_121021" data-name="Trazado 121021" d="M373.045,115.026c-.118-.113-5.068-3.788-6.982,1.94s4.233,6.469,4.3,6.308S373.045,115.026,373.045,115.026Z" transform="translate(-365.694 -113.762)" fill="#ffbe9d"/>
                                    </g>
                                  </g>
                                </g>
                              </g>
                            </g>
                          </g>
                        </g>
                      </g>
                    </g>
                    <g id="Grupo_94494" data-name="Grupo 94494" transform="translate(1.608 1.812)">
                      <g id="Grupo_94493" data-name="Grupo 94493">
                        <g id="Grupo_94492" data-name="Grupo 94492">
                          <g id="Grupo_94491" data-name="Grupo 94491">
                            <g id="Grupo_94490" data-name="Grupo 94490">
                              <g id="Grupo_94489" data-name="Grupo 94489">
                                <g id="Grupo_94488" data-name="Grupo 94488">
                                  <g id="Grupo_94487" data-name="Grupo 94487">
                                    <g id="Grupo_94486" data-name="Grupo 94486">
                                      <g id="Grupo_94485" data-name="Grupo 94485">
                                        <path id="Trazado_121022" data-name="Trazado 121022" d="M369.657,120.881c-.019-.027-.123.037-.318.058a1.052,1.052,0,0,1-.751-.234,2.6,2.6,0,0,1-.4-2.6,3.464,3.464,0,0,1,.757-1.335,1.215,1.215,0,0,1,1.006-.515.535.535,0,0,1,.5.47c.023.186-.051.288-.024.308s.155-.055.188-.308a.673.673,0,0,0-.105-.434.8.8,0,0,0-.5-.33,1.479,1.479,0,0,0-1.339.54,3.569,3.569,0,0,0-.879,1.481,2.731,2.731,0,0,0,.629,2.961,1.128,1.128,0,0,0,.964.153C369.6,121.016,369.674,120.9,369.657,120.881Z" transform="translate(-367.623 -115.936)" fill="#eb996e"/>
                                      </g>
                                    </g>
                                  </g>
                                </g>
                              </g>
                            </g>
                          </g>
                        </g>
                      </g>
                    </g>
                  </g>
                  <g id="Grupo_94497" data-name="Grupo 94497" transform="translate(18.251 3.765)">
                    <g id="Grupo_94496" data-name="Grupo 94496">
                      <path id="Trazado_121023" data-name="Trazado 121023" d="M384.313,101.426c2.841-1.915,5.748-.939,7.686.209s3.578,2.761,5.571,3.809,4.6,1.424,6.395.063a6.126,6.126,0,0,0,2.06-4.4,12.134,12.134,0,0,0-2.845-8.914c-.546-.635-1.381-1.26-2.148-.924-.95.417-.813,1.79-.515,2.783,0,0-9.632-3.638-15.542-1.625S384.313,101.426,384.313,101.426Z" transform="translate(-382.165 -91.171)" fill="#263238"/>
                    </g>
                  </g>
                  <g id="Grupo_94500" data-name="Grupo 94500" transform="translate(24.124 0.103)">
                    <g id="Grupo_94499" data-name="Grupo 94499">
                      <g id="Grupo_94498" data-name="Grupo 94498">
                        <path id="Trazado_121024" data-name="Trazado 121024" d="M389.221,86.778c.052-.009.109.413.4,1.107a8.77,8.77,0,0,0,1.821,2.584,14.248,14.248,0,0,0,3.831,2.721,11.212,11.212,0,0,0,2.617.9c.945.216,1.955.372,2.978.663a6.932,6.932,0,0,1,2.776,1.429,6.165,6.165,0,0,1,1.666,2.4,5.38,5.38,0,0,1,.33,2.622,5.035,5.035,0,0,1-3.477,4.071,3.66,3.66,0,0,1-.884.137c-.205,0-.31-.01-.311-.027,0-.049.428-.048,1.134-.3a4.93,4.93,0,0,0,2.395-1.943,4.643,4.643,0,0,0,.728-1.992,5.021,5.021,0,0,0-.348-2.4,5.783,5.783,0,0,0-1.559-2.193,6.541,6.541,0,0,0-2.59-1.316c-.981-.279-1.984-.438-2.951-.666a11.407,11.407,0,0,1-2.711-.966,13.9,13.9,0,0,1-3.884-2.891,8.128,8.128,0,0,1-1.745-2.759,4.386,4.386,0,0,1-.2-.867C389.208,86.886,389.2,86.78,389.221,86.778Z" transform="translate(-389.211 -86.778)" fill="#455a64"/>
                      </g>
                    </g>
                  </g>
                  <g id="Grupo_94503" data-name="Grupo 94503" transform="translate(17.734 1.781)">
                    <g id="Grupo_94502" data-name="Grupo 94502">
                      <g id="Grupo_94501" data-name="Grupo 94501">
                        <path id="Trazado_121025" data-name="Trazado 121025" d="M381.552,88.792c.043-.01.137.426.458,1.145a8.519,8.519,0,0,0,1.963,2.656,12.058,12.058,0,0,0,4.243,2.442,41.166,41.166,0,0,0,5.93,1.424,22.958,22.958,0,0,1,5.941,1.753,4.083,4.083,0,0,1,1.929,1.993,3.83,3.83,0,0,1,.116,2.416,4.756,4.756,0,0,1-2.076,2.7,5.01,5.01,0,0,1-.824.433c-.2.079-.306.106-.312.092-.02-.041.391-.217,1.024-.686a4.749,4.749,0,0,0,1.844-2.629,3.52,3.52,0,0,0-.156-2.167,3.689,3.689,0,0,0-1.765-1.745,23.792,23.792,0,0,0-5.817-1.668,38.074,38.074,0,0,1-5.991-1.481,11.955,11.955,0,0,1-4.331-2.621,8,8,0,0,1-1.9-2.839,5.573,5.573,0,0,1-.251-.9C381.545,88.907,381.536,88.8,381.552,88.792Z" transform="translate(-381.544 -88.792)" fill="#455a64"/>
                      </g>
                    </g>
                  </g>
                </g>
              </g>
              <g id="Grupo_94587" data-name="Grupo 94587" transform="translate(20.056 18.937)">
                <g id="Grupo_94586" data-name="Grupo 94586">
                  <g id="Grupo_94585" data-name="Grupo 94585">
                    <g id="Grupo_94584" data-name="Grupo 94584">
                      <g id="Grupo_94583" data-name="Grupo 94583">
                        <g id="Grupo_94582" data-name="Grupo 94582">
                          <g id="Grupo_94581" data-name="Grupo 94581">
                            <g id="Grupo_94558" data-name="Grupo 94558" transform="translate(0 7.607)">
                              <g id="Grupo_94557" data-name="Grupo 94557">
                                <g id="Grupo_94556" data-name="Grupo 94556">
                                  <g id="Grupo_94518" data-name="Grupo 94518" transform="translate(13.274 4.069)">
                                    <g id="Grupo_94517" data-name="Grupo 94517">
                                      <g id="Grupo_94516" data-name="Grupo 94516">
                                        <g id="Grupo_94515" data-name="Grupo 94515">
                                          <g id="Grupo_94514" data-name="Grupo 94514">
                                            <g id="Grupo_94513" data-name="Grupo 94513">
                                              <g id="Grupo_94512" data-name="Grupo 94512">
                                                <g id="Grupo_94511" data-name="Grupo 94511">
                                                  <g id="Grupo_94510" data-name="Grupo 94510">
                                                    <g id="Grupo_94509" data-name="Grupo 94509">
                                                      <g id="Grupo_94508" data-name="Grupo 94508">
                                                        <g id="Grupo_94507" data-name="Grupo 94507">
                                                          <g id="Grupo_94506" data-name="Grupo 94506">
                                                            <path id="Trazado_121026" data-name="Trazado 121026" d="M405.335,125.858c-.22.111-.94-.96-2.33-1.45-1.382-.509-2.655-.158-2.745-.381-.048-.1.223-.348.783-.513a3.756,3.756,0,0,1,2.271.1,3.61,3.61,0,0,1,1.78,1.364C405.4,125.454,405.441,125.81,405.335,125.858Z" transform="translate(-400.256 -123.383)" fill="#263238"/>
                                                          </g>
                                                        </g>
                                                      </g>
                                                    </g>
                                                  </g>
                                                </g>
                                              </g>
                                            </g>
                                          </g>
                                        </g>
                                      </g>
                                    </g>
                                  </g>
                                  <g id="Grupo_94531" data-name="Grupo 94531">
                                    <g id="Grupo_94530" data-name="Grupo 94530">
                                      <g id="Grupo_94529" data-name="Grupo 94529">
                                        <g id="Grupo_94528" data-name="Grupo 94528">
                                          <g id="Grupo_94527" data-name="Grupo 94527">
                                            <g id="Grupo_94526" data-name="Grupo 94526">
                                              <g id="Grupo_94525" data-name="Grupo 94525">
                                                <g id="Grupo_94524" data-name="Grupo 94524">
                                                  <g id="Grupo_94523" data-name="Grupo 94523">
                                                    <g id="Grupo_94522" data-name="Grupo 94522">
                                                      <g id="Grupo_94521" data-name="Grupo 94521">
                                                        <g id="Grupo_94520" data-name="Grupo 94520">
                                                          <g id="Grupo_94519" data-name="Grupo 94519">
                                                            <path id="Trazado_121027" data-name="Trazado 121027" d="M389.41,120.976c-.22.111-.942-.96-2.33-1.45-1.381-.509-2.654-.158-2.745-.381-.047-.1.223-.348.783-.513a3.758,3.758,0,0,1,2.271.1,3.609,3.609,0,0,1,1.78,1.364C389.479,120.572,389.515,120.928,389.41,120.976Z" transform="translate(-384.33 -118.501)" fill="#263238"/>
                                                          </g>
                                                        </g>
                                                      </g>
                                                    </g>
                                                  </g>
                                                </g>
                                              </g>
                                            </g>
                                          </g>
                                        </g>
                                      </g>
                                    </g>
                                  </g>
                                  <g id="Grupo_94543" data-name="Grupo 94543" transform="translate(6.414 0.348)">
                                    <g id="Grupo_94542" data-name="Grupo 94542">
                                      <g id="Grupo_94541" data-name="Grupo 94541">
                                        <g id="Grupo_94540" data-name="Grupo 94540">
                                          <g id="Grupo_94539" data-name="Grupo 94539">
                                            <g id="Grupo_94538" data-name="Grupo 94538">
                                              <g id="Grupo_94537" data-name="Grupo 94537">
                                                <g id="Grupo_94536" data-name="Grupo 94536">
                                                  <g id="Grupo_94535" data-name="Grupo 94535">
                                                    <g id="Grupo_94534" data-name="Grupo 94534">
                                                      <g id="Grupo_94533" data-name="Grupo 94533">
                                                        <g id="Grupo_94532" data-name="Grupo 94532">
                                                          <path id="Trazado_121028" data-name="Trazado 121028" d="M392.026,130.713a9.737,9.737,0,0,1,2.4.4c.368.089.728.138.874-.083a1.913,1.913,0,0,0,.138-1.135q-.043-1.465-.088-3.072c-.089-4.363-.019-7.9.157-7.9s.391,3.532.479,7.893c.013,1.073.028,2.1.038,3.074a2.179,2.179,0,0,1-.311,1.457.943.943,0,0,1-.767.311,2.533,2.533,0,0,1-.633-.131A9.54,9.54,0,0,1,392.026,130.713Z" transform="translate(-392.025 -118.918)" fill="#263238"/>
                                                        </g>
                                                      </g>
                                                    </g>
                                                  </g>
                                                </g>
                                              </g>
                                            </g>
                                          </g>
                                        </g>
                                      </g>
                                    </g>
                                  </g>
                                  <g id="Grupo_94555" data-name="Grupo 94555" transform="translate(1.328 11.646)">
                                    <g id="Grupo_94554" data-name="Grupo 94554">
                                      <g id="Grupo_94553" data-name="Grupo 94553">
                                        <g id="Grupo_94552" data-name="Grupo 94552">
                                          <g id="Grupo_94551" data-name="Grupo 94551">
                                            <g id="Grupo_94550" data-name="Grupo 94550">
                                              <g id="Grupo_94549" data-name="Grupo 94549">
                                                <g id="Grupo_94548" data-name="Grupo 94548">
                                                  <g id="Grupo_94547" data-name="Grupo 94547">
                                                    <g id="Grupo_94546" data-name="Grupo 94546">
                                                      <g id="Grupo_94545" data-name="Grupo 94545">
                                                        <g id="Grupo_94544" data-name="Grupo 94544">
                                                          <path id="Trazado_121029" data-name="Trazado 121029" d="M386.581,132.477c.23.067-.3,1.575.607,3.1s2.573,1.933,2.51,2.148c-.012.1-.462.165-1.147-.058a3.979,3.979,0,0,1-2.125-1.708,3.467,3.467,0,0,1-.413-2.568C386.181,132.745,386.481,132.431,386.581,132.477Z" transform="translate(-385.923 -132.473)" fill="#263238"/>
                                                        </g>
                                                      </g>
                                                    </g>
                                                  </g>
                                                </g>
                                              </g>
                                            </g>
                                          </g>
                                        </g>
                                      </g>
                                    </g>
                                  </g>
                                </g>
                              </g>
                            </g>
                            <g id="Grupo_94569" data-name="Grupo 94569" transform="translate(0.765)">
                              <g id="Grupo_94568" data-name="Grupo 94568">
                                <g id="Grupo_94567" data-name="Grupo 94567">
                                  <g id="Grupo_94566" data-name="Grupo 94566">
                                    <g id="Grupo_94565" data-name="Grupo 94565">
                                      <g id="Grupo_94564" data-name="Grupo 94564">
                                        <g id="Grupo_94563" data-name="Grupo 94563">
                                          <g id="Grupo_94562" data-name="Grupo 94562">
                                            <g id="Grupo_94561" data-name="Grupo 94561">
                                              <g id="Grupo_94560" data-name="Grupo 94560">
                                                <g id="Grupo_94559" data-name="Grupo 94559">
                                                  <path id="Trazado_121030" data-name="Trazado 121030" d="M391.814,111.72c-.272.329-1.594-.343-3.293-.726-1.691-.418-3.175-.408-3.271-.823-.038-.2.317-.47.978-.647a5.856,5.856,0,0,1,5,1.18C391.741,111.158,391.937,111.561,391.814,111.72Z" transform="translate(-385.248 -109.374)" fill="#263238"/>
                                                </g>
                                              </g>
                                            </g>
                                          </g>
                                        </g>
                                      </g>
                                    </g>
                                  </g>
                                </g>
                              </g>
                            </g>
                            <g id="Grupo_94580" data-name="Grupo 94580" transform="translate(15.045 5.54)">
                              <g id="Grupo_94579" data-name="Grupo 94579">
                                <g id="Grupo_94578" data-name="Grupo 94578">
                                  <g id="Grupo_94577" data-name="Grupo 94577">
                                    <g id="Grupo_94576" data-name="Grupo 94576">
                                      <g id="Grupo_94575" data-name="Grupo 94575">
                                        <g id="Grupo_94574" data-name="Grupo 94574">
                                          <g id="Grupo_94573" data-name="Grupo 94573">
                                            <g id="Grupo_94572" data-name="Grupo 94572">
                                              <g id="Grupo_94571" data-name="Grupo 94571">
                                                <g id="Grupo_94570" data-name="Grupo 94570">
                                                  <path id="Trazado_121031" data-name="Trazado 121031" d="M407.033,118.536c-.357.228-1.2-.439-2.341-.864-1.13-.465-2.2-.543-2.307-.954-.041-.2.225-.457.757-.6a3.613,3.613,0,0,1,3.745,1.464C407.177,118.047,407.2,118.42,407.033,118.536Z" transform="translate(-402.38 -116.021)" fill="#263238"/>
                                                </g>
                                              </g>
                                            </g>
                                          </g>
                                        </g>
                                      </g>
                                    </g>
                                  </g>
                                </g>
                              </g>
                            </g>
                          </g>
                        </g>
                      </g>
                    </g>
                  </g>
                </g>
              </g>
            </g>
            <g id="Grupo_94598" data-name="Grupo 94598" transform="translate(118.606 49.157)">
              <path id="Trazado_121032" data-name="Trazado 121032" d="M365.2,160.766c.428,2.282,1.049,18.176-.132,24.619-2.195,11.973-18.711,38.359-19.787,40.454-.634,1.234-14.307,32.547-14.307,32.547s-59.548-18.5-62.53-33.572c0,0,20.113-14.967,25.078-19.574.984-.912,19.214-32.3,19.214-32.3l11-19s8.5-8.3,12.884-8.3h9.653Z" transform="translate(-268.443 -145.631)" fill="#ff5f65"/>
              <path id="Trazado_121033" data-name="Trazado 121033" d="M268.443,240.63s7.007.553,26.584,11.528,24.739,14.154,24.739,14.154L279.616,252.25S269.168,246.111,268.443,240.63Z" transform="translate(-268.443 -161.447)" opacity="0.4"/>
              <path id="Trazado_121034" data-name="Trazado 121034" d="M340.53,145.631l-10.948.975-31.452,6.446,13.589,25.313L346.4,175s8.4-16.564,5.281-20.164S340.53,145.631,340.53,145.631Z" transform="translate(-273.386 -145.631)" fill="#ff5f65"/>
              <path id="Trazado_121035" data-name="Trazado 121035" d="M317.135,184.072l23.652-2.392h0l-28.413,10.4Z" transform="translate(-275.757 -151.633)" opacity="0.4"/>
              <g id="Grupo_94589" data-name="Grupo 94589" transform="translate(43.966 29.861)">
                <path id="Trazado_121036" data-name="Trazado 121036" d="M348.915,181.475c.011.119-6.187.794-13.841,1.509s-13.871,1.2-13.883,1.076,6.185-.794,13.843-1.509S348.9,181.355,348.915,181.475Z" transform="translate(-321.191 -181.457)" fill="#263238"/>
              </g>
              <g id="Grupo_94590" data-name="Grupo 94590" transform="translate(68.698 2.255)">
                <path id="Trazado_121037" data-name="Trazado 121037" d="M359.97,161.28c-.078.008-.166-.918-.563-2.347a16.967,16.967,0,0,0-6.524-9.269c-1.212-.856-2.053-1.251-2.02-1.322a1.951,1.951,0,0,1,.619.218,10.775,10.775,0,0,1,1.571.85,15.442,15.442,0,0,1,6.651,9.449,10.807,10.807,0,0,1,.269,1.766A1.908,1.908,0,0,1,359.97,161.28Z" transform="translate(-350.863 -148.336)" fill="#263238"/>
              </g>
              <g id="Grupo_94591" data-name="Grupo 94591" transform="translate(31.452 47.445)">
                <path id="Trazado_121038" data-name="Trazado 121038" d="M306.177,215.685a7.012,7.012,0,0,1,1.225-.243c.792-.119,1.932-.333,3.328-.639s3.044-.744,4.844-1.319a50.743,50.743,0,0,0,11.121-5.168c1.6-1,3-1.976,4.131-2.851s2.034-1.6,2.636-2.131a6.918,6.918,0,0,1,.976-.779,6.942,6.942,0,0,1-.863.9c-.569.568-1.441,1.342-2.56,2.248a45.435,45.435,0,0,1-4.108,2.949,46.841,46.841,0,0,1-11.212,5.209,45.452,45.452,0,0,1-4.9,1.238c-1.413.271-2.566.438-3.368.507A6.81,6.81,0,0,1,306.177,215.685Z" transform="translate(-306.177 -202.553)" fill="#263238"/>
              </g>
              <g id="Grupo_94592" data-name="Grupo 94592" transform="translate(34.762 51.868)">
                <path id="Trazado_121039" data-name="Trazado 121039" d="M310.148,210.816c-.005-.138,2.945-.173,6.455-1,3.517-.8,6.179-2.073,6.235-1.948a6.866,6.866,0,0,1-1.7.91,25.939,25.939,0,0,1-9.053,2.1A6.916,6.916,0,0,1,310.148,210.816Z" transform="translate(-310.148 -207.86)" fill="#263238"/>
              </g>
              <g id="Grupo_94593" data-name="Grupo 94593" transform="translate(36.979 81.645)">
                <path id="Trazado_121040" data-name="Trazado 121040" d="M343.83,243.587a6.954,6.954,0,0,1-1.131.539c-.737.327-1.822.755-3.178,1.245a73.712,73.712,0,0,1-22.05,4.253c-1.441.049-2.608.055-3.413.027a6.971,6.971,0,0,1-1.25-.081,6.927,6.927,0,0,1,1.249-.088c.8-.023,1.965-.076,3.4-.164a86.02,86.02,0,0,0,21.966-4.236c1.364-.451,2.462-.834,3.217-1.112A6.942,6.942,0,0,1,343.83,243.587Z" transform="translate(-312.808 -243.584)" fill="#263238"/>
              </g>
              <g id="Grupo_94597" data-name="Grupo 94597" transform="translate(61.94 30.047)">
                <path id="Trazado_121041" data-name="Trazado 121041" d="M377.732,189.942l-17.388-5.926c-2.48,9.783-9.167,17.843-17.589,25.192l21.53,11.618a241.271,241.271,0,0,0,11.385-22.819A25.844,25.844,0,0,0,377.732,189.942Z" transform="translate(-342.755 -182.069)" fill="#f5f5f5"/>
                <path id="Trazado_121042" data-name="Trazado 121042" d="M368.182,181.68l-1.465,4.646,2.38,1.119,1.389-4.92Z" transform="translate(-346.744 -181.68)" fill="#e0e0e0"/>
                <g id="Grupo_94594" data-name="Grupo 94594" transform="translate(17.836 13.091)">
                  <path id="Trazado_121043" data-name="Trazado 121043" d="M364.154,207.962a24.864,24.864,0,0,1,3.19-.113l4.065-8.128-4.673-2.336L365.73,199.4l2.166,1.084Z" transform="translate(-364.154 -197.386)" fill="#e8505b"/>
                  <path id="Trazado_121044" data-name="Trazado 121044" d="M378.48,205.921c.039-.009.079-.015.119-.024q.511-1.449,1.141-2.851a6.636,6.636,0,0,0-1.2-.768,5.632,5.632,0,0,0-5.308-.139l1.239,2.089a2.965,2.965,0,0,1,2.785.038C378.146,204.71,378.543,205.288,378.48,205.921Z" transform="translate(-365.666 -198.078)" fill="#e8505b"/>
                </g>
                <g id="Grupo_94595" data-name="Grupo 94595" transform="translate(18.846 23.072)">
                  <path id="Trazado_121045" data-name="Trazado 121045" d="M369.183,209.415c-1.12.183-2.041.131-3.143.4l-.675,1.336,2.506,1.253,1.522-3.042C369.323,209.38,369.253,209.4,369.183,209.415Z" transform="translate(-365.365 -209.361)" fill="#e8505b"/>
                  <path id="Trazado_121046" data-name="Trazado 121046" d="M376.78,210.224c0-.006-.151.006-.148,0l-5.294,1.6-.812,1.625,3.642,1.822a3.567,3.567,0,0,1,.126-.338,14.058,14.058,0,0,1,.954-1.676l-.173-.087.281-.085Z" transform="translate(-366.224 -209.504)" fill="#e8505b"/>
                </g>
                <g id="Grupo_94596" data-name="Grupo 94596" transform="translate(9.353 22.001)">
                  <path id="Trazado_121047" data-name="Trazado 121047" d="M372.482,208.087a2.439,2.439,0,0,1-.694.253c-.453.138-1.117.309-1.941.5a55.605,55.605,0,0,1-13.137,1.359c-.846-.017-1.53-.049-2-.091a2.417,2.417,0,0,1-.73-.105,22.067,22.067,0,0,1,2.731-.111c1.685-.042,4.01-.151,6.566-.413s4.853-.637,6.511-.94A22.011,22.011,0,0,1,372.482,208.087Z" transform="translate(-353.976 -208.076)" fill="#263238"/>
                </g>
              </g>
            </g>
            <g id="Grupo_94678" data-name="Grupo 94678" transform="translate(0 134.717)">
              <g id="Grupo_94634" data-name="Grupo 94634" transform="translate(0 2.916)">
                <path id="Trazado_121048" data-name="Trazado 121048" d="M296.973,272.276c-.459,1.377-36.253,55.1-67,66.112l-13.31-2.065-70.679-20.882,7.8-19.736h0l66.09,14.228,30.376-34.417,9.2-23.738Z" transform="translate(-129.448 -251.779)" fill="#ffbe9d"/>
                <path id="Trazado_121049" data-name="Trazado 121049" d="M150.938,325.336l29.447,8.675,6.942-22.613-32.409-7.665Z" transform="translate(-130.274 -260.429)" fill="#455a64"/>
                <g id="Grupo_94631" data-name="Grupo 94631" transform="translate(0 39.803)">
                  <g id="Grupo_94630" data-name="Grupo 94630">
                    <g id="Grupo_94621" data-name="Grupo 94621">
                      <g id="Grupo_94601" data-name="Grupo 94601">
                        <g id="Grupo_94600" data-name="Grupo 94600">
                          <g id="Grupo_94599" data-name="Grupo 94599">
                            <path id="Trazado_121050" data-name="Trazado 121050" d="M147.96,324.4l-.537.092s-17.2,18.106-21.277,16.647l17.82-41.6,10.9,4.6-1.005,1.379C149.839,311.038,148.129,317.565,147.96,324.4Z" transform="translate(-126.146 -299.532)" fill="#ff5f65"/>
                          </g>
                        </g>
                      </g>
                      <g id="Grupo_94605" data-name="Grupo 94605" transform="translate(21.174 6.512)" opacity="0.6">
                        <g id="Grupo_94604" data-name="Grupo 94604">
                          <g id="Grupo_94603" data-name="Grupo 94603">
                            <g id="Grupo_94602" data-name="Grupo 94602">
                              <path id="Trazado_121051" data-name="Trazado 121051" d="M155,309.375a1.849,1.849,0,0,0-1.435-2.005,1.777,1.777,0,0,0-2,1.405,1.95,1.95,0,0,0,1.531,2.116,1.844,1.844,0,0,0,1.919-1.693" transform="translate(-151.549 -307.345)" fill="#fff"/>
                            </g>
                          </g>
                        </g>
                      </g>
                      <g id="Grupo_94608" data-name="Grupo 94608" opacity="0.6">
                        <g id="Grupo_94607" data-name="Grupo 94607">
                          <g id="Grupo_94606" data-name="Grupo 94606">
                            <path id="Trazado_121052" data-name="Trazado 121052" d="M143.966,299.532l3.322,1.559L128.96,340.4s-1.6,1.507-2.814.738Z" transform="translate(-126.146 -299.532)" fill="#fff"/>
                          </g>
                        </g>
                      </g>
                      <g id="Grupo_94612" data-name="Grupo 94612" transform="translate(20.402 20.942)">
                        <g id="Grupo_94611" data-name="Grupo 94611">
                          <g id="Grupo_94610" data-name="Grupo 94610">
                            <g id="Grupo_94609" data-name="Grupo 94609">
                              <path id="Trazado_121053" data-name="Trazado 121053" d="M151.422,329.437c-.2-.093.143-1.149-.083-2.428-.192-1.286-.851-2.178-.691-2.33.12-.17,1.205.653,1.45,2.207S151.589,329.561,151.422,329.437Z" transform="translate(-150.623 -324.657)" fill="#263238"/>
                            </g>
                          </g>
                        </g>
                      </g>
                      <g id="Grupo_94616" data-name="Grupo 94616" transform="translate(15.478 25.291)">
                        <g id="Grupo_94615" data-name="Grupo 94615">
                          <g id="Grupo_94614" data-name="Grupo 94614">
                            <g id="Grupo_94613" data-name="Grupo 94613">
                              <path id="Trazado_121054" data-name="Trazado 121054" d="M146.764,333.9c-.217-.038-.186-1.066-.749-2.124-.533-1.074-1.387-1.647-1.292-1.845.05-.2,1.3.165,1.976,1.494S146.959,333.975,146.764,333.9Z" transform="translate(-144.715 -329.875)" fill="#263238"/>
                            </g>
                          </g>
                        </g>
                      </g>
                      <g id="Grupo_94620" data-name="Grupo 94620" transform="translate(11.238 29.476)">
                        <g id="Grupo_94619" data-name="Grupo 94619">
                          <g id="Grupo_94618" data-name="Grupo 94618">
                            <g id="Grupo_94617" data-name="Grupo 94617">
                              <path id="Trazado_121055" data-name="Trazado 121055" d="M139.632,334.973c.036-.2,1.172-.051,2.061.948s.925,2.138.718,2.151c-.216.043-.548-.829-1.291-1.638C140.4,335.609,139.566,335.184,139.632,334.973Z" transform="translate(-139.628 -334.896)" fill="#263238"/>
                            </g>
                          </g>
                        </g>
                      </g>
                    </g>
                    <g id="Grupo_94625" data-name="Grupo 94625" transform="translate(21.385 19.949)">
                      <g id="Grupo_94624" data-name="Grupo 94624">
                        <g id="Grupo_94623" data-name="Grupo 94623">
                          <g id="Grupo_94622" data-name="Grupo 94622">
                            <path id="Trazado_121056" data-name="Trazado 121056" d="M151.929,328.837a4.25,4.25,0,0,1,.9-2.079,10.148,10.148,0,0,1,1.6-1.893,10.6,10.6,0,0,1,1.148-.925,2.8,2.8,0,0,1,.759-.419.963.963,0,0,1,1.12.37,1.214,1.214,0,0,1,.083,1.089,2.934,2.934,0,0,1-.443.735,8.016,8.016,0,0,1-3.083,2.486,3.79,3.79,0,0,1-2.217.5c-.027-.121.809-.318,1.968-.984a9.026,9.026,0,0,0,1.844-1.41,8.438,8.438,0,0,0,.881-1.038c.3-.392.468-.765.321-.962-.058-.073-.085-.091-.253-.054a2.272,2.272,0,0,0-.556.309,11.821,11.821,0,0,0-1.1.832,12.572,12.572,0,0,0-1.635,1.683C152.429,328.128,152.037,328.888,151.929,328.837Z" transform="translate(-151.802 -323.465)" fill="#263238"/>
                          </g>
                        </g>
                      </g>
                    </g>
                    <g id="Grupo_94629" data-name="Grupo 94629" transform="translate(21.333 24.863)">
                      <g id="Grupo_94628" data-name="Grupo 94628">
                        <g id="Grupo_94627" data-name="Grupo 94627">
                          <g id="Grupo_94626" data-name="Grupo 94626">
                            <path id="Trazado_121057" data-name="Trazado 121057" d="M151.74,329.429a3.613,3.613,0,0,1,2.248.313,7.329,7.329,0,0,1,3.2,2.334,1.874,1.874,0,0,1,.483,1.78,1.059,1.059,0,0,1-.954.622,3.089,3.089,0,0,1-.856-.113,5.037,5.037,0,0,1-1.4-.6,5.209,5.209,0,0,1-1.771-1.811,2.922,2.922,0,0,1-.533-2.215,18.571,18.571,0,0,0,.989,1.918,5.218,5.218,0,0,0,1.675,1.5,4.684,4.684,0,0,0,1.221.478c.469.124.9.111.924-.074a1.3,1.3,0,0,0-.371-1.021,7.469,7.469,0,0,0-.909-1,8.146,8.146,0,0,0-1.906-1.294C152.578,329.662,151.724,329.554,151.74,329.429Z" transform="translate(-151.74 -329.362)" fill="#263238"/>
                          </g>
                        </g>
                      </g>
                    </g>
                  </g>
                </g>
                <g id="Grupo_94632" data-name="Grupo 94632" transform="translate(47.156 50.755)">
                  <path id="Trazado_121058" data-name="Trazado 121058" d="M189.1,312.672a3.406,3.406,0,0,1-.191.854q-.275.946-.664,2.28c-.61,2.024-1.394,4.623-2.26,7.5s-1.638,5.479-2.244,7.5l-.7,2.269a3.405,3.405,0,0,1-.311.817,3.366,3.366,0,0,1,.148-.862c.123-.548.317-1.336.568-2.307.5-1.942,1.244-4.613,2.123-7.546s1.734-5.568,2.384-7.466c.325-.949.6-1.714.8-2.239A3.308,3.308,0,0,1,189.1,312.672Z" transform="translate(-182.722 -312.672)" fill="#fafafa"/>
                </g>
                <g id="Grupo_94633" data-name="Grupo 94633" transform="translate(44.444 50.755)">
                  <path id="Trazado_121059" data-name="Trazado 121059" d="M185.847,312.672a3.407,3.407,0,0,1-.191.854q-.275.946-.664,2.28c-.61,2.024-1.394,4.623-2.26,7.5s-1.638,5.479-2.244,7.5l-.7,2.269a3.405,3.405,0,0,1-.311.817,3.366,3.366,0,0,1,.148-.862c.123-.548.317-1.336.568-2.307.5-1.942,1.244-4.613,2.124-7.546s1.733-5.568,2.383-7.466c.325-.949.6-1.714.8-2.239A3.348,3.348,0,0,1,185.847,312.672Z" transform="translate(-179.468 -312.672)" fill="#fafafa"/>
                </g>
              </g>
              <g id="Grupo_94671" data-name="Grupo 94671" transform="translate(135.403 21.405)">
                <path id="Trazado_121060" data-name="Trazado 121060" d="M326.316,273.962c1.377.919,48.562,48.844,49.481,52.515s17.44,77.1,17.44,77.1l-16.063,4.589s-22.489-44.059-22.489-45.436-7.617-21.668-7.617-21.668l-28.641-25.146L288.6,288.843Z" transform="translate(-288.595 -273.962)" fill="#ffbe9d"/>
                <g id="Grupo_94670" data-name="Grupo 94670" transform="translate(77.588 105.952)">
                  <path id="Trazado_121061" data-name="Trazado 121061" d="M414.228,430.055,404.1,401.077l-22.416,7.552,12.68,30.795Z" transform="translate(-381.681 -401.077)" fill="#455a64"/>
                  <g id="Grupo_94667" data-name="Grupo 94667" transform="translate(11.195 21.112)">
                    <g id="Grupo_94666" data-name="Grupo 94666">
                      <g id="Grupo_94657" data-name="Grupo 94657" transform="translate(0 6.97)">
                        <g id="Grupo_94637" data-name="Grupo 94637" transform="translate(0 0.102)">
                          <g id="Grupo_94636" data-name="Grupo 94636">
                            <g id="Grupo_94635" data-name="Grupo 94635">
                              <path id="Trazado_121062" data-name="Trazado 121062" d="M415.6,434.891l.388.382s24.739,3.407,25.933,7.572l-44.187,9.795L395.112,441.1l1.705.012C403.652,441.157,409.951,438.739,415.6,434.891Z" transform="translate(-395.112 -434.891)" fill="#ff5f65"/>
                            </g>
                          </g>
                        </g>
                        <g id="Grupo_94641" data-name="Grupo 94641" transform="translate(4.642 7.145)" opacity="0.6">
                          <g id="Grupo_94640" data-name="Grupo 94640">
                            <g id="Grupo_94639" data-name="Grupo 94639">
                              <g id="Grupo_94638" data-name="Grupo 94638">
                                <path id="Trazado_121063" data-name="Trazado 121063" d="M401.627,443.535a1.849,1.849,0,0,0-.791,2.336,1.777,1.777,0,0,0,2.309.8,1.95,1.95,0,0,0,.825-2.478,1.845,1.845,0,0,0-2.495-.571" transform="translate(-400.681 -443.341)" fill="#fff"/>
                              </g>
                            </g>
                          </g>
                        </g>
                        <g id="Grupo_94644" data-name="Grupo 94644" transform="translate(1.948 6.2)" opacity="0.6">
                          <g id="Grupo_94643" data-name="Grupo 94643">
                            <g id="Grupo_94642" data-name="Grupo 94642">
                              <path id="Trazado_121064" data-name="Trazado 121064" d="M398.122,453.857l-.673-3.607,42.618-8.043s2.156.42,2.241,1.855Z" transform="translate(-397.449 -442.207)" fill="#fff"/>
                            </g>
                          </g>
                        </g>
                        <g id="Grupo_94648" data-name="Grupo 94648" transform="translate(18.028)">
                          <g id="Grupo_94647" data-name="Grupo 94647">
                            <g id="Grupo_94646" data-name="Grupo 94646">
                              <g id="Grupo_94645" data-name="Grupo 94645">
                                <path id="Trazado_121065" data-name="Trazado 121065" d="M420.254,434.869c.041.218-1.017.554-1.925,1.484-.932.905-1.272,1.961-1.49,1.92-.208,0-.173-1.359.947-2.465S420.257,434.661,420.254,434.869Z" transform="translate(-416.741 -434.769)" fill="#263238"/>
                              </g>
                            </g>
                          </g>
                        </g>
                        <g id="Grupo_94652" data-name="Grupo 94652" transform="translate(24.254 0.937)">
                          <g id="Grupo_94651" data-name="Grupo 94651">
                            <g id="Grupo_94650" data-name="Grupo 94650">
                              <g id="Grupo_94649" data-name="Grupo 94649">
                                <path id="Trazado_121066" data-name="Trazado 121066" d="M426.557,435.946c.1.2-.758.773-1.288,1.848-.563,1.059-.528,2.087-.745,2.125-.2.079-.625-1.151.06-2.476S426.507,435.741,426.557,435.946Z" transform="translate(-424.211 -435.893)" fill="#263238"/>
                              </g>
                            </g>
                          </g>
                        </g>
                        <g id="Grupo_94656" data-name="Grupo 94656" transform="translate(29.944 1.865)">
                          <g id="Grupo_94655" data-name="Grupo 94655">
                            <g id="Grupo_94654" data-name="Grupo 94654">
                              <g id="Grupo_94653" data-name="Grupo 94653">
                                <path id="Trazado_121067" data-name="Trazado 121067" d="M431.556,441.094c-.187.09-.726-.922-.433-2.226s1.2-2,1.328-1.839c.162.15-.353.929-.577,2C431.626,440.1,431.766,441.026,431.556,441.094Z" transform="translate(-431.038 -437.007)" fill="#263238"/>
                              </g>
                            </g>
                          </g>
                        </g>
                      </g>
                      <g id="Grupo_94661" data-name="Grupo 94661" transform="translate(13.719 4.667)">
                        <g id="Grupo_94660" data-name="Grupo 94660">
                          <g id="Grupo_94659" data-name="Grupo 94659">
                            <g id="Grupo_94658" data-name="Grupo 94658">
                              <path id="Trazado_121068" data-name="Trazado 121068" d="M418.886,434.391a4.247,4.247,0,0,1-2.215.479,10.183,10.183,0,0,1-2.473-.2,10.545,10.545,0,0,1-1.42-.393,2.774,2.774,0,0,1-.784-.372.963.963,0,0,1-.353-1.126,1.21,1.21,0,0,1,.836-.7,2.954,2.954,0,0,1,.855-.07,8.181,8.181,0,0,1,1.48.168,7.993,7.993,0,0,1,2.338.887c1.235.722,1.764,1.451,1.7,1.509-.082.092-.731-.472-1.948-1.024a9.054,9.054,0,0,0-2.22-.674,8.374,8.374,0,0,0-1.358-.11c-.5-.019-.894.066-.968.3-.026.089-.025.122.1.238a2.292,2.292,0,0,0,.575.271,11.8,11.8,0,0,0,1.318.408,12.554,12.554,0,0,0,2.32.346A15.617,15.617,0,0,1,418.886,434.391Z" transform="translate(-411.571 -432.005)" fill="#263238"/>
                            </g>
                          </g>
                        </g>
                      </g>
                      <g id="Grupo_94665" data-name="Grupo 94665" transform="translate(19.508)">
                        <g id="Grupo_94664" data-name="Grupo 94664">
                          <g id="Grupo_94663" data-name="Grupo 94663">
                            <g id="Grupo_94662" data-name="Grupo 94662">
                              <path id="Trazado_121069" data-name="Trazado 121069" d="M419.83,433.83c-.069.05-.668-.628-1.057-2.008a7.326,7.326,0,0,1,.03-3.958,1.874,1.874,0,0,1,1.164-1.43,1.058,1.058,0,0,1,1.061.413,3.072,3.072,0,0,1,.408.76,5.026,5.026,0,0,1,.332,1.49,5.217,5.217,0,0,1-.438,2.5c-.609,1.337-1.453,1.795-1.487,1.725a18.785,18.785,0,0,0,.98-1.923,5.21,5.21,0,0,0,.239-2.235,4.682,4.682,0,0,0-.324-1.269c-.173-.454-.433-.794-.6-.708-.22.046-.515.482-.613.9a7.435,7.435,0,0,0-.282,1.321,8.156,8.156,0,0,0,.06,2.3C419.53,433.014,419.94,433.771,419.83,433.83Z" transform="translate(-418.517 -426.406)" fill="#263238"/>
                            </g>
                          </g>
                        </g>
                      </g>
                    </g>
                  </g>
                  <g id="Grupo_94668" data-name="Grupo 94668" transform="translate(1.877 3.325)">
                    <path id="Trazado_121070" data-name="Trazado 121070" d="M383.933,412.277a3.345,3.345,0,0,1,.8-.344l2.24-.789,7.408-2.538,7.4-2.555,2.252-.754a3.437,3.437,0,0,1,.845-.224,3.35,3.35,0,0,1-.787.383c-.517.22-1.27.522-2.206.884-1.87.724-4.472,1.681-7.367,2.676s-5.534,1.84-7.455,2.42c-.96.29-1.74.515-2.283.659A3.44,3.44,0,0,1,383.933,412.277Z" transform="translate(-383.933 -405.067)" fill="#fafafa"/>
                  </g>
                  <g id="Grupo_94669" data-name="Grupo 94669" transform="translate(3.459 5.528)">
                    <path id="Trazado_121071" data-name="Trazado 121071" d="M385.831,414.92a3.346,3.346,0,0,1,.8-.344l2.24-.79,7.408-2.537,7.4-2.555,2.252-.754a3.448,3.448,0,0,1,.845-.224,3.351,3.351,0,0,1-.787.383c-.516.22-1.269.522-2.205.884-1.87.724-4.472,1.68-7.367,2.676s-5.534,1.84-7.455,2.42c-.96.29-1.74.515-2.283.658A3.418,3.418,0,0,1,385.831,414.92Z" transform="translate(-385.831 -407.71)" fill="#fafafa"/>
                  </g>
                </g>
              </g>
              <g id="Grupo_94677" data-name="Grupo 94677" transform="translate(98.429)">
                <path id="Trazado_121072" data-name="Trazado 121072" d="M275.809,251.2s-25.207,31.63-31.234,34.142c-1.93.8,4.984,8.911,4.984,8.911l3.424-3.877c10.886,5.724,19.309,13.224,27.982,23.773L296,300.022l12.635,16.732L344.6,294.5l-17.659-19.026s-23.8-21.441-45.271-27.195C281.671,248.281,279.19,248.265,275.809,251.2Z" transform="translate(-244.235 -248.281)" fill="#263238"/>
                <g id="Grupo_94672" data-name="Grupo 94672" transform="translate(36.73 31.448)">
                  <path id="Trazado_121073" data-name="Trazado 121073" d="M321.74,286.011a2.028,2.028,0,0,1-.291.394l-.9,1.071c-.791.923-1.948,2.246-3.395,3.867-2.891,3.244-6.935,7.682-11.512,12.479s-8.832,9.043-12.02,12c-1.6,1.469-2.9,2.656-3.843,3.426l-1.079.892a2.064,2.064,0,0,1-.4.288,2.1,2.1,0,0,1,.338-.354l1.024-.952c.906-.808,2.172-2.026,3.744-3.522,3.129-3.009,7.344-7.278,11.918-12.076s8.65-9.2,11.6-12.386l3.5-3.774.962-1.016A2.155,2.155,0,0,1,321.74,286.011Z" transform="translate(-288.301 -286.01)" fill="#455a64"/>
                </g>
                <g id="Grupo_94673" data-name="Grupo 94673" transform="translate(0.286 37.544)">
                  <path id="Trazado_121074" data-name="Trazado 121074" d="M281.319,321.145a1.9,1.9,0,0,1-.344-.326l-.924-.989c-.787-.87-1.955-2.1-3.428-3.6s-3.277-3.224-5.339-5.076c-2.077-1.836-4.418-3.791-6.964-5.729s-5.074-3.649-7.4-5.151c-2.342-1.484-4.493-2.756-6.334-3.763s-3.342-1.8-4.393-2.324l-1.2-.62a1.894,1.894,0,0,1-.407-.243,1.982,1.982,0,0,1,.444.164l1.239.547c1.075.476,2.6,1.225,4.466,2.206s4.039,2.225,6.4,3.695c2.351,1.489,4.886,3.209,7.452,5.143s4.9,3.918,6.97,5.777c2.055,1.875,3.847,3.629,5.292,5.159s2.586,2.795,3.335,3.7l.863,1.044A1.969,1.969,0,0,1,281.319,321.145Z" transform="translate(-244.578 -293.324)" fill="#455a64"/>
                </g>
                <g id="Grupo_94674" data-name="Grupo 94674" transform="translate(16.857 4.413)">
                  <path id="Trazado_121075" data-name="Trazado 121075" d="M298.491,253.576a2.656,2.656,0,0,1-.333.438l-1.017,1.2c-.927,1.076-2.207,2.566-3.775,4.388-3.185,3.707-7.545,8.862-12.244,14.65s-8.845,11.121-11.818,15l-3.517,4.6-.966,1.243a2.562,2.562,0,0,1-.361.416,2.691,2.691,0,0,1,.291-.468l.9-1.291c.788-1.118,1.952-2.718,3.408-4.682,2.911-3.928,7.023-9.291,11.726-15.088s9.1-10.92,12.349-14.578c1.622-1.829,2.949-3.3,3.88-4.3l1.079-1.148A2.551,2.551,0,0,1,298.491,253.576Z" transform="translate(-264.459 -253.575)" fill="#fafafa"/>
                </g>
                <g id="Grupo_94675" data-name="Grupo 94675" transform="translate(13.752 4.247)">
                  <path id="Trazado_121076" data-name="Trazado 121076" d="M295.121,253.377a2.479,2.479,0,0,1-.336.423l-1.025,1.153-3.8,4.208c-3.21,3.555-7.608,8.5-12.357,14.051s-8.945,10.673-11.956,14.4l-3.564,4.414-.979,1.193a2.533,2.533,0,0,1-.365.4,2.585,2.585,0,0,1,.3-.452l.914-1.243c.8-1.074,1.98-2.613,3.457-4.5,2.951-3.776,7.116-8.926,11.867-14.489s9.191-10.473,12.461-13.977c1.634-1.752,2.97-3.158,3.908-4.116l1.085-1.1A2.578,2.578,0,0,1,295.121,253.377Z" transform="translate(-260.734 -253.376)" fill="#fafafa"/>
                </g>
                <g id="Grupo_94676" data-name="Grupo 94676" transform="translate(62.995 40.593)">
                  <path id="Trazado_121077" data-name="Trazado 121077" d="M333.464,316.2c-.1.07-3.232-4.176-7-9.481s-6.746-9.665-6.648-9.734,3.232,4.175,7,9.482S333.562,316.129,333.464,316.2Z" transform="translate(-319.813 -296.982)" fill="#455a64"/>
                </g>
              </g>
            </g>
          </g>
          <g id="Grupo_94686" data-name="Grupo 94686" transform="translate(61.082 93.797)">
            <g id="Grupo_94682" data-name="Grupo 94682" transform="translate(175.856)">
              <g id="Grupo_94680" data-name="Grupo 94680">
                <path id="Trazado_121078" data-name="Trazado 121078" d="M376.918,207.5c-.088.958-1.75,3.262-3.8,4.464a70.439,70.439,0,0,1-7.087,3.817c-4.627,2.245-40.778,15.206-40.778,15.206l3.187-7.094-.783-4.631c9.96-2.165,37.314-10.324,44.364-15.02,1.454-.969,2.42-3.083,1.129-4.556l.158-.5s.673-.15,2.813,3.5A7.639,7.639,0,0,1,376.918,207.5Z" transform="translate(-325.258 -199.187)" fill="#e8505b"/>
              </g>
              <g id="Grupo_94681" data-name="Grupo 94681" opacity="0.3">
                <path id="Trazado_121079" data-name="Trazado 121079" d="M376.918,207.5c-.088.958-1.75,3.262-3.8,4.464a70.439,70.439,0,0,1-7.087,3.817c-4.627,2.245-40.778,15.206-40.778,15.206l3.187-7.094-.783-4.631c9.96-2.165,37.314-10.324,44.364-15.02,1.454-.969,2.42-3.083,1.129-4.556l.158-.5s.673-.15,2.813,3.5A7.639,7.639,0,0,1,376.918,207.5Z" transform="translate(-325.258 -199.187)"/>
              </g>
            </g>
            <g id="Grupo_94685" data-name="Grupo 94685" transform="translate(0 20.632)">
              <g id="Grupo_94683" data-name="Grupo 94683">
                <path id="Trazado_121080" data-name="Trazado 121080" d="M237.409,228.248l35.06-4.308,4.292,2.327-8.183,9.537s-44.37,3.715-55.033,10.062c-10.2,6.071-13.075,21.37-29.26,22.872s-57.06-15.509-65.184-11.7l-4.824-12.694s24.373.449,42.4,6.952,23.715,7.968,32.93,0,17.085-15.584,33.08-19.392C232.47,229.573,237.409,228.248,237.409,228.248Z" transform="translate(-114.276 -223.94)" fill="#e8505b"/>
              </g>
              <g id="Grupo_94684" data-name="Grupo 94684" opacity="0.3">
                <path id="Trazado_121081" data-name="Trazado 121081" d="M237.409,228.248l35.06-4.308,4.292,2.327-8.183,9.537s-44.37,3.715-55.033,10.062c-10.2,6.071-13.075,21.37-29.26,22.872s-57.06-15.509-65.184-11.7l-4.824-12.694s24.373.449,42.4,6.952,23.715,7.968,32.93,0,17.085-15.584,33.08-19.392C232.47,229.573,237.409,228.248,237.409,228.248Z" transform="translate(-114.276 -223.94)"/>
              </g>
            </g>
          </g>
        </g>
        <g id="Grupo_94695" data-name="Grupo 94695" transform="translate(14.022 35.855)">
          <g id="Grupo_94691" data-name="Grupo 94691">
            <g id="Grupo_94688" data-name="Grupo 94688" transform="translate(79.294)">
              <path id="Trazado_121082" data-name="Trazado 121082" d="M213.145,129.888c0,.12-13.477.217-30.1.217s-30.1-.1-30.1-.217,13.474-.217,30.1-.217S213.145,129.768,213.145,129.888Z" transform="translate(-152.948 -129.671)" fill="#455a64"/>
            </g>
            <g id="Grupo_94689" data-name="Grupo 94689" transform="translate(71.251 14.331)">
              <path id="Trazado_121083" data-name="Trazado 121083" d="M172.656,147.082c0,.12-6.572.218-14.678.218s-14.679-.1-14.679-.218,6.571-.217,14.679-.217S172.656,146.963,172.656,147.082Z" transform="translate(-143.299 -146.865)" fill="#455a64"/>
            </g>
            <g id="Grupo_94690" data-name="Grupo 94690" transform="translate(0 7.372)">
              <path id="Trazado_121084" data-name="Trazado 121084" d="M178.248,138.734c0,.12-26.962.217-60.213.217s-60.22-.1-60.22-.217,26.957-.218,60.22-.218S178.248,138.614,178.248,138.734Z" transform="translate(-57.816 -138.516)" fill="#455a64"/>
            </g>
          </g>
          <g id="Grupo_94694" data-name="Grupo 94694" transform="translate(88.523 211.162)">
            <g id="Grupo_94692" data-name="Grupo 94692" transform="translate(79.293)">
              <path id="Trazado_121085" data-name="Trazado 121085" d="M319.35,383.229c0,.12-13.477.217-30.1.217s-30.1-.1-30.1-.217,13.475-.218,30.1-.218S319.35,383.108,319.35,383.229Z" transform="translate(-259.152 -383.011)" fill="#455a64"/>
            </g>
            <g id="Grupo_94693" data-name="Grupo 94693" transform="translate(0 7.373)">
              <path id="Trazado_121086" data-name="Trazado 121086" d="M284.453,392.074c0,.12-26.962.218-60.213.218s-60.22-.1-60.22-.218,26.957-.217,60.22-.217S284.453,391.955,284.453,392.074Z" transform="translate(-164.021 -391.857)" fill="#455a64"/>
            </g>
          </g>
        </g>
      </g>
      <g id="Plant" transform="translate(46.412 287.626)">
        <g id="Grupo_94721" data-name="Grupo 94721">
          <g id="Grupo_94698" data-name="Grupo 94698" transform="translate(0 42.284)">
            <g id="Grupo_94697" data-name="Grupo 94697">
              <g id="Grupo_94696" data-name="Grupo 94696">
                <path id="Trazado_121087" data-name="Trazado 121087" d="M71.159,429.688c.543-2.1-.836-4.214-2.382-5.74s-3.394-2.893-4.2-4.911c-1.3-3.268.449-7.5-1.775-10.228-1.308-1.6-3.653-2.141-4.814-3.855a8.785,8.785,0,0,1-1.045-3.063,31.109,31.109,0,0,0-7.737-14.479,27,27,0,0,0,3.036,13.954c.9,1.715,2.006,3.387,2.3,5.3.485,3.107-1.249,6.309-.486,9.359.873,3.49,4.793,5.825,4.978,9.418.158,3.036-2.49,5.7-2.292,8.737a8.191,8.191,0,0,0,1.351,3.6c2.348,3.9,5.8,6.592,11.026,6.5l6.4.224Z" transform="translate(-49.167 -387.411)" fill="#ff5f65"/>
              </g>
            </g>
          </g>
          <g id="Grupo_94702" data-name="Grupo 94702" transform="translate(0 42.284)" opacity="0.3">
            <g id="Grupo_94701" data-name="Grupo 94701">
              <g id="Grupo_94700" data-name="Grupo 94700">
                <g id="Grupo_94699" data-name="Grupo 94699">
                  <path id="Trazado_121088" data-name="Trazado 121088" d="M71.159,429.688c.543-2.1-.836-4.214-2.382-5.74s-3.394-2.893-4.2-4.911c-1.3-3.268.449-7.5-1.775-10.228-1.308-1.6-3.653-2.141-4.814-3.855a8.785,8.785,0,0,1-1.045-3.063,31.109,31.109,0,0,0-7.737-14.479,27,27,0,0,0,3.036,13.954c.9,1.715,2.006,3.387,2.3,5.3.485,3.107-1.249,6.309-.486,9.359.873,3.49,4.793,5.825,4.978,9.418.158,3.036-2.49,5.7-2.292,8.737a8.191,8.191,0,0,0,1.351,3.6c2.348,3.9,5.8,6.592,11.026,6.5l6.4.224Z" transform="translate(-49.167 -387.411)"/>
                </g>
              </g>
            </g>
          </g>
          <g id="Grupo_94720" data-name="Grupo 94720" transform="translate(5.65)">
            <g id="Grupo_94711" data-name="Grupo 94711" transform="translate(18.762 20.287)">
              <g id="Grupo_94706" data-name="Grupo 94706">
                <g id="Grupo_94705" data-name="Grupo 94705">
                  <g id="Grupo_94704" data-name="Grupo 94704">
                    <g id="Grupo_94703" data-name="Grupo 94703">
                      <path id="Trazado_121089" data-name="Trazado 121089" d="M81.7,440.284a5.1,5.1,0,0,0,1.764-.038,10.682,10.682,0,0,0,2.08-.523,8.817,8.817,0,0,0,2.571-1.408,3.585,3.585,0,0,0,1.057-1.409,6.626,6.626,0,0,0,.3-1.914,18.621,18.621,0,0,1,.149-2.071,5.714,5.714,0,0,1,.783-2.06c.755-1.326,2.009-2.581,2.414-4.383a14.516,14.516,0,0,0-.174-5.614,11.914,11.914,0,0,1,.149-6.015c.687-2,2.091-3.811,2.794-6.069.7-2.28.373-4.734.521-7.152a9.486,9.486,0,0,1,.834-3.556c.518-1.134,1.237-2.2,1.8-3.4,1.136-2.412,1.337-5.147,1.648-7.827q.228-2.024.459-4.092a20.035,20.035,0,0,1,.712-4.1,36.221,36.221,0,0,1,1.532-3.963,13.227,13.227,0,0,0,.743-2.07,20.844,20.844,0,0,0,.206-2.2,25.9,25.9,0,0,0-.17-4.433c-.174-1.478-.441-2.943-.6-4.424l-.029-.255-.033-.3-.263.131a9.9,9.9,0,0,0-3.447,2.91,15.7,15.7,0,0,0-2.118,3.9,48.039,48.039,0,0,0-1.995,8.386,22.783,22.783,0,0,1-2.631,7.745c-.7,1.14-1.551,2.181-2.294,3.294a9.044,9.044,0,0,0-1.59,3.65c-.378,2.709,1.114,5.089.8,7.487a8.305,8.305,0,0,1-1.168,3.324c-.582,1.023-1.265,1.972-1.914,2.926a18.78,18.78,0,0,0-1.719,2.955,9.346,9.346,0,0,0-.787,3.21c-.157,2.16.15,4.208-.007,6.142a14.144,14.144,0,0,1-1.58,5.264c-.775,1.575-1.636,3-2.359,4.382a22.524,22.524,0,0,0-.97,2.04,10.03,10.03,0,0,0-.563,2.025,12.777,12.777,0,0,0-.047,3.655,9.208,9.208,0,0,0,1.832,4.662,4.482,4.482,0,0,0,.518.561,2.552,2.552,0,0,0,.421.357c.238.176.366.257.366.257a8.1,8.1,0,0,1-1.24-1.226,9.278,9.278,0,0,1-1.738-4.63,12.707,12.707,0,0,1,.082-3.6,9.883,9.883,0,0,1,.566-1.976c.273-.661.611-1.331.977-2.014.728-1.369,1.6-2.788,2.39-4.374a14.374,14.374,0,0,0,1.635-5.355c.168-1.975-.129-4.032.034-6.14a9.048,9.048,0,0,1,.772-3.1,18.535,18.535,0,0,1,1.7-2.9c.648-.947,1.339-1.9,1.937-2.944a8.647,8.647,0,0,0,1.222-3.459c.309-2.556-1.172-4.95-.788-7.468a8.7,8.7,0,0,1,1.535-3.492c.732-1.092,1.585-2.134,2.308-3.3a23.121,23.121,0,0,0,2.692-7.874,47.936,47.936,0,0,1,1.98-8.316,15.294,15.294,0,0,1,2.063-3.8,9.48,9.48,0,0,1,3.3-2.789l-.3-.164.029.258c.161,1.5.428,2.966.6,4.428a25.557,25.557,0,0,1,.17,4.365,20.915,20.915,0,0,1-.2,2.136,12.908,12.908,0,0,1-.718,2,36.281,36.281,0,0,0-1.544,4.008,20.361,20.361,0,0,0-.721,4.163q-.23,2.068-.454,4.1c-.306,2.691-.507,5.381-1.6,7.711-.541,1.159-1.259,2.231-1.792,3.4a9.874,9.874,0,0,0-.859,3.687c-.139,2.471.183,4.887-.486,7.077s-2.061,4-2.767,6.063a12.192,12.192,0,0,0-.137,6.165,14.32,14.32,0,0,1,.208,5.507c-.371,1.72-1.588,2.965-2.359,4.328a5.942,5.942,0,0,0-.794,2.142,18.614,18.614,0,0,0-.134,2.1A6.485,6.485,0,0,1,89,436.844a3.43,3.43,0,0,1-.994,1.348,8.788,8.788,0,0,1-2.508,1.414,11.006,11.006,0,0,1-2.052.557,8.235,8.235,0,0,1-1.3.126C81.854,440.279,81.7,440.284,81.7,440.284Z" transform="translate(-78.455 -361.02)" fill="#263238"/>
                    </g>
                  </g>
                </g>
              </g>
              <g id="Grupo_94710" data-name="Grupo 94710" transform="translate(3.244 3.821)">
                <g id="Grupo_94709" data-name="Grupo 94709">
                  <g id="Grupo_94708" data-name="Grupo 94708">
                    <g id="Grupo_94707" data-name="Grupo 94707">
                      <path id="Trazado_121090" data-name="Trazado 121090" d="M102.583,365.6a.788.788,0,0,0-.062.194l-.142.576c-.126.5-.276,1.266-.518,2.217s-.833,2.022-1.329,3.345c-.517,1.313-1.04,2.834-1.522,4.543s-.922,3.6-1.374,5.635a23.754,23.754,0,0,1-2.05,6.255c-.525,1.04-1.116,2.093-1.585,3.245a15.128,15.128,0,0,0-.922,3.674,74.431,74.431,0,0,1-1.38,7.747l-3.621,14.8c-1.141,4.535-2.169,8.623-3.035,12.068-.844,3.414-1.529,6.188-2.011,8.144q-.335,1.409-.527,2.22c-.052.235-.093.426-.127.58a.757.757,0,0,0-.03.2.735.735,0,0,0,.07-.191c.045-.151.1-.338.167-.569.147-.534.348-1.269.6-2.2l2.138-8.113c.891-3.439,1.948-7.519,3.12-12.047l3.655-14.8a73.229,73.229,0,0,0,1.379-7.779,14.768,14.768,0,0,1,.887-3.586c.453-1.122,1.034-2.17,1.56-3.221a23.857,23.857,0,0,0,2.045-6.351c.438-2.037.854-3.927,1.321-5.632s.964-3.224,1.457-4.538c.471-1.319,1.033-2.4,1.269-3.385s.344-1.729.444-2.242c.042-.238.075-.43.1-.585A.756.756,0,0,0,102.583,365.6Z" transform="translate(-82.347 -365.604)" fill="#263238"/>
                    </g>
                  </g>
                </g>
              </g>
            </g>
            <g id="Grupo_94719" data-name="Grupo 94719">
              <g id="Grupo_94714" data-name="Grupo 94714">
                <g id="Grupo_94713" data-name="Grupo 94713">
                  <g id="Grupo_94712" data-name="Grupo 94712">
                    <path id="Trazado_121091" data-name="Trazado 121091" d="M79.083,436.251c4.183-2.486,5.384-10.033,3.639-14.576s-4.8-8.693-5.27-13.536c-.362-3.722.857-7.543-.01-11.182-1.17-4.911-5.965-8.714-5.909-13.762.031-2.833,1.642-5.5,1.514-8.327-.158-3.471-2.821-6.225-4.471-9.282-2.526-4.68-2.692-10.213-3.556-15.46s-2.863-10.866-7.513-13.445c-.687,4.454-1.86,7.506-1.491,13.54.133,2.168,2.651,6.317,2.992,11.067.205,2.84.347,5.683.52,8.524a27.344,27.344,0,0,0,1.339,8.167c.759,1.982,1.98,3.782,2.543,5.829,1.061,3.85-.333,8.02.524,11.921.725,3.3,3.012,6.149,3.48,9.5.657,4.708-2.391,9.6-.831,14.091.774,2.228,2.607,4.018,3.127,6.319.4,1.785-.036,3.675.329,5.469.589,2.89,6.1,5.134,9.044,4.955" transform="translate(-55.946 -336.681)" fill="#ff5f65"/>
                  </g>
                </g>
              </g>
              <g id="Grupo_94718" data-name="Grupo 94718" transform="translate(2.711 4.422)">
                <g id="Grupo_94717" data-name="Grupo 94717">
                  <g id="Grupo_94716" data-name="Grupo 94716">
                    <g id="Grupo_94715" data-name="Grupo 94715">
                      <path id="Trazado_121092" data-name="Trazado 121092" d="M59.2,341.986a1.167,1.167,0,0,0,.018.252c.024.188.055.428.094.732.1.643.2,1.589.421,2.81.234,1.229.867,2.611,1.373,4.279.533,1.662,1.064,3.581,1.534,5.728s.877,4.521,1.3,7.077a29.685,29.685,0,0,0,2.145,8c.587,1.338,1.244,2.676,1.739,4.1a18.437,18.437,0,0,1,.883,4.519,91.251,91.251,0,0,0,1.226,9.744c1.281,6.6,2.5,12.888,3.612,18.611,1.17,5.7,2.225,10.836,3.113,15.158.9,4.292,1.625,7.773,2.134,10.212.256,1.183.458,2.112.6,2.772l.167.719a1.087,1.087,0,0,0,.071.242,1.2,1.2,0,0,0-.029-.25l-.127-.727c-.125-.665-.3-1.6-.525-2.788-.478-2.445-1.163-5.935-2.005-10.238-.864-4.328-1.889-9.47-3.026-15.176-1.1-5.721-2.31-12.006-3.578-18.6a92.4,92.4,0,0,1-1.231-9.712,18.74,18.74,0,0,0-.912-4.611c-.509-1.456-1.177-2.8-1.764-4.126a29.512,29.512,0,0,1-2.155-7.907c-.433-2.552-.851-4.934-1.349-7.085s-1.043-4.073-1.6-5.735c-.531-1.673-1.184-3.044-1.434-4.242s-.374-2.153-.5-2.788c-.056-.3-.1-.54-.134-.726A1.157,1.157,0,0,0,59.2,341.986Z" transform="translate(-59.199 -341.986)" fill="#263238"/>
                    </g>
                  </g>
                </g>
              </g>
            </g>
          </g>
        </g>
        <g id="Grupo_94737" data-name="Grupo 94737" transform="translate(229.805 67.22)">
          <g id="Grupo_94723" data-name="Grupo 94723" transform="translate(5.033)">
            <g id="Grupo_94722" data-name="Grupo 94722">
              <path id="Trazado_121093" data-name="Trazado 121093" d="M333.2,417.328a6.328,6.328,0,0,1,4.159,2.694,11.166,11.166,0,0,1,1.775,4.729c.523,3.245-.375,6.92-1.6,9.97-3.295-1.57-5.032-5.431-5.79-7.445-1.2-3.184-1.432-9.665,1.452-9.948" transform="translate(-330.912 -417.328)" fill="#ff5f65"/>
            </g>
          </g>
          <g id="Grupo_94725" data-name="Grupo 94725" transform="translate(15.602 13.19)">
            <g id="Grupo_94724" data-name="Grupo 94724">
              <path id="Trazado_121094" data-name="Trazado 121094" d="M344.185,441.685a5.4,5.4,0,0,1,.3-5.413,7.168,7.168,0,0,1,4.647-3.016,3.017,3.017,0,0,1,2.516.378,2.308,2.308,0,0,1,.665,2.244,4.678,4.678,0,0,1-1.209,2.11c-1.892,2.082-4.1,3.75-6.917,3.7" transform="translate(-343.592 -433.153)" fill="#ff5f65"/>
            </g>
          </g>
          <g id="Grupo_94728" data-name="Grupo 94728" transform="translate(15.107 16.847)">
            <g id="Grupo_94727" data-name="Grupo 94727">
              <g id="Grupo_94726" data-name="Grupo 94726">
                <path id="Trazado_121095" data-name="Trazado 121095" d="M343.388,453.009a3.852,3.852,0,0,1-.087-.673c-.043-.477-.1-1.094-.168-1.835a18.979,18.979,0,0,1,.242-6.084,11.6,11.6,0,0,1,2.813-5.375,7.88,7.88,0,0,1,1.43-1.179c.182-.123.338-.194.437-.251s.158-.078.162-.07a12.3,12.3,0,0,0-1.906,1.615,11.975,11.975,0,0,0-2.7,5.315,20.413,20.413,0,0,0-.305,6.017c.044.776.08,1.406.092,1.841A3.592,3.592,0,0,1,343.388,453.009Z" transform="translate(-342.998 -437.54)" fill="#263238"/>
              </g>
            </g>
          </g>
          <g id="Grupo_94731" data-name="Grupo 94731" transform="translate(7.937 4.92)">
            <g id="Grupo_94730" data-name="Grupo 94730">
              <g id="Grupo_94729" data-name="Grupo 94729">
                <path id="Trazado_121096" data-name="Trazado 121096" d="M334.4,423.231a1.393,1.393,0,0,1,.111.273l.275.8c.235.693.562,1.7.954,2.95.787,2.5,1.825,5.962,2.886,9.814s1.94,7.362,2.542,9.91c.3,1.274.536,2.307.688,3.023.071.338.128.612.172.825a.148.148,0,1,1-.047.011c-.056-.21-.127-.48-.215-.815l-.763-3c-.643-2.536-1.549-6.036-2.607-9.887s-2.072-7.319-2.817-9.828l-.882-2.971-.232-.81A1.391,1.391,0,0,1,334.4,423.231Z" transform="translate(-334.396 -423.231)" fill="#263238"/>
              </g>
            </g>
          </g>
          <g id="Grupo_94733" data-name="Grupo 94733" transform="translate(0 17.785)">
            <g id="Grupo_94732" data-name="Grupo 94732">
              <path id="Trazado_121097" data-name="Trazado 121097" d="M337.022,445.8a12.631,12.631,0,0,0-9.134-7.051c-1-.176-2.237-.13-2.78.732s-.05,2,.563,2.817a10.791,10.791,0,0,0,11.361,3.778" transform="translate(-324.874 -438.666)" fill="#ff5f65"/>
            </g>
          </g>
          <g id="Grupo_94736" data-name="Grupo 94736" transform="translate(4.278 20.727)">
            <g id="Grupo_94735" data-name="Grupo 94735">
              <g id="Grupo_94734" data-name="Grupo 94734">
                <path id="Trazado_121098" data-name="Trazado 121098" d="M330.006,442.2a3.206,3.206,0,0,1,.63.088,6.064,6.064,0,0,1,.73.161c.279.082.608.147.95.281a11.2,11.2,0,0,1,1.119.437,12.655,12.655,0,0,1,1.234.619,14.006,14.006,0,0,1,2.543,1.88,13.772,13.772,0,0,1,2.011,2.441,12.093,12.093,0,0,1,.673,1.207,10.389,10.389,0,0,1,.48,1.1,9.619,9.619,0,0,1,.311.941,5.838,5.838,0,0,1,.18.725,3.209,3.209,0,0,1,.1.628c-.052.013-.206-.885-.749-2.233a11.226,11.226,0,0,0-.5-1.075,12.586,12.586,0,0,0-.682-1.177,14.284,14.284,0,0,0-1.991-2.387,14.624,14.624,0,0,0-2.489-1.862,13.175,13.175,0,0,0-1.206-.629c-.381-.193-.756-.326-1.094-.458C330.895,442.39,330,442.25,330.006,442.2Z" transform="translate(-330.006 -442.195)" fill="#263238"/>
              </g>
            </g>
          </g>
        </g>
      </g>
      <g id="Speech_Bubble" data-name="Speech Bubble" transform="translate(224.3 42.04)">
        <g id="Grupo_94739" data-name="Grupo 94739" transform="translate(0.479 0.346)">
          <g id="Grupo_94738" data-name="Grupo 94738">
            <path id="Trazado_121099" data-name="Trazado 121099" d="M320.992,102.465l-3.58-11.953c3.482-4.1,4.649-7.727,5.525-13.433A30.076,30.076,0,1,0,307.8,98.8l1.891-1.446Z" transform="translate(-263.162 -42.454)" fill="#fff"/>
          </g>
        </g>
        <g id="Grupo_94752" data-name="Grupo 94752">
          <g id="Grupo_94748" data-name="Grupo 94748" transform="translate(20.079 17.136)">
            <g id="Grupo_94747" data-name="Grupo 94747">
              <g id="Grupo_94746" data-name="Grupo 94746">
                <g id="Grupo_94742" data-name="Grupo 94742">
                  <g id="Grupo_94741" data-name="Grupo 94741">
                    <g id="Grupo_94740" data-name="Grupo 94740">
                      <path id="Trazado_121100" data-name="Trazado 121100" d="M302.3,71.926h-1.852l-4.041-5.631V62.6s-2.862-.177-2.526,4.663-.028,3.607-.028,3.607-6.077.023-6.581.551c-.368.384-.533,6.421-.6,9.695a3.544,3.544,0,0,0,2.512,3.57,2.641,2.641,0,0,0,.654.088c1.515,0,9.259-1.233,9.259-1.233h3.2Z" transform="translate(-286.677 -62.598)" fill="#ff5f65"/>
                    </g>
                  </g>
                </g>
                <g id="Grupo_94745" data-name="Grupo 94745" transform="translate(16.616 8.313)">
                  <g id="Grupo_94744" data-name="Grupo 94744">
                    <g id="Grupo_94743" data-name="Grupo 94743">
                      <path id="Trazado_121101" data-name="Trazado 121101" d="M310.922,72.572l-1.139,12.665h-3.171V72.827Z" transform="translate(-306.612 -72.572)" fill="#ff5f65"/>
                    </g>
                  </g>
                </g>
              </g>
            </g>
          </g>
          <g id="Grupo_94751" data-name="Grupo 94751">
            <g id="Grupo_94750" data-name="Grupo 94750">
              <g id="Grupo_94749" data-name="Grupo 94749">
                <path id="Trazado_121102" data-name="Trazado 121102" d="M293.128,42.052a2.935,2.935,0,0,0-.523-.009l-1.54.044c-.338.016-.718.015-1.134.05l-1.359.191-1.585.228-1.771.439a28.7,28.7,0,0,0-8.583,3.742A30.29,30.29,0,0,0,262.721,69.5a31.346,31.346,0,0,0-.084,4.15c.049.7.035,1.415.138,2.123s.214,1.419.322,2.137a30.45,30.45,0,0,0,2.885,8.446,32.535,32.535,0,0,0,5.516,7.591,31.883,31.883,0,0,0,7.948,5.71,28.9,28.9,0,0,0,9.687,2.973,19.182,19.182,0,0,0,2.584.219,23.125,23.125,0,0,0,2.612.048,31.062,31.062,0,0,0,5.231-.66,30.57,30.57,0,0,0,10.416-4.383l-.316.033,10.609,4.258.628.252-.179-.652Q319.11,95.9,317.6,90.4l-.053.28a30.437,30.437,0,0,0,5.661-12.96,27.588,27.588,0,0,0,.413-6.64,21.249,21.249,0,0,0-.3-3.189q-.12-.781-.241-1.552c-.094-.511-.25-1.005-.371-1.5a30.339,30.339,0,0,0-11.836-17.255,29.019,29.019,0,0,0-7.044-3.716l-1.587-.568-1.506-.383-1.378-.342c-.443-.084-.869-.13-1.269-.192-.8-.1-1.507-.24-2.125-.271l-1.559-.053-.952-.021a1.415,1.415,0,0,0-.323.012,1.463,1.463,0,0,0,.322.044l.948.075,1.549.1c.613.048,1.31.2,2.1.32a30.172,30.172,0,0,1,24.123,22.378c.116.489.267.975.358,1.476s.152,1.014.228,1.525a20.726,20.726,0,0,1,.281,3.132,26.985,26.985,0,0,1-.43,6.509,29.88,29.88,0,0,1-5.583,12.678l-.1.127.042.154,3.1,11.348.448-.4-10.6-4.27-.166-.067-.151.1a29.947,29.947,0,0,1-10.182,4.281,30.369,30.369,0,0,1-5.114.647,22.679,22.679,0,0,1-2.554-.046,18.6,18.6,0,0,1-2.526-.213,28.263,28.263,0,0,1-9.474-2.9,31.31,31.31,0,0,1-7.785-5.571,32.009,32.009,0,0,1-5.418-7.417,29.916,29.916,0,0,1-2.852-8.264q-.163-1.054-.323-2.094c-.1-.693-.092-1.394-.143-2.082a29.9,29.9,0,0,1,13.616-26.566,28.875,28.875,0,0,1,8.443-3.807l1.749-.466,1.568-.257,1.345-.223c.413-.045.79-.056,1.126-.083l1.532-.112A3.043,3.043,0,0,0,293.128,42.052Z" transform="translate(-262.587 -42.04)" fill="#263238"/>
              </g>
            </g>
          </g>
        </g>
      </g>
    </g>
    <path id="Rectángulo_38067" data-name="Rectángulo 38067" d="M0,0H110a10,10,0,0,1,10,10V20a10,10,0,0,1-10,10H0a0,0,0,0,1,0,0V0A0,0,0,0,1,0,0Z" transform="translate(205 10064.474)" fill="#ffd947"/>
    <path id="Trazado_135507" data-name="Trazado 135507" d="M5.484-4.526H3.814L3.023,0H.018L2.232-12.8l4.518.009a4.964,4.964,0,0,1,3.344,1.014A3.155,3.155,0,0,1,11.145-9a4.129,4.129,0,0,1-.8,2.3A4.708,4.708,0,0,1,8.376-5.273L10.1-.15V0H6.891ZM4.219-6.9l1.758.018a2.215,2.215,0,0,0,1.252-.352,1.94,1.94,0,0,0,.76-.965,2.268,2.268,0,0,0,.132-1.185,1.18,1.18,0,0,0-1.248-1.031l-2.039-.009ZM17.244-1.037A3.148,3.148,0,0,1,14.678.185a2.492,2.492,0,0,1-2.1-.976,3.6,3.6,0,0,1-.549-2.566L13.052-9.51h2.892L14.9-3.315a2.064,2.064,0,0,0,0,.466.766.766,0,0,0,.853.748,1.868,1.868,0,0,0,1.556-.722L18.483-9.51h2.909L19.74,0H17.051Zm8.341-8.481-.2,1.143a3.38,3.38,0,0,1,2.751-1.318,2.27,2.27,0,0,1,1.964.98,4.1,4.1,0,0,1,.47,2.729L29.566,0h-2.9l1.011-6.01a3.108,3.108,0,0,0,.018-.563q-.062-.836-.984-.836a1.807,1.807,0,0,0-1.4.678L24.126,0H21.234l1.652-9.51Z" transform="translate(246 10084.474)" fill="#3c3fa7"/>
  </g>
</svg>
