<svg id="Grupo_158898" data-name="Grupo 158898" xmlns="http://www.w3.org/2000/svg" xmlns:xlink="http://www.w3.org/1999/xlink" width="164.595" height="164.598" viewBox="0 0 164.595 164.598">
  <defs>
    <clipPath id="clip-path">
      <rect id="Rectángulo_38063" data-name="Rectángulo 38063" width="164.595" height="164.598" fill="none"/>
    </clipPath>
  </defs>
  <g id="Grupo_158898-2" data-name="Grupo 158898" clip-path="url(#clip-path)">
    <path id="Trazado_135495" data-name="Trazado 135495" d="M0,76.833a2.356,2.356,0,0,0,.315-.5c1.62-5.086,5.262-7.766,10.664-7.771q24.427-.017,48.855.031c1.482.006,1.938-.248,1.932-1.856-.068-18.535-.045-37.071-.042-55.607C61.725,4.271,65.983,0,72.825,0Q113.163,0,153.5,0c6.833,0,11.09,4.277,11.092,11.14q0,30.054,0,60.107c0,6.736-4.3,11.042-11.023,11.051-1.661,0-3.324.058-4.982-.021-.95-.045-1.151.291-1.122,1.178.076,2.247.073,4.5.052,6.749a18.5,18.5,0,0,1-.232,2.872c-.442,2.595-2.527,3.673-4.845,2.4-1.964-1.078-3.837-2.329-5.706-3.57q-6.681-4.439-13.311-8.957a3.7,3.7,0,0,0-2.228-.666c-5.625.03-11.251.055-16.874-.017-1.2-.015-1.483.277-1.48,1.479.042,18.643-.072,37.286.087,55.927a10.84,10.84,0,0,1-11.254,11.238c-16.014-.18-32.034-.051-48.051-.075a4.248,4.248,0,0,0-2.527.757q-8.31,5.608-16.666,11.151c-.953.635-1.928,1.236-2.892,1.853H19.61c-2.192-.739-2.874-1.653-2.995-4.3-.107-2.351-.017-4.707-.037-7.06-.015-1.9-.1-1.986-1.994-2-1.5-.013-3,0-4.493-.006-3.988-.023-6.893-1.919-9.057-5.167C.283,144.935.352,143.627,0,142.416V76.833" transform="translate(0 0)"/>
    <path id="Trazado_135496" data-name="Trazado 135496" d="M133.3,5.049c1.708.241,2.42,1.416,2.7,2.948a9.206,9.206,0,0,1,.053,1.6q0,29.575,0,59.15c0,3.577-1.14,4.72-4.7,4.724-2.786,0-5.573.032-8.357-.013a4.544,4.544,0,0,0-3.261,1.057,1.766,1.766,0,0,1-2.091-.27c-4.61-3.089-9.738-3.808-15.176-3.757-13.659.124-27.318.031-40.978.052a7.923,7.923,0,0,1-5.771-1.957,7.623,7.623,0,0,1-2.408-5.906c.023-8.358.01-16.714.008-25.071q0-14.624,0-29.248c0-.59.011-1.179.015-1.767.01-1.154.417-1.7,1.725-1.7q38.649.051,77.3.027a1.8,1.8,0,0,1,.943.125" transform="translate(21.71 1.994)" fill="#81bbf3"/>
    <path id="Trazado_135497" data-name="Trazado 135497" d="M91.994,119.4a3.177,3.177,0,0,1-3.345,2.772c-5.222.02-10.446-.02-15.668-.037a16.98,16.98,0,0,1-2.693-1.026,21.811,21.811,0,0,0-9.837-1.941q-21.514-.04-43.029,0a7.666,7.666,0,0,1-4.872-1.258,7.389,7.389,0,0,1-3.1-6.349c.039-14.129.02-28.258.018-42.387,0-4.389-.007-8.778.006-13.166a3.2,3.2,0,0,1,.5-2.3c1.226-.025,2.451-.075,3.677-.075q19.466-.008,38.932,0c.585,0,1.169.049,1.755.075a3.1,3.1,0,0,1,.511,2.133c.193,5.122,2.736,7.617,7.9,7.636,8.615.03,17.23.007,25.845.008q.882,0,1.765.018c1.2.02,1.787.4,1.784,1.813-.051,17.658-.032,35.316-.035,52.975a2.592,2.592,0,0,1-.111,1.107" transform="translate(3.848 21.839)" fill="#eceaf1"/>
    <path id="Trazado_135498" data-name="Trazado 135498" d="M135.176,5.081c-2.516.015-5.031.044-7.547.044q-34.932.006-69.866,0c-2.053,0-2.055,0-2.055,2.1q0,27.867,0,55.733c0,4.286,2.83,7.084,7.163,7.084,14.562,0,29.124.045,43.686-.025a23.2,23.2,0,0,1,13.281,3.888,2.83,2.83,0,0,0,1.77.639,5.426,5.426,0,0,0-.9,3.339c.039,1.967.01,3.937.01,5.912-.8.12-1.186-.424-1.645-.726q-6.434-4.236-12.827-8.535a6.148,6.148,0,0,0-3.61-1.053q-24.583.046-49.167.02c-3.653,0-4.761-1.122-4.761-4.821q0-29.564,0-59.129c0-3.553,1.147-4.689,4.728-4.69q39.846-.011,79.694-.01a3.521,3.521,0,0,1,2.039.224" transform="translate(19.837 1.962)" fill="#6faae5"/>
    <path id="Trazado_135499" data-name="Trazado 135499" d="M11.847,53.706c0,19.375.077,38.749-.073,58.123a7.339,7.339,0,0,0,6.864,6.89c14.929-.166,29.863-.12,44.795-.039a18.4,18.4,0,0,1,11.42,3.452c-11.4.018-22.81.069-34.214.014a7.8,7.8,0,0,0-4.63,1.416c-4.113,2.792-8.262,5.535-12.4,8.3-.432.29-.867.577-1.558,1.034,0-2.306.008-4.361,0-6.416-.017-3.031-1.274-4.286-4.286-4.292-3,0-6,.011-8.995,0-2.516-.015-3.9-1.33-3.9-3.86q-.03-30.443,0-60.885c0-2.477,1.333-3.754,3.774-3.8,1.068-.018,2.136.044,3.2.069" transform="translate(1.976 21.841)" fill="#d9d6e4"/>
    <path id="Trazado_135500" data-name="Trazado 135500" d="M79,119.421c-.023-.694-.063-1.389-.063-2.084q0-25.771.028-51.544c0-1.389-.321-1.82-1.769-1.808-9.26.068-18.519.035-27.779.034-5.077,0-8.066-2.982-8.072-8.039V53.731c.372-.025.749-.025,1.115-.083,1.967-.308,3.176.269,4.265,2.2,1.8,3.2,4.945,4.62,8.635,4.63,7.447.018,14.893.031,22.34-.021,1.16-.008,1.532.214,1.531,1.469q-.061,27.967-.02,55.932A2.573,2.573,0,0,1,79,119.421" transform="translate(16.838 21.815)" fill="#d9d6e4"/>
    <path id="Trazado_135501" data-name="Trazado 135501" d="M68.262,52.218a4.437,4.437,0,0,1,.5-1.924Q75.3,33.944,81.835,17.589c.663-1.666,1.569-2.959,3.534-2.958s2.865,1.31,3.532,2.966q6.548,16.268,13.146,32.514a5.024,5.024,0,0,1,.588,2.467,3.52,3.52,0,0,1-3.014,3.1,3.427,3.427,0,0,1-3.584-2.159q-1.416-3.4-2.67-6.866a1.662,1.662,0,0,0-1.886-1.243c-4.013.063-8.03.055-12.043,0a1.484,1.484,0,0,0-1.656,1.093c-.96,2.432-1.964,4.849-3.044,7.23a3.365,3.365,0,0,1-3.83,1.95,3.452,3.452,0,0,1-2.646-3.473" transform="translate(27.795 5.958)"/>
    <path id="Trazado_135502" data-name="Trazado 135502" d="M47.978,77.075c-6.676,0-13.205.007-19.735,0-1.941,0-3.29-.912-3.726-2.439A3.348,3.348,0,0,1,27.7,70.278c2.62-.084,5.246-.031,7.871-.034,2.472,0,2.461,0,2.488-2.408a8.447,8.447,0,0,1,.182-1.905,3.359,3.359,0,0,1,3.27-2.578A3.458,3.458,0,0,1,44.8,65.935a7.546,7.546,0,0,1,.148,2.713c-.1,1.2.21,1.689,1.549,1.63,2.672-.115,5.353-.045,8.031-.031,2.267.013,3.693,1.068,3.982,2.912.274,1.744-.767,3.268-2.852,3.833-.716.2-.8.6-.9,1.1a29.939,29.939,0,0,1-7.5,14.644c-.6.646-.711.985.115,1.552,1.81,1.24,3.642,2.429,5.556,3.5,2.212,1.243,2.892,3.211,1.8,5.051-1.055,1.777-3.007,2.128-5.183.922a46.883,46.883,0,0,1-6.938-4.607,1.4,1.4,0,0,0-2.16-.017,42.277,42.277,0,0,1-7.208,4.769A3.418,3.418,0,1,1,29.9,97.964c1.846-1.081,3.643-2.23,5.409-3.439.877-.6,1.191-.984.274-1.853a18.613,18.613,0,0,1-2.107-2.623c-1.406-1.932-1.264-3.88.335-5.128,1.653-1.293,3.58-.909,5.157,1.019.609.746,1.261,1.458,1.835,2.229.553.739.92.577,1.472-.045a25.174,25.174,0,0,0,5.7-11.048" transform="translate(9.925 25.799)"/>
    <path id="Trazado_135503" data-name="Trazado 135503" d="M77.223,34.884c1.458-3.663,2.886-7.247,4.485-11.255,1.586,3.97,3.014,7.541,4.5,11.255Z" transform="translate(31.447 9.622)" fill="#81baf2"/>
  </g>
</svg>
