<svg xmlns="http://www.w3.org/2000/svg" width="585" height="388" viewBox="0 0 585 388">
  <g id="Grupo_158909" data-name="Grupo 158909" transform="translate(-205 -8333.474)">
    <path id="Rectángulo_35558" data-name="Rectángulo 35558" d="M20,0H474A111,111,0,0,1,585,111V368a20,20,0,0,1-20,20H20A20,20,0,0,1,0,368V20A20,20,0,0,1,20,0Z" transform="translate(205 8333.474)" fill="#acade1"/>
    <g id="Grupo_95958" data-name="Grupo 95958" transform="translate(244.757 8243.516)">
      <g id="Background_Complete" data-name="Background Complete" transform="translate(12.721 210.415)">
        <path id="Trazado_121481" data-name="Trazado 121481" d="M376.466,417.774c-10.609-2.418-21.969-4.794-32.128-.9-7.288,2.794-13.011,8.483-19.455,12.886a62.2,62.2,0,0,1-38.913,10.613c-21.227-1.422-40.526-13.661-61.719-15.521-18.909-1.66-37.4,5.051-55.625,10.348A390.516,390.516,0,0,1,67.892,450.611L51.762,468.5c1.03,7.854,10.6,11.868,18.432,10.719s14.71-5.688,22.162-8.372c29.3-10.551,63.094,8.481,92.437-1.951,15.36-5.461,27.969-18.615,44.2-20.113,14.391-1.33,27.694,6.858,41.46,11.255a82.239,82.239,0,0,0,68.873-9.291c7.24-4.717,13.916-10.687,22.188-13.186,11.556-3.492,23.851.4,35.736,2.522a121.054,121.054,0,0,0,58.806-4.169Z" transform="translate(-14.864 -226.572)" fill="#8284d2"/>
        <rect id="Rectángulo_35580" data-name="Rectángulo 35580" width="447.523" height="49.367" fill="#8284d2"/>
        <g id="Grupo_95798" data-name="Grupo 95798" transform="translate(208.988 56.205)">
          <path id="Trazado_121482" data-name="Trazado 121482" d="M234.009,275.345s.01.422.016,1.236.009,2.028.016,3.615c.009,3.185.023,7.886.04,13.985.02,12.191.049,29.966.087,52.339l-.159-.159,227.156-.087h.014l-.247.246c0-24.661.006-48.622.008-71.176l.239.239L298.7,275.474l-47.508-.067-12.75-.031-3.3-.015c-.744,0-1.131-.015-1.131-.015s.367-.01,1.1-.015l3.274-.015,12.7-.031,47.453-.067,162.643-.111h.239v.239c0,22.554,0,46.515.007,71.176v.247h-.26l-227.156-.088h-.159v-.159c.037-22.414.067-40.221.087-52.434.017-6.084.03-10.774.039-13.95.008-1.575.013-2.774.017-3.588S234.009,275.345,234.009,275.345Z" transform="translate(-233.85 -275.106)" fill="#585bc3"/>
        </g>
        <g id="Grupo_95799" data-name="Grupo 95799" transform="translate(11.307 56.208)">
          <path id="Trazado_121483" data-name="Trazado 121483" d="M24.854,275.345s.012.433.018,1.263.01,2.065.018,3.676c.01,3.232.025,7.99.043,14.126.022,12.264.053,30.039.093,52.111l-.17-.17,182.782-.076h.012l-.246.246c0-24.887.007-48.936.009-71.176l.236.236-131.017-.111-38.05-.066-10.186-.03-2.637-.014c-.594,0-.9-.015-.9-.015s.291-.009.876-.014l2.608-.015,10.137-.03,38-.065,131.178-.112h.236v.236c0,22.24.007,46.289.009,71.176v.247h-.258l-182.782-.076h-.171v-.171c.039-22.117.071-39.925.093-52.214.018-6.12.032-10.865.043-14.088.008-1.6.013-2.815.018-3.644S24.854,275.345,24.854,275.345Z" transform="translate(-24.684 -275.109)" fill="#585bc3"/>
        </g>
      </g>
      <g id="Floor" transform="translate(20.583 346.523)">
        <g id="Grupo_95800" data-name="Grupo 95800" transform="translate(0)">
          <path id="Trazado_121484" data-name="Trazado 121484" d="M454.532,359.9c0,.136-97.049.246-216.736.246-119.728,0-216.756-.11-216.756-.246s97.028-.247,216.756-.247C357.483,359.651,454.532,359.762,454.532,359.9Z" transform="translate(-21.04 -359.651)" fill="#263238"/>
        </g>
      </g>
      <g id="Plant" transform="translate(66.577 120.565)">
        <g id="Grupo_95806" data-name="Grupo 95806" transform="translate(0)">
          <path id="Trazado_121485" data-name="Trazado 121485" d="M187.808,126.094c-11.441,5.927-20.215,16.131-26.523,27.365s-10.373,23.563-14.4,35.8l-3.523,63.123c13.313-22.647,24-49.271,26.884-75.382l-8.858-.789c5.94-.906,10.925-5.21,14.1-10.314s4.806-10.988,6.4-16.781l-10.808,1.607A40.055,40.055,0,0,0,187.808,126.094Z" transform="translate(-73.75 -120.869)" fill="#455a64"/>
          <g id="Grupo_95801" data-name="Grupo 95801" transform="translate(69.61 5.225)" opacity="0.3">
            <path id="Trazado_121486" data-name="Trazado 121486" d="M187.808,126.094c-11.441,5.927-20.215,16.131-26.523,27.365s-10.373,23.563-14.4,35.8l-3.523,63.123c13.313-22.647,24-49.271,26.884-75.382l-8.858-.789c5.94-.906,10.925-5.21,14.1-10.314s4.806-10.988,6.4-16.781l-10.808,1.607A40.055,40.055,0,0,0,187.808,126.094Z" transform="translate(-143.36 -126.094)"/>
          </g>
          <path id="Trazado_121487" data-name="Trazado 121487" d="M139.611,266.872s-28.894-34.586-28.562-67.6h11.673s-12.678-8.338-11.676-13.006,1.337-22.344,1.337-22.344l10.672,2.668s-8-4-9-10.338,2.334-35.685,2.334-35.685,13.006,13.674,17.009,27.681,14.506,30.348,11.421,73.035S139.611,266.872,139.611,266.872Z" transform="translate(-71.973 -120.565)" fill="#455a64"/>
          <path id="Trazado_121488" data-name="Trazado 121488" d="M156.773,272.324s31.305-20.854,38.261-47.472L185.65,222.3s12.018-3.929,12.232-7.9S201.7,196.14,201.7,196.14l-9.164-.19s7.311-1.467,9.5-6.342,5.93-29.2,5.93-29.2-13.448,8.148-19.73,18.533-18.3,21.225-25.162,56.22S156.773,272.324,156.773,272.324Z" transform="translate(-74.486 -122.753)" fill="#455a64"/>
          <g id="Grupo_95802" data-name="Grupo 95802" transform="translate(52.304 30.155)">
            <path id="Trazado_121489" data-name="Trazado 121489" d="M125.051,152.472a2.059,2.059,0,0,1,.1.359c.061.263.144.615.25,1.064.214.966.52,2.344.912,4.105.4,1.781.864,3.967,1.368,6.512s1.11,5.435,1.7,8.648c1.235,6.412,2.539,14.08,3.882,22.609,1.3,8.536,2.6,17.941,3.758,27.838,1.133,9.9,2.013,19.358,2.694,27.967.638,8.612,1.118,16.375,1.378,22.9.163,3.261.241,6.214.322,8.806s.136,4.826.154,6.652c.021,1.8.037,3.216.048,4.2,0,.461,0,.823,0,1.094a2.084,2.084,0,0,1-.017.372,2.1,2.1,0,0,1-.034-.371c-.012-.27-.028-.632-.049-1.092-.033-.989-.08-2.4-.141-4.2-.047-1.825-.121-4.056-.237-6.647s-.209-5.541-.394-8.8c-.305-6.519-.82-14.276-1.484-22.88-.7-8.6-1.6-18.049-2.729-27.946-1.156-9.891-2.441-19.291-3.718-27.825-1.317-8.528-2.585-16.2-3.776-22.614-.562-3.214-1.137-6.111-1.624-8.657s-.915-4.739-1.285-6.527c-.353-1.769-.628-3.154-.821-4.123l-.2-1.075A2.167,2.167,0,0,1,125.051,152.472Z" transform="translate(-125.049 -152.472)" fill="#263238"/>
          </g>
          <path id="Trazado_121490" data-name="Trazado 121490" d="M128.131,284.006s-25.608-31.57-33.818-49.707l6.2-2.648c-4.492.741-9.1-1.19-12.579-4.122s-6.042-6.79-8.55-10.59l8.165-1.38a30.352,30.352,0,0,1-17.84-13.819c9.635,1.584,18.352,6.877,25.535,13.491a127.094,127.094,0,0,1,15.473,17.929,61.038,61.038,0,0,1,6.01,9.88C121.167,252.226,128.146,272.987,128.131,284.006Z" transform="translate(-69.706 -125.022)" fill="#455a64"/>
          <g id="Grupo_95803" data-name="Grupo 95803" transform="translate(75.273 55.119)">
            <path id="Trazado_121491" data-name="Trazado 121491" d="M195.043,178.886a1.652,1.652,0,0,1-.125.3l-.408.871c-.383.787-.923,1.9-1.614,3.327-.71,1.439-1.574,3.2-2.548,5.265s-2.12,4.392-3.314,7c-2.44,5.2-5.247,11.427-8.263,18.391-2.989,6.975-6.174,14.686-9.341,22.85-3.15,8.174-5.982,16.024-8.462,23.2-2.453,7.182-4.57,13.681-6.259,19.167-.871,2.734-1.6,5.227-2.257,7.41s-1.213,4.067-1.657,5.609l-1.044,3.547c-.118.384-.212.687-.284.919a1.675,1.675,0,0,1-.112.309,1.556,1.556,0,0,1,.064-.322c.06-.234.137-.542.236-.932.226-.846.546-2.044.955-3.572.415-1.551.936-3.445,1.577-5.635s1.337-4.691,2.188-7.434c1.647-5.5,3.731-12.017,6.163-19.212,2.458-7.186,5.28-15.047,8.432-23.228,3.17-8.169,6.37-15.882,9.385-22.851,3.04-6.959,5.881-13.18,8.364-18.359,1.215-2.6,2.38-4.924,3.382-6.974s1.887-3.8,2.624-5.23l1.7-3.286.453-.849A1.6,1.6,0,0,1,195.043,178.886Z" transform="translate(-149.352 -178.886)" fill="#263238"/>
          </g>
          <g id="Grupo_95804" data-name="Grupo 95804" transform="translate(35.489 105.866)">
            <path id="Trazado_121492" data-name="Trazado 121492" d="M132.366,299.082a4.044,4.044,0,0,1-.144-.717q-.119-.778-.316-2.068c-.125-.9-.287-2-.519-3.266s-.443-2.722-.784-4.309c-.313-1.592-.662-3.333-1.112-5.188-.4-1.864-.944-3.829-1.487-5.9-1.155-4.129-2.575-8.628-4.31-13.262-1.762-4.626-3.67-8.942-5.533-12.8-.964-1.916-1.858-3.748-2.786-5.414-.887-1.689-1.777-3.227-2.594-4.629-.793-1.416-1.59-2.649-2.259-3.751s-1.268-2.037-1.769-2.794q-.7-1.1-1.129-1.76a4.292,4.292,0,0,1-.367-.633,3.965,3.965,0,0,1,.449.577l1.207,1.71c.525.743,1.155,1.66,1.842,2.753s1.512,2.313,2.326,3.722c.838,1.393,1.748,2.925,2.653,4.611.947,1.662,1.857,3.493,2.835,5.409,1.891,3.864,3.818,8.188,5.585,12.831,1.741,4.651,3.153,9.168,4.287,13.317.532,2.084,1.058,4.059,1.447,5.933.435,1.863.765,3.613,1.057,5.213.32,1.594.513,3.055.714,4.329s.341,2.38.438,3.284q.14,1.3.224,2.081A4.137,4.137,0,0,1,132.366,299.082Z" transform="translate(-107.257 -232.582)" fill="#263238"/>
          </g>
          <rect id="Rectángulo_35581" data-name="Rectángulo 35581" width="77.251" height="15.758" transform="translate(29.395 157.674)" fill="#ff725e"/>
          <path id="Trazado_121493" data-name="Trazado 121493" d="M108.6,304.073l8.356,53h46.68l7.788-53Z" transform="translate(-71.841 -130.641)" fill="#ff725e"/>
          <g id="Grupo_95805" data-name="Grupo 95805" transform="translate(36.632 173.186)">
            <path id="Trazado_121494" data-name="Trazado 121494" d="M173.742,304.059c0,.136-14.614.246-32.637.246s-32.639-.11-32.639-.246,14.61-.246,32.639-.246S173.742,303.923,173.742,304.059Z" transform="translate(-108.466 -303.813)" fill="#263238"/>
          </g>
        </g>
      </g>
      <g id="Character" transform="translate(33.638 130.997)">
        <g id="Grupo_95957" data-name="Grupo 95957" transform="translate(0)">
          <g id="Grupo_95808" data-name="Grupo 95808" transform="translate(0 290.297)">
            <path id="Trazado_121495" data-name="Trazado 121495" d="M69.912,438.766,62.8,441.1a12.119,12.119,0,0,0-7.243.818c-5.342,2.369-7.087,3.052-13.043,3.025a7.178,7.178,0,0,0-5.861,2.883c-2.47,3.4-1.947,8.052-1.069,12.154.67,3.132,1.557,6.376,4.235,8.432a5.7,5.7,0,0,0,4.112,1.213c3.749-.444,4.679-4.465,7.227-6.62a33.534,33.534,0,0,1,12.927-6.983c2.108-.663,14.339.123,14.339.123Z" transform="translate(-34.853 -438.766)" fill="#ffbf9d"/>
            <g id="Grupo_95807" data-name="Grupo 95807" transform="translate(4.53 12.499)">
              <path id="Trazado_121496" data-name="Trazado 121496" d="M39.775,452.008a1.97,1.97,0,0,1,1.568.644,2.569,2.569,0,0,1,.824,1.8,2.787,2.787,0,0,1-1.1,2.292l-.2-.4a2.684,2.684,0,0,1,3.182,2.528,4.771,4.771,0,0,1-1.569,3.562l-.13-.387a3.5,3.5,0,0,1,2.287,1.408,3.29,3.29,0,0,1,.611,2.008,3.123,3.123,0,0,1-.321,1.318c-.144.282-.262.406-.28.394a5.112,5.112,0,0,0,.323-1.712,3.114,3.114,0,0,0-.64-1.78,3.163,3.163,0,0,0-2.044-1.185l-.444-.06.314-.327a4.412,4.412,0,0,0,1.4-3.206A2.247,2.247,0,0,0,41,456.774l-1.357.433,1.162-.83a2.43,2.43,0,0,0,.987-1.924,2.338,2.338,0,0,0-.642-1.61A3.638,3.638,0,0,0,39.775,452.008Z" transform="translate(-39.646 -451.991)" fill="#ff725e"/>
            </g>
          </g>
          <g id="Grupo_95815" data-name="Grupo 95815" transform="translate(16.674 245.589)">
            <g id="Grupo_95814" data-name="Grupo 95814">
              <g id="Grupo_95813" data-name="Grupo 95813">
                <g id="Grupo_95812" data-name="Grupo 95812">
                  <g id="Grupo_95811" data-name="Grupo 95811">
                    <g id="Grupo_95810" data-name="Grupo 95810">
                      <g id="Grupo_95809" data-name="Grupo 95809">
                        <path id="Trazado_121497" data-name="Trazado 121497" d="M114.028,406.853l-9.4,18.685L95.511,444.2a2.823,2.823,0,0,1-3.768,1.305L54.127,426.131a3.1,3.1,0,0,1-.794-4.851,2.708,2.708,0,0,1,2.208-.86c3.34.188,30.061-1.12,30.061-1.12l6.153-27.84Z" transform="translate(-52.495 -391.46)" fill="#ffbf9d"/>
                      </g>
                    </g>
                  </g>
                </g>
              </g>
            </g>
          </g>
          <g id="Grupo_95818" data-name="Grupo 95818" transform="translate(251.872 144.482)">
            <path id="Trazado_121498" data-name="Trazado 121498" d="M420.845,420.1s.643,9.054,4.5,11.188,13.823-.205,16.716,0,12.538,6.957,20.9,6.957c3.548,0,6.005-.14,7.658-.3a3.063,3.063,0,0,0,2.621-4.007c-.579-1.715-1.75-4.309-4.813-4.585-7.237-.654-10.609-3.559-10.609-3.559a107.013,107.013,0,0,0-9.393-8.477c-3.395-2.437-12.787-10.434-12.787-10.434Z" transform="translate(-307.919 -291.2)" fill="#ae7461"/>
            <g id="Grupo_95817" data-name="Grupo 95817">
              <path id="Trazado_121499" data-name="Trazado 121499" d="M307.612,284.479c-.016.26,86.326,34.433,87.29,35.4s45.781,84.078,45.781,84.078L405.689,416.48,362.77,354.622l-5.6-.423s-56.066-20.3-55.815-21.263S307.612,284.479,307.612,284.479Z" transform="translate(-301.358 -284.479)" fill="#ff5f65"/>
              <g id="Grupo_95816" data-name="Grupo 95816" transform="translate(61.996 51.946)">
                <path id="Trazado_121500" data-name="Trazado 121500" d="M378.018,339.444a20.061,20.061,0,0,1-1.469,2.79c-.963,1.692-2.322,4.014-3.849,6.563s-2.935,4.844-3.973,6.49a20.181,20.181,0,0,1-1.767,2.61,19.957,19.957,0,0,1,1.471-2.794c.962-1.693,2.32-4.013,3.847-6.56s2.932-4.837,3.97-6.484A20,20,0,0,1,378.018,339.444Z" transform="translate(-366.956 -339.443)" fill="#263238"/>
              </g>
            </g>
            <path id="Trazado_121501" data-name="Trazado 121501" d="M341.188,298V312.4l17.555,42.361-13.457-4.906-15.355-47.152,3.293-7.929Z" transform="translate(-302.927 -285.044)" opacity="0.3"/>
          </g>
          <g id="Grupo_95828" data-name="Grupo 95828" transform="translate(30.67 165.775)">
            <path id="Trazado_121502" data-name="Trazado 121502" d="M76.021,389.432c0-.954,31.557-71.882,37.267-76.991s15.028-8.115,27.05-2.1c9.288,4.644,45.669,27.84,61.732,38.147,4.726,3.033,7.694,4.949,7.694,4.949l10.809,63.013-22.53,27.332L81.731,454.9,67.305,425.446l62.195-9.168,18.351-4.055s4.208-5.109,8.415-6.011,5.41,1.5,5.41,1.5L176.7,392.471l-42.678-28.187s-14.125,41.928-18.633,42.529S76.021,389.432,76.021,389.432Z" transform="translate(-67.305 -307.009)" fill="#455a64"/>
            <g id="Grupo_95819" data-name="Grupo 95819" transform="translate(129.58 39.811)" opacity="0.3">
              <path id="Trazado_121503" data-name="Trazado 121503" d="M206.844,349.133c-1.389,10.26-2.845,20.962-2.322,31.3s3.082,20.805,8.976,29.317c1.3,1.88,2.783,3.7,3.462,5.886,1.794,5.771-10.136,22.822-10.08,28.865L226.7,418.76l-4.991-17.469-8.931-48.448Z" transform="translate(-204.413 -349.133)"/>
            </g>
            <g id="Grupo_95820" data-name="Grupo 95820" transform="translate(52.096 34.055)">
              <path id="Trazado_121504" data-name="Trazado 121504" d="M122.434,343.043a4.523,4.523,0,0,1,.473.974c.271.639.672,1.561,1.179,2.692a86.516,86.516,0,0,0,9.8,16.663c.742.994,1.352,1.792,1.78,2.339a4.552,4.552,0,0,1,.621.887,4.531,4.531,0,0,1-.767-.765c-.473-.51-1.127-1.278-1.908-2.249a68.853,68.853,0,0,1-9.842-16.738c-.47-1.154-.822-2.1-1.039-2.762A4.574,4.574,0,0,1,122.434,343.043Z" transform="translate(-122.428 -343.043)" fill="#263238"/>
            </g>
            <g id="Grupo_95821" data-name="Grupo 95821" transform="translate(62.886 25.259)">
              <path id="Trazado_121505" data-name="Trazado 121505" d="M133.862,333.735c.135-.014,1.039,7.235,2.017,16.189s1.664,16.229,1.529,16.244-1.039-7.233-2.018-16.19S133.727,333.75,133.862,333.735Z" transform="translate(-133.845 -333.735)" fill="#263238"/>
            </g>
            <g id="Grupo_95822" data-name="Grupo 95822" transform="translate(109.031 85.012)">
              <path id="Trazado_121506" data-name="Trazado 121506" d="M210.715,408.129c-.077.067-1.176-1.313-3.312-3.157a31.91,31.91,0,0,0-3.99-2.916,31.9,31.9,0,0,0-11.251-4.274,31.942,31.942,0,0,0-4.92-.47c-2.82-.039-4.558.264-4.571.163a5.889,5.889,0,0,1,1.212-.246,11.853,11.853,0,0,1,1.44-.17c.564-.037,1.207-.113,1.92-.095a28.974,28.974,0,0,1,5,.371,30.364,30.364,0,0,1,11.415,4.336,29.035,29.035,0,0,1,3.981,3.039c.545.46.976.944,1.373,1.347a11.789,11.789,0,0,1,.965,1.083A5.932,5.932,0,0,1,210.715,408.129Z" transform="translate(-182.67 -396.96)" fill="#263238"/>
            </g>
            <g id="Grupo_95823" data-name="Grupo 95823" transform="translate(74.782 109.037)">
              <path id="Trazado_121507" data-name="Trazado 121507" d="M184.5,424.216a8.863,8.863,0,0,1-1.5-.087l-4.069-.368c-3.435-.3-8.188-.642-13.446-.807s-10.024-.116-13.471-.029l-4.084.115a8.7,8.7,0,0,1-1.5-.007,8.8,8.8,0,0,1,1.49-.184c.962-.09,2.357-.184,4.082-.272,3.451-.177,8.227-.277,13.5-.115s10.031.562,13.464.953c1.716.195,3.1.375,4.057.525A8.761,8.761,0,0,1,184.5,424.216Z" transform="translate(-146.432 -422.381)" fill="#263238"/>
            </g>
            <g id="Grupo_95824" data-name="Grupo 95824" transform="translate(117.107 115.566)">
              <path id="Trazado_121508" data-name="Trazado 121508" d="M193.736,448.9c-.083-.024.231-1.122.493-2.932a26.2,26.2,0,0,0-1.79-13.97c-.711-1.685-1.29-2.668-1.217-2.712.029-.018.2.213.481.647a16.277,16.277,0,0,1,1.054,1.923,23.262,23.262,0,0,1,1.816,14.17,16.4,16.4,0,0,1-.535,2.126A2.571,2.571,0,0,1,193.736,448.9Z" transform="translate(-191.215 -429.289)" fill="#263238"/>
            </g>
            <g id="Grupo_95825" data-name="Grupo 95825" transform="translate(110.959 59.707)">
              <path id="Trazado_121509" data-name="Trazado 121509" d="M201.191,370.186c.107.084-3.5,4.827-8.046,10.592s-8.325,10.371-8.432,10.287,3.495-4.826,8.046-10.593S201.084,370.1,201.191,370.186Z" transform="translate(-184.711 -370.185)" fill="#263238"/>
            </g>
            <g id="Grupo_95826" data-name="Grupo 95826" transform="translate(53.224 37.669)" opacity="0.3">
              <path id="Trazado_121510" data-name="Trazado 121510" d="M123.921,346.866a18.935,18.935,0,0,0,2.409,13.1,18.243,18.243,0,0,0,10.242,8.108l.275-.8C131.359,361.4,127.311,354.294,123.921,346.866Z" transform="translate(-123.621 -346.866)"/>
            </g>
            <g id="Grupo_95827" data-name="Grupo 95827" transform="translate(80.231 104.12)" opacity="0.3">
              <path id="Trazado_121511" data-name="Trazado 121511" d="M152.2,418.341a150.993,150.993,0,0,1,31.551-.622c-8.132,1.957-16.57,2.141-24.932,2.315-2.308.048-4.941-.042-6.44-1.8" transform="translate(-152.197 -417.178)"/>
            </g>
          </g>
          <g id="Grupo_95834" data-name="Grupo 95834" transform="translate(161.407 123.181)">
            <g id="Grupo_95831" data-name="Grupo 95831">
              <path id="Trazado_121512" data-name="Trazado 121512" d="M347.793,351.774l-14.222-51.163-1.112-38.67s-24.3,3.012-24.4,3.92-8.309,49.936-8.63,50.617,7.307,55.383,7.307,55.383l11.464,3.473,30.679-13.526Z" transform="translate(-210.786 -261.941)" fill="#455a64"/>
              <path id="Trazado_121513" data-name="Trazado 121513" d="M211.818,345.87c2.884-2.092,15.936-1.963,29.375,20.918l9.286,3.5,71.157-10.813L341,361.425a57.293,57.293,0,0,1,8.43,27.718c.624,16.306,5.306,31.215-21.736,55.558l-73.038-10.424-21.478-2.366-27.536,13.955,18.333-31.676S218.6,413.833,213.3,397,211.818,345.87,211.818,345.87Z" transform="translate(-205.637 -266.503)" fill="#455a64"/>
              <g id="Grupo_95829" data-name="Grupo 95829" transform="translate(107.98 99.205)">
                <path id="Trazado_121514" data-name="Trazado 121514" d="M349.434,366.92a6.164,6.164,0,0,1-1.2.321c-.78.17-1.906.429-3.293.766a99.728,99.728,0,0,0-20.9,7.6c-1.279.631-2.309,1.156-3.016,1.526a6.089,6.089,0,0,1-1.128.526,6.039,6.039,0,0,1,1.035-.693c.68-.423,1.687-1,2.952-1.67a81.467,81.467,0,0,1,20.983-7.63c1.4-.295,2.542-.5,3.335-.616A5.97,5.97,0,0,1,349.434,366.92Z" transform="translate(-319.89 -366.91)" fill="#263238"/>
              </g>
              <g id="Grupo_95830" data-name="Grupo 95830" transform="translate(107.245 98.577)">
                <path id="Trazado_121515" data-name="Trazado 121515" d="M343.8,366.268a3.947,3.947,0,0,1-.975.2l-2.671.394c-2.255.332-5.362.829-8.77,1.506s-6.47,1.411-8.68,1.968l-2.619.659a3.933,3.933,0,0,1-.976.189,3.832,3.832,0,0,1,.922-.373c.6-.211,1.486-.489,2.582-.81,2.192-.645,5.252-1.432,8.674-2.114s6.549-1.125,8.822-1.368c1.136-.123,2.057-.2,2.694-.24A3.857,3.857,0,0,1,343.8,366.268Z" transform="translate(-319.113 -366.245)" fill="#263238"/>
              </g>
            </g>
            <path id="Trazado_121516" data-name="Trazado 121516" d="M234.773,434.762l7.288-37.824,5.622,1.36-2.275,37.634-10.634-1.171" transform="translate(-207.237 -269.353)" fill="#263238"/>
            <g id="Grupo_95832" data-name="Grupo 95832" transform="translate(25.921 87.049)" opacity="0.3">
              <path id="Trazado_121517" data-name="Trazado 121517" d="M240.175,363.067l-7.037-9.02c-.2,14.376-.343,29.082,4.291,42.692a11.384,11.384,0,0,0,2.962,5.156c1.522,1.308,3.976,1.74,5.515.451Z" transform="translate(-233.063 -354.047)"/>
            </g>
            <g id="Grupo_95833" data-name="Grupo 95833" transform="translate(17.723 137.469)">
              <path id="Trazado_121518" data-name="Trazado 121518" d="M244.838,407.479c0,.1-1.382.069-3.56.433a24.877,24.877,0,0,0-3.752.943,24.805,24.805,0,0,0-8.193,4.641,24.941,24.941,0,0,0-2.739,2.732c-1.432,1.681-2.12,2.881-2.2,2.831a3.654,3.654,0,0,1,.435-.869,8.97,8.97,0,0,1,.606-.965,14.914,14.914,0,0,1,.892-1.218,22.2,22.2,0,0,1,2.711-2.854,23.34,23.34,0,0,1,8.348-4.728,22.058,22.058,0,0,1,3.842-.857,14.848,14.848,0,0,1,1.5-.139,8.731,8.731,0,0,1,1.14-.024A3.675,3.675,0,0,1,244.838,407.479Z" transform="translate(-224.389 -407.397)" fill="#263238"/>
            </g>
          </g>
          <g id="Grupo_95913" data-name="Grupo 95913" transform="translate(265.161)">
            <g id="Grupo_95911" data-name="Grupo 95911">
              <g id="Grupo_95836" data-name="Grupo 95836" transform="translate(41.695 2.709)">
                <g id="Grupo_95835" data-name="Grupo 95835">
                  <path id="Trazado_121519" data-name="Trazado 121519" d="M374.5,171.245a5.705,5.705,0,0,0,7.907-8.146,5.934,5.934,0,0,0,.888-11.23,7.1,7.1,0,0,0-6.023-10.6,7.986,7.986,0,0,0-8.247-5.359,5.68,5.68,0,0,0-9.345,5.537" transform="translate(-359.537 -134.47)" fill="#263238"/>
                </g>
              </g>
              <g id="Grupo_95910" data-name="Grupo 95910">
                <g id="Grupo_95904" data-name="Grupo 95904" transform="translate(0 3.39)">
                  <g id="Grupo_95839" data-name="Grupo 95839" transform="translate(0 2.34)">
                    <g id="Grupo_95838" data-name="Grupo 95838">
                      <g id="Grupo_95837" data-name="Grupo 95837">
                        <path id="Trazado_121520" data-name="Trazado 121520" d="M315.633,182.029l16.784-29.742c6.146-12.062,18.289-18.539,30.176-12.062l1.064.663a24.207,24.207,0,0,1,8.705,31.652c-5.384,10.423-11.466,21.868-14.849,27.153-7.006,10.939-19.1,5.783-19.1,5.783l-14.621,14.241a81.211,81.211,0,0,1-6.516-16.342C314.547,193.713,315.633,182.029,315.633,182.029Z" transform="translate(-315.419 -137.666)" fill="#ae7461"/>
                      </g>
                    </g>
                  </g>
                  <g id="Grupo_95844" data-name="Grupo 95844" transform="translate(10.924 56.961)">
                    <g id="Grupo_95843" data-name="Grupo 95843">
                      <g id="Grupo_95842" data-name="Grupo 95842">
                        <g id="Grupo_95841" data-name="Grupo 95841">
                          <g id="Grupo_95840" data-name="Grupo 95840">
                            <path id="Trazado_121521" data-name="Trazado 121521" d="M339.147,208.69a31.512,31.512,0,0,1-11.811-13.23s-3.039,10.374,8.58,16.237Z" transform="translate(-326.978 -195.46)" fill="#6f4439"/>
                          </g>
                        </g>
                      </g>
                    </g>
                  </g>
                  <g id="Grupo_95852" data-name="Grupo 95852" transform="translate(43.178 42.938)">
                    <g id="Grupo_95851" data-name="Grupo 95851">
                      <g id="Grupo_95850" data-name="Grupo 95850">
                        <g id="Grupo_95849" data-name="Grupo 95849">
                          <g id="Grupo_95848" data-name="Grupo 95848">
                            <g id="Grupo_95847" data-name="Grupo 95847">
                              <g id="Grupo_95846" data-name="Grupo 95846">
                                <g id="Grupo_95845" data-name="Grupo 95845">
                                  <path id="Trazado_121522" data-name="Trazado 121522" d="M364.577,183.3a1.854,1.854,0,0,1-2.507.643,1.774,1.774,0,0,1-.738-2.431,1.855,1.855,0,0,1,2.506-.645A1.775,1.775,0,0,1,364.577,183.3Z" transform="translate(-361.106 -180.622)" fill="#263238"/>
                                </g>
                              </g>
                            </g>
                          </g>
                        </g>
                      </g>
                    </g>
                  </g>
                  <g id="Grupo_95861" data-name="Grupo 95861" transform="translate(45.027 36.773)">
                    <g id="Grupo_95860" data-name="Grupo 95860">
                      <g id="Grupo_95859" data-name="Grupo 95859">
                        <g id="Grupo_95858" data-name="Grupo 95858">
                          <g id="Grupo_95857" data-name="Grupo 95857">
                            <g id="Grupo_95856" data-name="Grupo 95856">
                              <g id="Grupo_95855" data-name="Grupo 95855">
                                <g id="Grupo_95854" data-name="Grupo 95854">
                                  <g id="Grupo_95853" data-name="Grupo 95853">
                                    <path id="Trazado_121523" data-name="Trazado 121523" d="M369.248,178.456c-.323.083-.966-1.542-2.663-2.594-1.679-1.075-3.467-.977-3.52-1.3-.033-.148.4-.4,1.183-.453a5.093,5.093,0,0,1,2.977.786,4.9,4.9,0,0,1,1.96,2.321C369.457,177.943,369.4,178.424,369.248,178.456Z" transform="translate(-363.062 -174.1)" fill="#263238"/>
                                  </g>
                                </g>
                              </g>
                            </g>
                          </g>
                        </g>
                      </g>
                    </g>
                  </g>
                  <g id="Grupo_95869" data-name="Grupo 95869" transform="translate(27.974 34.082)">
                    <g id="Grupo_95868" data-name="Grupo 95868">
                      <g id="Grupo_95867" data-name="Grupo 95867">
                        <g id="Grupo_95866" data-name="Grupo 95866">
                          <g id="Grupo_95865" data-name="Grupo 95865">
                            <g id="Grupo_95864" data-name="Grupo 95864">
                              <g id="Grupo_95863" data-name="Grupo 95863">
                                <g id="Grupo_95862" data-name="Grupo 95862">
                                  <path id="Trazado_121524" data-name="Trazado 121524" d="M348.49,173.926a1.856,1.856,0,0,1-2.508.643,1.775,1.775,0,0,1-.738-2.432,1.856,1.856,0,0,1,2.507-.644A1.775,1.775,0,0,1,348.49,173.926Z" transform="translate(-345.018 -171.252)" fill="#263238"/>
                                </g>
                              </g>
                            </g>
                          </g>
                        </g>
                      </g>
                    </g>
                  </g>
                  <g id="Grupo_95878" data-name="Grupo 95878" transform="translate(28.176 26.713)">
                    <g id="Grupo_95877" data-name="Grupo 95877">
                      <g id="Grupo_95876" data-name="Grupo 95876">
                        <g id="Grupo_95875" data-name="Grupo 95875">
                          <g id="Grupo_95874" data-name="Grupo 95874">
                            <g id="Grupo_95873" data-name="Grupo 95873">
                              <g id="Grupo_95872" data-name="Grupo 95872">
                                <g id="Grupo_95871" data-name="Grupo 95871">
                                  <g id="Grupo_95870" data-name="Grupo 95870">
                                    <path id="Trazado_121525" data-name="Trazado 121525" d="M351.419,167.81c-.323.083-.968-1.543-2.664-2.593-1.679-1.075-3.466-.978-3.52-1.3-.033-.147.4-.4,1.184-.451a5.088,5.088,0,0,1,2.977.786,4.888,4.888,0,0,1,1.959,2.32C351.625,167.3,351.571,167.778,351.419,167.81Z" transform="translate(-345.232 -163.455)" fill="#263238"/>
                                  </g>
                                </g>
                              </g>
                            </g>
                          </g>
                        </g>
                      </g>
                    </g>
                  </g>
                  <g id="Grupo_95886" data-name="Grupo 95886" transform="translate(32.679 32.865)">
                    <g id="Grupo_95885" data-name="Grupo 95885">
                      <g id="Grupo_95884" data-name="Grupo 95884">
                        <g id="Grupo_95883" data-name="Grupo 95883">
                          <g id="Grupo_95882" data-name="Grupo 95882">
                            <g id="Grupo_95881" data-name="Grupo 95881">
                              <g id="Grupo_95880" data-name="Grupo 95880">
                                <g id="Grupo_95879" data-name="Grupo 95879">
                                  <path id="Trazado_121526" data-name="Trazado 121526" d="M350,184.564a13.138,13.138,0,0,1,3.061,1.217c.46.225.923.394,1.18.145a2.6,2.6,0,0,0,.51-1.463l.774-4.091c1.145-5.8,2.263-10.455,2.5-10.406s-.508,4.786-1.653,10.583q-.439,2.135-.839,4.078a2.955,2.955,0,0,1-.834,1.837,1.281,1.281,0,0,1-1.106.19,3.475,3.475,0,0,1-.8-.356A13.115,13.115,0,0,1,350,184.564Z" transform="translate(-349.997 -169.965)" fill="#263238"/>
                                </g>
                              </g>
                            </g>
                          </g>
                        </g>
                      </g>
                    </g>
                  </g>
                  <g id="Grupo_95890" data-name="Grupo 95890" transform="translate(30.701 20.172)">
                    <g id="Grupo_95889" data-name="Grupo 95889">
                      <g id="Grupo_95888" data-name="Grupo 95888">
                        <g id="Grupo_95887" data-name="Grupo 95887">
                          <path id="Trazado_121527" data-name="Trazado 121527" d="M356.14,161.063c-.454.356-2.009-.916-4.146-1.915-2.117-1.042-4.083-1.459-4.089-2.037.007-.27.556-.53,1.482-.572a7.941,7.941,0,0,1,6.274,3.01C356.206,160.3,356.348,160.889,356.14,161.063Z" transform="translate(-347.904 -156.534)" fill="#263238"/>
                        </g>
                      </g>
                    </g>
                  </g>
                  <g id="Grupo_95894" data-name="Grupo 95894" transform="translate(48.022 31.502)">
                    <g id="Grupo_95893" data-name="Grupo 95893">
                      <g id="Grupo_95892" data-name="Grupo 95892">
                        <g id="Grupo_95891" data-name="Grupo 95891">
                          <path id="Trazado_121528" data-name="Trazado 121528" d="M371.854,172.858c-.538.2-1.455-.928-2.848-1.821-1.361-.942-2.753-1.356-2.776-1.929,0-.27.429-.54,1.175-.58a4.9,4.9,0,0,1,4.532,3.022C372.186,172.254,372.1,172.752,371.854,172.858Z" transform="translate(-366.231 -168.523)" fill="#263238"/>
                        </g>
                      </g>
                    </g>
                  </g>
                  <g id="Grupo_95897" data-name="Grupo 95897" transform="translate(9.698)">
                    <g id="Grupo_95896" data-name="Grupo 95896">
                      <g id="Grupo_95895" data-name="Grupo 95895">
                        <path id="Trazado_121529" data-name="Trazado 121529" d="M375.017,166.685s1.394-8.717-.931-12.4c-2.815-4.462-7.307-1.119-10.479-4.586s-5.853-7.737-11.628-7.213c-6.322.573-5.729,4.106-9.043,8.833-13.434,19.163-20.551,22.514-15.76,12.53.525-1.093-1.808-3.677.466-8.264,2.948-5.947,6.975-12.889,10.705-16.088,3.145-2.7,6.5-3.823,11.523-4.241,7.926-.66,15.414,3.887,20.147,7.542S380.863,158.327,375.017,166.685Z" transform="translate(-325.681 -135.19)" fill="#263238"/>
                      </g>
                    </g>
                  </g>
                  <g id="Grupo_95900" data-name="Grupo 95900" transform="translate(1.667 23.223)">
                    <g id="Grupo_95899" data-name="Grupo 95899">
                      <g id="Grupo_95898" data-name="Grupo 95898">
                        <path id="Trazado_121530" data-name="Trazado 121530" d="M327.6,165.334a3.526,3.526,0,0,0-1.435-4.9c-2.177-1.085-5.193-1.344-7.705,2.99C314,171.114,322.64,174,322.781,173.789,322.877,173.644,325.763,168.567,327.6,165.334Z" transform="translate(-317.183 -159.762)" fill="#ae7461"/>
                      </g>
                    </g>
                  </g>
                  <g id="Grupo_95903" data-name="Grupo 95903" transform="translate(4.777 26.269)">
                    <g id="Grupo_95902" data-name="Grupo 95902">
                      <g id="Grupo_95901" data-name="Grupo 95901">
                        <path id="Trazado_121531" data-name="Trazado 121531" d="M322.966,170.1c-.02-.044-.189.016-.475-.011a1.547,1.547,0,0,1-1.013-.559c-.639-.769-.576-2.454.19-3.862a5.132,5.132,0,0,1,1.487-1.7,1.788,1.788,0,0,1,1.6-.444.787.787,0,0,1,.577.825c-.021.275-.159.4-.126.437.01.032.239-.033.362-.387a.991.991,0,0,0-.024-.657,1.165,1.165,0,0,0-.628-.625,2.177,2.177,0,0,0-2.09.381,5.266,5.266,0,0,0-1.706,1.873c-.849,1.578-.9,3.487.029,4.452a1.658,1.658,0,0,0,1.342.507C322.844,170.282,322.984,170.134,322.966,170.1Z" transform="translate(-320.474 -162.985)" fill="#6f4439"/>
                      </g>
                    </g>
                  </g>
                </g>
                <g id="Grupo_95906" data-name="Grupo 95906" transform="translate(17.061)">
                  <g id="Grupo_95905" data-name="Grupo 95905">
                    <path id="Trazado_121532" data-name="Trazado 121532" d="M337.74,149.276a8.428,8.428,0,0,0,2.274,3.464,2.9,2.9,0,0,0,3.8-.029c.416-.47.667-1.158,1.264-1.349.714-.227,1.378.4,1.968.858a5.671,5.671,0,0,0,7.144-.337c.037,1.184,1.364,1.961,2.55,1.943a12.761,12.761,0,0,0,3.42-.917,3.652,3.652,0,0,1,3.394.318c.508.426.822,1.083,1.414,1.383,1.045.529,2.25-.329,3.012-1.218s1.592-1.962,2.763-1.974c1.086-.01,1.915.9,2.742,1.6s2.137,1.221,2.926.475a2.112,2.112,0,0,0,.514-1.577,5.751,5.751,0,0,0-4.61-5.438,7.8,7.8,0,0,0-11.358-8.857,7.911,7.911,0,0,0-12.259-4.241,5.735,5.735,0,0,0-9.9,3.66,5.445,5.445,0,0,0-4.836,2.1c-1,1.542-.449,4.044,1.313,4.571a3.176,3.176,0,0,0,2.987,5.593" transform="translate(-333.472 -131.603)" fill="#263238"/>
                  </g>
                </g>
                <g id="Grupo_95909" data-name="Grupo 95909" transform="translate(17.343 9.251)">
                  <g id="Grupo_95908" data-name="Grupo 95908">
                    <g id="Grupo_95907" data-name="Grupo 95907">
                      <path id="Trazado_121533" data-name="Trazado 121533" d="M371.514,149.586c.006,0-.024.05-.088.137s-.157.217-.3.372a5.575,5.575,0,0,1-1.453,1.111,6.359,6.359,0,0,1-2.781.74,5.915,5.915,0,0,1-3.637-1.043l.232-.087a3.213,3.213,0,0,1-1.448,1.987,9.193,9.193,0,0,1-2.445,1.05,6.579,6.579,0,0,1-1.383.339,3.1,3.1,0,0,1-1.471-.3,3.241,3.241,0,0,1-1.885-2.381l.332.094a6.662,6.662,0,0,1-4.835,2.418,4.863,4.863,0,0,1-2.981-.731,8.789,8.789,0,0,1-2.106-2.056l.257.037a6.992,6.992,0,0,1-3.233,1.214,3.727,3.727,0,0,1-3.072-.921,4.893,4.893,0,0,1-1.173-5.241l.121.186a4.579,4.579,0,0,1-2.827-1.233,4.984,4.984,0,0,1-1.3-1.932,4.288,4.288,0,0,1-.268-1.446,2.166,2.166,0,0,1,.052-.508,5.356,5.356,0,0,0,.356,1.9,4.917,4.917,0,0,0,1.308,1.825,4.382,4.382,0,0,0,2.694,1.122l.191.008-.07.179a4.616,4.616,0,0,0,1.149,4.9,3.385,3.385,0,0,0,2.805.809,6.67,6.67,0,0,0,3.052-1.163l.147-.1.111.139a8.484,8.484,0,0,0,2.016,1.964,4.486,4.486,0,0,0,2.756.669,6.3,6.3,0,0,0,4.564-2.273l.269-.327.063.422a2.881,2.881,0,0,0,1.664,2.1,2.748,2.748,0,0,0,1.3.275,6.423,6.423,0,0,0,1.3-.315,9,9,0,0,0,2.367-.988,2.916,2.916,0,0,0,1.337-1.781l.05-.218.181.13a5.709,5.709,0,0,0,3.456,1.046,6.332,6.332,0,0,0,2.711-.651A6.887,6.887,0,0,0,371.514,149.586Z" transform="translate(-333.77 -141.392)" fill="#455a64"/>
                    </g>
                  </g>
                </g>
              </g>
            </g>
            <g id="Grupo_95912" data-name="Grupo 95912" transform="translate(25.563 51.148)">
              <path id="Trazado_121534" data-name="Trazado 121534" d="M347.106,192.414a8.449,8.449,0,0,1-2.815-3,13.972,13.972,0,0,1-1.815-3.687,22.306,22.306,0,0,1,2.229,3.42C345.893,191.035,347.2,192.306,347.106,192.414Z" transform="translate(-342.467 -185.723)" fill="#263238"/>
            </g>
          </g>
          <g id="Grupo_95914" data-name="Grupo 95914" transform="translate(217.454 114.22)">
            <path id="Trazado_121535" data-name="Trazado 121535" d="M272.087,268.068a9.48,9.48,0,0,1-1.74-1.88,26.722,26.722,0,0,1-5.1-11.182,9.411,9.411,0,0,1-.28-2.547,21.918,21.918,0,0,1,.62,2.47,32.936,32.936,0,0,0,5.044,11.052A21.434,21.434,0,0,1,272.087,268.068Z" transform="translate(-264.94 -252.459)" fill="#ff725e"/>
          </g>
          <g id="Grupo_95923" data-name="Grupo 95923" transform="translate(270.925 213.626)">
            <path id="Trazado_121536" data-name="Trazado 121536" d="M389.97,416.92l-49.211-3.073c-8.369-.523-20.555-3-19.126-16.193h0c1.428-7.706,3.727-8.572,3.727-8.572s8.938-1.451,13.936-2.4c1.321-.25,10.106-1.688,10.489-1.689,0,0,1.96-12.453,14.416-12.585,6.018-.062,18.427.817,29.644,1.743a23.2,23.2,0,0,1,21.279,23.174l0,1.2C414.342,411.485,402.9,418.06,389.97,416.92Z" transform="translate(-321.518 -358.451)" fill="#ffbf9d"/>
            <path id="Trazado_121537" data-name="Trazado 121537" d="M351.2,385.725a30.091,30.091,0,0,0,4.763,16.226s-9.811-3.209-8.666-15.636Z" transform="translate(-322.928 -359.183)" fill="#ff9a6c"/>
            <g id="Grupo_95917" data-name="Grupo 95917" transform="translate(65.327 36.453)">
              <g id="Grupo_95916" data-name="Grupo 95916">
                <g id="Grupo_95915" data-name="Grupo 95915">
                  <path id="Trazado_121538" data-name="Trazado 121538" d="M390.984,396.238c-.269.227.775,1.743.675,3.82-.069,2.077-1.233,3.551-.983,3.788.112.116.588-.106,1.113-.746a5.21,5.21,0,0,0,1.106-3.018,5.021,5.021,0,0,0-.86-3.055C391.561,396.364,391.105,396.126,390.984,396.238Z" transform="translate(-390.641 -396.212)" fill="#263238"/>
                </g>
              </g>
            </g>
            <g id="Grupo_95919" data-name="Grupo 95919" transform="translate(59.132 36.22)">
              <g id="Grupo_95918" data-name="Grupo 95918">
                <path id="Trazado_121539" data-name="Trazado 121539" d="M385.789,395.966a1.682,1.682,0,0,0-1.7,1.619,1.61,1.61,0,0,0,1.514,1.737,1.684,1.684,0,0,0,1.7-1.618A1.61,1.61,0,0,0,385.789,395.966Z" transform="translate(-384.086 -395.965)" fill="#263238"/>
              </g>
            </g>
            <g id="Grupo_95921" data-name="Grupo 95921" transform="translate(51.559 25.331)">
              <g id="Grupo_95920" data-name="Grupo 95920">
                <path id="Trazado_121540" data-name="Trazado 121540" d="M376.149,389.318a12.627,12.627,0,0,0,.567-3.108c.051-.489.149-.951.483-1.032a2.486,2.486,0,0,1,1.448.329l3.72,1.453c5.294,2.017,9.649,3.478,9.729,3.264s-4.148-2.023-9.443-4.04l-3.742-1.392a2.831,2.831,0,0,0-1.918-.256,1.225,1.225,0,0,0-.716.8,3.325,3.325,0,0,0-.117.83A12.489,12.489,0,0,0,376.149,389.318Z" transform="translate(-376.072 -384.444)" fill="#263238"/>
              </g>
            </g>
            <path id="Trazado_121541" data-name="Trazado 121541" d="M399.123,397.79c-.475.166-.253,1.852-.5,3.832-.209,1.985-.812,3.581-.387,3.845.2.118.65-.16,1.111-.8a6.3,6.3,0,0,0,1.037-2.849,6.229,6.229,0,0,0-.359-3C399.72,398.086,399.349,397.72,399.123,397.79Z" transform="translate(-325.722 -359.845)" fill="#263238"/>
            <path id="Trazado_121542" data-name="Trazado 121542" d="M396.653,376.648c-.391.19-.1,1.839-.182,3.8-.051,1.969-.459,3.574-.083,3.811.181.1.541-.193.889-.854a6.856,6.856,0,0,0,.7-2.865,7.077,7.077,0,0,0-.494-2.936C397.178,376.907,396.841,376.566,396.653,376.648Z" transform="translate(-325.62 -358.684)" fill="#263238"/>
            <path id="Trazado_121543" data-name="Trazado 121543" d="M383.457,418.382c.092.213,2.515,8.563-6,8.275s-6.469-8.777-6.224-8.784S383.457,418.382,383.457,418.382Z" transform="translate(-324.227 -360.948)" fill="#ffbf9d"/>
            <path id="Trazado_121544" data-name="Trazado 121544" d="M374.533,420.74c.026.039-.109.146-.233.392a1.483,1.483,0,0,0-.06,1.108c.3.911,1.7,1.716,3.236,1.81a4.92,4.92,0,0,0,2.138-.343,1.718,1.718,0,0,0,1.177-1.077.756.756,0,0,0-.377-.889c-.234-.123-.406-.074-.42-.119-.02-.026.149-.179.5-.1a.947.947,0,0,1,.523.352,1.125,1.125,0,0,1,.189.828,2.088,2.088,0,0,1-1.372,1.5,5.047,5.047,0,0,1-2.391.434c-1.714-.112-3.29-1.045-3.6-2.288a1.588,1.588,0,0,1,.271-1.349C374.327,420.748,374.519,420.71,374.533,420.74Z" transform="translate(-324.388 -361.105)" fill="#ff9a6c"/>
            <path id="Trazado_121545" data-name="Trazado 121545" d="M409.482,357.737a2.012,2.012,0,0,1,1.1,1.029,6.172,6.172,0,0,1,.276,3.2,17.929,17.929,0,0,0,2.132,9.519,41.769,41.769,0,0,1,4.925,4.725c3.588,4.042,5.989,7.326,7.034,10.615,1.353,4.255,1.51,11.213.058,15.434s-5.236,7.827-9.693,8.1c1.861,2.568,1.573,6.192.169,9.045l.027.077c-1.414,3.188-5.014,4.79-8.426,5.506s-7.016.861-10.143,2.405c-.654.323-1.437.707-2.064.335a1.386,1.386,0,0,1-.522-1.493,4.07,4.07,0,0,1,.8-1.473l-2.707.9a7.762,7.762,0,0,1,.506-3.545,76.312,76.312,0,0,1-8.634-2.99,5.064,5.064,0,0,0-.593-3.531c-.946-1.225-2.849-1.884-1.969-3.735.448-.941,2.55-1.675,3.562-1.925a48.455,48.455,0,0,1,20.6-.56,15.572,15.572,0,0,0,3.819-4.535l-.143.136c1.46-3.369,2.935-7.192,1.558-10.6-1.069-2.64-3.6-4.334-5.564-6.4a19.485,19.485,0,0,1-5.36-14.329c-3.471-.443-8.42-.52-11.89-.964l5.8-2.513-.027,0c.426-.21.853-.377,1.281-.539l.13-.056h.016a21.673,21.673,0,0,0,2.056-.832l-.027-.036a2.183,2.183,0,0,1,3.15-2.963,4.926,4.926,0,0,1,.979,1.132,3.456,3.456,0,0,1-.6-3.346,2.708,2.708,0,0,1,2.815-1.711,2.3,2.3,0,0,1,1.741,1.507,7.783,7.783,0,0,1,1.3-4.342C407.526,358.153,408.408,357.359,409.482,357.737Z" transform="translate(-324.814 -357.641)" fill="#263238"/>
            <path id="Trazado_121546" data-name="Trazado 121546" d="M414.817,409.185a10.484,10.484,0,0,1-1.229,1.157,8.9,8.9,0,0,1-4.253,1.592,15.652,15.652,0,0,1-3.17.081c-1.141-.08-2.355-.264-3.635-.447a32.581,32.581,0,0,0-4.053-.4,14.322,14.322,0,0,0-2.162.119,4.471,4.471,0,0,0-2.143.718,1.875,1.875,0,0,0-.718,1.7,2.791,2.791,0,0,0,.77,1.639,6.439,6.439,0,0,0,3.059,1.429l-.012-.263a10.406,10.406,0,0,0-2.707,1.313,3.7,3.7,0,0,0-1.491,2.31,2.384,2.384,0,0,0,.128,1.293,2.066,2.066,0,0,0,.789.932,2.136,2.136,0,0,0,1.078.345,1.538,1.538,0,0,0,.992-.326l-.108-.14a8.011,8.011,0,0,0-2.195,2.51,7.279,7.279,0,0,0-.382.8,1.427,1.427,0,0,0-.1.29,1.449,1.449,0,0,0,.14-.27c.09-.179.221-.444.42-.772a8.261,8.261,0,0,1,2.217-2.416l-.108-.14a1.594,1.594,0,0,1-1.846-.056,1.872,1.872,0,0,1-.7-.841,2.17,2.17,0,0,1-.1-1.171,3.462,3.462,0,0,1,1.414-2.142,10.229,10.229,0,0,1,2.646-1.261l.41-.148-.422-.114a6.224,6.224,0,0,1-2.922-1.361,2.513,2.513,0,0,1-.689-1.467,1.581,1.581,0,0,1,.609-1.448,4.222,4.222,0,0,1,2-.661,14.067,14.067,0,0,1,2.119-.121,33.285,33.285,0,0,1,4.019.378c1.281.176,2.5.352,3.657.422a15.555,15.555,0,0,0,3.214-.118,8.782,8.782,0,0,0,4.294-1.706A5.027,5.027,0,0,0,414.817,409.185Z" transform="translate(-325.445 -360.471)" fill="#455a64"/>
            <path id="Trazado_121547" data-name="Trazado 121547" d="M406.226,367.7s-.035.028-.093.093l-.249.293a4.1,4.1,0,0,0-.375.5,6.581,6.581,0,0,0-.453.723,11.007,11.007,0,0,0-1.351,5.228,14.068,14.068,0,0,0,2.2,7.679,24.372,24.372,0,0,0,6.918,6.974c1.432,1.012,2.914,1.862,4.272,2.777a16.445,16.445,0,0,1,3.562,3.049,8.486,8.486,0,0,1,1.9,3.73,6.082,6.082,0,0,1,.076,1.9,6.71,6.71,0,0,1-.46,1.7,7.184,7.184,0,0,1-3.664,3.726,8.57,8.57,0,0,1-1.9.5.381.381,0,0,0,.13,0l.384-.03a6.174,6.174,0,0,0,1.433-.365,7.044,7.044,0,0,0,1.983-1.246,7.266,7.266,0,0,0,1.828-2.5,6.836,6.836,0,0,0,.493-1.749,6.272,6.272,0,0,0-.062-1.973,8.689,8.689,0,0,0-1.928-3.854,16.573,16.573,0,0,0-3.609-3.113c-1.368-.926-2.846-1.776-4.264-2.78a24.368,24.368,0,0,1-6.857-6.876,13.981,13.981,0,0,1-2.222-7.535,11.167,11.167,0,0,1,1.245-5.176A17.168,17.168,0,0,1,406.226,367.7Z" transform="translate(-326.031 -358.193)" fill="#455a64"/>
            <path id="Trazado_121548" data-name="Trazado 121548" d="M412.069,366.944a1.9,1.9,0,0,0-.343.421,9.643,9.643,0,0,0-.766,1.265,12.894,12.894,0,0,0-.839,2.03,13.528,13.528,0,0,0-.571,5.328,12.737,12.737,0,0,0,.389,2.162,9.631,9.631,0,0,0,.481,1.4,1.937,1.937,0,0,0,.246.484c.05-.021-.25-.731-.527-1.932a14.584,14.584,0,0,1-.322-2.135,14.461,14.461,0,0,1,.56-5.228,14.756,14.756,0,0,1,.767-2.019C411.669,367.6,412.113,366.974,412.069,366.944Z" transform="translate(-326.349 -358.151)" fill="#455a64"/>
            <path id="Trazado_121549" data-name="Trazado 121549" d="M391.656,376.174c-.269.227.775,1.743.675,3.821-.069,2.076-1.233,3.549-.982,3.787.111.116.587-.106,1.112-.746a5.211,5.211,0,0,0,1.106-3.018,5.014,5.014,0,0,0-.86-3.055C392.234,376.3,391.777,376.062,391.656,376.174Z" transform="translate(-325.35 -358.657)" fill="#263238"/>
            <path id="Trazado_121550" data-name="Trazado 121550" d="M386.362,377.242a1.682,1.682,0,0,0-1.7,1.619,1.608,1.608,0,0,0,1.513,1.737,1.684,1.684,0,0,0,1.7-1.618A1.61,1.61,0,0,0,386.362,377.242Z" transform="translate(-324.985 -358.717)" fill="#263238"/>
            <g id="Grupo_95922" data-name="Grupo 95922" transform="translate(45.639 27.481)">
              <path id="Trazado_121551" data-name="Trazado 121551" d="M371.845,394.72a34.607,34.607,0,0,1-2.007-8,34.639,34.639,0,0,1,2.007,8Z" transform="translate(-369.809 -386.719)" fill="#263238"/>
            </g>
          </g>
          <path id="Trazado_121552" data-name="Trazado 121552" d="M330.689,228.372a4.71,4.71,0,0,1,2.253.88,2.456,2.456,0,0,1,.857,1.718s3.5,2.519,2.8,4.2c0,0,2.519,2.876,2.379,4.237a2.553,2.553,0,0,1-1.12,1.92s2.25.839,1.126,3.5-11.06,8.116-11.06,8.116l.869,7.771-9.38,2.09,9.807-29.162Z" transform="translate(-50.477 -136.917)" fill="#ffbf9d"/>
          <g id="Grupo_95924" data-name="Grupo 95924" transform="translate(184.126 160.65)">
            <path id="Trazado_121553" data-name="Trazado 121553" d="M270.462,402.88a21.369,21.369,0,0,1-29.167-12.437,48.684,48.684,0,0,1-2.231-8.32c-1.42-9.277-9.388-46.465-9.388-46.465l9.388-34.071,44,18.65s-5.19,69.147-7.426,77.637C275.082,399.995,273.109,401.627,270.462,402.88Z" transform="translate(-229.676 -301.587)" fill="#ff5f65"/>
            <path id="Trazado_121554" data-name="Trazado 121554" d="M230.827,341.064l5.257-1.073,2.6-17.4a10.04,10.04,0,0,1,6.742-8.035l.634-.212,7.907,46.458h25.885l1.185-13.913-29.82-39.881-15.134,1.873Z" transform="translate(-229.739 -301.885)" opacity="0.3"/>
          </g>
          <g id="Grupo_95933" data-name="Grupo 95933" transform="translate(174.424 46.713)">
            <path id="Trazado_121555" data-name="Trazado 121555" d="M312.722,181.03l-5.3,5.633-18.888,2.682s-14.438,7.985-24.454,27.582S241.73,281.6,241.73,281.6l60.36,25.827,24.484-82.16,3.282-10.128Z" transform="translate(-220.636 -181.03)" fill="#ff5f65"/>
            <g id="Grupo_95926" data-name="Grupo 95926" transform="translate(0 101.334)">
              <path id="Trazado_121556" data-name="Trazado 121556" d="M302.946,315.356l-64.521-26.825-.513,1.126s-16.526,29.863-18.234,49.321l9.449,5.6,4.94-22.011,2.622-9.635,8.285-4.843,4.4,48.513,56.686-4.94Z" transform="translate(-219.425 -288.266)" fill="#ff5f65"/>
              <g id="Grupo_95925" data-name="Grupo 95925">
                <path id="Trazado_121557" data-name="Trazado 121557" d="M302.932,315.34s.03.2.071.612.1,1.033.176,1.83c.149,1.632.368,4.023.65,7.12.553,6.245,1.357,15.326,2.367,26.728l.014.155-.156.014-56.68,5.008-.222.02-.02-.222c-1.353-14.871-2.847-31.27-4.416-48.511l.368.189-8.285,4.844.113-.148c-.659,2.422-1.367,5.025-2.079,7.643-.59,2.009-.993,4.056-1.458,6.076l-1.356,6.039q-1.35,6.007-2.668,11.878l-.074.326-.287-.17-9.448-5.6-.13-.077.014-.15a71.886,71.886,0,0,1,2.944-13.845c1.333-4.432,2.9-8.691,4.577-12.786a233.047,233.047,0,0,1,10.772-22.768l-.007.014.514-1.126.082-.18.181.077,46.877,19.593,13.012,5.468,3.405,1.445c.767.328,1.149.507,1.149.507s-.417-.153-1.2-.47l-3.451-1.405-13.083-5.38L238.333,288.7l.263-.1-.512,1.127,0,.006,0,.009a234.026,234.026,0,0,0-10.712,22.74c-1.667,4.087-3.226,8.336-4.548,12.751a71.608,71.608,0,0,0-2.914,13.751l-.117-.227,9.451,5.6-.361.156q1.317-5.87,2.665-11.885.675-3.005,1.355-6.042c.466-2.022.869-4.069,1.459-6.08l2.082-7.651.026-.1.087-.051,8.285-4.841.333-.195.035.384c1.555,17.242,3.034,33.642,4.374,48.514l-.242-.2,56.691-4.874-.142.169c-.94-11.381-1.69-20.443-2.2-26.676-.249-3.11-.441-5.512-.573-7.151l-.139-1.852C302.938,315.56,302.932,315.34,302.932,315.34Z" transform="translate(-219.41 -288.251)" fill="#263238"/>
              </g>
            </g>
            <path id="Trazado_121558" data-name="Trazado 121558" d="M302.492,307.479l-58.805-28.17c-2.017,2.531-4.245,7.281-6.053,11.781l65.241,30.97Z" transform="translate(-220.411 -186.426)" fill="#263238"/>
            <g id="Grupo_95928" data-name="Grupo 95928" transform="translate(56.502 41.067)">
              <path id="Trazado_121559" data-name="Trazado 121559" d="M292.79,231.784c-9.073,21.733-17.064,49.563-11.678,72.49l11.044,59.52,27.759-7.292-6.754-61.393,3.69-5.925,6.977-38.261,6.619-17.452-.781-8.988" transform="translate(-279.204 -224.483)" fill="#ff5f65"/>
              <g id="Grupo_95927" data-name="Grupo 95927">
                <path id="Trazado_121560" data-name="Trazado 121560" d="M329.658,224.483s.031.194.072.578.1.968.17,1.714c.143,1.528.351,3.769.622,6.688l0,.019-.007.018c-1.6,4.26-3.83,10.194-6.566,17.474l.008-.026-6.915,38.272-.007.039-.021.033-3.684,5.929.031-.135c2,18.054,4.311,38.991,6.787,61.389l.023.211-.2.054-13.76,3.615-14,3.676-.255.067-.048-.259c-3.454-18.665-6.717-36.3-9.669-52.25-.735-3.988-1.443-7.872-2.2-11.641a77.784,77.784,0,0,1-.844-11.121,105.158,105.158,0,0,1,1.9-19.818,169.79,169.79,0,0,1,7.8-27.543c2.356-6.31,3.881-9.682,3.881-9.682s-.073.22-.236.642l-.734,1.868c-.66,1.637-1.593,4.071-2.741,7.234a174.092,174.092,0,0,0-7.645,27.541,105.369,105.369,0,0,0-1.836,19.755,77.6,77.6,0,0,0,.864,11.058c.758,3.744,1.472,7.63,2.215,11.618,2.968,15.953,6.248,33.586,9.721,52.249l-.3-.192,14-3.678,13.76-3.614-.181.264c-2.452-22.4-4.743-43.341-6.72-61.4l-.009-.073.039-.062,3.7-5.921-.027.072c2.746-14.929,5.131-27.89,7.036-38.25l0-.013,0-.011c2.78-7.263,5.047-13.181,6.674-17.431l-.006.036c-.235-2.921-.417-5.165-.54-6.694-.056-.749-.1-1.319-.129-1.718S329.658,224.483,329.658,224.483Z" transform="translate(-279.195 -224.483)" fill="#263238"/>
              </g>
            </g>
            <g id="Grupo_95929" data-name="Grupo 95929" transform="translate(86.638 6.217)">
              <path id="Trazado_121561" data-name="Trazado 121561" d="M329.686,220.88a8.673,8.673,0,0,1-.844-1.242c-.516-.816-1.246-2.005-2.133-3.485-1.776-2.958-4.175-7.077-6.745-11.672s-4.822-8.8-6.412-11.861c-.8-1.531-1.428-2.776-1.852-3.642a8.793,8.793,0,0,1-.616-1.368,8.735,8.735,0,0,1,.785,1.279l1.989,3.568,6.535,11.785c2.563,4.546,4.881,8.659,6.616,11.737.811,1.446,1.483,2.646,2,3.563A8.852,8.852,0,0,1,329.686,220.88Z" transform="translate(-311.081 -187.609)" fill="#263238"/>
            </g>
            <g id="Grupo_95930" data-name="Grupo 95930" transform="translate(67.745 8.315)">
              <path id="Trazado_121562" data-name="Trazado 121562" d="M294.285,217.12a4.632,4.632,0,0,1-.337-1.033c-.188-.672-.429-1.653-.7-2.871a94.815,94.815,0,0,1-2.159-19.353c-.006-1.248.012-2.257.048-2.954a4.624,4.624,0,0,1,.1-1.081,4.644,4.644,0,0,1,.091,1.082c.029.8.065,1.784.108,2.945.1,2.486.3,5.916.723,9.686s.977,7.16,1.429,9.607c.214,1.142.4,2.109.543,2.9A4.646,4.646,0,0,1,294.285,217.12Z" transform="translate(-291.091 -189.828)" fill="#263238"/>
            </g>
            <g id="Grupo_95931" data-name="Grupo 95931" transform="translate(74.242 98.176)">
              <path id="Trazado_121563" data-name="Trazado 121563" d="M312.542,298.456c-.093.1-3.431-2.851-7.455-6.591s-7.213-6.854-7.12-6.953,3.43,2.851,7.456,6.592S312.635,298.357,312.542,298.456Z" transform="translate(-297.965 -284.909)" fill="#263238"/>
            </g>
            <g id="Grupo_95932" data-name="Grupo 95932" transform="translate(72.924 34.693)">
              <path id="Trazado_121564" data-name="Trazado 121564" d="M328.323,226.961a27.8,27.8,0,0,0-3.671-4,19.143,19.143,0,0,0-24.126-.887,27.806,27.806,0,0,0-3.954,3.716c-.013-.01.054-.123.2-.328a10.416,10.416,0,0,1,.656-.874,17.478,17.478,0,0,1,2.894-2.792,19.157,19.157,0,0,1,24.564.9,17.552,17.552,0,0,1,2.682,3,10.6,10.6,0,0,1,.589.92C328.279,226.835,328.338,226.953,328.323,226.961Z" transform="translate(-296.57 -217.738)" fill="#263238"/>
            </g>
            <path id="Trazado_121565" data-name="Trazado 121565" d="M290.77,236.857a88.583,88.583,0,0,0-11.637,23.707c-3.508,11.591-7.039,28.265,0,55.39s9.486,30.724,9.486,30.724-9.045-44.469-9.045-49.6-.75-15.815,1.1-24.559A295.142,295.142,0,0,1,290.77,236.857Z" transform="translate(-222.466 -184.095)" opacity="0.3"/>
          </g>
          <g id="Grupo_95934" data-name="Grupo 95934" transform="translate(269.535 239.977)">
            <path id="Trazado_121566" data-name="Trazado 121566" d="M352.084,413.973c-.014.009-.113-.107-.289-.337l-.749-1.019c-.634-.894-1.58-2.17-2.783-3.716s-2.693-3.343-4.421-5.269c-1.748-1.909-3.743-3.94-5.959-5.943a79.19,79.19,0,0,0-12.3-9.05c-1.686-1-3.073-1.77-4.047-2.271l-1.111-.6a1.469,1.469,0,0,1-.373-.241,1.553,1.553,0,0,1,.416.151l1.155.521c1,.45,2.419,1.179,4.136,2.142a71.677,71.677,0,0,1,12.457,8.984,81.752,81.752,0,0,1,5.966,6.006c1.721,1.953,3.194,3.777,4.361,5.362s2.078,2.889,2.665,3.819l.674,1.072A1.481,1.481,0,0,1,352.084,413.973Z" transform="translate(-320.048 -385.522)" fill="#263238"/>
          </g>
          <g id="Grupo_95955" data-name="Grupo 95955" transform="translate(197.995 202.474)">
            <path id="Trazado_121567" data-name="Trazado 121567" d="M351.908,415.648s-12.343-20.077-31.285-29.046S290.4,401.766,290.4,401.766l50.432,29.491Z" transform="translate(-246.88 -347.969)" fill="#455a64"/>
            <g id="Grupo_95935" data-name="Grupo 95935" transform="translate(68.495 45.226)">
              <path id="Trazado_121568" data-name="Trazado 121568" d="M343.511,415.574a7.481,7.481,0,0,1-.884-1.054c-.535-.7-1.338-1.7-2.358-2.9A67.895,67.895,0,0,0,321.336,396.1c-1.378-.764-2.51-1.356-3.3-1.744a7.43,7.43,0,0,1-1.207-.66,7.337,7.337,0,0,1,1.287.487c.82.335,1.981.882,3.388,1.61A60.6,60.6,0,0,1,340.537,411.4c.991,1.236,1.755,2.267,2.245,3.006A7.255,7.255,0,0,1,343.511,415.574Z" transform="translate(-316.826 -393.694)" fill="#263238"/>
            </g>
            <g id="Grupo_95936" data-name="Grupo 95936" transform="translate(35.582 42.004)" opacity="0.3">
              <path id="Trazado_121569" data-name="Trazado 121569" d="M295.548,396.234a24.78,24.78,0,0,0,6.271,5.234,10.432,10.432,0,0,0,7.923,1.046c2.174-.688,4-2.288,6.217-2.813,2.749-.65,5.6.456,8.082,1.805a27.507,27.507,0,0,0,7.841,2.942c-9.1-9.086-21.967-13.894-34.825-14.157a9,9,0,0,0-4.742.851c-1.728,1-2.666,2.925-3.473,4.751a169.743,169.743,0,0,0-6.39,16.79,4.7,4.7,0,0,0-.183,3.459c.586,1.194,2.018,1.661,3.307,1.985,11.371,2.854,23.935,4.425,35.59,3.15a29.42,29.42,0,0,0-25.043-9.807c-1.343.148-7.655,2.179-8.185.937-.25-.59.887-3.372,1.1-3.978C290.912,403,292.855,399.011,295.548,396.234Z" transform="translate(-282.001 -390.285)"/>
            </g>
            <g id="Grupo_95944" data-name="Grupo 95944" transform="translate(49.143 18.633)">
              <path id="Trazado_121570" data-name="Trazado 121570" d="M315.87,365.556l-1.775,9.276c2.067,1.251,4.86,2.967,6.123,3.859,2.133,1.506,3.293,8.147,3.293,8.147L318.24,384.2l-.611,1.678s4.878,9.491.611,11.122l-2.885-.628s0,2.259-4.393.628c0,0-1.255,2.062-4.518.593,0,0-.628.537-2.133-.215s-7.906-5.522-7.906-5.522v-5.434l-.028-15.746C295.5,370.677,315.87,365.556,315.87,365.556Z" transform="translate(-296.35 -365.556)" fill="#ae7461"/>
              <g id="Grupo_95937" data-name="Grupo 95937" transform="translate(12.522 17.374)">
                <path id="Trazado_121571" data-name="Trazado 121571" d="M311.381,388.492c-.028.054-.336-.025-.726-.344a2.981,2.981,0,0,1-.748-3.6c.231-.448.482-.643.529-.6a3.837,3.837,0,0,0,.944,4.547Z" transform="translate(-309.599 -383.94)" fill="#6f4439"/>
              </g>
              <g id="Grupo_95938" data-name="Grupo 95938" transform="translate(15.954 24.713)">
                <path id="Trazado_121572" data-name="Trazado 121572" d="M316.8,398.526a18.06,18.06,0,0,1-3.549-6.82,94.5,94.5,0,0,1,3.549,6.82Z" transform="translate(-313.231 -391.705)" fill="#6f4439"/>
              </g>
              <g id="Grupo_95939" data-name="Grupo 95939" transform="translate(21.228 16.797)">
                <path id="Trazado_121573" data-name="Trazado 121573" d="M318.863,386.611c-.129-.04-.01-.806.267-1.713s.608-1.608.737-1.568.011.806-.267,1.712S318.993,386.651,318.863,386.611Z" transform="translate(-318.811 -383.329)" fill="#6f4439"/>
              </g>
              <g id="Grupo_95940" data-name="Grupo 95940" transform="translate(7.84 20.078)">
                <path id="Trazado_121574" data-name="Trazado 121574" d="M307.748,392.943c-.022.056-.446-.032-1.025-.408a4.655,4.655,0,0,1-2-4.712c.132-.678.363-1.043.419-1.021a5.78,5.78,0,0,0,2.607,6.141Z" transform="translate(-304.645 -386.801)" fill="#6f4439"/>
              </g>
              <g id="Grupo_95941" data-name="Grupo 95941" transform="translate(11.775 27.634)">
                <path id="Trazado_121575" data-name="Trazado 121575" d="M311.753,398.841c-.1.086-.909-.708-1.723-1.833a5.713,5.713,0,0,1-1.2-2.209c.116-.074.8.811,1.6,1.92A7.642,7.642,0,0,1,311.753,398.841Z" transform="translate(-308.809 -394.795)" fill="#6f4439"/>
              </g>
              <g id="Grupo_95942" data-name="Grupo 95942" transform="translate(3.762 21.535)">
                <path id="Trazado_121576" data-name="Trazado 121576" d="M303.223,393.9c-.02.057-.414,0-.957-.331a4.089,4.089,0,0,1-1.85-4.3c.136-.621.363-.948.418-.923a5.1,5.1,0,0,0,2.39,5.555Z" transform="translate(-300.33 -388.342)" fill="#6f4439"/>
              </g>
              <g id="Grupo_95943" data-name="Grupo 95943" transform="translate(7.248 28.155)">
                <path id="Trazado_121577" data-name="Trazado 121577" d="M307.3,399.289c-.1.087-.921-.724-1.822-1.811a6.841,6.841,0,0,1-1.444-2.125c.1-.087.921.724,1.822,1.811A6.871,6.871,0,0,1,307.3,399.289Z" transform="translate(-304.018 -395.347)" fill="#6f4439"/>
              </g>
            </g>
            <g id="Grupo_95950" data-name="Grupo 95950" transform="translate(19.869)">
              <path id="Trazado_121578" data-name="Trazado 121578" d="M318.494,364.045c.376.334-6.1,5.216-6.1,5.216s-5.172,5.18-7.955,5.952a52.34,52.34,0,0,0-9.131,4.067l-9.439,19.374-20.494-5.218L282.73,369.19a53.947,53.947,0,0,1,1-7.53c.628-2.133,8.031-13.176,9.161-14.18s2.51-2.008,4.016-1.506,1.262,3.765,1.262,3.765,2.628-.376,3.758.126S303.31,353,303.31,353a3.213,3.213,0,0,1,2.886.251,2.362,2.362,0,0,1,1.506,2.384,3.343,3.343,0,0,1,3.514.25,3.7,3.7,0,0,1,1.506,3.514l-4.643,6.835,2.541-.9S315.929,361.769,318.494,364.045Z" transform="translate(-265.375 -345.841)" fill="#ffbf9d"/>
              <g id="Grupo_95945" data-name="Grupo 95945" transform="translate(27.924 6.729)">
                <path id="Trazado_121579" data-name="Trazado 121579" d="M309.866,359.907c-.049.049-.443-.434-1.337-.912a5.284,5.284,0,0,0-3.942-.422l-.263.079-.03-.275a3.25,3.25,0,0,0-5.105-2.3l-.287.207-.065-.348a3.257,3.257,0,0,0-1.007-1.794,3.712,3.712,0,0,0-1.424-.836,6.545,6.545,0,0,0-1.483-.194c0-.022.13-.076.4-.125a3.087,3.087,0,0,1,1.16.058,3.767,3.767,0,0,1,1.6.818,3.562,3.562,0,0,1,1.2,1.991l-.353-.142a3.665,3.665,0,0,1,5.824,2.615l-.293-.2a5.318,5.318,0,0,1,4.211.617A3,3,0,0,1,309.866,359.907Z" transform="translate(-294.921 -352.961)" fill="#ff9a6c"/>
              </g>
              <g id="Grupo_95946" data-name="Grupo 95946" transform="translate(40.794 9.69)">
                <path id="Trazado_121580" data-name="Trazado 121580" d="M310.628,356.129c.063.124-.4.483-.952.921s-1.013.8-1.118.708.216-.627.814-1.1S310.569,356.01,310.628,356.129Z" transform="translate(-308.539 -356.094)" fill="#ff9a6c"/>
              </g>
              <g id="Grupo_95947" data-name="Grupo 95947" transform="translate(36.494 6.489)">
                <path id="Trazado_121581" data-name="Trazado 121581" d="M305.509,352.719c.107.084-.142.574-.555,1.093s-.835.87-.94.786.142-.575.555-1.093S305.4,352.634,305.509,352.719Z" transform="translate(-303.989 -352.707)" fill="#ff9a6c"/>
              </g>
              <g id="Grupo_95948" data-name="Grupo 95948" transform="translate(31.338 3.864)">
                <path id="Trazado_121582" data-name="Trazado 121582" d="M300.2,349.941c.106.085-.176.614-.63,1.181s-.908.958-1.014.873.176-.613.63-1.181S300.1,349.856,300.2,349.941Z" transform="translate(-298.534 -349.93)" fill="#ff9a6c"/>
              </g>
              <g id="Grupo_95949" data-name="Grupo 95949" transform="translate(39.825 20.57)">
                <path id="Trazado_121583" data-name="Trazado 121583" d="M307.539,372.629a9.952,9.952,0,0,1,2.7-5.018,54.3,54.3,0,0,1-2.7,5.018Z" transform="translate(-307.514 -367.606)" fill="#ff9a6c"/>
              </g>
            </g>
            <g id="Grupo_95952" data-name="Grupo 95952" transform="translate(0 37.573)">
              <path id="Trazado_121584" data-name="Trazado 121584" d="M315.29,417.235s-5.3-.785-8.5-.945c-9.078-.455-21.883-.572-21.883-.572l5.343-19.388,2.57-8.206-44.2-2.258c.454,1.343-7.949,46.595-1.682,55.448s23.489,10.895,32.81,11.122c6.5.158,25.852-.453,36.98-.837a22.555,22.555,0,0,0,17.359-8.957c1.466-1.971,2.488-4.04,2.42-5.929" transform="translate(-244.365 -385.612)" fill="#455a64"/>
              <g id="Grupo_95951" data-name="Grupo 95951">
                <path id="Trazado_121585" data-name="Trazado 121585" d="M336.485,436.7a3.3,3.3,0,0,1,0,.67,7,7,0,0,1-.444,1.915,17.968,17.968,0,0,1-4.331,6.144,22.538,22.538,0,0,1-10.411,5.668,22.771,22.771,0,0,1-3.581.573c-1.25.1-2.525.112-3.845.168l-8.35.286c-5.853.186-12.264.387-19.151.5-3.44.048-7.013.095-10.683-.177a81.6,81.6,0,0,1-11.228-1.563,44.56,44.56,0,0,1-11.242-3.957,22.525,22.525,0,0,1-4.974-3.684,14.5,14.5,0,0,1-1.03-1.194l-.5-.614-.41-.7a11.674,11.674,0,0,1-.642-1.472c-.142-.512-.32-1.019-.432-1.54a55.511,55.511,0,0,1-.858-12.851c.117-4.358.437-8.769.87-13.218s.959-8.823,1.524-13.129l.867-6.4q.214-1.585.427-3.158l.2-1.567.081-.778a6.721,6.721,0,0,0,.028-.687l-.018-.332.259.014,44.2,2.292.266.013-.08.254q-1.226,3.9-2.383,7.573c-.729,2.459-1.361,4.863-2.011,7.17-1.283,4.62-2.474,8.908-3.563,12.831l-.15-.2c9.589.28,17.2.477,22.411.675,5.2.454,7.972,1,7.972,1s-.176-.01-.519-.052l-1.527-.187c-1.346-.156-3.339-.416-5.937-.59l-22.4-.53-.2,0,.053-.195c1.075-3.929,2.248-8.222,3.513-12.849.644-2.311,1.268-4.716,1.99-7.18q1.145-3.677,2.364-7.584l.186.267-44.206-2.223.241-.318a3.888,3.888,0,0,1,0,.884l-.082.79-.2,1.575q-.213,1.574-.426,3.16-.428,3.174-.864,6.4c-.562,4.3-1.093,8.677-1.52,13.113s-.751,8.842-.87,13.182a55.148,55.148,0,0,0,.838,12.729c.108.508.281,1,.417,1.494a11.157,11.157,0,0,0,.61,1.4l.379.651.486.594a13.892,13.892,0,0,0,1,1.158,22.081,22.081,0,0,0,4.859,3.6,44.182,44.182,0,0,0,11.113,3.926,81.557,81.557,0,0,0,11.162,1.575c3.649.278,7.205.24,10.647.2,6.882-.091,13.294-.271,19.146-.436l8.349-.25c1.316-.051,2.606-.06,3.833-.149a22.836,22.836,0,0,0,13.882-6.085,18.211,18.211,0,0,0,4.371-6.042,7.381,7.381,0,0,0,.487-1.884C336.487,436.926,336.47,436.7,336.485,436.7Z" transform="translate(-244.351 -385.597)" fill="#263238"/>
              </g>
            </g>
            <g id="Grupo_95953" data-name="Grupo 95953" transform="translate(28.124 67.678)">
              <path id="Trazado_121586" data-name="Trazado 121586" d="M274.109,426.7c-.007-.085.969-.147,2.485-.514a19.028,19.028,0,0,0,5.59-2.3,18.541,18.541,0,0,0,2.676-1.987,6.088,6.088,0,0,0,1.657-2.071,2.937,2.937,0,0,0,.2-1.737c-.089-.414-.224-.623-.189-.645.02-.017.216.159.373.594a2.888,2.888,0,0,1-.059,1.916,6.048,6.048,0,0,1-1.675,2.277,17.023,17.023,0,0,1-8.5,4.292,13.2,13.2,0,0,1-1.866.213A1.907,1.907,0,0,1,274.109,426.7Z" transform="translate(-274.109 -417.451)" fill="#263238"/>
            </g>
            <g id="Grupo_95954" data-name="Grupo 95954" transform="translate(39.515 73.498)">
              <path id="Trazado_121587" data-name="Trazado 121587" d="M289.972,441.115c-.079-.009.014-1.027.008-2.668a30.091,30.091,0,0,0-2.7-12.413c-.675-1.5-1.183-2.383-1.114-2.424a9.83,9.83,0,0,1,1.428,2.273,25.289,25.289,0,0,1,2.731,12.571A9.818,9.818,0,0,1,289.972,441.115Z" transform="translate(-286.162 -423.609)" fill="#263238"/>
            </g>
          </g>
          <g id="Grupo_95956" data-name="Grupo 95956" transform="translate(274.269 274.773)">
            <path id="Trazado_121588" data-name="Trazado 121588" d="M338.512,434.211c-.085.032-.445-.943-1.307-2.357a17.967,17.967,0,0,0-1.715-2.337,22.17,22.17,0,0,0-2.563-2.456,32.107,32.107,0,0,0-5.468-3.467,21.228,21.228,0,0,1-2.4-1.248,11.371,11.371,0,0,1,2.553.936,26.046,26.046,0,0,1,5.627,3.4,19.8,19.8,0,0,1,2.6,2.544,15.523,15.523,0,0,1,1.671,2.456,11.3,11.3,0,0,1,.819,1.822A2.112,2.112,0,0,1,338.512,434.211Z" transform="translate(-325.056 -422.339)" fill="#263238"/>
          </g>
        </g>
      </g>
    </g>
    <path id="Rectángulo_38065" data-name="Rectángulo 38065" d="M0,0H110a10,10,0,0,1,10,10V20a10,10,0,0,1-10,10H0a0,0,0,0,1,0,0V0A0,0,0,0,1,0,0Z" transform="translate(205 8662.474)" fill="#ffd947"/>
    <path id="Trazado_135505" data-name="Trazado 135505" d="M8.736-5.1H3.911L3.023,0H.018L2.232-12.8h8.323l-.413,2.382H4.834l-.51,2.944H9.149ZM12.568,0h-2.9L11.32-9.51h2.9Zm-.993-11.909a1.341,1.341,0,0,1,.453-1.072,1.625,1.625,0,0,1,1.138-.431,1.678,1.678,0,0,1,1.129.387,1.318,1.318,0,0,1,.47,1.011,1.344,1.344,0,0,1-.448,1.077,1.63,1.63,0,0,1-1.143.426,1.7,1.7,0,0,1-1.121-.382A1.3,1.3,0,0,1,11.575-11.909ZM14.9-4.772a7.226,7.226,0,0,1,.787-2.593,4.564,4.564,0,0,1,1.551-1.753,3.735,3.735,0,0,1,2.109-.576,2.6,2.6,0,0,1,2.162,1.028l.308-.853,2.672.009L22.931-.369a4.467,4.467,0,0,1-1.7,3.05,5.4,5.4,0,0,1-3.568,1.063,5.1,5.1,0,0,1-1.837-.378,3.957,3.957,0,0,1-1.521-1.09L15.68.571a2.489,2.489,0,0,0,1.986.993A2.324,2.324,0,0,0,20.109-.483l.07-.29a2.973,2.973,0,0,1-2.171.949A2.932,2.932,0,0,1,16.4-.286a3.034,3.034,0,0,1-1.09-1.305,5.076,5.076,0,0,1-.448-1.9A8.253,8.253,0,0,1,14.9-4.772Zm2.856.94a2.306,2.306,0,0,0,.29,1.257.984.984,0,0,0,.844.466,1.933,1.933,0,0,0,1.485-.633l.747-4.034a1.281,1.281,0,0,0-1.178-.633,1.683,1.683,0,0,0-1.415.716,3.861,3.861,0,0,0-.721,1.929Q17.754-4.21,17.754-3.832ZM28.723-8.473a3.107,3.107,0,0,1,2.452-1.222A2.472,2.472,0,0,1,33.3-8.648a3.981,3.981,0,0,1,.5,2.742L32.81,0H29.918l.993-5.948a3.079,3.079,0,0,0,.018-.563.878.878,0,0,0-.967-.9,1.873,1.873,0,0,0-1.389.572L27.36,0H24.469l2.347-13.5h2.892Zm11.18-3.4L39.489-9.51H41.01l-.36,2.057H39.129l-.738,4.368a1.164,1.164,0,0,0,.057.677q.119.229.593.246a6.873,6.873,0,0,0,.756-.044L39.586-.062a4.673,4.673,0,0,1-1.556.22,2.563,2.563,0,0,1-2.013-.791,2.7,2.7,0,0,1-.545-2.1l.773-4.72H35.068L35.42-9.51H36.6l.413-2.364Z" transform="translate(246 8682.474)" fill="#3c3fa7"/>
  </g>
</svg>
