<svg xmlns="http://www.w3.org/2000/svg" xmlns:xlink="http://www.w3.org/1999/xlink" width="124.451" height="132.225" viewBox="0 0 124.451 132.225">
  <defs>
    <clipPath id="clip-path">
      <rect id="Rectángulo_34809" data-name="Rectángulo 34809" width="88" height="88" transform="translate(337 1217)" fill="#fff" stroke="#707070" stroke-width="1"/>
    </clipPath>
  </defs>
  <g id="Grupo_88525" data-name="Grupo 88525" transform="translate(-737.775 -1204)">
    <circle id="Elipse_4823" data-name="Elipse 4823" cx="57" cy="57" r="57" transform="translate(743 1204)" fill="#ffd947"/>
    <g id="Enmascarar_grupo_89" data-name="Enmascarar grupo 89" transform="translate(1422.254 112.931) rotate(45)" clip-path="url(#clip-path)">
      <g id="reloj-de-arena" transform="translate(337 1217)">
        <g id="Grupo_88430" data-name="Grupo 88430">
          <path id="Trazado_120272" data-name="Trazado 120272" d="M67.639,72.957v-6.3c0-.838.309-1.673.239-2.5a29.823,29.823,0,0,0-8.63-18.586,2.235,2.235,0,0,1,0-3.161q.444-.444.868-.905l4.554-6.941,2.79-7.677a29.817,29.817,0,0,0,.523-5.564V15.043L42.809,12.928,20.7,15.043v6.278A29.822,29.822,0,0,0,29.44,42.408a2.235,2.235,0,0,1,0,3.161,29.99,29.99,0,0,0-8.907,21.088v6.3Z" fill="#d3effd"/>
          <path id="Trazado_120273" data-name="Trazado 120273" d="M31.183,48a26.211,26.211,0,0,0-7.728,18.657v6.3H20.361v-6.3c0-.864-.306-1.725-.232-2.579a29.837,29.837,0,0,1,8.623-18.509,2.237,2.237,0,0,0,0-3.16q-.445-.445-.869-.906l-4.835-7.888L20.54,26.882a29.807,29.807,0,0,1-.523-5.562V15.042l1.442-.894,2,.894v6.279a26.211,26.211,0,0,0,7.728,18.657A5.677,5.677,0,0,1,31.183,48Z" fill="#b2e5fb"/>
          <path id="Trazado_120274" data-name="Trazado 120274" d="M67.983,66.656v2.862l-.417,3.438H20.248l-.057-6.239c0-.865.361-1.7.435-2.555l-.094-.038c3.83-5.13,11.478-5.979,14.308-6.208a1.719,1.719,0,0,0,1.479-1.136l1.613-4.523c1.069-3-.833-6.937-3.943-7.617a12.2,12.2,0,0,1-5.9-3.4,28.35,28.35,0,0,1-7.3-14.159c1.328,0,2.249-.155,3.313-.076,8.326.622,9.623,3.311,20.061,3.311,11.7,0,11.8-3.377,23.287-3.437A29.835,29.835,0,0,1,60.123,41.5l-.007.007a12.161,12.161,0,0,1-5.888,3.389,5.316,5.316,0,0,0-3.8,7l1.613,4.523a1.719,1.719,0,0,0,1.479,1.136c2.83.229,10.53,1.479,14.359,6.609q.1,1.243.1,2.5Z" fill="#ffa95f"/>
          <path id="Trazado_120275" data-name="Trazado 120275" d="M67.983,69.519v3.438l-23.732,1.01-24.234-1.01v-6.3q0-1.3.112-2.579v0c3.83-5.13,11.522-6.3,14.352-6.53a1.719,1.719,0,0,0,1.479-1.136l1.613-4.523a5.316,5.316,0,0,0-3.8-7A12.161,12.161,0,0,1,27.884,41.5l-.007-.007A29.838,29.838,0,0,1,20.54,26.883c1.327,0,2.507.048,3.571.127.277,1,.555,1.979.751,2.653a17.558,17.558,0,0,0,.677,1.936,26.349,26.349,0,0,0,4.817,7.513,8.744,8.744,0,0,0,4.152,2.421A8.659,8.659,0,0,1,40.216,45.8a8.834,8.834,0,0,1,.595,7.246L39.2,57.565a5.165,5.165,0,0,1-4.441,3.407c-1.31.107-7.552.782-11.022,4.19a.865.865,0,0,0-.265.586q-.015.456-.015.908v2a.86.86,0,0,0,.86.86Z" fill="#ff9161"/>
          <path id="Trazado_120276" data-name="Trazado 120276" d="M19.845,72.957H68.155a4.3,4.3,0,0,1,4.284,3.954c.009.113-.33.228-.33.344v2.579H16.063V77.255c0-1.893.708-3.5,2.407-4.073a4.293,4.293,0,0,1,1.376-.225Z" fill="#966a5b"/>
          <path id="Trazado_120277" data-name="Trazado 120277" d="M72.453,77.255v2.579L44,80.611l-28.453-.777V77.255a4.3,4.3,0,0,1,2.923-4.073v2.869a.86.86,0,0,0,.86.86H72.437C72.448,77.025,72.453,77.14,72.453,77.255Z" fill="#845752"/>
          <path id="Trazado_120278" data-name="Trazado 120278" d="M15.442,79.834H72.557a4.3,4.3,0,0,1,4.211,3.432c.057.28-.257.226-.257.522v.86a1.719,1.719,0,0,1-1.719,1.719H13.207a1.719,1.719,0,0,1-1.719-1.719v-.86a3.655,3.655,0,0,1,1.35-2.908,3.776,3.776,0,0,1,1.738-.959A4.322,4.322,0,0,1,15.442,79.834Z" fill="#966a5b"/>
          <path id="Trazado_120279" data-name="Trazado 120279" d="M76.856,84.132v.86a1.72,1.72,0,0,1-1.719,1.719H12.864a1.72,1.72,0,0,1-1.719-1.719v-.86a4.3,4.3,0,0,1,3.438-4.212v2.149a1.2,1.2,0,0,0,1.2,1.2H76.77A4.3,4.3,0,0,1,76.856,84.132Z" fill="#845752"/>
          <path id="Trazado_120280" data-name="Trazado 120280" d="M67.708,14.631,20.189,14.7a4.3,4.3,0,0,1-4.3-4.3V7.822l29.189-1.2L72.453,8.166v2.579a4.29,4.29,0,0,1-.225,1.375C71.655,13.819,69.6,14.631,67.708,14.631Z" fill="#966a5b"/>
          <path id="Trazado_120281" data-name="Trazado 120281" d="M72.228,12.12a4.3,4.3,0,0,1-4.073,2.923H19.845a4.3,4.3,0,0,1-4.3-4.3V8.166l1.441-.6,1.482.6v.516a3.437,3.437,0,0,0,3.438,3.438Z" fill="#845752"/>
          <path id="Trazado_120282" data-name="Trazado 120282" d="M72.386,7.994h-56.6c-2.374,0-4.47-1.58-4.47-3.954v-.86a1.719,1.719,0,0,1,1.719-1.719l1.032-.172H75.136a1.719,1.719,0,0,1,1.719,1.719v.86a4.29,4.29,0,0,1-.225,1.375A4.378,4.378,0,0,1,72.386,7.994Z" fill="#966a5b"/>
          <path id="Trazado_120283" data-name="Trazado 120283" d="M76.63,5.243a4.3,4.3,0,0,1-4.073,2.923H15.443a4.3,4.3,0,0,1-4.3-4.3v-.86a1.72,1.72,0,0,1,1.719-1.719h1.2v.688a3.266,3.266,0,0,0,3.266,3.266Z" fill="#845752"/>
        </g>
        <path id="Trazado_120284" data-name="Trazado 120284" d="M65.033,34.316a1.288,1.288,0,0,0,1.695-.673A30.937,30.937,0,0,0,69.272,21.32v-5.1a5.6,5.6,0,0,0,4.47-5.475V9.328a5.6,5.6,0,0,0,4.4-5.46v-.86A3.012,3.012,0,0,0,75.136,0H12.864A3.012,3.012,0,0,0,9.855,3.009v.86a5.6,5.6,0,0,0,4.4,5.46v1.417a5.6,5.6,0,0,0,4.47,5.475v5.1A30.888,30.888,0,0,0,26.958,42.4l.011.013,0,0c.283.307.572.61.869.907a.946.946,0,0,1,0,1.337,31.269,31.269,0,0,0-2.788,3.2,1.289,1.289,0,1,0,2.054,1.559,28.667,28.667,0,0,1,2.557-2.932,3.5,3.5,0,0,0,.864-1.426,11.843,11.843,0,0,0,2.969,1.1,3.872,3.872,0,0,1,2.585,1.938,4.1,4.1,0,0,1,.277,3.364l-1.613,4.523a.429.429,0,0,1-.369.283c-2.567.209-8.151,1.025-12.38,4.187a28.584,28.584,0,0,1,2.1-6.1,1.289,1.289,0,0,0-2.327-1.112,31.3,31.3,0,0,0-3.043,13.419V71.78a5.6,5.6,0,0,0-4.47,5.475v1.417a5.6,5.6,0,0,0-4.4,5.46v.86A3.012,3.012,0,0,0,12.864,88H75.136a3.012,3.012,0,0,0,3.009-3.009v-.86a5.6,5.6,0,0,0-4.4-5.46V77.255a5.6,5.6,0,0,0-4.47-5.475V66.657a30.908,30.908,0,0,0-9.112-22,.947.947,0,0,1,0-1.337,31.2,31.2,0,0,0,3.513-4.192,1.289,1.289,0,1,0-2.114-1.476,28.614,28.614,0,0,1-2.365,2.95,10.919,10.919,0,0,1-5.24,3.03,6.5,6.5,0,0,0-4.289,3.207,6.678,6.678,0,0,0-.45,5.481l1.613,4.523a3.013,3.013,0,0,0,2.589,1.988c2.816.229,9.687,1.253,13.206,5.781.117,1.209.061,5.747.073,7.056H44a1.289,1.289,0,0,0,0,2.579H68.155a3.012,3.012,0,0,1,3.009,3.009v1.289H16.837V77.255a3.012,3.012,0,0,1,3.009-3.009H37.961a1.289,1.289,0,1,0,0-2.579H21.307c.018-1.679-.057-5.388.078-7.062,3.52-4.523,10.386-5.546,13.2-5.775a3.013,3.013,0,0,0,2.589-1.988l1.613-4.523a6.678,6.678,0,0,0-.45-5.481,6.5,6.5,0,0,0-4.289-3.207,10.914,10.914,0,0,1-5.232-3.022A28.3,28.3,0,0,1,22.133,28.18a32.521,32.521,0,0,1,10.193,1.657A35.631,35.631,0,0,0,44.172,31.61a35.631,35.631,0,0,0,11.846-1.773,32.378,32.378,0,0,1,9.838-1.65,28.59,28.59,0,0,1-1.5,4.434,1.289,1.289,0,0,0,.673,1.695ZM53.624,56.26a.43.43,0,0,1-.369-.284l-1.613-4.523a4.1,4.1,0,0,1,.277-3.364A3.872,3.872,0,0,1,54.5,46.151a11.849,11.849,0,0,0,2.969-1.1,3.5,3.5,0,0,0,.864,1.426,28.34,28.34,0,0,1,7.685,13.98c-4.231-3.173-9.827-3.991-12.4-4.2ZM75.566,84.132v.86a.43.43,0,0,1-.43.43H12.864a.43.43,0,0,1-.43-.43v-.86a3.012,3.012,0,0,1,3.009-3.009H72.558A3.012,3.012,0,0,1,75.566,84.132ZM16.837,10.745V9.456h9.24a1.289,1.289,0,1,0,0-2.579H15.443a3.012,3.012,0,0,1-3.009-3.009v-.86a.43.43,0,0,1,.43-.43H75.136a.43.43,0,0,1,.43.43v.86a3.012,3.012,0,0,1-3.009,3.009H32.094a1.289,1.289,0,1,0,0,2.579H71.163v1.289a3.012,3.012,0,0,1-3.009,3.009H19.845a3.012,3.012,0,0,1-3.009-3.009ZM55.278,27.367a33.024,33.024,0,0,1-11.105,1.665,33.019,33.019,0,0,1-11.105-1.665A35.4,35.4,0,0,0,21.623,25.6a28.939,28.939,0,0,1-.317-4.275V16.332H66.693v4.988a28.624,28.624,0,0,1-.32,4.278A35.228,35.228,0,0,0,55.278,27.367Z"/>
      </g>
    </g>
  </g>
</svg>
