<svg xmlns="http://www.w3.org/2000/svg" xmlns:xlink="http://www.w3.org/1999/xlink" width="85" height="85" viewBox="0 0 85 85">
  <defs>
    <clipPath id="clip-path">
      <rect id="Rectángulo_35501" data-name="Rectángulo 35501" width="85" height="85" transform="translate(810 2660)" fill="#fff" stroke="#707070" stroke-width="1"/>
    </clipPath>
  </defs>
  <g id="Grupo_158909" data-name="Grupo 158909" transform="translate(-810 -2660)">
    <circle id="Elipse_4864" data-name="Elipse 4864" cx="42.5" cy="42.5" r="42.5" transform="translate(810 2660)" fill="#ffd947"/>
    <g id="Enmascarar_grupo_93" data-name="Enmascarar grupo 93" clip-path="url(#clip-path)">
      <g id="pie-grande" transform="translate(810.001 2660)">
        <g id="Grupo_93401" data-name="Grupo 93401">
          <g id="Grupo_93396" data-name="Grupo 93396">
            <circle id="Elipse_4865" data-name="Elipse 4865" cx="5.872" cy="5.872" r="5.872" transform="translate(9.843 28.533)" fill="#fedbbd"/>
            <circle id="Elipse_4866" data-name="Elipse 4866" cx="5.872" cy="5.872" r="5.872" transform="translate(63.418 28.533)" fill="#fedbbd"/>
          </g>
          <path id="Trazado_120467" data-name="Trazado 120467" d="M81.572,83.76V80.993a20.98,20.98,0,0,0-20.98-20.98H24.414a20.98,20.98,0,0,0-20.98,20.98V83.76Z" fill="#ea9b58"/>
          <path id="Trazado_120468" data-name="Trazado 120468" d="M21.308,83.76A10.49,10.49,0,0,1,31.8,73.269H53.207A10.49,10.49,0,0,1,63.7,83.76Z" fill="#a44f3e"/>
          <path id="Trazado_120469" data-name="Trazado 120469" d="M62.122,9.725l2.42-2.581a21.482,21.482,0,0,0-6.01-2.22L59.752,1.25a12.869,12.869,0,0,0-6.986,2.025,27.023,27.023,0,0,0-20.525,0A12.868,12.868,0,0,0,25.254,1.25l1.219,3.674a21.482,21.482,0,0,0-6.01,2.22l2.42,2.581A26.858,26.858,0,0,0,15.549,28.2V52.075a26.954,26.954,0,1,0,53.907,0V28.2A26.855,26.855,0,0,0,62.122,9.725Z" fill="#ea9b58"/>
          <path id="Trazado_120470" data-name="Trazado 120470" d="M62.122,9.725l2.42-2.581a21.482,21.482,0,0,0-6.01-2.22L59.752,1.25a12.869,12.869,0,0,0-6.986,2.025c-.1-.039-.192-.077-.288-.115A26.583,26.583,0,0,0,42.5,1.25a27.192,27.192,0,0,0-3.32.2A47.955,47.955,0,0,1,57.507,7.565l-2.025,2.16A26.858,26.858,0,0,1,62.816,28.2V52.075a26.958,26.958,0,0,1-23.633,26.75,27.225,27.225,0,0,0,3.32.2A26.954,26.954,0,0,0,69.456,52.075V28.2A26.858,26.858,0,0,0,62.122,9.725Z" fill="#d88a55"/>
          <g id="Grupo_93397" data-name="Grupo 93397">
            <path id="Trazado_120471" data-name="Trazado 120471" d="M63.517,22.791a9.112,9.112,0,0,0-13.131-3.429A14.217,14.217,0,0,1,42.5,21.684,14.662,14.662,0,0,1,34.53,19.41,9.124,9.124,0,0,0,21.3,23.177c-1.357,2.99-1,6.4-1,9.6A11.2,11.2,0,0,0,24.869,41.8c2.983,2.2,2.987,5.435,2.987,8.764a14.646,14.646,0,0,0,29.292,0c0-3.343-.018-6.545,2.987-8.764A11.2,11.2,0,0,0,64.7,32.774c0-3.347.368-6.89-1.18-9.983Z" fill="#fedbbd"/>
          </g>
          <g id="Grupo_93400" data-name="Grupo 93400">
            <g id="Grupo_93398" data-name="Grupo 93398">
              <path id="Trazado_120472" data-name="Trazado 120472" d="M46.556,34.479H38.53a2.9,2.9,0,0,0-2.925,2.71,2.848,2.848,0,0,0,2.845,2.986.83.83,0,0,1,.876.933,3.244,3.244,0,0,0,3.237,3.259,3.177,3.177,0,0,0,3.116-3.176.862.862,0,0,1,.787-1.016A2.907,2.907,0,0,0,49.4,37.456,2.848,2.848,0,0,0,46.556,34.479Z" fill="#a44f3e"/>
            </g>
            <g id="Grupo_93399" data-name="Grupo 93399">
              <path id="Trazado_120473" data-name="Trazado 120473" d="M33.27,46.531v6.484h5.713S38.983,46.531,33.27,46.531Z" fill="#f9f3f1"/>
              <path id="Trazado_120474" data-name="Trazado 120474" d="M51.735,46.531v6.484H46.023S46.023,46.531,51.735,46.531Z" fill="#f9f3f1"/>
            </g>
          </g>
        </g>
        <g id="Grupo_93402" data-name="Grupo 93402">
          <path id="Trazado_120475" data-name="Trazado 120475" d="M78.722,68.136a22.167,22.167,0,0,0-9.336-7.559A28.239,28.239,0,0,0,70.7,52.072V41.38c7.562-1.578,7.544-12.373-.012-13.954A28.064,28.064,0,0,0,63.811,9.74l1.636-1.745a1.245,1.245,0,0,0-.336-1.957,26.067,26.067,0,0,0-4.97-2.02l.788-2.375A1.245,1.245,0,0,0,59.784.005a13.829,13.829,0,0,0-7.127,1.886,28.305,28.305,0,0,0-20.312,0A13.808,13.808,0,0,0,25.217.005a1.245,1.245,0,0,0-1.146,1.637l.788,2.375a26.084,26.084,0,0,0-4.97,2.02,1.245,1.245,0,0,0-.336,1.957L21.189,9.74a28.065,28.065,0,0,0-6.875,17.686C6.755,29.011,6.745,39.8,14.3,41.38V52.072a28.1,28.1,0,0,0,1.312,8.505A22.293,22.293,0,0,0,2.188,80.988v2.767a1.245,1.245,0,0,0,2.49,0C4.06,74.709,8.1,66.7,16.474,62.919a28.348,28.348,0,0,0,8.541,11.258,11.707,11.707,0,0,0-4.953,9.578,1.245,1.245,0,1,0,2.49,0,9.227,9.227,0,0,1,4.637-8.016c8.755,5.948,21.767,6.031,30.638.01a9.2,9.2,0,0,1,4.622,8.007,1.245,1.245,0,0,0,2.49,0A11.674,11.674,0,0,0,60,74.185a28.682,28.682,0,0,0,2.489-2.224A1.245,1.245,0,1,0,60.722,70.2,25.706,25.706,0,0,1,16.793,52.072V28.2a25.6,25.6,0,0,1,6.995-17.624,1.245,1.245,0,0,0,0-1.705L22.527,7.526a17.943,17.943,0,0,1,4.159-1.376,1.245,1.245,0,0,0,.967-1.619L27.013,2.6a12.34,12.34,0,0,1,4.572,1.733,1.246,1.246,0,0,0,1.128.092,25.8,25.8,0,0,1,19.575,0,1.246,1.246,0,0,0,1.128-.092A12.339,12.339,0,0,1,57.988,2.6l-.641,1.93a1.245,1.245,0,0,0,.967,1.619,17.937,17.937,0,0,1,4.159,1.376L61.211,8.873a1.245,1.245,0,0,0,0,1.705A25.6,25.6,0,0,1,68.207,28.2v23.87a25.669,25.669,0,0,1-3.642,13.195,1.245,1.245,0,0,0,2.136,1.28,28,28,0,0,0,1.826-3.627c8.371,3.774,12.416,11.8,11.794,20.835a1.245,1.245,0,0,0,2.49,0V80.988a22.074,22.074,0,0,0-4.09-12.852ZM11.088,34.4A4.633,4.633,0,0,1,14.3,29.995v8.816A4.611,4.611,0,0,1,11.088,34.4Zm62.825,0A4.61,4.61,0,0,1,70.7,38.811V29.995A4.631,4.631,0,0,1,73.913,34.4Z"/>
          <path id="Trazado_120476" data-name="Trazado 120476" d="M23.5,21.992a1.245,1.245,0,0,0-1.922-1.583c-2.921,3.437-2.564,8.153-2.513,12.364A12.517,12.517,0,0,0,24.129,42.8c2.481,1.832,2.481,4.58,2.481,7.762.8,21.081,31.055,21.036,31.781-.06,0-3.149,0-5.869,2.481-7.7a12.517,12.517,0,0,0,5.066-10.029c0-3.553.336-7.248-1.312-10.54a10.466,10.466,0,0,0-14.921-3.916,13.647,13.647,0,0,1-14.513.039A10.639,10.639,0,0,0,28.134,16.8a1.245,1.245,0,0,0,.327,2.469,8.14,8.14,0,0,1,5.4,1.19,16.152,16.152,0,0,0,17.2-.056A7.957,7.957,0,0,1,62.4,23.348c1.447,2.891,1.049,6.312,1.049,9.425A10.017,10.017,0,0,1,59.394,40.8c-3.513,2.6-3.491,6.4-3.492,9.765-.67,17.745-26.127,17.756-26.8,0,0-3.368,0-7.186-3.492-9.765a10.016,10.016,0,0,1-4.055-8.026c-.016-3.611-.542-7.8,1.945-10.781Z"/>
          <path id="Trazado_120477" data-name="Trazado 120477" d="M39.444,44.345a4.414,4.414,0,0,0,7.473-2.951,4.09,4.09,0,0,0-.364-8.162H38.528a4.094,4.094,0,0,0-.439,8.17,4.576,4.576,0,0,0,1.355,2.943Zm-2.6-7.1a1.663,1.663,0,0,1,1.681-1.524h8.025a1.6,1.6,0,0,1,1.6,1.677c-.049,1.121-.992,1.4-1.892,1.545a2.1,2.1,0,0,0-1.83,2.282,1.941,1.941,0,0,1-1.894,1.894,2.008,2.008,0,0,1-1.969-2.007A2.058,2.058,0,0,0,38.5,38.929a1.714,1.714,0,0,1-1.657-1.683Z"/>
          <path id="Trazado_120478" data-name="Trazado 120478" d="M32.023,46.529v6.484a1.245,1.245,0,0,0,1.245,1.245H51.733a1.245,1.245,0,0,0,1.245-1.245V46.529a1.245,1.245,0,0,0-1.245-1.245c-3.872-.09-6.394,2.923-6.846,6.484H40.115c-.453-3.563-2.975-6.574-6.846-6.484A1.245,1.245,0,0,0,32.023,46.529Zm15.85,3.744a3.815,3.815,0,0,1,2.614-2.354v3.849H47.413A7.23,7.23,0,0,1,47.874,50.272Zm-13.36-2.354c1.713.35,2.792,2.169,3.075,3.849H34.513Z"/>
        </g>
      </g>
    </g>
  </g>
</svg>
