<svg xmlns="http://www.w3.org/2000/svg" width="202" height="137" viewBox="0 0 202 137">
  <g id="Grupo_93376" data-name="Grupo 93376" transform="translate(6609 3153)">
    <g id="Rectángulo_34271" data-name="Rectángulo 34271" transform="translate(-6609 -3153)" fill="#d0f9e5" stroke="#01ac57" stroke-width="1">
      <rect width="202" height="137" rx="10" stroke="none"/>
      <rect x="0.5" y="0.5" width="201" height="136" rx="9.5" fill="none"/>
    </g>
    <rect id="Rectángulo_34268" data-name="Rectángulo 34268" width="177" height="48" rx="10" transform="translate(-6596 -3143)" fill="#01ac57"/>
    <path id="Trazado_135516" data-name="Trazado 135516" d="M-43.8-2.344h-3.969L-48.937,0h-2.523l6.078-11.375h2.117L-41.1,0h-2.336Zm-3.031-1.9h2.742l-.641-4.234ZM-34.953-.875A2.919,2.919,0,0,1-37.281.156a2.172,2.172,0,0,1-1.844-.875,3.2,3.2,0,0,1-.484-2.266l.914-5.469h2.2l-.93,5.5a2.175,2.175,0,0,0-.008.485.8.8,0,0,0,.867.806,2.014,2.014,0,0,0,1.7-.79l1.055-6h2.219L-33.062,0h-2.055Zm7.6-5.07,1.773-2.508H-23.1L-26.164-4.2-24.453,0h-2.234l-1.039-2.641L-29.594,0h-2.492L-28.9-4.422l-1.633-4.031H-28.3ZM-21.117,0h-2.219l1.469-8.453h2.219Zm-.492-10.6a1.1,1.1,0,0,1,.344-.867,1.209,1.209,0,0,1,.867-.344,1.215,1.215,0,0,1,.867.3,1.1,1.1,0,0,1,.383.828,1.132,1.132,0,0,1-.324.844,1.215,1.215,0,0,1-.887.375,1.235,1.235,0,0,1-.863-.3A1.091,1.091,0,0,1-21.609-10.6ZM-16.922,0h-2.219l2.086-12h2.211Zm4.2,0h-2.219l1.469-8.453h2.219Zm-.492-10.6a1.1,1.1,0,0,1,.344-.867,1.209,1.209,0,0,1,.867-.344,1.215,1.215,0,0,1,.867.3,1.1,1.1,0,0,1,.383.828,1.132,1.132,0,0,1-.324.844,1.215,1.215,0,0,1-.887.375,1.235,1.235,0,0,1-.863-.3A1.091,1.091,0,0,1-13.219-10.6ZM-5.969,0a2.281,2.281,0,0,1-.086-.766A2.863,2.863,0,0,1-8.211.156a2.594,2.594,0,0,1-1.84-.723,2.186,2.186,0,0,1-.684-1.746,2.527,2.527,0,0,1,1.16-2.121,5.266,5.266,0,0,1,2.965-.738l1.031.016.109-.508a1.764,1.764,0,0,0,.023-.492.846.846,0,0,0-.277-.574.955.955,0,0,0-.629-.215,1.345,1.345,0,0,0-.875.254,1.231,1.231,0,0,0-.461.777L-9.9-5.906A2.457,2.457,0,0,1-8.785-7.871a4.312,4.312,0,0,1,2.613-.738,3.117,3.117,0,0,1,2.25.855,2.5,2.5,0,0,1,.68,2.121l-.648,4.047-.039.5A2.412,2.412,0,0,0-3.8-.148L-3.8,0Zm-1.7-1.555A2.017,2.017,0,0,0-6-2.383l.273-1.461-.766-.008a2.139,2.139,0,0,0-1.758.742,1.292,1.292,0,0,0-.242.633.75.75,0,0,0,.176.668A.891.891,0,0,0-7.664-1.555ZM3.328-6.336a4.548,4.548,0,0,0-.742-.078,2.136,2.136,0,0,0-1.867.883L-.258,0h-2.2L-.992-8.453l2.07-.008L.875-7.43a2.325,2.325,0,0,1,1.969-1.2,3.214,3.214,0,0,1,.766.109Zm3.68,3.117L9.422-8.453h2.453L6.93,1.273A4.231,4.231,0,0,1,5.684,2.914a2.723,2.723,0,0,1-1.652.523,5.035,5.035,0,0,1-1.062-.164l.164-1.719.3.016A1.651,1.651,0,0,0,5.016.781l.484-.9L4.117-8.453H6.4ZM20.773-6.367h2.734l-.359,2.039H20.422l-.555,3.188h-2.1l.555-3.187H15.57l.359-2.039h2.742L19.2-9.422h2.1ZM31.211-8.461l-.187,1a3.042,3.042,0,0,1,2.461-1.148,2.028,2.028,0,0,1,1.766.875,3.526,3.526,0,0,1,.414,2.359L34.773,0h-2.2l.906-5.4a2.528,2.528,0,0,0,.016-.555.9.9,0,0,0-1-.82,1.9,1.9,0,0,0-1.555.8L29.883,0h-2.2l1.469-8.453Zm10.125-.148a3.39,3.39,0,0,1,1.926.574A3.234,3.234,0,0,1,44.449-6.5a4.762,4.762,0,0,1,.27,2.176,5.143,5.143,0,0,1-1.4,3.262A3.96,3.96,0,0,1,40.3.156,3.38,3.38,0,0,1,38.391-.41,3.222,3.222,0,0,1,37.2-1.937a4.657,4.657,0,0,1-.273-2.156,5.3,5.3,0,0,1,1.422-3.328A3.878,3.878,0,0,1,41.336-8.609ZM39.109-3.294a1.95,1.95,0,0,0,.352,1.182,1.168,1.168,0,0,0,.945.449A1.712,1.712,0,0,0,42-2.6a4.647,4.647,0,0,0,.539-2.531,2.122,2.122,0,0,0-.363-1.2,1.149,1.149,0,0,0-.949-.464,1.715,1.715,0,0,0-1.574.924A4.6,4.6,0,0,0,39.109-3.294ZM49.82-10.531l-.367,2.078h1.406L50.57-6.8H49.164l-.719,4.234a1.077,1.077,0,0,0,.063.609q.109.211.531.227.125.008.672-.039L49.555-.039a3.706,3.706,0,0,1-1.266.18,1.985,1.985,0,0,1-1.617-.68,2.456,2.456,0,0,1-.437-1.8L46.961-6.8h-1.2l.289-1.656h1.2l.359-2.078ZM-39.793,15.656h-3.969L-44.934,18h-2.523l6.078-11.375h2.117L-37.1,18h-2.336Zm-3.031-1.9h2.742l-.641-4.234Zm11.875,3.367a2.919,2.919,0,0,1-2.328,1.031,2.172,2.172,0,0,1-1.844-.875,3.2,3.2,0,0,1-.484-2.266l.914-5.469h2.2l-.93,5.5a2.175,2.175,0,0,0-.008.485.8.8,0,0,0,.867.806,2.014,2.014,0,0,0,1.7-.79l1.055-6h2.219L-29.059,18h-2.055Zm7.6-5.07,1.773-2.508H-19.1L-22.16,13.8l1.711,4.2h-2.234l-1.039-2.641L-25.59,18h-2.492l3.188-4.422-1.633-4.031h2.234ZM-17.113,18h-2.219l1.469-8.453h2.219Zm-.492-10.6a1.1,1.1,0,0,1,.344-.867,1.209,1.209,0,0,1,.867-.344,1.215,1.215,0,0,1,.867.3,1.1,1.1,0,0,1,.383.828,1.132,1.132,0,0,1-.324.844,1.215,1.215,0,0,1-.887.375,1.235,1.235,0,0,1-.863-.3A1.091,1.091,0,0,1-17.605,7.4ZM-12.918,18h-2.219l2.086-12h2.211Zm4.2,0h-2.219l1.469-8.453h2.219ZM-9.215,7.4a1.1,1.1,0,0,1,.344-.867A1.209,1.209,0,0,1-8,6.188a1.215,1.215,0,0,1,.867.3,1.1,1.1,0,0,1,.383.828,1.132,1.132,0,0,1-.324.844,1.215,1.215,0,0,1-.887.375,1.235,1.235,0,0,1-.863-.3A1.091,1.091,0,0,1-9.215,7.4ZM-1.965,18a2.281,2.281,0,0,1-.086-.766,2.863,2.863,0,0,1-2.156.922,2.594,2.594,0,0,1-1.84-.723,2.186,2.186,0,0,1-.684-1.746,2.527,2.527,0,0,1,1.16-2.121,5.266,5.266,0,0,1,2.965-.738l1.031.016.109-.508a1.764,1.764,0,0,0,.023-.492.846.846,0,0,0-.277-.574.955.955,0,0,0-.629-.215,1.345,1.345,0,0,0-.875.254,1.231,1.231,0,0,0-.461.777l-2.211.008a2.457,2.457,0,0,1,1.113-1.965,4.312,4.312,0,0,1,2.613-.738,3.117,3.117,0,0,1,2.25.855,2.5,2.5,0,0,1,.68,2.121L.113,16.414l-.039.5a2.412,2.412,0,0,0,.133.938L.2,18Zm-1.7-1.555A2.017,2.017,0,0,0-2,15.617l.273-1.461-.766-.008a2.139,2.139,0,0,0-1.758.742,1.292,1.292,0,0,0-.242.633.75.75,0,0,0,.176.668A.891.891,0,0,0-3.66,16.445ZM7.332,11.664a4.548,4.548,0,0,0-.742-.078,2.136,2.136,0,0,0-1.867.883L3.746,18h-2.2L3.012,9.547l2.07-.008-.2,1.031a2.325,2.325,0,0,1,1.969-1.2,3.214,3.214,0,0,1,.766.109Zm9.438-.031H19.5l-.359,2.039H16.418l-.555,3.188h-2.1l.555-3.187h-2.75l.359-2.039h2.742L15.2,8.578h2.1ZM27.207,9.539l-.187,1A3.042,3.042,0,0,1,29.48,9.391a2.028,2.028,0,0,1,1.766.875,3.526,3.526,0,0,1,.414,2.359L30.77,18h-2.2l.906-5.4a2.528,2.528,0,0,0,.016-.555.9.9,0,0,0-1-.82,1.9,1.9,0,0,0-1.555.8L25.879,18h-2.2l1.469-8.453Zm10.125-.148a3.39,3.39,0,0,1,1.926.574A3.234,3.234,0,0,1,40.445,11.5a4.762,4.762,0,0,1,.27,2.176,5.143,5.143,0,0,1-1.4,3.262,3.96,3.96,0,0,1-3.02,1.215,3.38,3.38,0,0,1-1.906-.566A3.222,3.222,0,0,1,33.2,16.063a4.657,4.657,0,0,1-.273-2.156,5.3,5.3,0,0,1,1.422-3.328A3.878,3.878,0,0,1,37.332,9.391Zm-2.227,5.315a1.95,1.95,0,0,0,.352,1.182,1.168,1.168,0,0,0,.945.449A1.712,1.712,0,0,0,38,15.4a4.647,4.647,0,0,0,.539-2.531,2.122,2.122,0,0,0-.363-1.2,1.149,1.149,0,0,0-.949-.464,1.715,1.715,0,0,0-1.574.924A4.6,4.6,0,0,0,35.105,14.706ZM45.816,7.469l-.367,2.078h1.406L46.566,11.2H45.16l-.719,4.234a1.077,1.077,0,0,0,.063.609q.109.211.531.227.125.008.672-.039l-.156,1.727a3.706,3.706,0,0,1-1.266.18,1.985,1.985,0,0,1-1.617-.68,2.456,2.456,0,0,1-.437-1.8l.727-4.461h-1.2l.289-1.656h1.2l.359-2.078Z" transform="translate(-6507 -3122)" fill="#12263f"/>
    <path id="Trazado_135517" data-name="Trazado 135517" d="M-26.391-8.617a2.4,2.4,0,0,1,1.906.945L-23.656-12h2.211L-23.523,0h-1.969l.125-.906a2.736,2.736,0,0,1-2.2,1.07A2.433,2.433,0,0,1-28.953-.25a2.607,2.607,0,0,1-.918-1.168,4.7,4.7,0,0,1-.355-1.7A6.4,6.4,0,0,1-30.2-4.07l.047-.352A6.767,6.767,0,0,1-29.434-6.7a3.766,3.766,0,0,1,1.313-1.461A3.094,3.094,0,0,1-26.391-8.617Zm-1.6,4.547a6.327,6.327,0,0,0-.039,1q.078,1.375,1.109,1.4A1.885,1.885,0,0,0-25.3-2.547l.6-3.359a1.248,1.248,0,0,0-1.219-.875,1.606,1.606,0,0,0-1.34.621A4.176,4.176,0,0,0-27.992-4.07ZM-19.437,0h-2.219l1.469-8.453h2.219Zm-.492-10.6a1.1,1.1,0,0,1,.344-.867,1.209,1.209,0,0,1,.867-.344,1.215,1.215,0,0,1,.867.3,1.1,1.1,0,0,1,.383.828,1.132,1.132,0,0,1-.324.844,1.215,1.215,0,0,1-.887.375,1.235,1.235,0,0,1-.863-.3A1.091,1.091,0,0,1-19.93-10.6Zm6.555,1.984a2.4,2.4,0,0,1,1.906.945L-10.641-12H-8.43L-10.508,0h-1.969l.125-.906a2.736,2.736,0,0,1-2.2,1.07A2.433,2.433,0,0,1-15.937-.25a2.607,2.607,0,0,1-.918-1.168,4.7,4.7,0,0,1-.355-1.7,6.4,6.4,0,0,1,.023-.953l.047-.352A6.767,6.767,0,0,1-16.418-6.7a3.766,3.766,0,0,1,1.313-1.461A3.094,3.094,0,0,1-13.375-8.617Zm-1.6,4.547a6.327,6.327,0,0,0-.039,1q.078,1.375,1.109,1.4a1.885,1.885,0,0,0,1.617-.875l.6-3.359a1.248,1.248,0,0,0-1.219-.875,1.606,1.606,0,0,0-1.34.621A4.176,4.176,0,0,0-14.977-4.07ZM.734-6.367H3.469L3.109-4.328H.383L-.172-1.141h-2.1l.555-3.187h-2.75l.359-2.039h2.742l.531-3.055h2.1ZM11.172-8.461l-.187,1a3.042,3.042,0,0,1,2.461-1.148,2.028,2.028,0,0,1,1.766.875,3.526,3.526,0,0,1,.414,2.359L14.734,0h-2.2l.906-5.4a2.528,2.528,0,0,0,.016-.555.9.9,0,0,0-1-.82,1.9,1.9,0,0,0-1.555.8L9.844,0h-2.2L9.109-8.453ZM21.3-8.609a3.39,3.39,0,0,1,1.926.574A3.234,3.234,0,0,1,24.41-6.5a4.762,4.762,0,0,1,.27,2.176,5.143,5.143,0,0,1-1.4,3.262A3.96,3.96,0,0,1,20.258.156,3.38,3.38,0,0,1,18.352-.41a3.222,3.222,0,0,1-1.187-1.527,4.657,4.657,0,0,1-.273-2.156,5.3,5.3,0,0,1,1.422-3.328A3.878,3.878,0,0,1,21.3-8.609ZM19.07-3.294a1.95,1.95,0,0,0,.352,1.182,1.168,1.168,0,0,0,.945.449A1.712,1.712,0,0,0,21.961-2.6,4.647,4.647,0,0,0,22.5-5.128a2.122,2.122,0,0,0-.363-1.2,1.149,1.149,0,0,0-.949-.464,1.715,1.715,0,0,0-1.574.924A4.6,4.6,0,0,0,19.07-3.294Zm10.711-7.237-.367,2.078H30.82L30.531-6.8H29.125l-.719,4.234a1.077,1.077,0,0,0,.063.609q.109.211.531.227.125.008.672-.039L29.516-.039a3.706,3.706,0,0,1-1.266.18,1.985,1.985,0,0,1-1.617-.68,2.456,2.456,0,0,1-.437-1.8L26.922-6.8h-1.2l.289-1.656h1.2l.359-2.078Z" transform="translate(-6512.5 -3069.419)" fill="#3c3fa7"/>
    <path id="Trazado_135518" data-name="Trazado 135518" d="M-15.1-8.617a2.4,2.4,0,0,1,1.906.945L-12.363-12h2.211L-12.23,0H-14.2l.125-.906a2.736,2.736,0,0,1-2.2,1.07A2.433,2.433,0,0,1-17.66-.25a2.607,2.607,0,0,1-.918-1.168,4.7,4.7,0,0,1-.355-1.7,6.4,6.4,0,0,1,.023-.953l.047-.352A6.767,6.767,0,0,1-18.141-6.7a3.766,3.766,0,0,1,1.313-1.461A3.094,3.094,0,0,1-15.1-8.617ZM-16.7-4.07a6.327,6.327,0,0,0-.039,1q.078,1.375,1.109,1.4a1.885,1.885,0,0,0,1.617-.875l.6-3.359a1.248,1.248,0,0,0-1.219-.875,1.606,1.606,0,0,0-1.34.621A4.176,4.176,0,0,0-16.7-4.07ZM-8.145,0h-2.219l1.469-8.453h2.219Zm-.492-10.6a1.1,1.1,0,0,1,.344-.867,1.209,1.209,0,0,1,.867-.344,1.215,1.215,0,0,1,.867.3,1.1,1.1,0,0,1,.383.828,1.132,1.132,0,0,1-.324.844,1.215,1.215,0,0,1-.887.375,1.235,1.235,0,0,1-.863-.3A1.091,1.091,0,0,1-8.637-10.6Zm6.555,1.984a2.4,2.4,0,0,1,1.906.945L.652-12H2.863L.785,0H-1.184l.125-.906a2.736,2.736,0,0,1-2.2,1.07A2.433,2.433,0,0,1-4.645-.25a2.607,2.607,0,0,1-.918-1.168,4.7,4.7,0,0,1-.355-1.7,6.4,6.4,0,0,1,.023-.953l.047-.352A6.767,6.767,0,0,1-5.125-6.7,3.766,3.766,0,0,1-3.812-8.164,3.094,3.094,0,0,1-2.082-8.617Zm-1.6,4.547a6.327,6.327,0,0,0-.039,1q.078,1.375,1.109,1.4A1.885,1.885,0,0,0-1-2.547l.6-3.359a1.248,1.248,0,0,0-1.219-.875,1.606,1.606,0,0,0-1.34.621A4.176,4.176,0,0,0-3.684-4.07ZM6.027-8.461l-.187,1A3.042,3.042,0,0,1,8.3-8.609a2.028,2.028,0,0,1,1.766.875,3.526,3.526,0,0,1,.414,2.359L9.59,0h-2.2l.906-5.4a2.528,2.528,0,0,0,.016-.555.9.9,0,0,0-1-.82,1.9,1.9,0,0,0-1.555.8L4.7,0H2.5L3.965-8.453Zm6.555.594-1.117-.656a6.183,6.183,0,0,0,1.008-2.031L12.73-12h1.758l-.18,1.156A4.806,4.806,0,0,1,12.582-7.867Zm5.906-2.664-.367,2.078h1.406L19.238-6.8H17.832l-.719,4.234a1.077,1.077,0,0,0,.063.609q.109.211.531.227.125.008.672-.039L18.223-.039a3.706,3.706,0,0,1-1.266.18,1.985,1.985,0,0,1-1.617-.68,2.456,2.456,0,0,1-.437-1.8L15.629-6.8h-1.2l.289-1.656h1.2l.359-2.078Z" transform="translate(-6512.5 -3044.205)" fill="#3c3fa7"/>
    <line id="Línea_351" data-name="Línea 351" x2="112" transform="translate(-6568 -3062.842)" fill="none" stroke="#3c3fa7" stroke-linecap="round" stroke-width="2"/>
  </g>
</svg>
