<svg xmlns="http://www.w3.org/2000/svg" width="214" height="236" viewBox="0 0 214 236">
  <g id="Grupo_158910" data-name="Grupo 158910" transform="translate(-693 -2892)">
    <g id="Rectángulo_34987" data-name="Rectángulo 34987" transform="translate(693 2892)" fill="#e1e8ff" stroke="#6b8dff" stroke-width="1">
      <rect width="214" height="236" rx="10" stroke="none"/>
      <rect x="0.5" y="0.5" width="213" height="235" rx="9.5" fill="none"/>
    </g>
    <rect id="Rectángulo_34992" data-name="Rectángulo 34992" width="185" height="111" rx="10" transform="translate(707 2987)" fill="#fff"/>
    <path id="Trazado_135539" data-name="Trazado 135539" d="M-51.627,0h-3.006l2.224-12.8h3Zm7.313,1.1h-2.153l6.645-13.9h2.162ZM-30.34-8.473a3.107,3.107,0,0,1,2.452-1.222,2.472,2.472,0,0,1,2.123,1.046,3.981,3.981,0,0,1,.5,2.742L-26.253,0h-2.892l.993-5.948a3.079,3.079,0,0,0,.018-.563.878.878,0,0,0-.967-.9,1.873,1.873,0,0,0-1.389.572L-31.7,0h-2.892l2.347-13.5h2.892ZM-19.854.176a4.421,4.421,0,0,1-2.272-.6,3.793,3.793,0,0,1-1.507-1.652,4.44,4.44,0,0,1-.4-2.333l.026-.246a5.829,5.829,0,0,1,1.63-3.713,4.51,4.51,0,0,1,3.415-1.314,3.678,3.678,0,0,1,2.092.621A3.468,3.468,0,0,1-15.6-7.4a5.1,5.1,0,0,1,.264,2.381L-15.5-3.814h-5.66A1.854,1.854,0,0,0-20.742-2.6a1.549,1.549,0,0,0,1.178.492,2.993,2.993,0,0,0,2.259-.967l1.213,1.6a3.578,3.578,0,0,1-1.5,1.2,5.263,5.263,0,0,1-2.1.451Zm.7-7.576a1.487,1.487,0,0,0-1.068.385,3.229,3.229,0,0,0-.787,1.347h2.892l.053-.254a1.929,1.929,0,0,0,.018-.577A1.017,1.017,0,0,0-19.151-7.4Zm9.466,8.5h-2.153l6.645-13.9h2.162ZM5.467-2.725q.114-.58-.9-.87l-.624-.158A4.806,4.806,0,0,1,1.705-4.887a2.244,2.244,0,0,1-.668-1.731A2.758,2.758,0,0,1,2.254-8.846a4.633,4.633,0,0,1,2.861-.839,4.292,4.292,0,0,1,2.72.853,2.781,2.781,0,0,1,1.059,2.25L6.012-6.592q.035-1.125-.993-1.125a1.417,1.417,0,0,0-.817.259,1.007,1.007,0,0,0-.448.69q-.149.712,1.257.976A7.3,7.3,0,0,1,6.9-5.12a2.821,2.821,0,0,1,1.02.945,2.35,2.35,0,0,1,.325,1.354,2.541,2.541,0,0,1-.562,1.538A3.642,3.642,0,0,1,6.13-.2a5.557,5.557,0,0,1-2.2.378A4.469,4.469,0,0,1,2.017-.255,3.408,3.408,0,0,1,.637-1.4,2.979,2.979,0,0,1,.123-3.067l2.689.018A1.111,1.111,0,0,0,4.078-1.8a1.661,1.661,0,0,0,.914-.242A1.045,1.045,0,0,0,5.467-2.725Zm7.857-5.748a3.107,3.107,0,0,1,2.452-1.222A2.472,2.472,0,0,1,17.9-8.648a3.981,3.981,0,0,1,.5,2.742L17.411,0H14.52l.993-5.948a3.079,3.079,0,0,0,.018-.563.878.878,0,0,0-.967-.9,1.873,1.873,0,0,0-1.389.572L11.962,0H9.07l2.347-13.5h2.892ZM23.81.176a4.421,4.421,0,0,1-2.272-.6A3.793,3.793,0,0,1,20.03-2.079a4.44,4.44,0,0,1-.4-2.333l.026-.246a5.829,5.829,0,0,1,1.63-3.713A4.51,4.51,0,0,1,24.7-9.686a3.678,3.678,0,0,1,2.092.621A3.468,3.468,0,0,1,28.063-7.4a5.1,5.1,0,0,1,.264,2.381L28.16-3.814H22.5A1.854,1.854,0,0,0,22.922-2.6a1.549,1.549,0,0,0,1.178.492,2.993,2.993,0,0,0,2.259-.967l1.213,1.6a3.578,3.578,0,0,1-1.5,1.2,5.263,5.263,0,0,1-2.1.451Zm.7-7.576a1.487,1.487,0,0,0-1.068.385,3.229,3.229,0,0,0-.787,1.347H25.55l.053-.254A1.929,1.929,0,0,0,25.62-6.5,1.017,1.017,0,0,0,24.513-7.4Zm9.466,8.5H31.825L38.47-12.8h2.162ZM46.819,0h-2.9l1.652-9.51h2.9Zm-.993-11.909a1.341,1.341,0,0,1,.453-1.072,1.625,1.625,0,0,1,1.138-.431,1.678,1.678,0,0,1,1.129.387,1.318,1.318,0,0,1,.47,1.011,1.344,1.344,0,0,1-.448,1.077,1.63,1.63,0,0,1-1.143.426,1.7,1.7,0,0,1-1.121-.382A1.3,1.3,0,0,1,45.826-11.909Zm8.253.035L53.666-9.51h1.521l-.36,2.057H53.306l-.738,4.368a1.164,1.164,0,0,0,.057.677q.119.229.593.246a6.873,6.873,0,0,0,.756-.044L53.763-.062a4.673,4.673,0,0,1-1.556.22,2.563,2.563,0,0,1-2.013-.791,2.7,2.7,0,0,1-.545-2.1l.773-4.72H49.245L49.6-9.51h1.178l.413-2.364ZM-49.5,21.089l1.907-5.6h2.83L-48.59,25h-2.435l-.545-5.607L-54.075,25h-2.452l-.527-9.51h2.716l-.088,5.66,2.435-5.66h2.013Zm8.877,4.087a4.421,4.421,0,0,1-2.272-.6,3.793,3.793,0,0,1-1.507-1.652,4.44,4.44,0,0,1-.4-2.333l.026-.246a5.829,5.829,0,0,1,1.63-3.713,4.51,4.51,0,0,1,3.415-1.314,3.678,3.678,0,0,1,2.092.621A3.468,3.468,0,0,1-36.374,17.6a5.1,5.1,0,0,1,.264,2.381l-.167,1.206h-5.66a1.854,1.854,0,0,0,.422,1.213,1.549,1.549,0,0,0,1.178.492,2.993,2.993,0,0,0,2.259-.967l1.213,1.6a3.578,3.578,0,0,1-1.5,1.2,5.263,5.263,0,0,1-2.1.451Zm.7-7.576a1.487,1.487,0,0,0-1.068.385,3.229,3.229,0,0,0-.787,1.347h2.892l.053-.254a1.929,1.929,0,0,0,.018-.577A1.017,1.017,0,0,0-39.924,17.6Zm9.466,8.5h-2.153l6.645-13.9h2.162ZM-16.3,20.816l2.461-5.326h3.19L-16.22,26.424a4.765,4.765,0,0,1-1.437,1.868,3.266,3.266,0,0,1-1.938.576,5.473,5.473,0,0,1-1.274-.193l.22-2.118h.334a2.394,2.394,0,0,0,.94-.171,1.432,1.432,0,0,0,.677-.664l.413-.791-1.521-9.439h2.988Zm10.178-5.5a3.994,3.994,0,0,1,2.206.637,3.59,3.59,0,0,1,1.367,1.727,5.33,5.33,0,0,1,.312,2.461l-.018.193A5.636,5.636,0,0,1-3.88,23.866a4.575,4.575,0,0,1-3.41,1.31,3.977,3.977,0,0,1-2.188-.628,3.612,3.612,0,0,1-1.367-1.709,5.179,5.179,0,0,1-.321-2.443,5.863,5.863,0,0,1,1.6-3.727A4.547,4.547,0,0,1-6.122,15.314ZM-8.275,20.4l-.026.518q-.123,1.957,1.2,1.992,1.705.053,1.978-2.764l.035-.8a2.155,2.155,0,0,0-.294-1.259,1.073,1.073,0,0,0-.918-.487,1.512,1.512,0,0,0-1.314.654A4.278,4.278,0,0,0-8.275,20.4ZM4.109,23.963a3.148,3.148,0,0,1-2.566,1.222,2.492,2.492,0,0,1-2.1-.976,3.6,3.6,0,0,1-.549-2.566L-.083,15.49H2.808L1.762,21.685a2.064,2.064,0,0,0,0,.466.766.766,0,0,0,.853.748,1.868,1.868,0,0,0,1.556-.722L5.348,15.49H8.257L6.6,25H3.916ZM13.46,26.1H11.307l6.645-13.9h2.162ZM28.674,13.126l-.413,2.364h1.521l-.36,2.057H27.9l-.738,4.368a1.164,1.164,0,0,0,.057.677q.119.229.593.246a6.873,6.873,0,0,0,.756-.044l-.211,2.145a4.673,4.673,0,0,1-1.556.22,2.563,2.563,0,0,1-2.013-.791,2.7,2.7,0,0,1-.545-2.1l.773-4.72H23.84l.352-2.057H25.37l.413-2.364Zm4.843,3.4a3.107,3.107,0,0,1,2.452-1.222,2.472,2.472,0,0,1,2.123,1.046,3.981,3.981,0,0,1,.5,2.742L37.6,25H34.712l.993-5.948a3.079,3.079,0,0,0,.018-.563.878.878,0,0,0-.967-.9,1.873,1.873,0,0,0-1.389.572L32.155,25H29.263L31.61,11.5H34.5ZM44,25.176a4.421,4.421,0,0,1-2.272-.6,3.793,3.793,0,0,1-1.507-1.652,4.44,4.44,0,0,1-.4-2.333l.026-.246a5.829,5.829,0,0,1,1.63-3.713,4.51,4.51,0,0,1,3.415-1.314,3.678,3.678,0,0,1,2.092.621A3.468,3.468,0,0,1,48.256,17.6a5.1,5.1,0,0,1,.264,2.381l-.167,1.206h-5.66a1.854,1.854,0,0,0,.422,1.213,1.549,1.549,0,0,0,1.178.492,2.993,2.993,0,0,0,2.259-.967l1.213,1.6a3.578,3.578,0,0,1-1.5,1.2,5.263,5.263,0,0,1-2.1.451Zm.7-7.576a1.487,1.487,0,0,0-1.068.385,3.229,3.229,0,0,0-.787,1.347h2.892l.053-.254a1.929,1.929,0,0,0,.018-.577A1.017,1.017,0,0,0,44.706,17.6Zm8.42,3.217,2.461-5.326h3.19L53.2,26.424a4.765,4.765,0,0,1-1.437,1.868,3.266,3.266,0,0,1-1.938.576,5.473,5.473,0,0,1-1.274-.193l.22-2.118h.334a2.394,2.394,0,0,0,.94-.171,1.432,1.432,0,0,0,.677-.664l.413-.791L49.619,15.49h2.988Z" transform="translate(800 3037)" fill="#3c3fa7"/>
    <rect id="Rectángulo_35477" data-name="Rectángulo 35477" width="177" height="48" rx="10" transform="translate(712 2918)" fill="#6b8dff"/>
    <path id="Trazado_135538" data-name="Trazado 135538" d="M-50.488-3.078q.172-.883-.953-1.367l-1.281-.531q-2.7-1.211-2.562-3.3a2.91,2.91,0,0,1,.656-1.7,3.9,3.9,0,0,1,1.664-1.16,6.123,6.123,0,0,1,2.32-.4,3.946,3.946,0,0,1,2.715.984,3.27,3.27,0,0,1,1.012,2.555h-2.656a1.591,1.591,0,0,0-.277-1.051,1.2,1.2,0,0,0-.988-.41,2.071,2.071,0,0,0-1.187.313,1.268,1.268,0,0,0-.609.883q-.148.781,1.16,1.281a12.757,12.757,0,0,1,1.9.859A3.141,3.141,0,0,1-47.824-3.1a3.088,3.088,0,0,1-.633,1.727A3.658,3.658,0,0,1-50.039-.227a5.845,5.845,0,0,1-2.27.391A5.479,5.479,0,0,1-54.02-.125a3.765,3.765,0,0,1-1.352-.8A3.462,3.462,0,0,1-56.465-3.7l2.68.008a1.835,1.835,0,0,0,.336,1.324,1.614,1.614,0,0,0,1.289.449,1.934,1.934,0,0,0,1.121-.309A1.281,1.281,0,0,0-50.488-3.078Zm8.656,2.156A2.8,2.8,0,0,1-44.113.164,2.215,2.215,0,0,1-45.984-.7a3.2,3.2,0,0,1-.488-2.281l.914-5.469h2.57l-.93,5.507a1.835,1.835,0,0,0,0,.415.68.68,0,0,0,.758.665,1.661,1.661,0,0,0,1.383-.641l1.047-5.945h2.586L-39.613,0H-42Zm11.945-3.289A6.126,6.126,0,0,1-31.1-.977,3.03,3.03,0,0,1-33.645.164,2.241,2.241,0,0,1-35.566-.883l-.32.883h-2.328l2.086-12h2.57l-.836,4.242a2.551,2.551,0,0,1,1.9-.852,2.381,2.381,0,0,1,1.938.887,3.867,3.867,0,0,1,.734,2.371,8.6,8.6,0,0,1-.039.977Zm-2.555-.152a8.091,8.091,0,0,0,.07-.9q0-1.256-.9-1.31a1.539,1.539,0,0,0-1.336.679l-.609,3.369a1.034,1.034,0,0,0,1.063.663q1.258.039,1.586-1.638l.109-.694Zm7.25-4.09L-26.668.266a3.588,3.588,0,0,1-1.141,2.348,3.47,3.47,0,0,1-2.422.824,8.165,8.165,0,0,1-1.289-.148l.211-2a3.462,3.462,0,0,0,.711.094A1.251,1.251,0,0,0-29.254.18l1.484-8.633Zm-2.383-2.137a1.179,1.179,0,0,1,.406-.956,1.463,1.463,0,0,1,1.008-.376,1.421,1.421,0,0,1,1,.333,1.184,1.184,0,0,1,.422.905,1.2,1.2,0,0,1-.387.94,1.484,1.484,0,0,1-1.027.4,1.482,1.482,0,0,1-1-.349A1.176,1.176,0,0,1-27.574-10.59ZM-20.949.156a3.929,3.929,0,0,1-2.02-.535,3.372,3.372,0,0,1-1.34-1.469,3.946,3.946,0,0,1-.359-2.074l.023-.219a5.182,5.182,0,0,1,1.449-3.3A4.009,4.009,0,0,1-20.16-8.609a3.269,3.269,0,0,1,1.859.552,3.082,3.082,0,0,1,1.133,1.479,4.529,4.529,0,0,1,.234,2.117l-.148,1.072h-5.031a1.648,1.648,0,0,0,.375,1.078,1.377,1.377,0,0,0,1.047.438,2.66,2.66,0,0,0,2.008-.859l1.078,1.426A3.181,3.181,0,0,1-18.937-.245a4.678,4.678,0,0,1-1.871.4Zm.625-6.734a1.322,1.322,0,0,0-.949.342,2.87,2.87,0,0,0-.7,1.2h2.57l.047-.225a1.715,1.715,0,0,0,.016-.513A.9.9,0,0,0-20.324-6.578Zm7.617,4.7a1.106,1.106,0,0,0,.867-.306,1.526,1.526,0,0,0,.4-.834l2.406-.008a3.163,3.163,0,0,1-.551,1.664A3.328,3.328,0,0,1-10.945-.223a4.019,4.019,0,0,1-1.832.379,3.173,3.173,0,0,1-2.6-1.215,4.2,4.2,0,0,1-.742-3.059L-16.1-4.3a5.663,5.663,0,0,1,.719-2.27A4.112,4.112,0,0,1-13.859-8.1a3.941,3.941,0,0,1,2.105-.508,3.143,3.143,0,0,1,2.332.941A3.338,3.338,0,0,1-8.6-5.211L-11-5.219q.039-1.336-.961-1.359-1.359-.047-1.562,2.281l-.07.794-.008.3Q-13.605-1.9-12.707-1.875Zm9.047-8.68-.367,2.1h1.352L-3-6.625H-4.348L-5-2.742a1.035,1.035,0,0,0,.051.6q.105.2.527.219a6.109,6.109,0,0,0,.672-.039L-3.941-.055a4.154,4.154,0,0,1-1.383.2,2.278,2.278,0,0,1-1.789-.7A2.4,2.4,0,0,1-7.6-2.43l.688-4.2H-7.957l.313-1.828H-6.6l.367-2.1ZM1.637.977H-.277L5.629-11.375H7.551Zm15.531-4a1.127,1.127,0,0,0-.426-.937,5.292,5.292,0,0,0-1.5-.7,14.353,14.353,0,0,1-1.75-.7,3.314,3.314,0,0,1-2.211-2.984A2.676,2.676,0,0,1,11.836-10a3.562,3.562,0,0,1,1.559-1.125,6.065,6.065,0,0,1,2.266-.4,5.305,5.305,0,0,1,2.2.438,3.482,3.482,0,0,1,1.512,1.246A3.254,3.254,0,0,1,19.91-8H17.176a1.375,1.375,0,0,0-.426-1.078A1.66,1.66,0,0,0,15.6-9.461a1.872,1.872,0,0,0-1.16.324,1,1,0,0,0-.426.824,1,1,0,0,0,.469.793,5.911,5.911,0,0,0,1.648.734,10.1,10.1,0,0,1,1.938.816,3.256,3.256,0,0,1,1.844,2.93A2.778,2.778,0,0,1,18.785-.7,5,5,0,0,1,15.7.156a6.122,6.122,0,0,1-2.5-.5A3.775,3.775,0,0,1,11.508-1.7a3.542,3.542,0,0,1-.566-1.988h2.75a1.744,1.744,0,0,0,.473,1.348,2.234,2.234,0,0,0,1.535.434A1.765,1.765,0,0,0,16.773-2.2.967.967,0,0,0,17.168-3.023ZM26.23-.914A2.714,2.714,0,0,1,23.973.156a2.662,2.662,0,0,1-2.105-.809,3.4,3.4,0,0,1-.715-2.324V-8.453h2.633v5.492A.946.946,0,0,0,24.84-1.875a1.376,1.376,0,0,0,1.289-.648v-5.93h2.648V0H26.309Zm6.82-7.539V.289A3.068,3.068,0,0,1,32.191,2.6a3.3,3.3,0,0,1-2.375.813,5.607,5.607,0,0,1-1.242-.133V1.289a5.037,5.037,0,0,0,.742.07A.963.963,0,0,0,30.41.273V-8.453Zm-2.836-2.187a1.186,1.186,0,0,1,.406-.927,1.527,1.527,0,0,1,1.055-.362,1.527,1.527,0,0,1,1.055.362,1.186,1.186,0,0,1,.406.927,1.186,1.186,0,0,1-.406.927,1.527,1.527,0,0,1-1.055.362,1.527,1.527,0,0,1-1.055-.362A1.186,1.186,0,0,1,30.215-10.641ZM38.629.156A4.345,4.345,0,0,1,35.48-1a4.006,4.006,0,0,1-1.2-3.02v-.219a5.191,5.191,0,0,1,.48-2.289,3.516,3.516,0,0,1,1.4-1.535,4.233,4.233,0,0,1,2.188-.543A3.659,3.659,0,0,1,41.16-7.5a4.344,4.344,0,0,1,1.031,3.082V-3.4H36.957a1.9,1.9,0,0,0,.617,1.117,1.836,1.836,0,0,0,1.234.406,2.366,2.366,0,0,0,1.953-.875l1.2,1.422A3.363,3.363,0,0,1,40.57-.246,4.713,4.713,0,0,1,38.629.156Zm-.3-6.734q-1.156,0-1.375,1.531h2.656v-.2a1.3,1.3,0,0,0-.32-.98A1.275,1.275,0,0,0,38.332-6.578Zm7.984-3.977v2.1h1.391v1.828H46.316v3.867a.987.987,0,0,0,.172.664.922.922,0,0,0,.68.188,3.862,3.862,0,0,0,.656-.047V-.07A4.859,4.859,0,0,1,46.34.156a2.758,2.758,0,0,1-2.008-.641,2.626,2.626,0,0,1-.648-1.945v-4.2H42.605V-8.453h1.078v-2.1ZM48.176-4.3a4.989,4.989,0,0,1,.492-2.254,3.52,3.52,0,0,1,1.414-1.52,4.259,4.259,0,0,1,2.164-.531,3.887,3.887,0,0,1,2.992,1.176,4.512,4.512,0,0,1,1.094,3.2v.094A4.378,4.378,0,0,1,55.234-1,3.9,3.9,0,0,1,52.262.156a3.942,3.942,0,0,1-2.9-1.082,4.232,4.232,0,0,1-1.18-2.934Zm2.633.164a3.145,3.145,0,0,0,.367,1.719,1.223,1.223,0,0,0,1.086.547q1.406,0,1.438-2.164V-4.3q0-2.273-1.453-2.273-1.32,0-1.43,1.961Z" transform="translate(800 2948)" fill="#12263f"/>
    <line id="Línea_363" data-name="Línea 363" x2="147" transform="translate(726.5 3045.5)" fill="none" stroke="#3c3fa7" stroke-linecap="round" stroke-width="2"/>
  </g>
</svg>
