<svg xmlns="http://www.w3.org/2000/svg" width="33.121" height="26.495" viewBox="0 0 33.121 26.495">
  <g id="proximo" transform="translate(0 -48.016)">
    <g id="Grupo_88086" data-name="Grupo 88086" transform="translate(15.457 48.016)">
      <g id="Grupo_88085" data-name="Grupo 88085" transform="translate(0 0)">
        <path id="Trazado_120208" data-name="Trazado 120208" d="M240.371,58.14l-8.832-8.832a4.415,4.415,0,1,0-6.244,6.244l5.71,5.71-5.71,5.71a4.415,4.415,0,1,0,6.244,6.244l8.832-8.832a4.414,4.414,0,0,0,0-6.244Zm-1.561,4.683-8.832,8.832a2.26,2.26,0,0,1-3.122,0,2.21,2.21,0,0,1,0-3.122l7.271-7.271-7.271-7.271a2.209,2.209,0,0,1,3.122-3.124L238.81,59.7a2.21,2.21,0,0,1,0,3.124Z" transform="translate(-224 -48.016)" fill="#ff5f65"/>
      </g>
    </g>
    <g id="Grupo_88088" data-name="Grupo 88088" transform="translate(0 48.016)">
      <g id="Grupo_88087" data-name="Grupo 88087" transform="translate(0 0)">
        <path id="Trazado_120209" data-name="Trazado 120209" d="M16.371,58.14,7.538,49.308a4.415,4.415,0,1,0-6.244,6.244L7,61.262l-5.71,5.71a4.415,4.415,0,1,0,6.244,6.244l8.832-8.832a4.414,4.414,0,0,0,0-6.244ZM14.81,62.823,5.977,71.656a2.26,2.26,0,0,1-3.122,0,2.21,2.21,0,0,1,0-3.122l7.271-7.271L2.855,53.991a2.209,2.209,0,0,1,3.122-3.124L14.81,59.7a2.21,2.21,0,0,1,0,3.124Z" transform="translate(0 -48.016)" fill="#ff5f65"/>
      </g>
    </g>
  </g>
</svg>
