<svg xmlns="http://www.w3.org/2000/svg" xmlns:xlink="http://www.w3.org/1999/xlink" width="85" height="85" viewBox="0 0 85 85">
  <defs>
    <clipPath id="clip-path">
      <rect id="Rectángulo_35499" data-name="Rectángulo 35499" width="85" height="85" transform="translate(265 2783)" fill="#fff" stroke="#707070" stroke-width="1"/>
    </clipPath>
  </defs>
  <g id="Grupo_158908" data-name="Grupo 158908" transform="translate(-265 -2783)">
    <circle id="Elipse_4861" data-name="Elipse 4861" cx="42.5" cy="42.5" r="42.5" transform="translate(265 2783)" fill="#ffd947"/>
    <g id="Enmascarar_grupo_94" data-name="Enmascarar grupo 94" clip-path="url(#clip-path)">
      <g id="pesadilla" transform="translate(265 2783)">
        <g id="Grupo_93405" data-name="Grupo 93405">
          <path id="Trazado_120479" data-name="Trazado 120479" d="M82.835,25.234c0-7.564-5.964-12.968-13.528-12.968a3.8,3.8,0,0,1-3.222-1.808c-3.064-5-7.572-8.486-13.867-8.486-1.514,0-4.637.059-4.637.059A17.343,17.343,0,0,0,42.371,4.35a3.63,3.63,0,0,1-4.214-.174,14.11,14.11,0,0,0-21.889,6.406,3.721,3.721,0,0,1-2.657,2.323,16.189,16.189,0,0,0-8.929,25.7,3.64,3.64,0,0,1,.757,2.571A17.444,17.444,0,0,0,25.962,59.894a9.062,9.062,0,0,1,6.925,1.531,19.922,19.922,0,0,0,24.347-.863,3.656,3.656,0,0,1,3.592-.618,15.886,15.886,0,0,0,3.982.9s1.642-.234,2.293-.25c8.6-.21,13.791-6.638,13.984-15.234a16.314,16.314,0,0,0-1.908-7.792,3.63,3.63,0,0,1,.283-3.833c1.705-2.283,3.375-5.427,3.375-8.5Z" fill="#be96f9"/>
          <path id="Trazado_120480" data-name="Trazado 120480" d="M80.755,37.334a16.19,16.19,0,0,1-14,23.576,16.512,16.512,0,0,1-1.951-.07A16.189,16.189,0,0,0,74.944,37.832,3.631,3.631,0,0,1,75.228,34a13.693,13.693,0,0,0-10.98-21.879h-.035a3.741,3.741,0,0,1-3.188-1.808A17.423,17.423,0,0,0,47.58,2.032,17.456,17.456,0,0,1,66.836,9.813a3.741,3.741,0,0,0,3.188,1.808h.035A13.693,13.693,0,0,1,81.039,33.5,3.631,3.631,0,0,0,80.755,37.334Z" fill="#9d7ffa"/>
          <circle id="Elipse_4867" data-name="Elipse 4867" cx="4.565" cy="4.565" r="4.565" transform="translate(13.198 74.624)" fill="#876fef"/>
          <path id="Trazado_120481" data-name="Trazado 120481" d="M33.182,55.42a9.118,9.118,0,0,0-4.678.825,4.461,4.461,0,0,1-3.882,0q-.081-.04-.165-.079a6.64,6.64,0,1,0-.359,12.21l1.268.854.112,1.268a9.13,9.13,0,1,0,7.7-15.079Z" fill="#9d7ffa"/>
          <path id="Trazado_120482" data-name="Trazado 120482" d="M25.638,47.132a2.182,2.182,0,0,0,3.175,2.74,6.915,6.915,0,0,1,4.141-1.229c4.773,0,4.773,3.32,9.546,3.32s4.773-3.32,9.546-3.32a6.913,6.913,0,0,1,4.14,1.229,2.152,2.152,0,0,0,1.288.365c1.452-.652,1.818-1.77,1.11-3.3-1.812-3.926-3.438-7.966-3.438-12.29V24.606c0-7.793-4.457-13.859-12.25-13.859-.562,0-1.513-.253-2.057-.189A14.113,14.113,0,0,0,28.389,24.571V34.609a29.884,29.884,0,0,1-2.75,12.523Z" fill="#f5f8f9"/>
          <g id="Grupo_93404" data-name="Grupo 93404">
            <path id="Trazado_120483" data-name="Trazado 120483" d="M57.475,50.236l-1.433-3.1a29.874,29.874,0,0,1-2.751-12.523V24.57A14.112,14.112,0,0,0,40.84,10.557,14.112,14.112,0,0,1,56.611,24.57V34.609a29.876,29.876,0,0,0,2.751,12.523A2.189,2.189,0,0,1,57.475,50.236Z" fill="#e8edf2"/>
            <g id="Grupo_93403" data-name="Grupo 93403">
              <path id="Trazado_120484" data-name="Trazado 120484" d="M36.413,28.555A2.214,2.214,0,0,1,34.2,26.341V24.128a2.213,2.213,0,1,1,4.427,0v2.213A2.214,2.214,0,0,1,36.413,28.555Z" fill="#e8edf2"/>
              <path id="Trazado_120485" data-name="Trazado 120485" d="M48.587,28.555a2.214,2.214,0,0,1-2.213-2.213V24.128a2.213,2.213,0,1,1,4.427,0v2.213A2.213,2.213,0,0,1,48.587,28.555Z" fill="#e8edf2"/>
            </g>
            <ellipse id="Elipse_4868" data-name="Elipse 4868" cx="3.32" cy="5.811" rx="3.32" ry="5.811" transform="translate(39.18 30.547)" fill="#e8edf2"/>
          </g>
        </g>
        <g id="Grupo_93406" data-name="Grupo 93406">
          <path id="Trazado_120486" data-name="Trazado 120486" d="M82.036,34.246A14.808,14.808,0,0,0,85,25.317,14.958,14.958,0,0,0,70.059,10.376H70.02A2.483,2.483,0,0,1,67.9,9.163,18.681,18.681,0,0,0,41.685,3.312a2.382,2.382,0,0,1-2.767-.121A15.2,15.2,0,0,0,29.551,0,15.4,15.4,0,0,0,15.1,10.161a2.472,2.472,0,0,1-1.778,1.533,17.446,17.446,0,0,0-7.663,4.091,1.245,1.245,0,1,0,1.683,1.836A14.95,14.95,0,0,1,13.9,14.115,4.954,4.954,0,0,0,17.44,11,12.9,12.9,0,0,1,29.551,2.49,12.732,12.732,0,0,1,37.4,5.162a4.873,4.873,0,0,0,5.66.227,16.191,16.191,0,0,1,22.718,5.074,4.956,4.956,0,0,0,4.244,2.4h.04A12.465,12.465,0,0,1,82.51,25.317a12.336,12.336,0,0,1-2.469,7.438,4.9,4.9,0,0,0-.392,5.148,14.948,14.948,0,0,1-18.4,20.87,4.922,4.922,0,0,0-4.814.831A18.7,18.7,0,0,1,44.5,63.916c-.593,0-1.188-.031-1.777-.087a10.356,10.356,0,0,0-1.376-4.508A1.245,1.245,0,0,0,39.2,60.572,7.882,7.882,0,0,1,25.822,68.9a7.914,7.914,0,0,0,2.684-2.763,1.245,1.245,0,0,0-2.157-1.245,5.335,5.335,0,0,1-2.684,2.317l-.019.006a5.394,5.394,0,1,1,.424-9.856,5.685,5.685,0,0,0,4.963.011,7.922,7.922,0,0,1,4.042-.711,7.731,7.731,0,0,1,2.427.616,1.245,1.245,0,1,0,.994-2.283,10.221,10.221,0,0,0-3.207-.813,10.416,10.416,0,0,0-5.314.938,3.208,3.208,0,0,1-2.8.012,7.928,7.928,0,0,0-9.609,2.086A16.244,16.244,0,0,1,6.617,43.06a16.489,16.489,0,0,1,.062-1.768,4.87,4.87,0,0,0-1.017-3.45A14.953,14.953,0,0,1,4.1,21.878a1.245,1.245,0,1,0-2.22-1.128A17.443,17.443,0,0,0,3.7,39.378a2.389,2.389,0,0,1,.5,1.693,18.952,18.952,0,0,0-.072,2.037A18.74,18.74,0,0,0,14.314,59.373a7.885,7.885,0,0,0,9.173,10.5,10.424,10.424,0,0,0,8.887,5.022,10.379,10.379,0,0,0,10.219-8.575c.635.057,1.273.089,1.91.089A21.191,21.191,0,0,0,58.029,61.52a2.423,2.423,0,0,1,2.37-.4,17.437,17.437,0,0,0,21.462-24.35,2.4,2.4,0,0,1,.173-2.518Z"/>
          <path id="Trazado_120487" data-name="Trazado 120487" d="M17.764,73.379a5.773,5.773,0,0,0-2.32.482,1.245,1.245,0,0,0,.995,2.283,3.321,3.321,0,1,1-1.967,3.484A1.245,1.245,0,1,0,12,79.953a5.811,5.811,0,1,0,5.761-6.574Z"/>
          <path id="Trazado_120488" data-name="Trazado 120488" d="M56.611,29.182a1.245,1.245,0,0,0,1.245-1.245V24.57a15.356,15.356,0,0,0-30.713,0V34.608a28.834,28.834,0,0,1-2.636,12l0,.008a3.427,3.427,0,0,0,4.991,4.3,5.675,5.675,0,0,1,3.459-1.026,6.111,6.111,0,0,1,4.062,1.437,8.927,8.927,0,0,0,10.968,0,6.111,6.111,0,0,1,4.062-1.437A5.672,5.672,0,0,1,55.5,50.914a3.427,3.427,0,0,0,4.987-4.3,29.12,29.12,0,0,1-2.636-12.823,1.245,1.245,0,0,0-2.49,0,31.6,31.6,0,0,0,2.865,13.867.937.937,0,0,1-1.363,1.177A8.1,8.1,0,0,0,52.046,47.4a8.535,8.535,0,0,0-5.484,1.883,6.459,6.459,0,0,1-8.124,0A8.536,8.536,0,0,0,32.954,47.4a8.1,8.1,0,0,0-4.823,1.433.937.937,0,0,1-1.363-1.177l0-.007a31.341,31.341,0,0,0,2.862-13.038V24.57a12.866,12.866,0,1,1,25.732,0v3.366a1.245,1.245,0,0,0,1.245,1.245Z"/>
          <path id="Trazado_120489" data-name="Trazado 120489" d="M32.954,24.128v2.213a3.459,3.459,0,1,0,6.917,0V24.128a3.459,3.459,0,0,0-6.917,0Zm4.427,0v2.213a.968.968,0,1,1-1.937,0V24.128a.968.968,0,1,1,1.937,0Z"/>
          <path id="Trazado_120490" data-name="Trazado 120490" d="M52.046,26.341V24.128a3.459,3.459,0,0,0-6.917,0v2.213a3.459,3.459,0,0,0,6.917,0Zm-4.427,0V24.128a.968.968,0,0,1,1.937,0v2.213a.968.968,0,0,1-1.937,0Z"/>
          <path id="Trazado_120491" data-name="Trazado 120491" d="M42.5,43.413c2.56,0,4.565-3.1,4.565-7.056S45.06,29.3,42.5,29.3s-4.565,3.1-4.565,7.056S39.94,43.413,42.5,43.413Zm0-11.621c.846,0,2.075,1.779,2.075,4.565s-1.229,4.565-2.075,4.565-2.075-1.779-2.075-4.565S41.654,31.792,42.5,31.792Z"/>
          <path id="Trazado_120492" data-name="Trazado 120492" d="M45.668,19.451l1.946-1.946a1.245,1.245,0,0,0-1.761-1.761L43.907,17.69a1.245,1.245,0,1,0,1.761,1.761Z"/>
          <path id="Trazado_120493" data-name="Trazado 120493" d="M40.213,19.816a1.245,1.245,0,0,0,.881-2.125l-1.946-1.946a1.245,1.245,0,0,0-1.761,1.761l1.946,1.946A1.241,1.241,0,0,0,40.213,19.816Z"/>
        </g>
      </g>
    </g>
  </g>
</svg>
