<svg xmlns="http://www.w3.org/2000/svg" width="202" height="137" viewBox="0 0 202 137">
  <g id="Grupo_93387" data-name="Grupo 93387" transform="translate(6125 3153)">
    <g id="Rectángulo_35434" data-name="Rectángulo 35434" transform="translate(-6125 -3153)" fill="#ffdfe0" stroke="#ff5f65" stroke-width="1">
      <rect width="202" height="137" rx="10" stroke="none"/>
      <rect x="0.5" y="0.5" width="201" height="136" rx="9.5" fill="none"/>
    </g>
    <path id="Trazado_135530" data-name="Trazado 135530" d="M-57.988-2.789l2.406-5.664h2.375L-57.293,0H-59.4l-1.445-8.453h2.234ZM-49.707.156a3.677,3.677,0,0,1-1.965-.543,3.292,3.292,0,0,1-1.277-1.469,4.093,4.093,0,0,1-.328-2.059l.023-.312a5.465,5.465,0,0,1,.719-2.266,4.341,4.341,0,0,1,1.547-1.59,3.827,3.827,0,0,1,2.094-.527,2.924,2.924,0,0,1,2.473,1.2,4.117,4.117,0,0,1,.637,2.962l-.125.962h-5.18a1.814,1.814,0,0,0,.4,1.313,1.521,1.521,0,0,0,1.172.508A2.7,2.7,0,0,0-47.41-2.6l1.008,1.25A3.135,3.135,0,0,1-47.777-.23,4.5,4.5,0,0,1-49.707.156Zm.7-6.945a1.565,1.565,0,0,0-1.082.383,3.363,3.363,0,0,0-.848,1.383H-47.9l.047-.2a2.071,2.071,0,0,0,.008-.594,1.134,1.134,0,0,0-.383-.707A1.2,1.2,0,0,0-49-6.789Zm9.539.453a4.548,4.548,0,0,0-.742-.078,2.136,2.136,0,0,0-1.867.883L-43.051,0h-2.2l1.469-8.453,2.07-.008-.2,1.031a2.325,2.325,0,0,1,1.969-1.2,3.214,3.214,0,0,1,.766.109ZM-31.387-4.2A6.061,6.061,0,0,1-32.605-1,3.033,3.033,0,0,1-35.152.164,2.357,2.357,0,0,1-37.184-.914L-37.5,0h-2.008l2.078-12h2.211l-.852,4.32a2.634,2.634,0,0,1,2.063-.93,2.385,2.385,0,0,1,1.926.879,3.89,3.89,0,0,1,.746,2.387A9.133,9.133,0,0,1-31.387-4.2Zm-2.187-.165A6.554,6.554,0,0,0-33.527-5.4q-.086-1.364-1.125-1.387A1.833,1.833,0,0,0-36.27-5.9l-.609,3.37a1.258,1.258,0,0,0,1.266.878q1.625.047,1.992-2.367ZM-24.426,0h-2.219l1.469-8.453h2.219Zm-.492-10.6a1.1,1.1,0,0,1,.344-.867,1.209,1.209,0,0,1,.867-.344,1.215,1.215,0,0,1,.867.3,1.1,1.1,0,0,1,.383.828,1.132,1.132,0,0,1-.324.844,1.215,1.215,0,0,1-.887.375,1.235,1.235,0,0,1-.863-.3A1.091,1.091,0,0,1-24.918-10.6Zm5.844,2.141-.187,1A3.042,3.042,0,0,1-16.8-8.609a2.028,2.028,0,0,1,1.766.875,3.526,3.526,0,0,1,.414,2.359L-15.512,0h-2.2l.906-5.4a2.528,2.528,0,0,0,.016-.555.9.9,0,0,0-1-.82,1.9,1.9,0,0,0-1.555.8L-20.4,0h-2.2l1.469-8.453ZM-1.715-4.2A6.061,6.061,0,0,1-2.934-1,3.033,3.033,0,0,1-5.48.164,2.357,2.357,0,0,1-7.512-.914L-7.832,0H-9.84l2.078-12h2.211L-6.4-7.68a2.634,2.634,0,0,1,2.063-.93,2.385,2.385,0,0,1,1.926.879,3.89,3.89,0,0,1,.746,2.387A9.133,9.133,0,0,1-1.715-4.2ZM-3.9-4.368A6.554,6.554,0,0,0-3.855-5.4Q-3.941-6.766-4.98-6.789A1.833,1.833,0,0,0-6.6-5.9l-.609,3.37a1.258,1.258,0,0,0,1.266.878q1.625.047,1.992-2.367ZM3.863,0a2.281,2.281,0,0,1-.086-.766A2.863,2.863,0,0,1,1.621.156,2.594,2.594,0,0,1-.219-.566,2.186,2.186,0,0,1-.9-2.312,2.527,2.527,0,0,1,.258-4.434a5.266,5.266,0,0,1,2.965-.738l1.031.016.109-.508a1.764,1.764,0,0,0,.023-.492.846.846,0,0,0-.277-.574.955.955,0,0,0-.629-.215,1.345,1.345,0,0,0-.875.254,1.231,1.231,0,0,0-.461.777l-2.211.008A2.457,2.457,0,0,1,1.047-7.871,4.312,4.312,0,0,1,3.66-8.609a3.117,3.117,0,0,1,2.25.855,2.5,2.5,0,0,1,.68,2.121L5.941-1.586l-.039.5a2.412,2.412,0,0,0,.133.938L6.027,0Zm-1.7-1.555a2.017,2.017,0,0,0,1.664-.828l.273-1.461L3.34-3.852a2.139,2.139,0,0,0-1.758.742,1.292,1.292,0,0,0-.242.633.75.75,0,0,0,.176.668A.891.891,0,0,0,2.168-1.555Zm10.1-.828q.125-.625-.867-.906l-.711-.18q-2.523-.7-2.453-2.453A2.428,2.428,0,0,1,9.3-7.871a3.942,3.942,0,0,1,2.457-.738,3.536,3.536,0,0,1,2.313.758,2.5,2.5,0,0,1,.9,1.977l-2.187-.008a.963.963,0,0,0-1.078-1.1,1.552,1.552,0,0,0-.895.258,1.061,1.061,0,0,0-.465.7q-.117.625.945.883l.313.07a6.285,6.285,0,0,1,1.648.59,2.488,2.488,0,0,1,.879.824,2.04,2.04,0,0,1,.285,1.18,2.251,2.251,0,0,1-.52,1.406,3.18,3.18,0,0,1-1.359.93,4.736,4.736,0,0,1-1.816.3A3.568,3.568,0,0,1,8.371-.652,2.607,2.607,0,0,1,7.418-2.7L9.5-2.687a1.142,1.142,0,0,0,1.3,1.227,1.845,1.845,0,0,0,1-.25A.987.987,0,0,0,12.27-2.383ZM19.441.156a3.677,3.677,0,0,1-1.965-.543A3.292,3.292,0,0,1,16.2-1.855a4.093,4.093,0,0,1-.328-2.059l.023-.312a5.465,5.465,0,0,1,.719-2.266,4.341,4.341,0,0,1,1.547-1.59,3.827,3.827,0,0,1,2.094-.527,2.924,2.924,0,0,1,2.473,1.2,4.117,4.117,0,0,1,.637,2.962l-.125.962h-5.18a1.814,1.814,0,0,0,.4,1.313,1.521,1.521,0,0,0,1.172.508A2.7,2.7,0,0,0,21.738-2.6l1.008,1.25A3.135,3.135,0,0,1,21.371-.23,4.5,4.5,0,0,1,19.441.156Zm.7-6.945a1.565,1.565,0,0,0-1.082.383,3.363,3.363,0,0,0-.848,1.383h3.031l.047-.2A2.071,2.071,0,0,0,21.3-5.82a1.134,1.134,0,0,0-.383-.707A1.2,1.2,0,0,0,20.145-6.789ZM28.434,0l1.18-6.8H28.395l.289-1.648L29.9-8.461l.109-.844a3.332,3.332,0,0,1,1.1-2.121A3.334,3.334,0,0,1,33.4-12.18a7.33,7.33,0,0,1,1.2.163l-.2,1.751a2.732,2.732,0,0,0-.648-.094,1.615,1.615,0,0,0-1,.3,1.355,1.355,0,0,0-.52.918l-.117.69h1.633L33.457-6.8H31.832L30.652,0Zm9.883-8.609a3.39,3.39,0,0,1,1.926.574A3.234,3.234,0,0,1,41.43-6.5,4.762,4.762,0,0,1,41.7-4.32a5.143,5.143,0,0,1-1.4,3.262A3.96,3.96,0,0,1,37.277.156,3.38,3.38,0,0,1,35.371-.41a3.222,3.222,0,0,1-1.187-1.527,4.657,4.657,0,0,1-.273-2.156,5.3,5.3,0,0,1,1.422-3.328A3.878,3.878,0,0,1,38.316-8.609ZM36.09-3.294a1.95,1.95,0,0,0,.352,1.182,1.168,1.168,0,0,0,.945.449A1.712,1.712,0,0,0,38.98-2.6a4.647,4.647,0,0,0,.539-2.531,2.122,2.122,0,0,0-.363-1.2,1.149,1.149,0,0,0-.949-.464,1.715,1.715,0,0,0-1.574.924A4.6,4.6,0,0,0,36.09-3.294ZM48.121-6.336a4.548,4.548,0,0,0-.742-.078,2.136,2.136,0,0,0-1.867.883L44.535,0h-2.2L43.8-8.453l2.07-.008-.2,1.031a2.325,2.325,0,0,1,1.969-1.2,3.214,3.214,0,0,1,.766.109ZM51.59-8.461l-.18.961a3.112,3.112,0,0,1,2.477-1.109,2.379,2.379,0,0,1,1.3.359,1.679,1.679,0,0,1,.7.93A3.255,3.255,0,0,1,58.5-8.609a2.126,2.126,0,0,1,1.754.8,3.271,3.271,0,0,1,.5,2.234l-.016.2L59.84,0H57.629l.9-5.4a3.908,3.908,0,0,0,.023-.54.837.837,0,0,0-.937-.845,1.86,1.86,0,0,0-1.555.97l-.023.18L55.051,0h-2.2l.9-5.383a3.9,3.9,0,0,0,.023-.539.836.836,0,0,0-.93-.852,1.867,1.867,0,0,0-1.508.789L50.277,0h-2.2l1.461-8.453Z" transform="translate(-6024 -3073)" fill="#3c3fa7"/>
    <path id="Trazado_135531" data-name="Trazado 135531" d="M-68.75-2.789l2.406-5.664h2.375L-68.055,0h-2.109l-1.445-8.453h2.234ZM-60.469.156a3.677,3.677,0,0,1-1.965-.543,3.292,3.292,0,0,1-1.277-1.469,4.093,4.093,0,0,1-.328-2.059l.023-.312A5.465,5.465,0,0,1-63.3-6.492a4.341,4.341,0,0,1,1.547-1.59,3.827,3.827,0,0,1,2.094-.527,2.924,2.924,0,0,1,2.473,1.2,4.117,4.117,0,0,1,.637,2.962l-.125.962h-5.18a1.814,1.814,0,0,0,.4,1.313,1.521,1.521,0,0,0,1.172.508A2.7,2.7,0,0,0-58.172-2.6l1.008,1.25A3.135,3.135,0,0,1-58.539-.23,4.5,4.5,0,0,1-60.469.156Zm.7-6.945a1.565,1.565,0,0,0-1.082.383A3.363,3.363,0,0,0-61.7-5.023h3.031l.047-.2a2.071,2.071,0,0,0,.008-.594,1.134,1.134,0,0,0-.383-.707A1.2,1.2,0,0,0-59.766-6.789Zm9.539.453a4.548,4.548,0,0,0-.742-.078,2.136,2.136,0,0,0-1.867.883L-53.812,0h-2.2l1.469-8.453,2.07-.008-.2,1.031a2.325,2.325,0,0,1,1.969-1.2,3.214,3.214,0,0,1,.766.109ZM-42.148-4.2A6.061,6.061,0,0,1-43.367-1,3.033,3.033,0,0,1-45.914.164,2.357,2.357,0,0,1-47.945-.914l-.32.914h-2.008L-48.2-12h2.211l-.852,4.32a2.634,2.634,0,0,1,2.063-.93,2.385,2.385,0,0,1,1.926.879A3.89,3.89,0,0,1-42.1-5.344,9.132,9.132,0,0,1-42.148-4.2Zm-2.187-.165A6.554,6.554,0,0,0-44.289-5.4q-.086-1.364-1.125-1.387a1.833,1.833,0,0,0-1.617.885l-.609,3.37a1.258,1.258,0,0,0,1.266.878q1.625.047,1.992-2.367Zm7.711-4.242a3.39,3.39,0,0,1,1.926.574A3.234,3.234,0,0,1-33.512-6.5a4.762,4.762,0,0,1,.27,2.176,5.143,5.143,0,0,1-1.4,3.262A3.96,3.96,0,0,1-37.664.156,3.38,3.38,0,0,1-39.57-.41a3.222,3.222,0,0,1-1.187-1.527,4.657,4.657,0,0,1-.273-2.156,5.3,5.3,0,0,1,1.422-3.328A3.878,3.878,0,0,1-36.625-8.609Zm-2.227,5.315A1.95,1.95,0,0,0-38.5-2.113a1.168,1.168,0,0,0,.945.449A1.712,1.712,0,0,0-35.961-2.6a4.647,4.647,0,0,0,.539-2.531,2.122,2.122,0,0,0-.363-1.2,1.149,1.149,0,0,0-.949-.464,1.715,1.715,0,0,0-1.574.924A4.6,4.6,0,0,0-38.852-3.294Zm14.2,3.451a3.677,3.677,0,0,1-1.965-.543,3.292,3.292,0,0,1-1.277-1.469,4.093,4.093,0,0,1-.328-2.059l.023-.312a5.465,5.465,0,0,1,.719-2.266,4.341,4.341,0,0,1,1.547-1.59,3.827,3.827,0,0,1,2.094-.527,2.924,2.924,0,0,1,2.473,1.2,4.117,4.117,0,0,1,.637,2.962l-.125.962h-5.18a1.814,1.814,0,0,0,.4,1.313,1.521,1.521,0,0,0,1.172.508A2.7,2.7,0,0,0-22.352-2.6l1.008,1.25A3.135,3.135,0,0,1-22.719-.23,4.5,4.5,0,0,1-24.648.156Zm.7-6.945a1.565,1.565,0,0,0-1.082.383,3.363,3.363,0,0,0-.848,1.383h3.031l.047-.2a2.071,2.071,0,0,0,.008-.594,1.134,1.134,0,0,0-.383-.707A1.2,1.2,0,0,0-23.945-6.789Zm7.234-1.672-.187,1a3.042,3.042,0,0,1,2.461-1.148,2.028,2.028,0,0,1,1.766.875,3.526,3.526,0,0,1,.414,2.359L-13.148,0h-2.2l.906-5.4a2.528,2.528,0,0,0,.016-.555.9.9,0,0,0-1-.82,1.9,1.9,0,0,0-1.555.8L-18.039,0h-2.2l1.469-8.453ZM-6.883,0-5.7-6.8H-6.922l.289-1.648,1.219-.008L-5.3-9.3a3.332,3.332,0,0,1,1.1-2.121,3.334,3.334,0,0,1,2.289-.754,7.33,7.33,0,0,1,1.2.163l-.2,1.751a2.732,2.732,0,0,0-.648-.094,1.615,1.615,0,0,0-1,.3,1.355,1.355,0,0,0-.52.918l-.117.69H-1.57L-1.859-6.8H-3.484L-4.664,0ZM3-8.609a3.39,3.39,0,0,1,1.926.574A3.234,3.234,0,0,1,6.113-6.5a4.762,4.762,0,0,1,.27,2.176,5.143,5.143,0,0,1-1.4,3.262A3.96,3.96,0,0,1,1.961.156,3.38,3.38,0,0,1,.055-.41,3.222,3.222,0,0,1-1.133-1.937a4.657,4.657,0,0,1-.273-2.156A5.3,5.3,0,0,1,.016-7.422,3.878,3.878,0,0,1,3-8.609ZM.773-3.294a1.95,1.95,0,0,0,.352,1.182,1.168,1.168,0,0,0,.945.449A1.712,1.712,0,0,0,3.664-2.6,4.647,4.647,0,0,0,4.2-5.128a2.122,2.122,0,0,0-.363-1.2,1.149,1.149,0,0,0-.949-.464,1.715,1.715,0,0,0-1.574.924A4.6,4.6,0,0,0,.773-3.294ZM12.8-6.336a4.548,4.548,0,0,0-.742-.078,2.136,2.136,0,0,0-1.867.883L9.219,0h-2.2L8.484-8.453l2.07-.008-.2,1.031a2.325,2.325,0,0,1,1.969-1.2,3.214,3.214,0,0,1,.766.109Zm3.469-2.125-.18.961A3.112,3.112,0,0,1,18.57-8.609a2.379,2.379,0,0,1,1.3.359,1.679,1.679,0,0,1,.7.93,3.255,3.255,0,0,1,2.625-1.289,2.126,2.126,0,0,1,1.754.8,3.271,3.271,0,0,1,.5,2.234l-.016.2L24.523,0H22.313l.9-5.4a3.908,3.908,0,0,0,.023-.54.837.837,0,0,0-.937-.845,1.86,1.86,0,0,0-1.555.97l-.023.18L19.734,0h-2.2l.9-5.383a3.9,3.9,0,0,0,.023-.539.836.836,0,0,0-.93-.852,1.867,1.867,0,0,0-1.508.789L14.961,0h-2.2l1.461-8.453ZM31.164,0a2.281,2.281,0,0,1-.086-.766,2.863,2.863,0,0,1-2.156.922,2.594,2.594,0,0,1-1.84-.723A2.186,2.186,0,0,1,26.4-2.312a2.527,2.527,0,0,1,1.16-2.121,5.266,5.266,0,0,1,2.965-.738l1.031.016.109-.508a1.764,1.764,0,0,0,.023-.492.846.846,0,0,0-.277-.574.955.955,0,0,0-.629-.215,1.345,1.345,0,0,0-.875.254,1.231,1.231,0,0,0-.461.777l-2.211.008a2.457,2.457,0,0,1,1.113-1.965,4.312,4.312,0,0,1,2.613-.738,3.117,3.117,0,0,1,2.25.855,2.5,2.5,0,0,1,.68,2.121l-.648,4.047-.039.5a2.412,2.412,0,0,0,.133.938L33.328,0Zm-1.7-1.555a2.017,2.017,0,0,0,1.664-.828l.273-1.461-.766-.008a2.139,2.139,0,0,0-1.758.742,1.292,1.292,0,0,0-.242.633.75.75,0,0,0,.176.668A.891.891,0,0,0,29.469-1.555ZM46.742-4.2A6.061,6.061,0,0,1,45.523-1,3.033,3.033,0,0,1,42.977.164,2.357,2.357,0,0,1,40.945-.914L40.625,0H38.617L40.7-12h2.211l-.852,4.32a2.634,2.634,0,0,1,2.063-.93,2.385,2.385,0,0,1,1.926.879,3.89,3.89,0,0,1,.746,2.387A9.132,9.132,0,0,1,46.742-4.2Zm-2.187-.165A6.554,6.554,0,0,0,44.6-5.4q-.086-1.364-1.125-1.387a1.833,1.833,0,0,0-1.617.885l-.609,3.37a1.258,1.258,0,0,0,1.266.878q1.625.047,1.992-2.367ZM52.32,0a2.281,2.281,0,0,1-.086-.766,2.863,2.863,0,0,1-2.156.922,2.594,2.594,0,0,1-1.84-.723,2.186,2.186,0,0,1-.684-1.746,2.527,2.527,0,0,1,1.16-2.121,5.266,5.266,0,0,1,2.965-.738l1.031.016.109-.508a1.764,1.764,0,0,0,.023-.492.846.846,0,0,0-.277-.574.955.955,0,0,0-.629-.215,1.345,1.345,0,0,0-.875.254,1.231,1.231,0,0,0-.461.777l-2.211.008A2.457,2.457,0,0,1,49.5-7.871a4.312,4.312,0,0,1,2.613-.738,3.117,3.117,0,0,1,2.25.855,2.5,2.5,0,0,1,.68,2.121L54.4-1.586l-.039.5a2.412,2.412,0,0,0,.133.938L54.484,0Zm-1.7-1.555a2.017,2.017,0,0,0,1.664-.828l.273-1.461L51.8-3.852a2.139,2.139,0,0,0-1.758.742,1.292,1.292,0,0,0-.242.633.75.75,0,0,0,.176.668A.891.891,0,0,0,50.625-1.555Zm10.1-.828q.125-.625-.867-.906l-.711-.18q-2.523-.7-2.453-2.453a2.428,2.428,0,0,1,1.059-1.949,3.942,3.942,0,0,1,2.457-.738,3.536,3.536,0,0,1,2.313.758,2.5,2.5,0,0,1,.9,1.977l-2.187-.008a.963.963,0,0,0-1.078-1.1,1.552,1.552,0,0,0-.895.258,1.061,1.061,0,0,0-.465.7q-.117.625.945.883l.313.07a6.285,6.285,0,0,1,1.648.59,2.488,2.488,0,0,1,.879.824,2.04,2.04,0,0,1,.285,1.18,2.251,2.251,0,0,1-.52,1.406,3.18,3.18,0,0,1-1.359.93,4.736,4.736,0,0,1-1.816.3,3.568,3.568,0,0,1-2.344-.809A2.607,2.607,0,0,1,55.875-2.7l2.078.016a1.142,1.142,0,0,0,1.3,1.227,1.845,1.845,0,0,0,1-.25A.987.987,0,0,0,60.727-2.383ZM67.9.156a3.677,3.677,0,0,1-1.965-.543,3.292,3.292,0,0,1-1.277-1.469,4.093,4.093,0,0,1-.328-2.059l.023-.312a5.465,5.465,0,0,1,.719-2.266,4.341,4.341,0,0,1,1.547-1.59,3.827,3.827,0,0,1,2.094-.527,2.924,2.924,0,0,1,2.473,1.2,4.117,4.117,0,0,1,.637,2.962l-.125.962h-5.18a1.814,1.814,0,0,0,.4,1.313,1.521,1.521,0,0,0,1.172.508A2.7,2.7,0,0,0,70.2-2.6L71.2-1.352A3.135,3.135,0,0,1,69.828-.23,4.5,4.5,0,0,1,67.9.156Zm.7-6.945a1.565,1.565,0,0,0-1.082.383,3.363,3.363,0,0,0-.848,1.383H69.7l.047-.2a2.071,2.071,0,0,0,.008-.594,1.134,1.134,0,0,0-.383-.707A1.2,1.2,0,0,0,68.6-6.789Z" transform="translate(-6024 -3041)" fill="#3c3fa7"/>
    <line id="Línea_352" data-name="Línea 352" x2="147" transform="translate(-6097.5 -3062.5)" fill="none" stroke="#3c3fa7" stroke-linecap="round" stroke-width="2"/>
    <rect id="Rectángulo_35451" data-name="Rectángulo 35451" width="177" height="35" rx="10" transform="translate(-6112 -3130)" fill="#ff5f65"/>
    <path id="Trazado_135529" data-name="Trazado 135529" d="M4.734-2.844l3.828-8.531h2.625L5.57,0H3.18L1.133-11.375H3.594Zm9.188,3a3.677,3.677,0,0,1-1.965-.543A3.292,3.292,0,0,1,10.68-1.855a4.093,4.093,0,0,1-.328-2.059l.023-.312a5.465,5.465,0,0,1,.719-2.266,4.341,4.341,0,0,1,1.547-1.59,3.827,3.827,0,0,1,2.094-.527,2.924,2.924,0,0,1,2.473,1.2,4.117,4.117,0,0,1,.637,2.962l-.125.962h-5.18a1.814,1.814,0,0,0,.4,1.313,1.521,1.521,0,0,0,1.172.508A2.7,2.7,0,0,0,16.219-2.6l1.008,1.25A3.135,3.135,0,0,1,15.852-.23,4.5,4.5,0,0,1,13.922.156Zm.7-6.945a1.565,1.565,0,0,0-1.082.383A3.363,3.363,0,0,0,12.7-5.023h3.031l.047-.2a2.071,2.071,0,0,0,.008-.594,1.134,1.134,0,0,0-.383-.707A1.2,1.2,0,0,0,14.625-6.789Zm9.539.453a4.548,4.548,0,0,0-.742-.078,2.136,2.136,0,0,0-1.867.883L20.578,0h-2.2l1.469-8.453,2.07-.008-.2,1.031a2.325,2.325,0,0,1,1.969-1.2,3.214,3.214,0,0,1,.766.109ZM32.242-4.2A6.061,6.061,0,0,1,31.023-1,3.033,3.033,0,0,1,28.477.164,2.357,2.357,0,0,1,26.445-.914L26.125,0H24.117L26.2-12h2.211l-.852,4.32a2.634,2.634,0,0,1,2.063-.93,2.385,2.385,0,0,1,1.926.879,3.89,3.89,0,0,1,.746,2.387A9.132,9.132,0,0,1,32.242-4.2Zm-2.187-.165A6.554,6.554,0,0,0,30.1-5.4q-.086-1.364-1.125-1.387a1.833,1.833,0,0,0-1.617.885l-.609,3.37a1.258,1.258,0,0,0,1.266.878q1.625.047,1.992-2.367ZM38.469.977h-1.68l4.188-12.352h1.68Zm13.6-3.8,2.578-8.555h2.609L53.3,0H50.852L46.906-11.375h2.6ZM61.727.156A4.15,4.15,0,0,1,58.7-.984a4.054,4.054,0,0,1-1.168-3.039v-.219a5.106,5.106,0,0,1,.492-2.277,3.612,3.612,0,0,1,1.395-1.547,3.914,3.914,0,0,1,2.059-.543,3.508,3.508,0,0,1,2.73,1.094,4.444,4.444,0,0,1,1,3.1v.922H59.82a2.1,2.1,0,0,0,.66,1.328,2,2,0,0,0,1.395.5,2.437,2.437,0,0,0,2.039-.945l1.109,1.242A3.389,3.389,0,0,1,63.648-.246,4.511,4.511,0,0,1,61.727.156Zm-.258-6.945a1.411,1.411,0,0,0-1.09.455,2.357,2.357,0,0,0-.535,1.3h3.141v-.181a1.681,1.681,0,0,0-.406-1.165A1.456,1.456,0,0,0,61.469-6.789Zm9.766.453a6.134,6.134,0,0,0-.812-.062,1.654,1.654,0,0,0-1.68.867V0H66.484V-8.453h2.133l.063,1.008a2.092,2.092,0,0,1,1.883-1.164,2.366,2.366,0,0,1,.7.1Zm8.7,2.188A5.119,5.119,0,0,1,79.07-.98,2.872,2.872,0,0,1,76.648.156,2.639,2.639,0,0,1,74.453-.9l-.1.9H72.32V-12h2.258v4.3a2.571,2.571,0,0,1,2.055-.914,2.9,2.9,0,0,1,2.426,1.137,5.126,5.126,0,0,1,.879,3.2ZM77.68-4.321A3.381,3.381,0,0,0,77.273-6.2a1.372,1.372,0,0,0-1.211-.592,1.489,1.489,0,0,0-1.484.885v3.346a1.509,1.509,0,0,0,1.5.893,1.4,1.4,0,0,0,1.438-1.081A5.6,5.6,0,0,0,77.68-4.321Zm3.3.016a5.013,5.013,0,0,1,.484-2.242A3.546,3.546,0,0,1,82.855-8.07a4.069,4.069,0,0,1,2.113-.539,3.849,3.849,0,0,1,2.793,1.047,4.2,4.2,0,0,1,1.207,2.844l.016.578A4.418,4.418,0,0,1,87.9-1.02,3.775,3.775,0,0,1,84.984.156a3.793,3.793,0,0,1-2.918-1.172A4.5,4.5,0,0,1,80.977-4.2Zm2.258.16A3.16,3.16,0,0,0,83.688-2.3a1.5,1.5,0,0,0,1.3.638,1.5,1.5,0,0,0,1.281-.63,3.457,3.457,0,0,0,.461-2.015,3.128,3.128,0,0,0-.461-1.831,1.5,1.5,0,0,0-1.3-.649,1.474,1.474,0,0,0-1.281.646A3.516,3.516,0,0,0,83.234-4.144Z" transform="translate(-6068 -3107)" fill="#12263f"/>
  </g>
</svg>
