<svg xmlns="http://www.w3.org/2000/svg" width="202" height="137" viewBox="0 0 202 137">
  <g id="Grupo_93390" data-name="Grupo 93390" transform="translate(6609 3153)">
    <g id="Rectángulo_34271" data-name="Rectángulo 34271" transform="translate(-6609 -3153)" fill="#e1e8ff" stroke="#6b8dff" stroke-width="1">
      <rect width="202" height="137" rx="10" stroke="none"/>
      <rect x="0.5" y="0.5" width="201" height="136" rx="9.5" fill="none"/>
    </g>
    <rect id="Rectángulo_34268" data-name="Rectángulo 34268" width="177" height="35" rx="10" transform="translate(-6596 -3130)" fill="#6b8dff"/>
    <path id="Trazado_135526" data-name="Trazado 135526" d="M6.422-3.039q.164-.93-.914-1.422L4-5.062Q1.375-6.234,1.508-8.289a2.964,2.964,0,0,1,.625-1.687,3.758,3.758,0,0,1,1.6-1.152,5.67,5.67,0,0,1,2.227-.4,3.857,3.857,0,0,1,2.664.98,3.267,3.267,0,0,1,1,2.543H7.344A1.628,1.628,0,0,0,7-9.211a1.531,1.531,0,0,0-1.176-.445A2.37,2.37,0,0,0,4.469-9.3a1.458,1.458,0,0,0-.687,1.02Q3.633-7.43,4.922-6.93l1.031.391.594.273q2.3,1.141,2.156,3.2a3.09,3.09,0,0,1-.645,1.738A3.633,3.633,0,0,1,6.5-.2,5.565,5.565,0,0,1,4.32.164,4.873,4.873,0,0,1,2.164-.344,3.349,3.349,0,0,1,.727-1.711,3.54,3.54,0,0,1,.3-3.586l2.289.008Q2.477-1.727,4.406-1.7a2.392,2.392,0,0,0,1.375-.367A1.43,1.43,0,0,0,6.422-3.039ZM14.875-.875A2.919,2.919,0,0,1,12.547.156,2.172,2.172,0,0,1,10.7-.719a3.2,3.2,0,0,1-.484-2.266l.914-5.469h2.2l-.93,5.5a2.175,2.175,0,0,0-.008.485.8.8,0,0,0,.867.806,2.014,2.014,0,0,0,1.7-.79l1.055-6h2.219L16.766,0H14.711ZM26.531-4.2A6.061,6.061,0,0,1,25.313-1,3.033,3.033,0,0,1,22.766.164,2.357,2.357,0,0,1,20.734-.914L20.414,0H18.406l2.078-12H22.7l-.852,4.32a2.634,2.634,0,0,1,2.063-.93,2.385,2.385,0,0,1,1.926.879,3.89,3.89,0,0,1,.746,2.387A9.133,9.133,0,0,1,26.531-4.2Zm-2.187-.165A6.554,6.554,0,0,0,24.391-5.4Q24.3-6.766,23.266-6.789a1.833,1.833,0,0,0-1.617.885l-.609,3.37a1.258,1.258,0,0,0,1.266.878q1.625.047,1.992-2.367Zm6.68-4.085L29.508.461a3.516,3.516,0,0,1-1.02,2.2,2.984,2.984,0,0,1-2.168.773,6.8,6.8,0,0,1-1.172-.148l.18-1.8a4.309,4.309,0,0,0,.68.1A1.2,1.2,0,0,0,27.273.469L28.8-8.453ZM29.016-10.6a1.1,1.1,0,0,1,.328-.855,1.257,1.257,0,0,1,.883-.355,1.258,1.258,0,0,1,.887.32,1.108,1.108,0,0,1,.363.813,1.113,1.113,0,0,1-.328.863,1.257,1.257,0,0,1-.883.355,1.235,1.235,0,0,1-.863-.3A1.091,1.091,0,0,1,29.016-10.6ZM35.344.156a3.677,3.677,0,0,1-1.965-.543A3.292,3.292,0,0,1,32.1-1.855a4.093,4.093,0,0,1-.328-2.059l.023-.312a5.465,5.465,0,0,1,.719-2.266,4.341,4.341,0,0,1,1.547-1.59,3.827,3.827,0,0,1,2.094-.527,2.924,2.924,0,0,1,2.473,1.2,4.117,4.117,0,0,1,.637,2.962l-.125.962h-5.18a1.814,1.814,0,0,0,.4,1.313,1.521,1.521,0,0,0,1.172.508A2.7,2.7,0,0,0,37.641-2.6l1.008,1.25A3.135,3.135,0,0,1,37.273-.23,4.5,4.5,0,0,1,35.344.156Zm.7-6.945a1.565,1.565,0,0,0-1.082.383,3.363,3.363,0,0,0-.848,1.383h3.031l.047-.2A2.071,2.071,0,0,0,37.2-5.82a1.134,1.134,0,0,0-.383-.707A1.2,1.2,0,0,0,36.047-6.789ZM43.5-1.656a1.447,1.447,0,0,0,1.016-.332,1.632,1.632,0,0,0,.531-.926l2.07-.008a3.037,3.037,0,0,1-.559,1.6A3.394,3.394,0,0,1,45.215-.211a3.847,3.847,0,0,1-1.77.375A3.123,3.123,0,0,1,41.008-.9a3.965,3.965,0,0,1-.867-2.766l.023-.43.008-.086a5.284,5.284,0,0,1,1.391-3.27,3.761,3.761,0,0,1,2.914-1.16,3.047,3.047,0,0,1,2.27.934A3.3,3.3,0,0,1,47.57-5.3H45.516a1.73,1.73,0,0,0-.3-1.07,1.128,1.128,0,0,0-.891-.422q-1.578-.047-1.914,2.3a7.782,7.782,0,0,0-.086,1.438Q42.406-1.68,43.5-1.656Zm8.938-8.875L52.07-8.453h1.406L53.188-6.8H51.781l-.719,4.234a1.077,1.077,0,0,0,.063.609q.109.211.531.227.125.008.672-.039L52.172-.039a3.706,3.706,0,0,1-1.266.18,1.985,1.985,0,0,1-1.617-.68,2.456,2.456,0,0,1-.437-1.8L49.578-6.8h-1.2l.289-1.656h1.2l.359-2.078ZM58.828.977h-1.68l4.188-12.352h1.68Zm15.3-3.961A1.2,1.2,0,0,0,73.656-4a6.148,6.148,0,0,0-1.687-.75,11.963,11.963,0,0,1-1.93-.777A3.153,3.153,0,0,1,68.1-8.352,2.747,2.747,0,0,1,68.621-10a3.389,3.389,0,0,1,1.492-1.129,5.616,5.616,0,0,1,2.184-.406,5.112,5.112,0,0,1,2.172.441,3.458,3.458,0,0,1,1.48,1.246,3.261,3.261,0,0,1,.527,1.828H74.133a1.534,1.534,0,0,0-.492-1.215,2.023,2.023,0,0,0-1.383-.434,2.162,2.162,0,0,0-1.336.363,1.146,1.146,0,0,0-.477.957,1.1,1.1,0,0,0,.559.93,6.311,6.311,0,0,0,1.645.7,7.106,7.106,0,0,1,2.914,1.492A2.972,2.972,0,0,1,76.477-3,2.737,2.737,0,0,1,75.359-.684a4.891,4.891,0,0,1-3.008.84,5.808,5.808,0,0,1-2.391-.48,3.783,3.783,0,0,1-1.645-1.316,3.371,3.371,0,0,1-.566-1.937H70.1q0,1.883,2.25,1.883a2.189,2.189,0,0,0,1.3-.34A1.106,1.106,0,0,0,74.125-2.984ZM82.977-.859A2.831,2.831,0,0,1,80.664.156,2.67,2.67,0,0,1,78.59-.625a3.335,3.335,0,0,1-.73-2.289V-8.453h2.258v5.467q0,1.322,1.2,1.322a1.63,1.63,0,0,0,1.578-.8V-8.453h2.266V0H83.039Zm6.281-7.594V.461a3.024,3.024,0,0,1-.742,2.176,2.821,2.821,0,0,1-2.141.777,4.591,4.591,0,0,1-1.117-.133V1.492a4.238,4.238,0,0,0,.711.07q1.023,0,1.023-1.086v-8.93Zm-2.445-2.187a1.112,1.112,0,0,1,.34-.836,1.277,1.277,0,0,1,.926-.328,1.277,1.277,0,0,1,.926.328,1.112,1.112,0,0,1,.34.836A1.108,1.108,0,0,1,89-9.8a1.283,1.283,0,0,1-.918.328A1.283,1.283,0,0,1,87.16-9.8,1.108,1.108,0,0,1,86.813-10.641Zm8.1,10.8A4.15,4.15,0,0,1,91.887-.984a4.054,4.054,0,0,1-1.168-3.039v-.219a5.106,5.106,0,0,1,.492-2.277,3.612,3.612,0,0,1,1.395-1.547,3.914,3.914,0,0,1,2.059-.543,3.508,3.508,0,0,1,2.73,1.094,4.444,4.444,0,0,1,1,3.1v.922H93.008a2.1,2.1,0,0,0,.66,1.328,2,2,0,0,0,1.395.5A2.437,2.437,0,0,0,97.1-2.609l1.109,1.242A3.389,3.389,0,0,1,96.836-.246,4.511,4.511,0,0,1,94.914.156Zm-.258-6.945a1.411,1.411,0,0,0-1.09.455,2.357,2.357,0,0,0-.535,1.3h3.141v-.181a1.681,1.681,0,0,0-.406-1.165A1.456,1.456,0,0,0,94.656-6.789Zm7.719-3.742v2.078h1.445V-6.8h-1.445v4.219a1.007,1.007,0,0,0,.18.672.9.9,0,0,0,.688.2,3.6,3.6,0,0,0,.664-.055V-.047a4.648,4.648,0,0,1-1.367.2,2.156,2.156,0,0,1-2.422-2.4V-6.8H98.883V-8.453h1.234v-2.078ZM104.492-4.3a5.013,5.013,0,0,1,.484-2.242,3.546,3.546,0,0,1,1.395-1.523,4.069,4.069,0,0,1,2.113-.539,3.849,3.849,0,0,1,2.793,1.047,4.2,4.2,0,0,1,1.207,2.844l.016.578a4.418,4.418,0,0,1-1.086,3.121A3.775,3.775,0,0,1,108.5.156a3.793,3.793,0,0,1-2.918-1.172,4.5,4.5,0,0,1-1.09-3.187Zm2.258.16A3.16,3.16,0,0,0,107.2-2.3a1.5,1.5,0,0,0,1.3.638,1.5,1.5,0,0,0,1.281-.63,3.457,3.457,0,0,0,.461-2.015,3.128,3.128,0,0,0-.461-1.831,1.5,1.5,0,0,0-1.3-.649,1.474,1.474,0,0,0-1.281.646A3.516,3.516,0,0,0,106.75-4.144Z" transform="translate(-6565 -3107)" fill="#12263f"/>
    <path id="Trazado_135527" data-name="Trazado 135527" d="M2.6,0H.313L2.281-11.375H4.57ZM9.148.977H7.414l6.2-12.352h1.742Zm12.6-8.492a2.946,2.946,0,0,1,2.289-1.094,2.143,2.143,0,0,1,1.848.9,3.548,3.548,0,0,1,.441,2.379L25.438,0h-2.2l.9-5.358a2.6,2.6,0,0,0,.016-.563.885.885,0,0,0-.984-.868,1.9,1.9,0,0,0-1.562.766L20.539,0h-2.2l2.078-12h2.211ZM31.172.156a3.677,3.677,0,0,1-1.965-.543A3.292,3.292,0,0,1,27.93-1.855,4.093,4.093,0,0,1,27.6-3.914l.023-.312a5.465,5.465,0,0,1,.719-2.266,4.341,4.341,0,0,1,1.547-1.59,3.827,3.827,0,0,1,2.094-.527,2.924,2.924,0,0,1,2.473,1.2,4.117,4.117,0,0,1,.637,2.962l-.125.962h-5.18a1.814,1.814,0,0,0,.4,1.313,1.521,1.521,0,0,0,1.172.508A2.7,2.7,0,0,0,33.469-2.6l1.008,1.25A3.135,3.135,0,0,1,33.1-.23,4.5,4.5,0,0,1,31.172.156Zm.7-6.945a1.565,1.565,0,0,0-1.082.383,3.363,3.363,0,0,0-.848,1.383h3.031l.047-.2a2.071,2.071,0,0,0,.008-.594,1.134,1.134,0,0,0-.383-.707A1.2,1.2,0,0,0,31.875-6.789ZM40.148.977H38.414l6.2-12.352h1.742ZM54.289-2.383q.125-.625-.867-.906l-.711-.18q-2.523-.7-2.453-2.453a2.428,2.428,0,0,1,1.059-1.949,3.942,3.942,0,0,1,2.457-.738,3.536,3.536,0,0,1,2.313.758,2.5,2.5,0,0,1,.9,1.977L54.8-5.883a.963.963,0,0,0-1.078-1.1,1.552,1.552,0,0,0-.895.258,1.061,1.061,0,0,0-.465.7q-.117.625.945.883l.313.07a6.285,6.285,0,0,1,1.648.59,2.488,2.488,0,0,1,.879.824,2.04,2.04,0,0,1,.285,1.18,2.251,2.251,0,0,1-.52,1.406,3.18,3.18,0,0,1-1.359.93,4.736,4.736,0,0,1-1.816.3,3.568,3.568,0,0,1-2.344-.809A2.607,2.607,0,0,1,49.438-2.7l2.078.016a1.142,1.142,0,0,0,1.3,1.227,1.845,1.845,0,0,0,1-.25A.987.987,0,0,0,54.289-2.383ZM60.8-7.516a2.946,2.946,0,0,1,2.289-1.094,2.143,2.143,0,0,1,1.848.9,3.548,3.548,0,0,1,.441,2.379L64.492,0h-2.2l.9-5.358a2.6,2.6,0,0,0,.016-.563.885.885,0,0,0-.984-.868,1.9,1.9,0,0,0-1.562.766L59.594,0h-2.2l2.078-12H61.68ZM70.227.156a3.677,3.677,0,0,1-1.965-.543,3.292,3.292,0,0,1-1.277-1.469,4.093,4.093,0,0,1-.328-2.059l.023-.312A5.465,5.465,0,0,1,67.4-6.492a4.341,4.341,0,0,1,1.547-1.59,3.827,3.827,0,0,1,2.094-.527,2.924,2.924,0,0,1,2.473,1.2,4.117,4.117,0,0,1,.637,2.962l-.125.962h-5.18a1.814,1.814,0,0,0,.4,1.313,1.521,1.521,0,0,0,1.172.508A2.7,2.7,0,0,0,72.523-2.6l1.008,1.25A3.135,3.135,0,0,1,72.156-.23,4.5,4.5,0,0,1,70.227.156Zm.7-6.945a1.565,1.565,0,0,0-1.082.383A3.363,3.363,0,0,0,69-5.023h3.031l.047-.2a2.071,2.071,0,0,0,.008-.594,1.134,1.134,0,0,0-.383-.707A1.2,1.2,0,0,0,70.93-6.789ZM79.2.977H77.469l6.2-12.352h1.742ZM90.773,0H88.555l1.469-8.453h2.219Zm-.492-10.6a1.1,1.1,0,0,1,.344-.867,1.209,1.209,0,0,1,.867-.344,1.215,1.215,0,0,1,.867.3,1.1,1.1,0,0,1,.383.828,1.132,1.132,0,0,1-.324.844,1.215,1.215,0,0,1-.887.375,1.235,1.235,0,0,1-.863-.3A1.091,1.091,0,0,1,90.281-10.6Zm6.828.07-.367,2.078h1.406L97.859-6.8H96.453l-.719,4.234a1.077,1.077,0,0,0,.063.609q.109.211.531.227.125.008.672-.039L96.844-.039a3.706,3.706,0,0,1-1.266.18,1.985,1.985,0,0,1-1.617-.68,2.456,2.456,0,0,1-.437-1.8L94.25-6.8h-1.2l.289-1.656h1.2l.359-2.078Z" transform="translate(-6562.5 -3069.419)" fill="#3c3fa7"/>
    <path id="Trazado_135528" data-name="Trazado 135528" d="M7.656-3.078,9.664-8.453h2.2L8.3,0H6.461L5.836-5.289,3.367,0H1.523L.9-8.453H2.961l.133,5.32,2.414-5.32H7.1ZM15.523.156a3.677,3.677,0,0,1-1.965-.543,3.292,3.292,0,0,1-1.277-1.469,4.093,4.093,0,0,1-.328-2.059l.023-.312A5.465,5.465,0,0,1,12.7-6.492a4.341,4.341,0,0,1,1.547-1.59,3.827,3.827,0,0,1,2.094-.527,2.924,2.924,0,0,1,2.473,1.2,4.117,4.117,0,0,1,.637,2.962l-.125.962h-5.18a1.814,1.814,0,0,0,.4,1.313,1.521,1.521,0,0,0,1.172.508A2.7,2.7,0,0,0,17.82-2.6l1.008,1.25A3.135,3.135,0,0,1,17.453-.23,4.5,4.5,0,0,1,15.523.156Zm.7-6.945a1.565,1.565,0,0,0-1.082.383A3.363,3.363,0,0,0,14.3-5.023h3.031l.047-.2a2.071,2.071,0,0,0,.008-.594A1.134,1.134,0,0,0,17-6.527,1.2,1.2,0,0,0,16.227-6.789ZM24.5.977H22.766l6.2-12.352h1.742Zm12.828-4.2,2.414-5.234H42.2L37.25,1.273A4.231,4.231,0,0,1,36,2.914a2.723,2.723,0,0,1-1.652.523,5.035,5.035,0,0,1-1.062-.164l.164-1.719.3.016A1.651,1.651,0,0,0,35.336.781l.484-.9L34.438-8.453h2.281Zm9-5.391a3.39,3.39,0,0,1,1.926.574A3.234,3.234,0,0,1,49.441-6.5a4.762,4.762,0,0,1,.27,2.176,5.143,5.143,0,0,1-1.4,3.262A3.96,3.96,0,0,1,45.289.156,3.38,3.38,0,0,1,43.383-.41,3.222,3.222,0,0,1,42.2-1.937a4.657,4.657,0,0,1-.273-2.156,5.3,5.3,0,0,1,1.422-3.328A3.878,3.878,0,0,1,46.328-8.609ZM44.1-3.294a1.95,1.95,0,0,0,.352,1.182,1.168,1.168,0,0,0,.945.449A1.712,1.712,0,0,0,46.992-2.6a4.647,4.647,0,0,0,.539-2.531,2.122,2.122,0,0,0-.363-1.2,1.149,1.149,0,0,0-.949-.464,1.715,1.715,0,0,0-1.574.924A4.6,4.6,0,0,0,44.1-3.294ZM55.578-.875A2.919,2.919,0,0,1,53.25.156a2.172,2.172,0,0,1-1.844-.875,3.2,3.2,0,0,1-.484-2.266l.914-5.469h2.2l-.93,5.5a2.175,2.175,0,0,0-.008.485.8.8,0,0,0,.867.806,2.014,2.014,0,0,0,1.7-.79l1.055-6h2.219L57.469,0H55.414ZM63.633.977H61.9l6.2-12.352h1.742ZM77.344-10.531l-.367,2.078h1.406L78.094-6.8H76.688l-.719,4.234a1.077,1.077,0,0,0,.063.609q.109.211.531.227.125.008.672-.039L77.078-.039a3.706,3.706,0,0,1-1.266.18A1.985,1.985,0,0,1,74.2-.539a2.456,2.456,0,0,1-.437-1.8L74.484-6.8h-1.2l.289-1.656h1.2l.359-2.078Zm4.211,3.016a2.946,2.946,0,0,1,2.289-1.094,2.143,2.143,0,0,1,1.848.9,3.548,3.548,0,0,1,.441,2.379L85.242,0h-2.2l.9-5.358a2.6,2.6,0,0,0,.016-.563.885.885,0,0,0-.984-.868,1.9,1.9,0,0,0-1.562.766L80.344,0h-2.2l2.078-12H82.43ZM90.977.156a3.677,3.677,0,0,1-1.965-.543,3.292,3.292,0,0,1-1.277-1.469,4.093,4.093,0,0,1-.328-2.059l.023-.312a5.465,5.465,0,0,1,.719-2.266A4.341,4.341,0,0,1,89.7-8.082a3.827,3.827,0,0,1,2.094-.527,2.924,2.924,0,0,1,2.473,1.2A4.117,4.117,0,0,1,94.9-4.447l-.125.962h-5.18a1.814,1.814,0,0,0,.4,1.313,1.521,1.521,0,0,0,1.172.508A2.7,2.7,0,0,0,93.273-2.6l1.008,1.25A3.135,3.135,0,0,1,92.906-.23,4.5,4.5,0,0,1,90.977.156Zm.7-6.945a1.565,1.565,0,0,0-1.082.383,3.363,3.363,0,0,0-.848,1.383h3.031l.047-.2a2.071,2.071,0,0,0,.008-.594,1.134,1.134,0,0,0-.383-.707A1.2,1.2,0,0,0,91.68-6.789Zm7.234,3.57,2.414-5.234h2.453L98.836,1.273A4.231,4.231,0,0,1,97.59,2.914a2.723,2.723,0,0,1-1.652.523,5.035,5.035,0,0,1-1.062-.164l.164-1.719.3.016A1.651,1.651,0,0,0,96.922.781l.484-.9L96.023-8.453H98.3Z" transform="translate(-6565.5 -3044.205)" fill="#3c3fa7"/>
    <line id="Línea_351" data-name="Línea 351" x2="112" transform="translate(-6568 -3062.842)" fill="none" stroke="#3c3fa7" stroke-linecap="round" stroke-width="2"/>
  </g>
</svg>
