<svg xmlns="http://www.w3.org/2000/svg" width="202" height="137" viewBox="0 0 202 137">
  <g id="Grupo_93388" data-name="Grupo 93388" transform="translate(6609 3153)">
    <g id="Rect치ngulo_34271" data-name="Rect치ngulo 34271" transform="translate(-6609 -3153)" fill="#d0f9e5" stroke="#01ac57" stroke-width="1">
      <rect width="202" height="137" rx="10" stroke="none"/>
      <rect x="0.5" y="0.5" width="201" height="136" rx="9.5" fill="none"/>
    </g>
    <rect id="Rect치ngulo_34268" data-name="Rect치ngulo 34268" width="177" height="48" rx="10" transform="translate(-6596 -3143)" fill="#01ac57"/>
    <path id="Trazado_135524" data-name="Trazado 135524" d="M-24.105-2.344h-3.969L-29.246,0H-31.77l6.078-11.375h2.117L-21.41,0h-2.336Zm-3.031-1.9h2.742l-.641-4.234ZM-15.262-.875A2.919,2.919,0,0,1-17.59.156a2.172,2.172,0,0,1-1.844-.875,3.2,3.2,0,0,1-.484-2.266L-19-8.453h2.2l-.93,5.5a2.175,2.175,0,0,0-.008.485.8.8,0,0,0,.867.806,2.014,2.014,0,0,0,1.7-.79l1.055-6H-11.9L-13.371,0h-2.055Zm7.6-5.07,1.773-2.508H-3.41L-6.473-4.2-4.762,0H-7L-8.035-2.641-9.9,0h-2.492l3.188-4.422L-10.84-8.453h2.234ZM-1.426,0H-3.645l1.469-8.453H.043Zm-.492-10.6a1.1,1.1,0,0,1,.344-.867,1.209,1.209,0,0,1,.867-.344,1.215,1.215,0,0,1,.867.3,1.1,1.1,0,0,1,.383.828,1.132,1.132,0,0,1-.324.844,1.215,1.215,0,0,1-.887.375,1.235,1.235,0,0,1-.863-.3A1.091,1.091,0,0,1-1.918-10.6ZM2.77,0H.551L2.637-12H4.848Zm4.2,0H4.746L6.215-8.453H8.434ZM6.473-10.6a1.1,1.1,0,0,1,.344-.867,1.209,1.209,0,0,1,.867-.344,1.215,1.215,0,0,1,.867.3,1.1,1.1,0,0,1,.383.828,1.132,1.132,0,0,1-.324.844,1.215,1.215,0,0,1-.887.375,1.235,1.235,0,0,1-.863-.3A1.091,1.091,0,0,1,6.473-10.6ZM13.723,0a2.281,2.281,0,0,1-.086-.766A2.863,2.863,0,0,1,11.48.156a2.594,2.594,0,0,1-1.84-.723,2.186,2.186,0,0,1-.684-1.746,2.527,2.527,0,0,1,1.16-2.121,5.266,5.266,0,0,1,2.965-.738l1.031.016.109-.508a1.764,1.764,0,0,0,.023-.492.846.846,0,0,0-.277-.574.955.955,0,0,0-.629-.215,1.345,1.345,0,0,0-.875.254A1.231,1.231,0,0,0,12-5.914l-2.211.008a2.457,2.457,0,0,1,1.113-1.965,4.312,4.312,0,0,1,2.613-.738,3.117,3.117,0,0,1,2.25.855,2.5,2.5,0,0,1,.68,2.121L15.8-1.586l-.039.5a2.412,2.412,0,0,0,.133.938L15.887,0Zm-1.7-1.555a2.017,2.017,0,0,0,1.664-.828l.273-1.461L13.2-3.852a2.139,2.139,0,0,0-1.758.742,1.292,1.292,0,0,0-.242.633.75.75,0,0,0,.176.668A.891.891,0,0,0,12.027-1.555ZM23.02-6.336a4.548,4.548,0,0,0-.742-.078,2.136,2.136,0,0,0-1.867.883L19.434,0h-2.2L18.7-8.453l2.07-.008-.2,1.031a2.325,2.325,0,0,1,1.969-1.2,3.214,3.214,0,0,1,.766.109ZM26.7-3.219l2.414-5.234h2.453L26.621,1.273a4.231,4.231,0,0,1-1.246,1.641,2.723,2.723,0,0,1-1.652.523,5.035,5.035,0,0,1-1.062-.164l.164-1.719.3.016A1.651,1.651,0,0,0,24.707.781l.484-.9L23.809-8.453H26.09ZM-20.1,15.656H-24.07L-25.242,18h-2.523l6.078-11.375h2.117L-17.406,18h-2.336Zm-3.031-1.9h2.742l-.641-4.234Zm11.875,3.367a2.919,2.919,0,0,1-2.328,1.031,2.172,2.172,0,0,1-1.844-.875,3.2,3.2,0,0,1-.484-2.266L-15,9.547h2.2l-.93,5.5a2.175,2.175,0,0,0-.008.485.8.8,0,0,0,.867.806,2.014,2.014,0,0,0,1.7-.79l1.055-6H-7.9L-9.367,18h-2.055Zm7.6-5.07,1.773-2.508H.594L-2.469,13.8-.758,18H-2.992l-1.039-2.641L-5.9,18H-8.391L-5.2,13.578-6.836,9.547H-4.6ZM2.578,18H.359L1.828,9.547H4.047ZM2.086,7.4a1.1,1.1,0,0,1,.344-.867A1.209,1.209,0,0,1,3.3,6.188a1.215,1.215,0,0,1,.867.3,1.1,1.1,0,0,1,.383.828,1.132,1.132,0,0,1-.324.844,1.215,1.215,0,0,1-.887.375,1.235,1.235,0,0,1-.863-.3A1.091,1.091,0,0,1,2.086,7.4ZM6.773,18H4.555L6.641,6H8.852Zm4.2,0H8.75l1.469-8.453h2.219ZM10.477,7.4a1.1,1.1,0,0,1,.344-.867,1.323,1.323,0,0,1,1.734-.039,1.1,1.1,0,0,1,.383.828,1.132,1.132,0,0,1-.324.844,1.215,1.215,0,0,1-.887.375,1.235,1.235,0,0,1-.863-.3A1.091,1.091,0,0,1,10.477,7.4ZM17.727,18a2.281,2.281,0,0,1-.086-.766,2.863,2.863,0,0,1-2.156.922,2.594,2.594,0,0,1-1.84-.723,2.186,2.186,0,0,1-.684-1.746,2.527,2.527,0,0,1,1.16-2.121,5.266,5.266,0,0,1,2.965-.738l1.031.016.109-.508a1.764,1.764,0,0,0,.023-.492.846.846,0,0,0-.277-.574.955.955,0,0,0-.629-.215,1.345,1.345,0,0,0-.875.254,1.231,1.231,0,0,0-.461.777l-2.211.008a2.457,2.457,0,0,1,1.113-1.965,4.312,4.312,0,0,1,2.613-.738,3.117,3.117,0,0,1,2.25.855,2.5,2.5,0,0,1,.68,2.121L19.8,16.414l-.039.5a2.412,2.412,0,0,0,.133.938L19.891,18Zm-1.7-1.555a2.017,2.017,0,0,0,1.664-.828l.273-1.461-.766-.008a2.139,2.139,0,0,0-1.758.742,1.292,1.292,0,0,0-.242.633.75.75,0,0,0,.176.668A.891.891,0,0,0,16.031,16.445Zm10.992-4.781a4.548,4.548,0,0,0-.742-.078,2.136,2.136,0,0,0-1.867.883L23.438,18h-2.2L22.7,9.547l2.07-.008-.2,1.031a2.325,2.325,0,0,1,1.969-1.2,3.214,3.214,0,0,1,.766.109Z" transform="translate(-6507 -3122)" fill="#12263f"/>
    <path id="Trazado_135525" data-name="Trazado 135525" d="M-11.426,0l1.977-11.375,3.266.008a4.473,4.473,0,0,1,2.066.52A3.905,3.905,0,0,1-2.629-9.422a4.883,4.883,0,0,1,.688,2.094,6.911,6.911,0,0,1-.016,1.391l-.055.414A6.5,6.5,0,0,1-3.977-1.512,5.558,5.558,0,0,1-7.91,0Zm3.938-9.477-1.32,7.594.953.008A3.127,3.127,0,0,0-5.32-3.031a5.976,5.976,0,0,0,1.1-3.492l.016-.25A3.151,3.151,0,0,0-4.7-8.75a1.879,1.879,0,0,0-1.539-.719ZM.926,0H-1.293L.176-8.453H2.395ZM.434-10.6a1.1,1.1,0,0,1,.344-.867,1.209,1.209,0,0,1,.867-.344,1.215,1.215,0,0,1,.867.3,1.1,1.1,0,0,1,.383.828,1.132,1.132,0,0,1-.324.844,1.215,1.215,0,0,1-.887.375,1.235,1.235,0,0,1-.863-.3A1.091,1.091,0,0,1,.434-10.6ZM6.988-8.617a2.4,2.4,0,0,1,1.906.945L9.723-12h2.211L9.855,0H7.887l.125-.906a2.736,2.736,0,0,1-2.2,1.07A2.433,2.433,0,0,1,4.426-.25a2.607,2.607,0,0,1-.918-1.168,4.7,4.7,0,0,1-.355-1.7,6.4,6.4,0,0,1,.023-.953l.047-.352A6.767,6.767,0,0,1,3.945-6.7,3.766,3.766,0,0,1,5.258-8.164,3.094,3.094,0,0,1,6.988-8.617ZM5.387-4.07a6.327,6.327,0,0,0-.039,1q.078,1.375,1.109,1.4a1.885,1.885,0,0,0,1.617-.875l.6-3.359a1.248,1.248,0,0,0-1.219-.875,1.606,1.606,0,0,0-1.34.621A4.176,4.176,0,0,0,5.387-4.07Z" transform="translate(-6512.5 -3054.419)" fill="#3c3fa7"/>
  </g>
</svg>
