<svg xmlns="http://www.w3.org/2000/svg" width="213" height="236" viewBox="0 0 213 236">
  <g id="Grupo_158911" data-name="Grupo 158911" transform="translate(-932 -2892)">
    <g id="Rectángulo_34988" data-name="Rectángulo 34988" transform="translate(932 2892)" fill="#ffdfe0" stroke="#ff5f65" stroke-width="1">
      <rect width="213" height="236" rx="10" stroke="none"/>
      <rect x="0.5" y="0.5" width="212" height="235" rx="9.5" fill="none"/>
    </g>
    <rect id="Rectángulo_34993" data-name="Rectángulo 34993" width="185" height="111" rx="10" transform="translate(946 2987)" fill="#fff"/>
    <path id="Trazado_135541" data-name="Trazado 135541" d="M-65.509-3.56l2.382-5.95h3.12L-64.507,0h-2.944l-1.521-9.51H-66ZM-56.087.176a4.421,4.421,0,0,1-2.272-.6,3.793,3.793,0,0,1-1.507-1.652,4.44,4.44,0,0,1-.4-2.333l.026-.246a5.829,5.829,0,0,1,1.63-3.713A4.51,4.51,0,0,1-55.2-9.686a3.678,3.678,0,0,1,2.092.621A3.468,3.468,0,0,1-51.833-7.4,5.1,5.1,0,0,1-51.57-5.02l-.167,1.206H-57.4A1.854,1.854,0,0,0-56.975-2.6a1.549,1.549,0,0,0,1.178.492,2.993,2.993,0,0,0,2.259-.967l1.213,1.6a3.578,3.578,0,0,1-1.5,1.2,5.263,5.263,0,0,1-2.1.451Zm.7-7.576a1.487,1.487,0,0,0-1.068.385,3.229,3.229,0,0,0-.787,1.347h2.892l.053-.254a1.929,1.929,0,0,0,.018-.577A1.017,1.017,0,0,0-55.384-7.4Zm11.03.571a8.273,8.273,0,0,0-.9-.088,2.233,2.233,0,0,0-1.986.9L-48.309,0H-51.2l1.652-9.51,2.7-.009-.22,1.248a2.64,2.64,0,0,1,2.2-1.441,4.144,4.144,0,0,1,.9.123Zm9.229,2.092A6.891,6.891,0,0,1-36.488-1.1,3.409,3.409,0,0,1-39.353.185,2.522,2.522,0,0,1-41.515-.993l-.36.993h-2.619l2.347-13.5h2.892l-.94,4.772a2.87,2.87,0,0,1,2.136-.958,2.679,2.679,0,0,1,2.18,1,4.351,4.351,0,0,1,.826,2.667,9.674,9.674,0,0,1-.044,1.1ZM-38-4.908a9.1,9.1,0,0,0,.079-1.018q0-1.413-1.011-1.474a1.732,1.732,0,0,0-1.5.763l-.686,3.791a1.163,1.163,0,0,0,1.2.746q1.415.044,1.784-1.843l.123-.781ZM-27.11,0h-2.9l1.652-9.51h2.9ZM-28.1-11.909a1.341,1.341,0,0,1,.453-1.072,1.625,1.625,0,0,1,1.138-.431,1.678,1.678,0,0,1,1.129.387,1.318,1.318,0,0,1,.47,1.011,1.344,1.344,0,0,1-.448,1.077,1.63,1.63,0,0,1-1.143.426,1.7,1.7,0,0,1-1.121-.382A1.3,1.3,0,0,1-28.1-11.909Zm7.119,2.391-.2,1.143a3.38,3.38,0,0,1,2.751-1.318,2.27,2.27,0,0,1,1.964.98A4.1,4.1,0,0,1-16-5.985L-17,0h-2.9l1.011-6.01a3.108,3.108,0,0,0,.018-.563q-.062-.836-.984-.836a1.807,1.807,0,0,0-1.4.678L-22.443,0h-2.892l1.652-9.51ZM-1.516-4.737A6.891,6.891,0,0,1-2.878-1.1,3.409,3.409,0,0,1-5.744.185,2.522,2.522,0,0,1-7.906-.993L-8.266,0h-2.619l2.347-13.5h2.892l-.94,4.772a2.87,2.87,0,0,1,2.136-.958,2.679,2.679,0,0,1,2.18,1,4.351,4.351,0,0,1,.826,2.667,9.674,9.674,0,0,1-.044,1.1ZM-4.39-4.908a9.1,9.1,0,0,0,.079-1.018q0-1.413-1.011-1.474a1.732,1.732,0,0,0-1.5.763L-7.51-2.846a1.163,1.163,0,0,0,1.2.746q1.415.044,1.784-1.843l.123-.781ZM4.373,0A2.578,2.578,0,0,1,4.25-.861,2.933,2.933,0,0,1,1.92.176,2.866,2.866,0,0,1-.136-.65,2.483,2.483,0,0,1-.9-2.61,2.79,2.79,0,0,1,.391-4.988,6.091,6.091,0,0,1,3.8-5.818l.967.018.105-.536L4.909-6.8a.755.755,0,0,0-.8-.826A1.111,1.111,0,0,0,2.94-6.583l-2.9.009A2.754,2.754,0,0,1,.664-8.24,3.7,3.7,0,0,1,2.241-9.33a5.512,5.512,0,0,1,2.123-.356,4.251,4.251,0,0,1,1.894.453A2.82,2.82,0,0,1,7.475-8.046a3.031,3.031,0,0,1,.308,1.753L7.071-1.819l-.044.545A2.4,2.4,0,0,0,7.194-.167L7.185,0ZM2.72-1.916A1.865,1.865,0,0,0,4.276-2.7l.29-1.529-.747-.009a1.969,1.969,0,0,0-1.2.409A1.55,1.55,0,0,0,2.035-2.76a.778.778,0,0,0,.136.593A.7.7,0,0,0,2.72-1.916Zm11-.809q.114-.58-.9-.87L12.2-3.753A4.806,4.806,0,0,1,9.962-4.887a2.244,2.244,0,0,1-.668-1.731,2.758,2.758,0,0,1,1.217-2.228,4.633,4.633,0,0,1,2.861-.839,4.292,4.292,0,0,1,2.72.853,2.781,2.781,0,0,1,1.059,2.25l-2.883-.009q.035-1.125-.993-1.125a1.417,1.417,0,0,0-.817.259,1.007,1.007,0,0,0-.448.69q-.149.712,1.257.976a7.3,7.3,0,0,1,1.89.672,2.821,2.821,0,0,1,1.02.945A2.35,2.35,0,0,1,16.5-2.821a2.541,2.541,0,0,1-.562,1.538A3.642,3.642,0,0,1,14.388-.2a5.557,5.557,0,0,1-2.2.378,4.469,4.469,0,0,1-1.912-.431A3.408,3.408,0,0,1,8.895-1.4,2.979,2.979,0,0,1,8.38-3.067l2.689.018A1.111,1.111,0,0,0,12.335-1.8a1.661,1.661,0,0,0,.914-.242A1.045,1.045,0,0,0,13.724-2.725Zm8.4,2.9a4.421,4.421,0,0,1-2.272-.6,3.793,3.793,0,0,1-1.507-1.652,4.44,4.44,0,0,1-.4-2.333l.026-.246A5.829,5.829,0,0,1,19.6-8.372a4.51,4.51,0,0,1,3.415-1.314,3.678,3.678,0,0,1,2.092.621A3.468,3.468,0,0,1,26.38-7.4a5.1,5.1,0,0,1,.264,2.381l-.167,1.206h-5.66A1.854,1.854,0,0,0,21.239-2.6a1.549,1.549,0,0,0,1.178.492,2.993,2.993,0,0,0,2.259-.967l1.213,1.6a3.578,3.578,0,0,1-1.5,1.2,5.263,5.263,0,0,1-2.1.451Zm.7-7.576a1.487,1.487,0,0,0-1.068.385,3.229,3.229,0,0,0-.787,1.347h2.892l.053-.254a1.929,1.929,0,0,0,.018-.577A1.017,1.017,0,0,0,22.83-7.4ZM32.067,0l1.292-7.453H32.023l.352-2.057,1.336-.009.114-.835a3.881,3.881,0,0,1,1.213-2.417,3.937,3.937,0,0,1,2.769-.932,8.524,8.524,0,0,1,1.433.194l-.22,2.2a2.8,2.8,0,0,0-.686-.105,1.8,1.8,0,0,0-1.059.293,1.311,1.311,0,0,0-.532.844l-.132.77h1.8l-.352,2.057h-1.8L34.967,0ZM43.4-9.686a3.994,3.994,0,0,1,2.206.637,3.59,3.59,0,0,1,1.367,1.727,5.33,5.33,0,0,1,.312,2.461l-.018.193a5.636,5.636,0,0,1-1.626,3.533,4.575,4.575,0,0,1-3.41,1.31,3.977,3.977,0,0,1-2.188-.628,3.612,3.612,0,0,1-1.367-1.709,5.179,5.179,0,0,1-.321-2.443,5.863,5.863,0,0,1,1.6-3.727A4.547,4.547,0,0,1,43.4-9.686ZM41.243-4.6l-.026.518q-.123,1.957,1.2,1.992,1.705.053,1.978-2.764l.035-.8a2.155,2.155,0,0,0-.294-1.259,1.073,1.073,0,0,0-.918-.487,1.512,1.512,0,0,0-1.314.654A4.278,4.278,0,0,0,41.243-4.6ZM54.611-6.829a8.273,8.273,0,0,0-.9-.088,2.233,2.233,0,0,0-1.986.9L50.656,0H47.764l1.652-9.51,2.7-.009L51.9-8.271a2.64,2.64,0,0,1,2.2-1.441,4.144,4.144,0,0,1,.9.123Zm4.2-2.689-.193,1.143A3.414,3.414,0,0,1,61.4-9.686a2.509,2.509,0,0,1,1.415.4,1.843,1.843,0,0,1,.738,1.028,3.619,3.619,0,0,1,2.892-1.433A2.241,2.241,0,0,1,68.4-8.7a4.117,4.117,0,0,1,.461,2.711L67.865,0h-2.9l1.011-5.987.035-.518q0-.869-.817-.9a1.872,1.872,0,0,0-1.424.781L62.618,0h-2.9l1-5.969.035-.527q0-.9-.817-.9a1.86,1.86,0,0,0-1.406.781L57.362,0H54.47l1.652-9.51ZM-77.489,21.44l2.382-5.95h3.12l-4.5,9.51h-2.944l-1.521-9.51h2.971Zm9.422,3.735a4.421,4.421,0,0,1-2.272-.6,3.793,3.793,0,0,1-1.507-1.652,4.44,4.44,0,0,1-.4-2.333l.026-.246a5.829,5.829,0,0,1,1.63-3.713,4.51,4.51,0,0,1,3.415-1.314,3.678,3.678,0,0,1,2.092.621A3.468,3.468,0,0,1-63.813,17.6a5.1,5.1,0,0,1,.264,2.381l-.167,1.206h-5.66a1.854,1.854,0,0,0,.422,1.213,1.549,1.549,0,0,0,1.178.492,2.993,2.993,0,0,0,2.259-.967l1.213,1.6a3.578,3.578,0,0,1-1.5,1.2,5.263,5.263,0,0,1-2.1.451Zm.7-7.576a1.487,1.487,0,0,0-1.068.385,3.229,3.229,0,0,0-.787,1.347h2.892l.053-.254a1.929,1.929,0,0,0,.018-.577A1.017,1.017,0,0,0-67.364,17.6Zm11.03.571a8.273,8.273,0,0,0-.9-.088,2.233,2.233,0,0,0-1.986.9L-60.289,25H-63.18l1.652-9.51,2.7-.009-.22,1.248a2.64,2.64,0,0,1,2.2-1.441,4.144,4.144,0,0,1,.9.123Zm9.229,2.092A6.891,6.891,0,0,1-48.467,23.9a3.409,3.409,0,0,1-2.865,1.283,2.522,2.522,0,0,1-2.162-1.178l-.36.993h-2.619l2.347-13.5h2.892l-.94,4.772a2.87,2.87,0,0,1,2.136-.958,2.679,2.679,0,0,1,2.18,1,4.351,4.351,0,0,1,.826,2.667,9.674,9.674,0,0,1-.044,1.1Zm-2.874-.171a9.1,9.1,0,0,0,.079-1.018q0-1.413-1.011-1.474a1.732,1.732,0,0,0-1.5.763l-.686,3.791a1.163,1.163,0,0,0,1.2.746q1.415.044,1.784-1.843l.123-.781Zm8.947-4.777a3.994,3.994,0,0,1,2.206.637,3.59,3.59,0,0,1,1.367,1.727,5.33,5.33,0,0,1,.312,2.461l-.018.193a5.636,5.636,0,0,1-1.626,3.533,4.575,4.575,0,0,1-3.41,1.31,3.977,3.977,0,0,1-2.188-.628,3.612,3.612,0,0,1-1.367-1.709,5.179,5.179,0,0,1-.321-2.443,5.863,5.863,0,0,1,1.6-3.727A4.547,4.547,0,0,1-41.032,15.314ZM-43.185,20.4l-.026.518q-.123,1.957,1.2,1.992,1.705.053,1.978-2.764l.035-.8a2.155,2.155,0,0,0-.294-1.259,1.073,1.073,0,0,0-.918-.487,1.512,1.512,0,0,0-1.314.654A4.278,4.278,0,0,0-43.185,20.4Zm15.671,4.777a4.421,4.421,0,0,1-2.272-.6,3.793,3.793,0,0,1-1.507-1.652,4.44,4.44,0,0,1-.4-2.333l.026-.246a5.829,5.829,0,0,1,1.63-3.713,4.51,4.51,0,0,1,3.415-1.314,3.678,3.678,0,0,1,2.092.621A3.468,3.468,0,0,1-23.26,17.6,5.1,5.1,0,0,1-23,19.98l-.167,1.206h-5.66A1.854,1.854,0,0,0-28.4,22.4a1.549,1.549,0,0,0,1.178.492,2.993,2.993,0,0,0,2.259-.967l1.213,1.6a3.578,3.578,0,0,1-1.5,1.2,5.263,5.263,0,0,1-2.1.451Zm.7-7.576a1.487,1.487,0,0,0-1.068.385,3.229,3.229,0,0,0-.787,1.347h2.892l.053-.254A1.929,1.929,0,0,0-25.7,18.5,1.017,1.017,0,0,0-26.811,17.6Zm8.455-2.118-.2,1.143a3.38,3.38,0,0,1,2.751-1.318,2.27,2.27,0,0,1,1.964.98,4.1,4.1,0,0,1,.47,2.729l-1,5.985h-2.9l1.011-6.01a3.108,3.108,0,0,0,.018-.563q-.062-.836-.984-.836a1.807,1.807,0,0,0-1.4.678L-19.815,25h-2.892l1.652-9.51ZM-7.642,25l1.292-7.453H-7.686l.352-2.057L-6,15.481l.114-.835a3.881,3.881,0,0,1,1.213-2.417A3.937,3.937,0,0,1-1.9,11.3a8.524,8.524,0,0,1,1.433.194l-.22,2.2a2.8,2.8,0,0,0-.686-.105,1.8,1.8,0,0,0-1.059.293,1.311,1.311,0,0,0-.532.844l-.132.77h1.8l-.352,2.057h-1.8L-4.742,25ZM3.687,15.314a3.994,3.994,0,0,1,2.206.637A3.59,3.59,0,0,1,7.26,17.679a5.33,5.33,0,0,1,.312,2.461l-.018.193a5.636,5.636,0,0,1-1.626,3.533,4.575,4.575,0,0,1-3.41,1.31A3.977,3.977,0,0,1,.33,24.547a3.612,3.612,0,0,1-1.367-1.709,5.179,5.179,0,0,1-.321-2.443,5.863,5.863,0,0,1,1.6-3.727A4.547,4.547,0,0,1,3.687,15.314ZM1.534,20.4l-.026.518q-.123,1.957,1.2,1.992,1.705.053,1.978-2.764l.035-.8a2.155,2.155,0,0,0-.294-1.259A1.073,1.073,0,0,0,3.5,17.6a1.512,1.512,0,0,0-1.314.654A4.278,4.278,0,0,0,1.534,20.4ZM14.9,18.171a8.273,8.273,0,0,0-.9-.088,2.233,2.233,0,0,0-1.986.9L10.947,25H8.055l1.652-9.51,2.7-.009-.22,1.248a2.64,2.64,0,0,1,2.2-1.441,4.144,4.144,0,0,1,.9.123Zm4.2-2.689-.193,1.143a3.414,3.414,0,0,1,2.777-1.31,2.509,2.509,0,0,1,1.415.4,1.843,1.843,0,0,1,.738,1.028,3.619,3.619,0,0,1,2.892-1.433,2.241,2.241,0,0,1,1.956.989,4.117,4.117,0,0,1,.461,2.711L28.156,25h-2.9l1.011-5.987.035-.518q0-.869-.817-.9a1.872,1.872,0,0,0-1.424.781L22.909,25h-2.9l1-5.969.035-.527q0-.9-.817-.9a1.86,1.86,0,0,0-1.406.781L17.653,25H14.761l1.652-9.51ZM35.231,25a2.578,2.578,0,0,1-.123-.861,2.933,2.933,0,0,1-2.329,1.037,2.866,2.866,0,0,1-2.057-.826,2.483,2.483,0,0,1-.765-1.96,2.79,2.79,0,0,1,1.292-2.377,6.091,6.091,0,0,1,3.41-.831l.967.018.105-.536.035-.466a.755.755,0,0,0-.8-.826A1.111,1.111,0,0,0,33.8,18.417l-2.9.009a2.754,2.754,0,0,1,.624-1.666A3.7,3.7,0,0,1,33.1,15.67a5.512,5.512,0,0,1,2.123-.356,4.251,4.251,0,0,1,1.894.453,2.82,2.82,0,0,1,1.217,1.187,3.031,3.031,0,0,1,.308,1.753l-.712,4.474-.044.545a2.4,2.4,0,0,0,.167,1.107L38.043,25Zm-1.652-1.916a1.865,1.865,0,0,0,1.556-.782l.29-1.529-.747-.009a1.969,1.969,0,0,0-1.2.409,1.55,1.55,0,0,0-.589,1.068.778.778,0,0,0,.136.593A.7.7,0,0,0,33.579,23.084Zm19.468-2.821A6.891,6.891,0,0,1,51.684,23.9a3.409,3.409,0,0,1-2.865,1.283,2.522,2.522,0,0,1-2.162-1.178L46.3,25H43.677l2.347-13.5h2.892l-.94,4.772a2.87,2.87,0,0,1,2.136-.958,2.679,2.679,0,0,1,2.18,1,4.351,4.351,0,0,1,.826,2.667,9.674,9.674,0,0,1-.044,1.1Zm-2.874-.171a9.1,9.1,0,0,0,.079-1.018q0-1.413-1.011-1.474a1.732,1.732,0,0,0-1.5.763l-.686,3.791a1.163,1.163,0,0,0,1.2.746q1.415.044,1.784-1.843l.123-.781ZM58.935,25a2.578,2.578,0,0,1-.123-.861,2.933,2.933,0,0,1-2.329,1.037,2.866,2.866,0,0,1-2.057-.826,2.483,2.483,0,0,1-.765-1.96,2.79,2.79,0,0,1,1.292-2.377,6.091,6.091,0,0,1,3.41-.831l.967.018.105-.536.035-.466a.755.755,0,0,0-.8-.826A1.111,1.111,0,0,0,57.5,18.417l-2.9.009a2.754,2.754,0,0,1,.624-1.666A3.7,3.7,0,0,1,56.8,15.67a5.512,5.512,0,0,1,2.123-.356,4.251,4.251,0,0,1,1.894.453,2.82,2.82,0,0,1,1.217,1.187,3.031,3.031,0,0,1,.308,1.753l-.712,4.474-.044.545a2.4,2.4,0,0,0,.167,1.107L61.748,25Zm-1.652-1.916a1.865,1.865,0,0,0,1.556-.782l.29-1.529-.747-.009a1.969,1.969,0,0,0-1.2.409A1.55,1.55,0,0,0,56.6,22.24a.778.778,0,0,0,.136.593A.7.7,0,0,0,57.283,23.084Zm11-.809q.114-.58-.9-.87l-.624-.158a4.806,4.806,0,0,1-2.241-1.134,2.244,2.244,0,0,1-.668-1.731,2.758,2.758,0,0,1,1.217-2.228,4.633,4.633,0,0,1,2.861-.839,4.292,4.292,0,0,1,2.72.853,2.781,2.781,0,0,1,1.059,2.25l-2.883-.009q.035-1.125-.993-1.125a1.417,1.417,0,0,0-.817.259,1.007,1.007,0,0,0-.448.69q-.149.712,1.257.976a7.3,7.3,0,0,1,1.89.672,2.821,2.821,0,0,1,1.02.945,2.35,2.35,0,0,1,.325,1.354,2.541,2.541,0,0,1-.562,1.538A3.642,3.642,0,0,1,68.95,24.8a5.557,5.557,0,0,1-2.2.378,4.469,4.469,0,0,1-1.912-.431,3.408,3.408,0,0,1-1.38-1.147,2.979,2.979,0,0,1-.514-1.666l2.689.018A1.111,1.111,0,0,0,66.9,23.2a1.661,1.661,0,0,0,.914-.242A1.045,1.045,0,0,0,68.287,22.275Zm8.4,2.9a4.421,4.421,0,0,1-2.272-.6,3.793,3.793,0,0,1-1.507-1.652,4.44,4.44,0,0,1-.4-2.333l.026-.246a5.829,5.829,0,0,1,1.63-3.713,4.51,4.51,0,0,1,3.415-1.314,3.678,3.678,0,0,1,2.092.621A3.468,3.468,0,0,1,80.943,17.6a5.1,5.1,0,0,1,.264,2.381l-.167,1.206h-5.66A1.854,1.854,0,0,0,75.8,22.4a1.549,1.549,0,0,0,1.178.492,2.993,2.993,0,0,0,2.259-.967l1.213,1.6a3.578,3.578,0,0,1-1.5,1.2,5.263,5.263,0,0,1-2.1.451Zm.7-7.576a1.487,1.487,0,0,0-1.068.385,3.229,3.229,0,0,0-.787,1.347h2.892l.053-.254A1.929,1.929,0,0,0,78.5,18.5,1.017,1.017,0,0,0,77.392,17.6Z" transform="translate(1039 3037)" fill="#3c3fa7"/>
    <rect id="Rectángulo_35478" data-name="Rectángulo 35478" width="177" height="48" rx="10" transform="translate(950 2918)" fill="#ff5f65"/>
    <path id="Trazado_135540" data-name="Trazado 135540" d="M-40.012-3.125l3.484-8.25h3.063L-38.965,0h-2.922l-1.906-11.375H-40.9Zm9.25,3.281a3.929,3.929,0,0,1-2.02-.535,3.372,3.372,0,0,1-1.34-1.469,3.946,3.946,0,0,1-.359-2.074l.023-.219a5.182,5.182,0,0,1,1.449-3.3,4.009,4.009,0,0,1,3.035-1.168,3.269,3.269,0,0,1,1.859.552A3.082,3.082,0,0,1-26.98-6.579a4.529,4.529,0,0,1,.234,2.117l-.148,1.072h-5.031a1.648,1.648,0,0,0,.375,1.078,1.377,1.377,0,0,0,1.047.438A2.66,2.66,0,0,0-28.5-2.734l1.078,1.426A3.181,3.181,0,0,1-28.75-.245a4.678,4.678,0,0,1-1.871.4Zm.625-6.734a1.322,1.322,0,0,0-.949.342,2.87,2.87,0,0,0-.7,1.2h2.57l.047-.225a1.715,1.715,0,0,0,.016-.513A.9.9,0,0,0-30.137-6.578Zm9.8.508a7.354,7.354,0,0,0-.8-.078,1.985,1.985,0,0,0-1.766.8L-23.848,0h-2.57l1.469-8.453,2.4-.008-.2,1.109a2.347,2.347,0,0,1,1.953-1.281,3.683,3.683,0,0,1,.8.109Zm8.2,1.859A6.126,6.126,0,0,1-13.34-.977,3.03,3.03,0,0,1-15.887.164,2.241,2.241,0,0,1-17.809-.883l-.32.883h-2.328l2.086-12h2.57l-.836,4.242a2.551,2.551,0,0,1,1.9-.852,2.381,2.381,0,0,1,1.938.887,3.867,3.867,0,0,1,.734,2.371,8.6,8.6,0,0,1-.039.977Zm-2.555-.152a8.091,8.091,0,0,0,.07-.9q0-1.256-.9-1.31a1.539,1.539,0,0,0-1.336.679l-.609,3.369a1.034,1.034,0,0,0,1.063.663q1.258.039,1.586-1.638L-14.7-4.2ZM-6.949.977H-8.863l5.906-12.352h1.922ZM7.129-3.094l2.266-8.281h3.063L8.629,0h-3l-3.8-11.375H4.871ZM16.91.156A4.345,4.345,0,0,1,13.762-1a4.006,4.006,0,0,1-1.2-3.02v-.219a5.191,5.191,0,0,1,.48-2.289,3.516,3.516,0,0,1,1.4-1.535,4.233,4.233,0,0,1,2.188-.543A3.659,3.659,0,0,1,19.441-7.5a4.344,4.344,0,0,1,1.031,3.082V-3.4H15.238a1.9,1.9,0,0,0,.617,1.117,1.836,1.836,0,0,0,1.234.406,2.366,2.366,0,0,0,1.953-.875l1.2,1.422A3.363,3.363,0,0,1,18.852-.246,4.713,4.713,0,0,1,16.91.156Zm-.3-6.734q-1.156,0-1.375,1.531h2.656v-.2a1.3,1.3,0,0,0-.32-.98A1.275,1.275,0,0,0,16.613-6.578Zm10.031.508-.867-.062a1.558,1.558,0,0,0-1.594.781V0H21.551V-8.453H24.02l.086,1.086a2.039,2.039,0,0,1,1.852-1.242,2.567,2.567,0,0,1,.734.094Zm8.8,1.914a5.152,5.152,0,0,1-.859,3.2A2.878,2.878,0,0,1,32.16.156,2.5,2.5,0,0,1,30.082-.867L29.973,0H27.613V-12h2.633v4.227a2.41,2.41,0,0,1,1.9-.836,2.879,2.879,0,0,1,2.438,1.133,5.179,5.179,0,0,1,.859,3.188ZM32.8-4.324a3.437,3.437,0,0,0-.324-1.735,1.093,1.093,0,0,0-1-.519,1.261,1.261,0,0,0-1.234.679v3.354a1.268,1.268,0,0,0,1.25.671,1.118,1.118,0,0,0,1.18-.9A6.5,6.5,0,0,0,32.8-4.324ZM36.27-4.3a4.989,4.989,0,0,1,.492-2.254,3.52,3.52,0,0,1,1.414-1.52,4.259,4.259,0,0,1,2.164-.531,3.887,3.887,0,0,1,2.992,1.176,4.512,4.512,0,0,1,1.094,3.2v.094A4.378,4.378,0,0,1,43.328-1,3.9,3.9,0,0,1,40.355.156a3.942,3.942,0,0,1-2.9-1.082,4.232,4.232,0,0,1-1.18-2.934Zm2.633.164a3.145,3.145,0,0,0,.367,1.719,1.223,1.223,0,0,0,1.086.547q1.406,0,1.438-2.164V-4.3q0-2.273-1.453-2.273-1.32,0-1.43,1.961Z" transform="translate(1039 2943)" fill="#12263f"/>
    <line id="Línea_364" data-name="Línea 364" x2="147" transform="translate(965 3045.5)" fill="none" stroke="#3c3fa7" stroke-linecap="round" stroke-width="2"/>
  </g>
</svg>
