<svg xmlns="http://www.w3.org/2000/svg" xmlns:xlink="http://www.w3.org/1999/xlink" width="85" height="164" viewBox="0 0 85 164">
  <defs>
    <clipPath id="clip-path">
      <rect id="Rectángulo_34080" data-name="Rectángulo 34080" width="85" height="85" transform="translate(951.667 5270)" fill="#fff" stroke="#707070" stroke-width="1"/>
    </clipPath>
    <clipPath id="clip-path-2">
      <rect id="Rectángulo_34212" data-name="Rectángulo 34212" width="68.778" height="34.389" fill="none"/>
    </clipPath>
  </defs>
  <g id="Grupo_88101" data-name="Grupo 88101" transform="translate(-951.667 -5668)">
    <path id="Rectángulo_34085" data-name="Rectángulo 34085" d="M10,0H75A10,10,0,0,1,85,10V164a0,0,0,0,1,0,0H0a0,0,0,0,1,0,0V10A10,10,0,0,1,10,0Z" transform="translate(951.667 5668)" fill="#6b8dff"/>
    <g id="Enmascarar_grupo_84" data-name="Enmascarar grupo 84" transform="translate(0 477)" clip-path="url(#clip-path)">
      <g id="reina" transform="translate(951.667 5270)">
        <g id="Grupo_81118" data-name="Grupo 81118">
          <path id="Trazado_115088" data-name="Trazado 115088" d="M21.163,72.126v7.691H59.437l5.633-7.065L50.1,63.967l-.31-.181a1.739,1.739,0,0,1-.831-1.2l-.863-4.875L46.248,47.566H38l-.924,10.147-.863,4.875a1.739,1.739,0,0,1-.831,1.2l-.386.226L21.163,72.126Z" fill="#ffdfcf" stroke="#707070" stroke-width="0.167"/>
          <path id="Trazado_115089" data-name="Trazado 115089" d="M48.7,61.141l-.606-3.427L46.248,47.566H38l-.924,10.147-.863,4.875a1.739,1.739,0,0,1-.831,1.2l-.386.226L21.163,72.126h0v7.691h8.484v-1.9h0L43.477,69.8l.386-.226a1.739,1.739,0,0,0,.831-1.2l.863-4.875,0-.04a1.691,1.691,0,0,1,1.145-1.44,12.879,12.879,0,0,0,1.993-.883Z" fill="#ffcebf" stroke="#707070" stroke-width="0.167"/>
          <g id="Grupo_81109" data-name="Grupo 81109">
            <path id="Trazado_115090" data-name="Trazado 115090" d="M71.126,79.153v3.141A1.456,1.456,0,0,1,69.67,83.75H15.5a1.456,1.456,0,0,1-1.456-1.456V79.153A4.973,4.973,0,0,1,16.5,74.864l4.667-2.737A26.162,26.162,0,0,0,37.22,77.634H60.2l4.917-4.855,1.667.977,1.887,1.106A4.974,4.974,0,0,1,71.126,79.153Z" fill="#fdf6ec" stroke="#707070" stroke-width="0.167"/>
          </g>
          <g id="Grupo_81110" data-name="Grupo 81110">
            <path id="Trazado_115091" data-name="Trazado 115091" d="M26.956,82.34a4.973,4.973,0,0,1,2.456-4.289l1.873-1.1a26.169,26.169,0,0,1-10.122-4.826L16.5,74.864a4.973,4.973,0,0,0-2.456,4.289v3.141A1.456,1.456,0,0,0,15.5,83.75h11.46V82.34Z" fill="#fef1da" stroke="#707070" stroke-width="0.167"/>
          </g>
          <path id="Trazado_115092" data-name="Trazado 115092" d="M56.289,9.667V1.892a.642.642,0,0,0-.908-.584l-6.9,3.149a1.142,1.142,0,0,1-.939,0L42.965,2.421a1.142,1.142,0,0,0-.93,0L37.458,4.461a1.141,1.141,0,0,1-.939,0l-6.9-3.149a.642.642,0,0,0-.908.584V18.332H56.289Z" fill="#fef0ae" stroke="#707070" stroke-width="0.167"/>
          <path id="Trazado_115093" data-name="Trazado 115093" d="M55.382,1.308l-6.9,3.149a1.142,1.142,0,0,1-.939,0L42.965,2.42a1.142,1.142,0,0,0-.93,0l-4.577,2.04a1.141,1.141,0,0,1-.939,0l-6.9-3.149a.642.642,0,0,0-.908.584V5.8a.641.641,0,0,1,.908-.584l6.9,3.149a1.142,1.142,0,0,0,.939,0l4.577-2.04a1.142,1.142,0,0,1,.93,0l3.961,1.766a2.635,2.635,0,0,0,2.167-.009l6.288-2.869a.642.642,0,0,1,.908.584v-3.9a.642.642,0,0,0-.908-.584Z" fill="#fee97d" stroke="#707070" stroke-width="0.167"/>
          <g id="XMLID_146_">
            <g id="Grupo_81111" data-name="Grupo 81111">
              <path id="Trazado_115094" data-name="Trazado 115094" d="M69.4,32.382A12.609,12.609,0,1,1,54.732,52.593L47,47.566H37.073l-6.805,5.027A12.609,12.609,0,1,1,15.6,32.382a2.786,2.786,0,0,0,1.481-2.176l.733-7.376A15.3,15.3,0,0,1,38.94,10.22l3.56,1.485,3.56-1.485A15.3,15.3,0,0,1,67.185,22.83l.733,7.376A2.785,2.785,0,0,0,69.4,32.382Z" fill="#efedef" stroke="#707070" stroke-width="0.167"/>
            </g>
          </g>
          <g id="Grupo_81112" data-name="Grupo 81112">
            <path id="Trazado_115095" data-name="Trazado 115095" d="M30.441,46.81a12.6,12.6,0,0,1,6.692-11.081,2.786,2.786,0,0,0,1.481-2.176l.733-7.376a15.3,15.3,0,0,1,21.125-12.61L64.1,15.025A15.3,15.3,0,0,0,46.06,10.22L42.5,11.705,38.94,10.22A15.3,15.3,0,0,0,17.815,22.83l-.733,7.376A2.786,2.786,0,0,1,15.6,32.382,12.609,12.609,0,1,0,30.268,52.593l1.162-.858a12.484,12.484,0,0,1-.989-4.926Z" fill="#e5e1e5" stroke="#707070" stroke-width="0.167"/>
          </g>
          <path id="Trazado_115096" data-name="Trazado 115096" d="M57.593,43.519a5.825,5.825,0,0,0,5.825-5.825V36.7a5.825,5.825,0,0,0-5.825-5.825H47V43.519H57.593Z" fill="#ffcebf" stroke="#707070" stroke-width="0.167"/>
          <path id="Trazado_115097" data-name="Trazado 115097" d="M27.407,43.519a5.825,5.825,0,0,1-5.825-5.825V36.7a5.825,5.825,0,0,1,5.825-5.825H39.3V43.95Z" fill="#ffb09e" stroke="#707070" stroke-width="0.167"/>
          <g id="Grupo_81115" data-name="Grupo 81115">
            <g id="XMLID_145_">
              <g id="Grupo_81113" data-name="Grupo 81113">
                <path id="Trazado_115098" data-name="Trazado 115098" d="M57.562,44.113a11.639,11.639,0,0,1-5.024,10.435l-4.612,3.165a9.588,9.588,0,0,1-10.853,0l-4.612-3.165a11.639,11.639,0,0,1-5.024-10.435L28.7,26.6a.961.961,0,0,1,.783-.874,22.3,22.3,0,0,0,6.506-2.276,22.352,22.352,0,0,0,5.5-4.151,1.406,1.406,0,0,1,2.018,0,22.352,22.352,0,0,0,5.5,4.151,22.3,22.3,0,0,0,6.506,2.276.961.961,0,0,1,.783.874Z" fill="#ffdfcf" stroke="#707070" stroke-width="0.167"/>
              </g>
            </g>
            <path id="Trazado_115099" data-name="Trazado 115099" d="M48.17,24.659q.761-.407,1.489-.873c-.218-.108-.435-.217-.649-.332a22.352,22.352,0,0,1-5.5-4.151,1.406,1.406,0,0,0-2.018,0,22.352,22.352,0,0,1-5.5,4.151,22.3,22.3,0,0,1-6.506,2.276.961.961,0,0,0-.783.874L27.437,44.113a11.639,11.639,0,0,0,5.024,10.435l4.612,3.165a9.591,9.591,0,0,0,10.637.144l-3.069-2.1a11.639,11.639,0,0,1-5.024-10.435l1.05-14.653a5.179,5.179,0,0,1,3.682-4.594,23.559,23.559,0,0,0,3.82-1.412Z" fill="#ffcebf" stroke="#707070" stroke-width="0.167"/>
            <g id="Grupo_81114" data-name="Grupo 81114">
              <path id="Trazado_115100" data-name="Trazado 115100" d="M26.759,43.952l-.767-.767a2.172,2.172,0,0,0-3.071,0l-.767.767a2.172,2.172,0,0,0,0,3.071l.767.767a2.172,2.172,0,0,0,3.071,0l.767-.767a2.172,2.172,0,0,0,0-3.071Z" fill="#fef0ae" stroke="#707070" stroke-width="0.167"/>
              <path id="Trazado_115101" data-name="Trazado 115101" d="M58.24,43.952l.767-.767a2.172,2.172,0,0,1,3.071,0l.767.767a2.172,2.172,0,0,1,0,3.071l-.767.767a2.172,2.172,0,0,1-3.071,0l-.767-.767a2.171,2.171,0,0,1,0-3.071Z" fill="#fef0ae" stroke="#707070" stroke-width="0.167"/>
              <circle id="Elipse_4758" data-name="Elipse 4758" cx="2.344" cy="2.344" r="2.344" transform="translate(40.156 66.901)" fill="#fef0ae" stroke="#707070" stroke-width="0.167"/>
            </g>
            <path id="Trazado_115102" data-name="Trazado 115102" d="M42.424,69.245a2.344,2.344,0,0,1,1.211-2.051,2.344,2.344,0,1,0,0,4.1,2.344,2.344,0,0,1-1.212-2.051Z" fill="#fee97d" stroke="#707070" stroke-width="0.167"/>
            <circle id="Elipse_4759" data-name="Elipse 4759" cx="2.344" cy="2.344" r="2.344" transform="translate(35.705 66.173)" fill="#fef0ae" stroke="#707070" stroke-width="0.167"/>
            <path id="Trazado_115103" data-name="Trazado 115103" d="M38.05,68.517a2.346,2.346,0,0,1,1.175-2.029,2.344,2.344,0,1,0,0,4.058A2.345,2.345,0,0,1,38.05,68.517Z" fill="#fee97d" stroke="#707070" stroke-width="0.167"/>
            <circle id="Elipse_4760" data-name="Elipse 4760" cx="2.344" cy="2.344" r="2.344" transform="translate(31.844 64.067)" fill="#fef0ae" stroke="#707070" stroke-width="0.167"/>
            <path id="Trazado_115104" data-name="Trazado 115104" d="M34.188,66.411a2.346,2.346,0,0,1,1.175-2.029,2.344,2.344,0,1,0,0,4.058A2.345,2.345,0,0,1,34.188,66.411Z" fill="#fee97d" stroke="#707070" stroke-width="0.167"/>
            <circle id="Elipse_4761" data-name="Elipse 4761" cx="2.344" cy="2.344" r="2.344" transform="translate(44.526 66.173)" fill="#fef0ae" stroke="#707070" stroke-width="0.167"/>
            <path id="Trazado_115105" data-name="Trazado 115105" d="M46.871,68.319a2.345,2.345,0,0,1,1-1.921,2.344,2.344,0,1,0,.342,4.038A2.344,2.344,0,0,1,46.871,68.319Z" fill="#fee97d" stroke="#707070" stroke-width="0.167"/>
            <circle id="Elipse_4762" data-name="Elipse 4762" cx="2.344" cy="2.344" r="2.344" transform="translate(48.427 64.067)" fill="#fef0ae" stroke="#707070" stroke-width="0.167"/>
            <path id="Trazado_115106" data-name="Trazado 115106" d="M50.542,65.549a2.339,2.339,0,0,1,.518-1.464,2.412,2.412,0,0,0-.288-.017A2.344,2.344,0,1,0,52.6,67.874a2.345,2.345,0,0,1-2.062-2.325Z" fill="#fee97d" stroke="#707070" stroke-width="0.167"/>
          </g>
          <g id="Grupo_81117" data-name="Grupo 81117">
            <g id="XMLID_160_">
              <g id="Grupo_81116" data-name="Grupo 81116">
                <path id="Trazado_115107" data-name="Trazado 115107" d="M65.806,71.66a2.081,2.081,0,0,1,.564,3.055L59.344,83.75H45.665L57.372,68.7a2.081,2.081,0,0,1,2.721-.5Z" fill="#fd8087" stroke="#707070" stroke-width="0.167"/>
              </g>
            </g>
          </g>
          <path id="Trazado_115108" data-name="Trazado 115108" d="M60.093,68.2a2.081,2.081,0,0,0-2.721.5L45.665,83.75H53.3L63.7,70.38Z" fill="#fe646f" stroke="#707070" stroke-width="0.167"/>
        </g>
        <path id="Trazado_115109" data-name="Trazado 115109" d="M54.807,54.313a13.854,13.854,0,1,0,14.437-23.4l-.816-8.209a16.642,16.642,0,0,0-2.446-7.149,1.249,1.249,0,1,0-2.117,1.326,14.128,14.128,0,0,1,2.078,6.07L67.09,34.489a1.249,1.249,0,0,0,1.241,1.125c.041,0,.083,0,.125-.006a1.249,1.249,0,0,0,1.119-1.366l-.034-.34a11.362,11.362,0,1,1-13.1,18.529,13,13,0,0,0,1.682-3.259l0,0a3.421,3.421,0,0,0,4.837,0l.767-.767a3.425,3.425,0,0,0,0-4.837l-.767-.767c-.082-.082-.167-.158-.254-.229a7.047,7.047,0,0,0,1.959-4.878V36.7a7.081,7.081,0,0,0-6.9-7.069l-.225-3.118a2.208,2.208,0,0,0-1.8-2.013,20.97,20.97,0,0,1-11.335-6.068,2.654,2.654,0,0,0-3.813,0,21.114,21.114,0,0,1-3.578,2.954,1.249,1.249,0,0,0,1.371,2.088,23.6,23.6,0,0,0,4-3.305.158.158,0,0,1,.226,0A23.449,23.449,0,0,0,55.07,26.917L56.317,44.2a10.428,10.428,0,0,1-4.485,9.317L47.22,56.684a8.394,8.394,0,0,1-9.441,0l-4.612-3.165A10.429,10.429,0,0,1,28.683,44.2L29.93,26.917a23.678,23.678,0,0,0,3.386-.922,1.249,1.249,0,0,0-.833-2.354,21.161,21.161,0,0,1-3.225.862,2.208,2.208,0,0,0-1.8,2.012l-.225,3.118a7.081,7.081,0,0,0-6.9,7.069v.992a7.044,7.044,0,0,0,1.959,4.878,3.39,3.39,0,0,0-.254.23l-.767.767a3.425,3.425,0,0,0,0,4.837l.767.767a3.42,3.42,0,0,0,4.837,0l0,0a12.994,12.994,0,0,0,1.682,3.259A11.361,11.361,0,1,1,15.458,33.9l-.034.338a1.249,1.249,0,0,0,1.119,1.366q.063.006.125.006a1.249,1.249,0,0,0,1.241-1.125l1.147-11.536a14.057,14.057,0,0,1,19.4-11.581l3.559,1.486a1.25,1.25,0,0,0,.962,0l3.559-1.486a14.072,14.072,0,0,1,14.05,1.882,1.249,1.249,0,1,0,1.535-1.97,16.5,16.5,0,0,0-4.587-2.519V1.891A1.89,1.89,0,0,0,54.863.172L48.006,3.3,43.473,1.28a2.394,2.394,0,0,0-1.946,0L36.994,3.3,30.137.172a1.89,1.89,0,0,0-2.675,1.72V8.749a16.592,16.592,0,0,0-10.89,13.956l-.816,8.209A13.857,13.857,0,1,0,30.2,54.317a12.774,12.774,0,0,0,1.558,1.261l3.949,2.71-.721,4.084a.488.488,0,0,1-.135.258,3.479,3.479,0,0,0-4.268,2.525L15.865,73.787a6.246,6.246,0,0,0-3.074,5.367v4.6a1.249,1.249,0,0,0,2.5,0v-4.6a3.739,3.739,0,0,1,1.84-3.213l3.951-2.318a27.316,27.316,0,0,0,7.638,3.906,1.249,1.249,0,1,0,.775-2.374,24.84,24.84,0,0,1-6.041-2.923l7.523-4.413a3.481,3.481,0,0,0,3.662,1.63,3.489,3.489,0,0,0,5.205,2,3.488,3.488,0,0,0,5.316,0,3.489,3.489,0,0,0,5.205-2,3.484,3.484,0,0,0,3.706-1.7l1.69.991-5.948,7.648H37.22a25.035,25.035,0,0,1-2.753-.154,1.249,1.249,0,0,0-.276,2.482,27.5,27.5,0,0,0,3.029.169H47.869l-3.189,4.1a1.249,1.249,0,0,0,1.971,1.533L58.359,69.463a.831.831,0,0,1,1.087-.2l5.713,3.466a.831.831,0,0,1,.225,1.221l-7.027,9.035a1.249,1.249,0,1,0,1.971,1.533l7-8.995.713.418a3.739,3.739,0,0,1,1.84,3.213v4.6a1.249,1.249,0,0,0,2.5,0v-4.6A6.245,6.245,0,0,0,69.3,73.787l-1.269-.744c-.008-.069-.018-.138-.031-.207a3.331,3.331,0,0,0-1.547-2.243l-5.713-3.466a3.325,3.325,0,0,0-3.1-.182l-3.247-1.9a3.49,3.49,0,0,0-4.1-2.445.486.486,0,0,1-.105-.223l-.74-4.186,3.8-2.608a12.754,12.754,0,0,0,1.562-1.266Zm7.155-7.673-.767.767a.923.923,0,0,1-1.305,0l-.767-.767a.923.923,0,0,1,0-1.305h0l.767-.767a.923.923,0,0,1,1.305,0l.767.767a.924.924,0,0,1,0,1.305Zm.206-9.938v.992a4.583,4.583,0,0,1-3.5,4.446l-.722-10A4.581,4.581,0,0,1,62.169,36.7ZM29.959,2.836,36,5.593a2.389,2.389,0,0,0,1.966.008L42.5,3.58,47.033,5.6A2.39,2.39,0,0,0,49,5.593l6.042-2.757V8.085a16.549,16.549,0,0,0-9.463.982L42.5,10.352,39.422,9.067a16.529,16.529,0,0,0-9.463-1V2.836ZM22.831,36.7a4.581,4.581,0,0,1,4.218-4.561l-.722,10a4.583,4.583,0,0,1-3.5-4.446V36.7Zm3.045,9.938-.767.767a.923.923,0,0,1-1.305,0l-.767-.767a.924.924,0,0,1,0-1.305l.767-.767a.923.923,0,0,1,1.305,0l.767.767h0a.923.923,0,0,1,0,1.305ZM47.157,59.59l.568,3.216a2.983,2.983,0,0,0,.474,1.162,3.488,3.488,0,0,0-.527,1.079,3.479,3.479,0,0,0-3.328,1.163,3.469,3.469,0,0,0-3.688,0,3.479,3.479,0,0,0-3.328-1.163,3.484,3.484,0,0,0-.445-.965,2.979,2.979,0,0,0,.558-1.275L38,59.66a10.936,10.936,0,0,0,9.16-.07ZM32.965,66.021c0-.017,0-.034,0-.05a.988.988,0,1,1,0,.05ZM38,69.483a1,1,0,1,1,1-1A1,1,0,0,1,38,69.483Zm4.5.7a1,1,0,1,1,1-1,1,1,0,0,1-1,1Zm4.5-.7a1,1,0,1,1,1-1A1,1,0,0,1,47,69.483ZM52.028,65.9c0,.012,0,.023,0,.035s0,.052,0,.078a1.007,1.007,0,1,1-.007-.114Z" stroke="#707070" stroke-width="0.167"/>
      </g>
    </g>
    <g id="Grupo_82891" data-name="Grupo 82891" transform="translate(959.778 5685)">
      <rect id="Rectángulo_34205" data-name="Rectángulo 34205" width="68.778" height="34.389" transform="translate(0 0)" fill="#002173"/>
      <g id="Grupo_82890" data-name="Grupo 82890" transform="translate(0 0)">
        <g id="Grupo_82889" data-name="Grupo 82889" clip-path="url(#clip-path-2)">
          <g id="Grupo_82888" data-name="Grupo 82888" transform="translate(-8.16 -6.387)">
            <g id="Grupo_82886" data-name="Grupo 82886">
              <g id="Grupo_82883" data-name="Grupo 82883">
                <rect id="Rectángulo_34206" data-name="Rectángulo 34206" width="91.704" height="6.878" transform="translate(3.076) rotate(26.565)" fill="#fff"/>
                <g id="Grupo_82882" data-name="Grupo 82882" transform="translate(0.513 3.076)">
                  <rect id="Rectángulo_34207" data-name="Rectángulo 34207" width="2.293" height="45.852" transform="translate(0 2.051) rotate(-63.435)" fill="#c61018"/>
                  <rect id="Rectángulo_34208" data-name="Rectángulo 34208" width="2.293" height="45.852" transform="translate(42.037 20.506) rotate(-63.435)" fill="#c61018"/>
                </g>
              </g>
              <g id="Grupo_82885" data-name="Grupo 82885">
                <rect id="Rectángulo_34209" data-name="Rectángulo 34209" width="91.704" height="6.878" transform="translate(0 41.011) rotate(-26.565)" fill="#fff"/>
                <g id="Grupo_82884" data-name="Grupo 82884" transform="translate(1.538 1.025)">
                  <rect id="Rectángulo_34210" data-name="Rectángulo 34210" width="45.852" height="2.293" transform="translate(0 43.062) rotate(-26.565)" fill="#c61018"/>
                  <rect id="Rectángulo_34211" data-name="Rectángulo 34211" width="45.852" height="2.293" transform="translate(39.986 20.506) rotate(-26.565)" fill="#c61018"/>
                </g>
              </g>
            </g>
            <g id="Grupo_82887" data-name="Grupo 82887" transform="translate(2.429 0.655)">
              <path id="Trazado_115815" data-name="Trazado 115815" d="M1990.241,1317.193h-34.389V1300h-11.463v17.195H1910v11.463h34.389v17.195h11.463v-17.195h34.389Z" transform="translate(-1910 -1299.998)" fill="#fff"/>
              <path id="Trazado_115816" data-name="Trazado 115816" d="M1990.241,1319.486H1953.56V1300h-6.878v19.487H1910v6.878h36.682v19.487h6.878v-19.487h36.682Z" transform="translate(-1910 -1299.998)" fill="#c61018"/>
            </g>
          </g>
        </g>
      </g>
    </g>
  </g>
</svg>
