<svg xmlns="http://www.w3.org/2000/svg" xmlns:xlink="http://www.w3.org/1999/xlink" width="85" height="85" viewBox="0 0 85 85">
  <defs>
    <clipPath id="clip-path">
      <rect id="Rectángulo_35500" data-name="Rectángulo 35500" width="85" height="85" transform="translate(810 2783)" fill="#fff" stroke="#707070" stroke-width="1"/>
    </clipPath>
  </defs>
  <g id="Grupo_158910" data-name="Grupo 158910" transform="translate(-810 -2783)">
    <circle id="Elipse_4863" data-name="Elipse 4863" cx="42.5" cy="42.5" r="42.5" transform="translate(810 2783)" fill="#ffd947"/>
    <g id="Enmascarar_grupo_95" data-name="Enmascarar grupo 95" clip-path="url(#clip-path)">
      <g id="einstein" transform="translate(810 2783)">
        <path id="Trazado_120494" data-name="Trazado 120494" d="M57.653,64.9l-5.195-3.464H32.543L27.349,64.9a19.815,19.815,0,0,0,5.235,6.945l-.04.046V83.341H52.459V71.89l-.04-.046A19.813,19.813,0,0,0,57.653,64.9Z" fill="#ffc2a6"/>
        <path id="Trazado_120495" data-name="Trazado 120495" d="M76.689,34.88h6.638A18.988,18.988,0,0,0,70.535,19.552l-3.8-1.268,6.639-1.66,3.319-1.66-2.177-1.743a22.34,22.34,0,0,0-13.959-4.9h-.46c2.4-1.2,4.237-2.682,6.639-3.883C62.086.727,51.191-.364,42.5,8.326,33.767-.408,22.6.828,18.271,4.293c2.4,1.2,4.237,2.831,6.639,4.033h-.46a22.341,22.341,0,0,0-13.959,4.9L8.313,14.965l6.639,1.66,3.319,1.66-3.8,1.268A18.988,18.988,0,0,0,1.674,34.88H8.313L5.885,37.308A14.378,14.378,0,0,0,1.674,47.473v.684H8.313L7.44,49.322A14.372,14.372,0,0,0,4.994,61.434l3.319-1.66,3.319-1.66a14.372,14.372,0,0,0,2.446,12.112l.873,1.165,8.112-7.005a2.817,2.817,0,0,0,3.9.767l5.578-3.719a3.553,3.553,0,0,0,5.523,2.956l2.594-1.728a3.316,3.316,0,0,1,3.681,0l2.594,1.728a3.553,3.553,0,0,0,5.523-2.956l5.578,3.719a2.82,2.82,0,0,0,3.9-.767l8.112,7.005.873-1.165A14.372,14.372,0,0,0,73.37,58.115l3.319,1.66,3.319,1.66a14.372,14.372,0,0,0-2.446-12.112l-.873-1.165h6.638v-.684a14.378,14.378,0,0,0-4.211-10.165Z" fill="#fff"/>
        <g id="Grupo_93407" data-name="Grupo 93407">
          <circle id="Elipse_4869" data-name="Elipse 4869" cx="7.191" cy="7.191" r="7.191" transform="translate(25.352 37.647)" fill="#d4e9ff"/>
          <circle id="Elipse_4870" data-name="Elipse 4870" cx="7.191" cy="7.191" r="7.191" transform="translate(45.267 37.647)" fill="#d4e9ff"/>
        </g>
        <path id="Trazado_120496" data-name="Trazado 120496" d="M63.975,47.955a11.044,11.044,0,0,1-1.117-4.113,12.59,12.59,0,0,1,.076-2.632A17.335,17.335,0,0,0,45.749,21.6h-6.5A17.335,17.335,0,0,0,22.068,41.21a11.608,11.608,0,0,1-1.041,6.745,5.463,5.463,0,0,0,1.024,6.306l2.368,2.368a11.323,11.323,0,0,1,8.64-5.12l0-.053a6.639,6.639,0,1,1,4.9-2.778l.573,2.863a4.049,4.049,0,0,0,7.94,0l.573-2.863a6.639,6.639,0,1,1,4.888,2.777l0,.053a11.325,11.325,0,0,1,8.657,5.121l2.368-2.368A5.463,5.463,0,0,0,63.975,47.955Z" fill="#ffc2a6"/>
        <path id="Trazado_120497" data-name="Trazado 120497" d="M46.708,33.22H38.294a1.66,1.66,0,0,0,0,3.319h8.414a1.66,1.66,0,1,0,0-3.319Z"/>
        <path id="Trazado_120498" data-name="Trazado 120498" d="M83.328,36.54a1.66,1.66,0,0,0,1.643-1.894A20.649,20.649,0,0,0,72.552,18.54c2.338-.607.368.079,4.879-2.09a1.66,1.66,0,0,0,.295-2.78l-2.178-1.743A24.08,24.08,0,0,0,65.318,7.148c.7-.431,1.4-.841,2.156-1.221a1.66,1.66,0,0,0,.294-2.78C64.917.866,60.518-.281,56,.078A22.877,22.877,0,0,0,42.5,6.045C33.495-1.942,22.205-.98,17.234,3a1.66,1.66,0,0,0,.294,2.78,22.71,22.71,0,0,1,2.284,1.344,24.08,24.08,0,0,0-10.359,4.8L7.276,13.669a1.66,1.66,0,0,0,.635,2.906l5.853,1.463A20.647,20.647,0,0,0,.032,34.645a1.659,1.659,0,0,0,.389,1.322,1.644,1.644,0,0,0,1.254.556H4.321A16.305,16.305,0,0,0,.016,48.157,1.646,1.646,0,0,0,1.675,49.8H5.118A16,16,0,0,0,3.384,61.836a1.66,1.66,0,0,0,2.352,1.082l3.814-1.907a16.678,16.678,0,0,0,4.073,11.375,1.66,1.66,0,0,0,2.413.261l6.995-6.04a4.454,4.454,0,0,0,3.577.515,21.4,21.4,0,0,0,4.276,5.434V83.341A1.66,1.66,0,0,0,32.544,85H52.459a1.66,1.66,0,0,0,1.66-1.66V72.556A21.406,21.406,0,0,0,58.4,67.119a4.52,4.52,0,0,0,3.572-.514l7,6.043a1.66,1.66,0,0,0,2.413-.261,16.717,16.717,0,0,0,4.073-11.375l3.814,1.907a1.66,1.66,0,0,0,2.352-1.082,15.956,15.956,0,0,0-1.734-12.02h3.443a1.66,1.66,0,0,0,1.66-1.66v-.684a16.156,16.156,0,0,0-4.306-10.934h2.645ZM23.713,40.992a15.68,15.68,0,0,1,15.54-17.729h6.5a15.68,15.68,0,0,1,15.54,17.729q-.079.6-.108,1.191H60.32a8.294,8.294,0,0,0-14.5-2.324H39.179a8.3,8.3,0,0,0-14.766,3.319h-.575A14.468,14.468,0,0,0,23.713,40.992Zm38.064,12.1-1.034,1.034q-.23-.256-.473-.5a12.985,12.985,0,0,0-2.838-2.146,8.3,8.3,0,0,0,3.3-5.974h.685a12.456,12.456,0,0,0,1.078,3.2A3.8,3.8,0,0,1,61.777,53.087Zm-24.255-8.25a4.979,4.979,0,1,1-4.979-4.979A4.977,4.977,0,0,1,37.522,44.838Zm2.86,7.011a2.388,2.388,0,0,1-.223-.634l-.441-2.207a8.24,8.24,0,0,0,1.124-4.171,8.469,8.469,0,0,0-.169-1.676H44.33a8.468,8.468,0,0,0-.169,1.676,8.242,8.242,0,0,0,1.124,4.171l-.441,2.207a2.388,2.388,0,0,1-4.461.634ZM52.06,49.8a4.979,4.979,0,1,1,5.377-4.962A4.979,4.979,0,0,1,52.06,49.8ZM22.512,48.7a12.328,12.328,0,0,0,.845-2.2h1.055a8.312,8.312,0,0,0,3.157,4.978,12.982,12.982,0,0,0-2.838,2.146q-.243.243-.473.5l-1.034-1.034A3.8,3.8,0,0,1,22.512,48.7ZM34.2,81.681V75.026a15.882,15.882,0,0,0,16.6,0v6.655H34.2Zm8.3-7.634c-5.48,0-10.379-3.8-13.013-8.581l2.106-1.4a5.217,5.217,0,0,0,7.393,1.709l2.6-1.729a1.651,1.651,0,0,1,1.839,0l2.594,1.727a5.217,5.217,0,0,0,7.394-1.709l2.106,1.4C52.883,70.246,47.986,74.047,42.5,74.047ZM58.957,63.772,53.38,60.053a1.66,1.66,0,0,0-2.58,1.381,1.894,1.894,0,0,1-2.944,1.575l-2.593-1.727a4.96,4.96,0,0,0-5.523,0l-2.595,1.728A1.894,1.894,0,0,1,34.2,61.434a1.66,1.66,0,0,0-2.58-1.381c-6.068,4.045-5.766,3.918-6.211,3.918a1.16,1.16,0,0,1-1.167-1.163,9.675,9.675,0,0,1,8.941-9.644,9.9,9.9,0,0,1,4.574.757,5.7,5.7,0,0,0,9.482,0,9.911,9.911,0,0,1,4.561-.758,9.675,9.675,0,0,1,8.954,9.645A1.154,1.154,0,0,1,58.957,63.772ZM81.63,46.5h-4.94a1.66,1.66,0,0,0-1.328,2.655l.874,1.166a12.654,12.654,0,0,1,2.507,8.627L74.112,56.63a1.66,1.66,0,0,0-2.352,1.887,12.658,12.658,0,0,1-1.974,10.453l-5.85-5.052a4.536,4.536,0,0,0,.14-1.111,12.928,12.928,0,0,0-.989-4.972c-.131-.315-.277-.626-.433-.931l1.471-1.471a7.112,7.112,0,0,0,1.335-8.222,9.333,9.333,0,0,1-.927-3.3c0-.024,0-.047,0-.07a1.661,1.661,0,0,0-.034-.334,11.006,11.006,0,0,1,.077-2.081A19,19,0,0,0,45.749,19.944h-6.5A19,19,0,0,0,20.423,41.429a9.945,9.945,0,0,1-.88,5.783,7.113,7.113,0,0,0,1.335,8.223L22.347,56.9a12.949,12.949,0,0,0-1.42,5.9,4.537,4.537,0,0,0,.14,1.111l-5.85,5.052a12.657,12.657,0,0,1-1.974-10.453A1.66,1.66,0,0,0,10.89,56.63L6.261,58.945a13.57,13.57,0,0,1,3.38-9.793A1.66,1.66,0,0,0,8.313,46.5H3.372c.49-6.237,4.94-8.957,6.114-10.444A1.66,1.66,0,0,0,8.313,33.22H3.695a17.218,17.218,0,0,1,11.3-12.094l3.8-1.268a1.66,1.66,0,0,0,.217-3.059c-4.556-2.259-2.381-1.447-7.038-2.63A20.763,20.763,0,0,1,24.45,9.986h.46a1.66,1.66,0,0,0,.743-3.144,28.965,28.965,0,0,1-3.14-1.912q-.447-.3-.906-.6c4.553-1.752,12.8-1.752,19.721,5.171a1.66,1.66,0,0,0,2.347,0,19.9,19.9,0,0,1,12.59-6.113,15.74,15.74,0,0,1,7.152,1.034q-.452.281-.892.561a35.843,35.843,0,0,1-3.174,1.86,1.66,1.66,0,0,0,.743,3.144h.46A21.371,21.371,0,0,1,73.628,14.64l-.837.418L66.33,16.674a1.66,1.66,0,0,0-.122,3.185l3.8,1.268a17.218,17.218,0,0,1,11.3,12.094H76.69a1.66,1.66,0,0,0-1.174,2.833l2.428,2.428A12.819,12.819,0,0,1,81.63,46.5Z"/>
        <path id="Trazado_120499" data-name="Trazado 120499" d="M35.863,29.9H49.14a1.66,1.66,0,1,0,0-3.319H35.863a1.66,1.66,0,1,0,0,3.319Z"/>
      </g>
    </g>
  </g>
</svg>
