<svg xmlns="http://www.w3.org/2000/svg" width="213" height="236" viewBox="0 0 213 236">
  <g id="Grupo_158912" data-name="Grupo 158912" transform="translate(-1170 -2892)">
    <g id="Rectángulo_34989" data-name="Rectángulo 34989" transform="translate(1170 2892)" fill="#fff7da" stroke="#ffd947" stroke-width="1">
      <rect width="213" height="236" rx="10" stroke="none"/>
      <rect x="0.5" y="0.5" width="212" height="235" rx="9.5" fill="none"/>
    </g>
    <rect id="Rectángulo_34994" data-name="Rectángulo 34994" width="185" height="111" rx="10" transform="translate(1184 2987)" fill="#fff"/>
    <path id="Trazado_135543" data-name="Trazado 135543" d="M-75.731-1.336a1.391,1.391,0,0,1,.457-1.107,1.611,1.611,0,0,1,1.134-.439,1.624,1.624,0,0,1,1.107.4,1.372,1.372,0,0,1,.475,1.042,1.406,1.406,0,0,1-.448,1.1,1.594,1.594,0,0,1-1.143.444,1.6,1.6,0,0,1-1.116-.4A1.389,1.389,0,0,1-75.731-1.336Zm4.166,0a1.391,1.391,0,0,1,.457-1.107,1.611,1.611,0,0,1,1.134-.439,1.624,1.624,0,0,1,1.107.4,1.372,1.372,0,0,1,.475,1.042,1.406,1.406,0,0,1-.448,1.1,1.594,1.594,0,0,1-1.143.444A1.6,1.6,0,0,1-71.1-.3,1.389,1.389,0,0,1-71.565-1.336Zm4.157,0a1.391,1.391,0,0,1,.457-1.107,1.611,1.611,0,0,1,1.134-.439,1.624,1.624,0,0,1,1.107.4,1.372,1.372,0,0,1,.475,1.042,1.406,1.406,0,0,1-.448,1.1,1.594,1.594,0,0,1-1.143.444,1.6,1.6,0,0,1-1.116-.4A1.389,1.389,0,0,1-67.408-1.336ZM-58.3-9.519-58.5-8.376a3.414,3.414,0,0,1,2.777-1.31,2.509,2.509,0,0,1,1.415.4,1.843,1.843,0,0,1,.738,1.028,3.619,3.619,0,0,1,2.892-1.433,2.241,2.241,0,0,1,1.956.989,4.117,4.117,0,0,1,.461,2.711L-49.25,0h-2.9l1.011-5.987.035-.518q0-.869-.817-.9a1.872,1.872,0,0,0-1.424.781L-54.5,0h-2.9l1-5.969.035-.527q0-.9-.817-.9a1.86,1.86,0,0,0-1.406.781L-59.752,0h-2.892l1.652-9.51Zm16.313-.167a3.994,3.994,0,0,1,2.206.637,3.59,3.59,0,0,1,1.367,1.727A5.33,5.33,0,0,1-38.1-4.86l-.018.193a5.636,5.636,0,0,1-1.626,3.533,4.575,4.575,0,0,1-3.41,1.31,3.977,3.977,0,0,1-2.188-.628,3.612,3.612,0,0,1-1.367-1.709,5.179,5.179,0,0,1-.321-2.443,5.863,5.863,0,0,1,1.6-3.727A4.547,4.547,0,0,1-41.99-9.686ZM-44.143-4.6l-.026.518q-.123,1.957,1.2,1.992,1.705.053,1.978-2.764l.035-.8a2.155,2.155,0,0,0-.294-1.259,1.073,1.073,0,0,0-.918-.487,1.512,1.512,0,0,0-1.314.654A4.278,4.278,0,0,0-44.143-4.6Zm13.368-2.228a8.273,8.273,0,0,0-.9-.088,2.233,2.233,0,0,0-1.986.9L-34.73,0h-2.892l1.652-9.51,2.7-.009-.22,1.248a2.64,2.64,0,0,1,2.2-1.441,4.144,4.144,0,0,1,.9.123Zm4.4,7a4.421,4.421,0,0,1-2.272-.6,3.793,3.793,0,0,1-1.507-1.652,4.44,4.44,0,0,1-.4-2.333l.026-.246A5.829,5.829,0,0,1-28.9-8.372a4.51,4.51,0,0,1,3.415-1.314,3.678,3.678,0,0,1,2.092.621A3.468,3.468,0,0,1-22.118-7.4a5.1,5.1,0,0,1,.264,2.381l-.167,1.206h-5.66A1.854,1.854,0,0,0-27.259-2.6a1.549,1.549,0,0,0,1.178.492,2.993,2.993,0,0,0,2.259-.967l1.213,1.6a3.578,3.578,0,0,1-1.5,1.2,5.263,5.263,0,0,1-2.1.451Zm.7-7.576a1.487,1.487,0,0,0-1.068.385,3.229,3.229,0,0,0-.787,1.347h2.892l.053-.254a1.929,1.929,0,0,0,.018-.577A1.017,1.017,0,0,0-25.668-7.4ZM-14.014,0h-2.9l1.652-9.51h2.9Zm-.993-11.909a1.341,1.341,0,0,1,.453-1.072,1.625,1.625,0,0,1,1.138-.431,1.678,1.678,0,0,1,1.129.387,1.318,1.318,0,0,1,.47,1.011,1.344,1.344,0,0,1-.448,1.077,1.63,1.63,0,0,1-1.143.426,1.7,1.7,0,0,1-1.121-.382A1.3,1.3,0,0,1-15.007-11.909Zm7.119,2.391-.2,1.143A3.38,3.38,0,0,1-5.339-9.694a2.27,2.27,0,0,1,1.964.98A4.1,4.1,0,0,1-2.9-5.985L-3.907,0h-2.9L-5.8-6.01a3.108,3.108,0,0,0,.018-.563q-.062-.836-.984-.836a1.807,1.807,0,0,0-1.4.678L-9.347,0h-2.892l1.652-9.51ZM-1.613,0-.321-7.453H-1.657l.352-2.057L.031-9.519l.114-.835a3.881,3.881,0,0,1,1.213-2.417A3.937,3.937,0,0,1,4.126-13.7a8.524,8.524,0,0,1,1.433.194l-.22,2.2a2.8,2.8,0,0,0-.686-.105,1.8,1.8,0,0,0-1.059.293,1.311,1.311,0,0,0-.532.844l-.132.77h1.8L4.381-7.453H2.58L1.288,0ZM9.716-9.686a3.994,3.994,0,0,1,2.206.637,3.59,3.59,0,0,1,1.367,1.727A5.33,5.33,0,0,1,13.6-4.86l-.018.193a5.636,5.636,0,0,1-1.626,3.533A4.575,4.575,0,0,1,8.547.176,3.977,3.977,0,0,1,6.359-.453,3.612,3.612,0,0,1,4.992-2.162a5.179,5.179,0,0,1-.321-2.443,5.863,5.863,0,0,1,1.6-3.727A4.547,4.547,0,0,1,9.716-9.686ZM7.563-4.6l-.026.518q-.123,1.957,1.2,1.992,1.705.053,1.978-2.764l.035-.8a2.155,2.155,0,0,0-.294-1.259A1.073,1.073,0,0,0,9.532-7.4a1.512,1.512,0,0,0-1.314.654A4.278,4.278,0,0,0,7.563-4.6ZM20.931-6.829a8.273,8.273,0,0,0-.9-.088,2.233,2.233,0,0,0-1.986.9L16.976,0H14.084l1.652-9.51,2.7-.009-.22,1.248a2.64,2.64,0,0,1,2.2-1.441,4.144,4.144,0,0,1,.9.123Zm4.2-2.689-.193,1.143a3.414,3.414,0,0,1,2.777-1.31,2.509,2.509,0,0,1,1.415.4,1.843,1.843,0,0,1,.738,1.028,3.619,3.619,0,0,1,2.892-1.433,2.241,2.241,0,0,1,1.956.989,4.117,4.117,0,0,1,.461,2.711L34.185,0h-2.9L32.3-5.987l.035-.518q0-.869-.817-.9a1.872,1.872,0,0,0-1.424.781L28.938,0h-2.9l1-5.969.035-.527q0-.9-.817-.9a1.86,1.86,0,0,0-1.406.781L23.682,0H20.791l1.652-9.51ZM41.26,0a2.578,2.578,0,0,1-.123-.861A2.933,2.933,0,0,1,38.808.176,2.866,2.866,0,0,1,36.751-.65a2.483,2.483,0,0,1-.765-1.96,2.79,2.79,0,0,1,1.292-2.377,6.091,6.091,0,0,1,3.41-.831l.967.018.105-.536L41.8-6.8a.755.755,0,0,0-.8-.826,1.111,1.111,0,0,0-1.169,1.046l-2.9.009a2.754,2.754,0,0,1,.624-1.666,3.7,3.7,0,0,1,1.578-1.09,5.512,5.512,0,0,1,2.123-.356,4.251,4.251,0,0,1,1.894.453,2.82,2.82,0,0,1,1.217,1.187,3.031,3.031,0,0,1,.308,1.753l-.712,4.474-.044.545a2.4,2.4,0,0,0,.167,1.107L44.073,0ZM39.608-1.916A1.865,1.865,0,0,0,41.164-2.7l.29-1.529-.747-.009a1.969,1.969,0,0,0-1.2.409,1.55,1.55,0,0,0-.589,1.068.778.778,0,0,0,.136.593A.7.7,0,0,0,39.608-1.916Zm11.065-9.958L50.26-9.51h1.521l-.36,2.057H49.9l-.738,4.368a1.164,1.164,0,0,0,.057.677q.119.229.593.246a6.873,6.873,0,0,0,.756-.044L50.357-.062A4.673,4.673,0,0,1,48.8.158a2.563,2.563,0,0,1-2.013-.791,2.7,2.7,0,0,1-.545-2.1l.773-4.72H45.839l.352-2.057h1.178l.413-2.364ZM54.382,0h-2.9l1.652-9.51h2.9Zm-.993-11.909a1.341,1.341,0,0,1,.453-1.072,1.625,1.625,0,0,1,1.138-.431,1.678,1.678,0,0,1,1.129.387,1.318,1.318,0,0,1,.47,1.011,1.344,1.344,0,0,1-.448,1.077,1.63,1.63,0,0,1-1.143.426,1.7,1.7,0,0,1-1.121-.382A1.3,1.3,0,0,1,53.389-11.909Zm8.376,2.224a3.994,3.994,0,0,1,2.206.637,3.59,3.59,0,0,1,1.367,1.727A5.33,5.33,0,0,1,65.65-4.86l-.018.193a5.636,5.636,0,0,1-1.626,3.533A4.575,4.575,0,0,1,60.6.176a3.977,3.977,0,0,1-2.188-.628,3.612,3.612,0,0,1-1.367-1.709,5.179,5.179,0,0,1-.321-2.443,5.863,5.863,0,0,1,1.6-3.727A4.547,4.547,0,0,1,61.765-9.686ZM59.612-4.6l-.026.518q-.123,1.957,1.2,1.992,1.705.053,1.978-2.764l.035-.8A2.155,2.155,0,0,0,62.5-6.913a1.073,1.073,0,0,0-.918-.487,1.512,1.512,0,0,0-1.314.654A4.278,4.278,0,0,0,59.612-4.6ZM70.4-9.519l-.2,1.143a3.38,3.38,0,0,1,2.751-1.318,2.27,2.27,0,0,1,1.964.98,4.1,4.1,0,0,1,.47,2.729L74.386,0h-2.9L72.5-6.01a3.108,3.108,0,0,0,.018-.563q-.062-.836-.984-.836a1.807,1.807,0,0,0-1.4.678L68.946,0H66.054l1.652-9.51ZM-73.446,23.664a1.391,1.391,0,0,1,.457-1.107,1.611,1.611,0,0,1,1.134-.439,1.624,1.624,0,0,1,1.107.4,1.372,1.372,0,0,1,.475,1.042,1.406,1.406,0,0,1-.448,1.1,1.594,1.594,0,0,1-1.143.444,1.6,1.6,0,0,1-1.116-.4A1.389,1.389,0,0,1-73.446,23.664Zm4.166,0a1.391,1.391,0,0,1,.457-1.107,1.611,1.611,0,0,1,1.134-.439,1.624,1.624,0,0,1,1.107.4,1.372,1.372,0,0,1,.475,1.042,1.406,1.406,0,0,1-.448,1.1,1.594,1.594,0,0,1-1.143.444,1.6,1.6,0,0,1-1.116-.4A1.389,1.389,0,0,1-69.28,23.664Zm4.157,0a1.391,1.391,0,0,1,.457-1.107,1.611,1.611,0,0,1,1.134-.439,1.624,1.624,0,0,1,1.107.4,1.372,1.372,0,0,1,.475,1.042,1.406,1.406,0,0,1-.448,1.1,1.594,1.594,0,0,1-1.143.444,1.6,1.6,0,0,1-1.116-.4A1.389,1.389,0,0,1-65.123,23.664Zm9.105-8.183-.193,1.143a3.414,3.414,0,0,1,2.777-1.31,2.509,2.509,0,0,1,1.415.4,1.843,1.843,0,0,1,.738,1.028,3.619,3.619,0,0,1,2.892-1.433,2.241,2.241,0,0,1,1.956.989,4.117,4.117,0,0,1,.461,2.711L-46.964,25h-2.9l1.011-5.987.035-.518q0-.869-.817-.9a1.872,1.872,0,0,0-1.424.781L-52.211,25h-2.9l1-5.969.035-.527q0-.9-.817-.9a1.86,1.86,0,0,0-1.406.781L-57.467,25h-2.892l1.652-9.51ZM-39.889,25a2.578,2.578,0,0,1-.123-.861,2.933,2.933,0,0,1-2.329,1.037A2.866,2.866,0,0,1-44.4,24.35a2.483,2.483,0,0,1-.765-1.96,2.79,2.79,0,0,1,1.292-2.377,6.091,6.091,0,0,1,3.41-.831l.967.018.105-.536.035-.466a.755.755,0,0,0-.8-.826,1.111,1.111,0,0,0-1.169,1.046l-2.9.009A2.754,2.754,0,0,1-43.6,16.76a3.7,3.7,0,0,1,1.578-1.09,5.512,5.512,0,0,1,2.123-.356A4.251,4.251,0,0,1-38,15.767a2.82,2.82,0,0,1,1.217,1.187,3.031,3.031,0,0,1,.308,1.753l-.712,4.474-.044.545a2.4,2.4,0,0,0,.167,1.107l-.009.167Zm-1.652-1.916a1.865,1.865,0,0,0,1.556-.782l.29-1.529-.747-.009a1.969,1.969,0,0,0-1.2.409,1.55,1.55,0,0,0-.589,1.068.778.778,0,0,0,.136.593A.7.7,0,0,0-41.542,23.084ZM-38.914,11.5h3.226l-2.8,2.76-2.531,0Zm8.376,10.775q.114-.58-.9-.87l-.624-.158A4.806,4.806,0,0,1-34.3,20.113a2.244,2.244,0,0,1-.668-1.731,2.758,2.758,0,0,1,1.217-2.228,4.633,4.633,0,0,1,2.861-.839,4.292,4.292,0,0,1,2.72.853,2.781,2.781,0,0,1,1.059,2.25l-2.883-.009q.035-1.125-.993-1.125a1.417,1.417,0,0,0-.817.259,1.007,1.007,0,0,0-.448.69q-.149.712,1.257.976a7.3,7.3,0,0,1,1.89.672,2.821,2.821,0,0,1,1.02.945,2.35,2.35,0,0,1,.325,1.354,2.541,2.541,0,0,1-.562,1.538A3.642,3.642,0,0,1-29.874,24.8a5.557,5.557,0,0,1-2.2.378,4.469,4.469,0,0,1-1.912-.431,3.408,3.408,0,0,1-1.38-1.147,2.979,2.979,0,0,1-.514-1.666l2.689.018A1.111,1.111,0,0,0-31.926,23.2a1.661,1.661,0,0,0,.914-.242A1.045,1.045,0,0,0-30.538,22.275ZM-19.375,25h-2.9l1.652-9.51h2.9Zm-.993-11.909a1.341,1.341,0,0,1,.453-1.072,1.625,1.625,0,0,1,1.138-.431,1.678,1.678,0,0,1,1.129.387,1.318,1.318,0,0,1,.47,1.011,1.344,1.344,0,0,1-.448,1.077,1.63,1.63,0,0,1-1.143.426,1.7,1.7,0,0,1-1.121-.382A1.3,1.3,0,0,1-20.369,13.091Zm7.119,2.391-.2,1.143A3.38,3.38,0,0,1-10.7,15.306a2.27,2.27,0,0,1,1.964.98,4.1,4.1,0,0,1,.47,2.729l-1,5.985h-2.9l1.011-6.01a3.108,3.108,0,0,0,.018-.563q-.062-.836-.984-.836a1.807,1.807,0,0,0-1.4.678L-14.708,25H-17.6l1.652-9.51ZM-6.974,25l1.292-7.453H-7.018l.352-2.057,1.336-.009.114-.835A3.881,3.881,0,0,1-4,12.229,3.937,3.937,0,0,1-1.235,11.3,8.524,8.524,0,0,1,.2,11.492l-.22,2.2a2.8,2.8,0,0,0-.686-.105,1.8,1.8,0,0,0-1.059.293,1.311,1.311,0,0,0-.532.844l-.132.77h1.8L-.98,17.547h-1.8L-4.074,25ZM4.355,15.314a3.994,3.994,0,0,1,2.206.637,3.59,3.59,0,0,1,1.367,1.727A5.33,5.33,0,0,1,8.24,20.14l-.018.193A5.636,5.636,0,0,1,6.6,23.866a4.575,4.575,0,0,1-3.41,1.31A3.977,3.977,0,0,1,1,24.547,3.612,3.612,0,0,1-.369,22.838,5.179,5.179,0,0,1-.69,20.395a5.863,5.863,0,0,1,1.6-3.727A4.547,4.547,0,0,1,4.355,15.314ZM2.2,20.4l-.026.518q-.123,1.957,1.2,1.992,1.705.053,1.978-2.764l.035-.8a2.155,2.155,0,0,0-.294-1.259A1.073,1.073,0,0,0,4.17,17.6a1.512,1.512,0,0,0-1.314.654A4.278,4.278,0,0,0,2.2,20.4ZM15.57,18.171a8.273,8.273,0,0,0-.9-.088,2.233,2.233,0,0,0-1.986.9L11.615,25H8.723l1.652-9.51,2.7-.009-.22,1.248a2.64,2.64,0,0,1,2.2-1.441,4.144,4.144,0,0,1,.9.123Zm4.2-2.689-.193,1.143a3.414,3.414,0,0,1,2.777-1.31,2.509,2.509,0,0,1,1.415.4,1.843,1.843,0,0,1,.738,1.028A3.619,3.619,0,0,1,27.4,15.314a2.241,2.241,0,0,1,1.956.989,4.117,4.117,0,0,1,.461,2.711L28.824,25h-2.9l1.011-5.987.035-.518q0-.869-.817-.9a1.872,1.872,0,0,0-1.424.781L23.577,25h-2.9l1-5.969.035-.527q0-.9-.817-.9a1.86,1.86,0,0,0-1.406.781L18.321,25H15.429l1.652-9.51ZM35.9,25a2.578,2.578,0,0,1-.123-.861,2.933,2.933,0,0,1-2.329,1.037,2.866,2.866,0,0,1-2.057-.826,2.483,2.483,0,0,1-.765-1.96,2.79,2.79,0,0,1,1.292-2.377,6.091,6.091,0,0,1,3.41-.831l.967.018.105-.536.035-.466a.755.755,0,0,0-.8-.826,1.111,1.111,0,0,0-1.169,1.046l-2.9.009a2.754,2.754,0,0,1,.624-1.666,3.7,3.7,0,0,1,1.578-1.09,5.512,5.512,0,0,1,2.123-.356,4.251,4.251,0,0,1,1.894.453A2.82,2.82,0,0,1,39,16.954a3.031,3.031,0,0,1,.308,1.753L38.6,23.181l-.044.545a2.4,2.4,0,0,0,.167,1.107L38.711,25Zm-1.652-1.916A1.865,1.865,0,0,0,35.8,22.3l.29-1.529-.747-.009a1.969,1.969,0,0,0-1.2.409,1.55,1.55,0,0,0-.589,1.068.778.778,0,0,0,.136.593A.7.7,0,0,0,34.247,23.084Zm10.046-.193a1.244,1.244,0,0,0,.976-.345,1.717,1.717,0,0,0,.448-.938l2.707-.009a3.559,3.559,0,0,1-.62,1.872,3.745,3.745,0,0,1-1.529,1.279,4.521,4.521,0,0,1-2.061.426,3.57,3.57,0,0,1-2.927-1.367,4.726,4.726,0,0,1-.835-3.441l.026-.211a6.371,6.371,0,0,1,.809-2.553A4.626,4.626,0,0,1,43,15.886a4.433,4.433,0,0,1,2.369-.571,3.536,3.536,0,0,1,2.624,1.059,3.755,3.755,0,0,1,.927,2.764l-2.707-.009q.044-1.5-1.081-1.529-1.529-.053-1.758,2.567l-.079.893-.009.333Q43.282,22.864,44.292,22.891ZM52.1,25H49.2l1.652-9.51h2.9ZM51.1,13.091a1.341,1.341,0,0,1,.453-1.072,1.625,1.625,0,0,1,1.138-.431,1.678,1.678,0,0,1,1.129.387,1.318,1.318,0,0,1,.47,1.011,1.344,1.344,0,0,1-.448,1.077,1.63,1.63,0,0,1-1.143.426,1.7,1.7,0,0,1-1.121-.382A1.3,1.3,0,0,1,51.1,13.091Zm8.376,2.224a3.994,3.994,0,0,1,2.206.637,3.59,3.59,0,0,1,1.367,1.727,5.33,5.33,0,0,1,.312,2.461l-.018.193a5.636,5.636,0,0,1-1.626,3.533,4.575,4.575,0,0,1-3.41,1.31,3.977,3.977,0,0,1-2.188-.628,3.612,3.612,0,0,1-1.367-1.709,5.179,5.179,0,0,1-.321-2.443,5.863,5.863,0,0,1,1.6-3.727A4.547,4.547,0,0,1,59.48,15.314ZM57.327,20.4l-.026.518q-.123,1.957,1.2,1.992,1.705.053,1.978-2.764l.035-.8a2.155,2.155,0,0,0-.294-1.259A1.073,1.073,0,0,0,59.3,17.6a1.512,1.512,0,0,0-1.314.654A4.278,4.278,0,0,0,57.327,20.4Zm3.2-8.9h3.226l-2.8,2.76-2.531,0Zm7.594,3.981-.2,1.143a3.38,3.38,0,0,1,2.751-1.318,2.27,2.27,0,0,1,1.964.98,4.1,4.1,0,0,1,.47,2.729L72.1,25H69.2l1.011-6.01a3.108,3.108,0,0,0,.018-.563q-.062-.836-.984-.836a1.807,1.807,0,0,0-1.4.678L66.661,25H63.769l1.652-9.51Z" transform="translate(1277 3034)" fill="#3c3fa7"/>
    <rect id="Rectángulo_35479" data-name="Rectángulo 35479" width="177" height="48" rx="10" transform="translate(1185 2918)" fill="#ffd947"/>
    <path id="Trazado_135542" data-name="Trazado 135542" d="M-35.656-3.875a4.1,4.1,0,0,1-.785,2.125,4.441,4.441,0,0,1-1.8,1.43,5.563,5.563,0,0,1-2.41.477,3.746,3.746,0,0,1-2.8-1.148A4.616,4.616,0,0,1-44.57-4a9.8,9.8,0,0,1,.277-2.758,7.29,7.29,0,0,1,1.133-2.6,5.2,5.2,0,0,1,1.852-1.656,4.807,4.807,0,0,1,2.332-.527,4.069,4.069,0,0,1,2.941,1.117A4.374,4.374,0,0,1-34.859-7.43l-2.664-.008A2.191,2.191,0,0,0-37.9-8.922,1.646,1.646,0,0,0-39.133-9.4q-2.109-.07-2.57,3.281a18.03,18.03,0,0,0-.211,2.164q-.039,1.922,1.422,1.977a2.087,2.087,0,0,0,1.508-.465,2.325,2.325,0,0,0,.719-1.4Zm5.547-4.734a3.55,3.55,0,0,1,1.961.566,3.191,3.191,0,0,1,1.215,1.535,4.737,4.737,0,0,1,.277,2.188l-.016.172a5.01,5.01,0,0,1-1.445,3.141A4.067,4.067,0,0,1-31.148.156,3.535,3.535,0,0,1-33.094-.4a3.211,3.211,0,0,1-1.215-1.52,4.6,4.6,0,0,1-.285-2.172,5.211,5.211,0,0,1,1.426-3.312A4.041,4.041,0,0,1-30.109-8.609ZM-32.023-4.09l-.023.46q-.109,1.739,1.063,1.771,1.516.047,1.758-2.457l.031-.71a1.916,1.916,0,0,0-.262-1.119.954.954,0,0,0-.816-.433A1.344,1.344,0,0,0-31.441-6,3.8,3.8,0,0,0-32.023-4.09Zm9.656-4.371-.172,1.016A3.035,3.035,0,0,1-20.07-8.609a2.23,2.23,0,0,1,1.258.359,1.638,1.638,0,0,1,.656.914,3.217,3.217,0,0,1,2.57-1.273,1.992,1.992,0,0,1,1.738.879,3.66,3.66,0,0,1,.41,2.41L-14.32,0H-16.9l.9-5.322.031-.46q0-.772-.727-.8a1.664,1.664,0,0,0-1.266.694L-18.984,0h-2.578l.891-5.306.031-.468q0-.8-.727-.8a1.653,1.653,0,0,0-1.25.694L-23.656,0h-2.57l1.469-8.453ZM-4.445-4.219a7.022,7.022,0,0,1-.7,2.363A3.865,3.865,0,0,1-6.457-.316a3.037,3.037,0,0,1-1.754.48,2.3,2.3,0,0,1-1.8-.875l-.766,3.961h-2.57l2.031-11.7,2.375-.008-.133.8a2.485,2.485,0,0,1,2.008-.953,2.366,2.366,0,0,1,1.926.883A3.9,3.9,0,0,1-4.4-5.359,9.133,9.133,0,0,1-4.445-4.219Zm-2.5-1.047q-.039-1.289-.875-1.312a1.515,1.515,0,0,0-1.352.664l-.6,3.352a1.043,1.043,0,0,0,1.078.7q1.367.023,1.68-2.352Q-6.945-4.969-6.945-5.266ZM-1.273,0H-3.852l2.078-12H.8ZM4.563.156a3.929,3.929,0,0,1-2.02-.535A3.372,3.372,0,0,1,1.2-1.848,3.946,3.946,0,0,1,.844-3.922l.023-.219a5.182,5.182,0,0,1,1.449-3.3A4.009,4.009,0,0,1,5.352-8.609a3.269,3.269,0,0,1,1.859.552A3.082,3.082,0,0,1,8.344-6.579a4.529,4.529,0,0,1,.234,2.117L8.43-3.391H3.4a1.648,1.648,0,0,0,.375,1.078,1.377,1.377,0,0,0,1.047.438,2.66,2.66,0,0,0,2.008-.859L7.906-1.309A3.181,3.181,0,0,1,6.574-.245,4.678,4.678,0,0,1,4.7.156Zm.625-6.734a1.322,1.322,0,0,0-.949.342,2.87,2.87,0,0,0-.7,1.2h2.57l.047-.225a1.715,1.715,0,0,0,.016-.513A.9.9,0,0,0,5.188-6.578Zm7.578-1.883-.172,1.016a3.035,3.035,0,0,1,2.469-1.164,2.23,2.23,0,0,1,1.258.359,1.638,1.638,0,0,1,.656.914,3.217,3.217,0,0,1,2.57-1.273,1.992,1.992,0,0,1,1.738.879,3.66,3.66,0,0,1,.41,2.41L20.813,0H18.234l.9-5.322.031-.46q0-.772-.727-.8a1.664,1.664,0,0,0-1.266.694L16.148,0H13.57l.891-5.306.031-.468q0-.8-.727-.8a1.653,1.653,0,0,0-1.25.694L11.477,0H8.906l1.469-8.453ZM26.539.156a3.929,3.929,0,0,1-2.02-.535,3.372,3.372,0,0,1-1.34-1.469,3.946,3.946,0,0,1-.359-2.074l.023-.219a5.182,5.182,0,0,1,1.449-3.3,4.009,4.009,0,0,1,3.035-1.168,3.269,3.269,0,0,1,1.859.552A3.082,3.082,0,0,1,30.32-6.579a4.529,4.529,0,0,1,.234,2.117l-.148,1.072H25.375a1.648,1.648,0,0,0,.375,1.078,1.377,1.377,0,0,0,1.047.438A2.66,2.66,0,0,0,28.8-2.734l1.078,1.426A3.181,3.181,0,0,1,28.551-.245a4.678,4.678,0,0,1-1.871.4Zm.625-6.734a1.322,1.322,0,0,0-.949.342,2.87,2.87,0,0,0-.7,1.2h2.57l.047-.225a1.715,1.715,0,0,0,.016-.513A.9.9,0,0,0,27.164-6.578ZM34.68-8.461,34.5-7.445a3,3,0,0,1,2.445-1.172,2.018,2.018,0,0,1,1.746.871,3.646,3.646,0,0,1,.418,2.426L38.219,0H35.641l.9-5.342a2.763,2.763,0,0,0,.016-.5q-.055-.743-.875-.743a1.606,1.606,0,0,0-1.242.6L33.383,0h-2.57l1.469-8.453Zm9.836-2.094-.367,2.1H45.5l-.32,1.828H43.828l-.656,3.883a1.035,1.035,0,0,0,.051.6q.105.2.527.219a6.109,6.109,0,0,0,.672-.039L44.234-.055a4.154,4.154,0,0,1-1.383.2,2.278,2.278,0,0,1-1.789-.7,2.4,2.4,0,0,1-.484-1.867l.688-4.2H40.219l.313-1.828h1.047l.367-2.1Zm-85.023,24.7a4.154,4.154,0,0,1-.641,2.1,3.866,3.866,0,0,1-1.645,1.41,5.6,5.6,0,0,1-2.418.5A4.467,4.467,0,0,1-48.742,16.7a6.032,6.032,0,0,1-1.289-4.125v-.562a6.885,6.885,0,0,1,.582-2.926,4.41,4.41,0,0,1,1.676-1.937,4.676,4.676,0,0,1,2.531-.684,4.9,4.9,0,0,1,3.328,1.09,4.306,4.306,0,0,1,1.43,3h-2.734a2.037,2.037,0,0,0-.523-1.492,2.153,2.153,0,0,0-1.5-.453,1.638,1.638,0,0,0-1.5.766,4.921,4.921,0,0,0-.5,2.445v.8a5.445,5.445,0,0,0,.457,2.6,1.672,1.672,0,0,0,1.574.781,2.106,2.106,0,0,0,1.445-.445,1.89,1.89,0,0,0,.531-1.414Zm.844-.453a4.989,4.989,0,0,1,.492-2.254,3.52,3.52,0,0,1,1.414-1.52,4.259,4.259,0,0,1,2.164-.531A3.887,3.887,0,0,1-32.6,10.566a4.512,4.512,0,0,1,1.094,3.2v.094A4.378,4.378,0,0,1-32.605,17a3.9,3.9,0,0,1-2.973,1.16,3.942,3.942,0,0,1-2.9-1.082,4.232,4.232,0,0,1-1.18-2.934Zm2.633.164a3.145,3.145,0,0,0,.367,1.719,1.223,1.223,0,0,0,1.086.547q1.406,0,1.438-2.164V13.7q0-2.273-1.453-2.273-1.32,0-1.43,1.961Zm9.172-4.312.086.992a2.906,2.906,0,0,1,2.414-1.148A2.14,2.14,0,0,1-23.2,10.664a2.813,2.813,0,0,1,2.484-1.273q2.57,0,2.641,3.109V18h-2.641V12.664a1.611,1.611,0,0,0-.219-.945.931.931,0,0,0-.8-.3,1.247,1.247,0,0,0-1.164.7l.008.109V18h-2.641V12.68a1.694,1.694,0,0,0-.211-.961.929.929,0,0,0-.8-.3,1.263,1.263,0,0,0-1.156.7V18h-2.633V9.547Zm19.141,4.289a5.1,5.1,0,0,1-.887,3.145A2.843,2.843,0,0,1-12,18.156a2.437,2.437,0,0,1-1.914-.852V21.25h-2.633V9.547h2.461l.078.781a2.437,2.437,0,0,1,1.992-.937,2.866,2.866,0,0,1,2.43,1.152,5.16,5.16,0,0,1,.867,3.168Zm-2.633-.164q0-2.25-1.312-2.25a1.239,1.239,0,0,0-1.25.672v3.328a1.279,1.279,0,0,0,1.266.7q1.258,0,1.3-2.172ZM-4.781,18H-7.422V6h2.641Zm5.711.156A4.345,4.345,0,0,1-2.219,17a4.006,4.006,0,0,1-1.2-3.02v-.219a5.191,5.191,0,0,1,.48-2.289,3.516,3.516,0,0,1,1.4-1.535A4.233,4.233,0,0,1,.648,9.391,3.659,3.659,0,0,1,3.461,10.5a4.344,4.344,0,0,1,1.031,3.082V14.6H-.742a1.9,1.9,0,0,0,.617,1.117,1.836,1.836,0,0,0,1.234.406,2.366,2.366,0,0,0,1.953-.875l1.2,1.422a3.363,3.363,0,0,1-1.395,1.082A4.713,4.713,0,0,1,.93,18.156Zm-.3-6.734q-1.156,0-1.375,1.531H1.914v-.2a1.3,1.3,0,0,0-.32-.98A1.275,1.275,0,0,0,.633,11.422ZM8.039,9.547l.086.992a2.906,2.906,0,0,1,2.414-1.148A2.14,2.14,0,0,1,12.7,10.664a2.813,2.813,0,0,1,2.484-1.273q2.57,0,2.641,3.109V18H15.188V12.664a1.611,1.611,0,0,0-.219-.945.931.931,0,0,0-.8-.3,1.247,1.247,0,0,0-1.164.7l.008.109V18H10.375V12.68a1.694,1.694,0,0,0-.211-.961.929.929,0,0,0-.8-.3,1.263,1.263,0,0,0-1.156.7V18H5.57V9.547Zm15.383,8.609A4.345,4.345,0,0,1,20.273,17a4.006,4.006,0,0,1-1.2-3.02v-.219a5.191,5.191,0,0,1,.48-2.289,3.516,3.516,0,0,1,1.4-1.535,4.233,4.233,0,0,1,2.188-.543A3.659,3.659,0,0,1,25.953,10.5a4.344,4.344,0,0,1,1.031,3.082V14.6H21.75a1.9,1.9,0,0,0,.617,1.117,1.836,1.836,0,0,0,1.234.406,2.366,2.366,0,0,0,1.953-.875l1.2,1.422a3.363,3.363,0,0,1-1.395,1.082A4.713,4.713,0,0,1,23.422,18.156Zm-.3-6.734q-1.156,0-1.375,1.531h2.656v-.2a1.3,1.3,0,0,0-.32-.98A1.275,1.275,0,0,0,23.125,11.422Zm7.336-1.875.086.992a2.867,2.867,0,0,1,2.414-1.148,2.412,2.412,0,0,1,1.973.789,3.757,3.757,0,0,1,.676,2.375V18H32.969V12.664a1.426,1.426,0,0,0-.258-.941,1.193,1.193,0,0,0-.937-.3,1.256,1.256,0,0,0-1.148.609V18H27.992V9.547Zm9.672-2.1v2.1h1.391v1.828H40.133v3.867a.987.987,0,0,0,.172.664.922.922,0,0,0,.68.188,3.862,3.862,0,0,0,.656-.047V17.93a4.859,4.859,0,0,1-1.484.227,2.758,2.758,0,0,1-2.008-.641A2.626,2.626,0,0,1,37.5,15.57v-4.2H36.422V9.547H37.5v-2.1Zm1.859,6.25a4.989,4.989,0,0,1,.492-2.254A3.52,3.52,0,0,1,43.9,9.922a4.259,4.259,0,0,1,2.164-.531,3.887,3.887,0,0,1,2.992,1.176,4.512,4.512,0,0,1,1.094,3.2v.094A4.378,4.378,0,0,1,49.051,17a3.9,3.9,0,0,1-2.973,1.16,3.942,3.942,0,0,1-2.9-1.082A4.232,4.232,0,0,1,42,14.141Zm2.633.164a3.145,3.145,0,0,0,.367,1.719,1.223,1.223,0,0,0,1.086.547q1.406,0,1.438-2.164V13.7q0-2.273-1.453-2.273-1.32,0-1.43,1.961Z" transform="translate(1277 2943)" fill="#12263f"/>
  </g>
</svg>
