<svg xmlns="http://www.w3.org/2000/svg" xmlns:xlink="http://www.w3.org/1999/xlink" width="85" height="85" viewBox="0 0 85 85">
  <defs>
    <clipPath id="clip-path">
      <rect id="Rectángulo_35502" data-name="Rectángulo 35502" width="85" height="85" transform="translate(535 2893)" fill="#fff" stroke="#707070" stroke-width="1"/>
    </clipPath>
  </defs>
  <g id="Grupo_158911" data-name="Grupo 158911" transform="translate(-535 -2893)">
    <circle id="Elipse_4862" data-name="Elipse 4862" cx="42.5" cy="42.5" r="42.5" transform="translate(535 2893)" fill="#ffd947"/>
    <g id="Enmascarar_grupo_96" data-name="Enmascarar grupo 96" clip-path="url(#clip-path)">
      <g id="fuente" transform="translate(535 2893)">
        <path id="Trazado_120500" data-name="Trazado 120500" d="M25.226,41.129a1.371,1.371,0,0,1-1.371-1.371V29.7a4.118,4.118,0,0,1,4.113-4.113,1.371,1.371,0,1,1,0,2.742A1.372,1.372,0,0,0,26.6,29.7V39.758A1.371,1.371,0,0,1,25.226,41.129Z" fill="#9bc5ff"/>
        <path id="Trazado_120501" data-name="Trazado 120501" d="M37.107,30.618c-.123,0,0,9.139,0,9.139l5.484,10.968h5.484V30.618Z" fill="#f67547"/>
        <path id="Trazado_120502" data-name="Trazado 120502" d="M37.473,39.758c-.123,0-.245,0-.366-.009V50.726h5.484V39.758H37.473Z" fill="#f9a167"/>
        <path id="Trazado_120503" data-name="Trazado 120503" d="M52.1,22.849a1.371,1.371,0,0,1-1.371-1.371V5.941a3.2,3.2,0,0,0-6.4,0V17.823a1.371,1.371,0,1,1-2.742,0V5.941a5.941,5.941,0,0,1,11.882,0V21.478A1.371,1.371,0,0,1,52.1,22.849Z" fill="#9bc5ff"/>
        <path id="Trazado_120504" data-name="Trazado 120504" d="M42.957,17.823a2.742,2.742,0,0,0-2.742,2.742V30.618H45.7V20.565A2.742,2.742,0,0,0,42.957,17.823Z" fill="#fee3ac"/>
        <path id="Trazado_120505" data-name="Trazado 120505" d="M33.817,15.538a1.371,1.371,0,0,1-1.371-1.371V5.941a5.941,5.941,0,1,1,11.882,0,1.371,1.371,0,1,1-2.742,0,3.2,3.2,0,1,0-6.4,0v8.226A1.371,1.371,0,0,1,33.817,15.538Z" fill="#9bc5ff"/>
        <path id="Trazado_120506" data-name="Trazado 120506" d="M81.8,70.833v12.8H76.317l-5.484-12.8Z" fill="#f67547"/>
        <rect id="Rectángulo_35503" data-name="Rectángulo 35503" width="73.118" height="12.796" transform="translate(3.199 70.833)" fill="#f9a167"/>
        <path id="Trazado_120507" data-name="Trazado 120507" d="M55.753,52.554v18.28H50.269l-20.108-9.14v-9.14Z" fill="#f67547"/>
        <g id="Grupo_93408" data-name="Grupo 93408">
          <rect id="Rectángulo_35504" data-name="Rectángulo 35504" width="20.107" height="9.14" transform="translate(30.161 61.694)" fill="#f9a167"/>
          <path id="Trazado_120508" data-name="Trazado 120508" d="M81.07,67.177H75.586l2.742,5.484h5.484V69.919A2.75,2.75,0,0,0,81.07,67.177Z" fill="#f9a167"/>
          <path id="Trazado_120509" data-name="Trazado 120509" d="M61.419,45.242,50.451,56.21h5.484A11,11,0,0,0,66.9,45.242Z" fill="#f9a167"/>
          <path id="Trazado_120510" data-name="Trazado 120510" d="M49.9,26.962l-7.312,7.312h5.484a7.333,7.333,0,0,0,7.312-7.312Z" fill="#f9a167"/>
        </g>
        <g id="Grupo_93409" data-name="Grupo 93409">
          <path id="Trazado_120511" data-name="Trazado 120511" d="M29.8,26.962a7.333,7.333,0,0,0,7.312,7.312h5.484A7.333,7.333,0,0,0,49.9,26.962Z" fill="#fccc86"/>
          <path id="Trazado_120512" data-name="Trazado 120512" d="M19.194,45.242A11,11,0,0,0,30.161,56.21H50.269A11,11,0,0,0,61.237,45.242Z" fill="#fccc86"/>
          <path id="Trazado_120513" data-name="Trazado 120513" d="M75.586,67.177H4.113a2.75,2.75,0,0,0-2.742,2.742v2.742H78.328V69.919A2.75,2.75,0,0,0,75.586,67.177Z" fill="#fccc86"/>
        </g>
        <g id="Grupo_93410" data-name="Grupo 93410">
          <path id="Trazado_120514" data-name="Trazado 120514" d="M33.817,22.849a1.371,1.371,0,0,1-1.371-1.371V19.65a1.371,1.371,0,1,1,2.742,0v1.828A1.371,1.371,0,0,1,33.817,22.849Z" fill="#9bc5ff"/>
          <path id="Trazado_120515" data-name="Trazado 120515" d="M59.957,41.129a1.371,1.371,0,0,1-1.371-1.371V29.7a1.372,1.372,0,0,0-1.371-1.371,1.371,1.371,0,0,1,0-2.742A4.118,4.118,0,0,1,61.328,29.7V39.758A1.371,1.371,0,0,1,59.957,41.129Z" fill="#9bc5ff"/>
          <path id="Trazado_120516" data-name="Trazado 120516" d="M71.29,63.065a1.371,1.371,0,0,1-1.371-1.371V59.866a1.371,1.371,0,1,1,2.742,0v1.828A1.371,1.371,0,0,1,71.29,63.065Z" fill="#9bc5ff"/>
          <path id="Trazado_120517" data-name="Trazado 120517" d="M71.29,55.753a1.371,1.371,0,0,1-1.371-1.371v-6.4a1.372,1.372,0,0,0-1.371-1.371,1.371,1.371,0,0,1,0-2.742,4.118,4.118,0,0,1,4.113,4.113v6.4A1.371,1.371,0,0,1,71.29,55.753Z" fill="#9bc5ff"/>
          <path id="Trazado_120518" data-name="Trazado 120518" d="M14.624,63.065a1.371,1.371,0,0,1-1.371-1.371V47.984a4.118,4.118,0,0,1,4.113-4.113,1.371,1.371,0,1,1,0,2.742,1.372,1.372,0,0,0-1.371,1.371v13.71A1.371,1.371,0,0,1,14.624,63.065Z" fill="#9bc5ff"/>
        </g>
        <path id="Trazado_120519" data-name="Trazado 120519" d="M83.629,74.032A1.371,1.371,0,0,0,85,72.661V69.919a4.118,4.118,0,0,0-4.113-4.113H57.124V63.065h.457a1.371,1.371,0,0,0,0-2.742h-.457V57.5a12.359,12.359,0,0,0,10.89-10.89h.535a1.371,1.371,0,0,0,0-2.742h-19.1V35.536a8.7,8.7,0,0,0,7.2-7.2h.566a1.371,1.371,0,1,0,0-2.742H47.07V20.565a4.113,4.113,0,1,0-8.226,0v5.027H27.968a1.371,1.371,0,1,0,0,2.742h.566a8.7,8.7,0,0,0,7.2,7.2v8.335H17.366a1.371,1.371,0,1,0,0,2.742H17.9A12.359,12.359,0,0,0,28.79,57.5v2.82h-.457a1.371,1.371,0,0,0,0,2.742h.457v2.742H4.113A4.118,4.118,0,0,0,0,69.919v2.742a1.371,1.371,0,0,0,1.371,1.371h.457v8.226H1.371a1.371,1.371,0,0,0,0,2.742H83.629a1.371,1.371,0,0,0,0-2.742h-.457V74.032h.457ZM41.586,20.565a1.371,1.371,0,1,1,2.742,0v5.027H41.586ZM31.328,28.333H53.855a5.95,5.95,0,0,1-5.78,4.57H37.107A5.95,5.95,0,0,1,31.328,28.333Zm7.15,7.312H46.7v8.226H38.478ZM20.664,46.613H65.25a9.61,9.61,0,0,1-9.5,8.226H30.161A9.61,9.61,0,0,1,20.664,46.613ZM31.532,63.065h2.285a1.371,1.371,0,0,0,0-2.742H31.532V57.581h22.85v2.742H39.3a1.371,1.371,0,1,0,0,2.742H54.382v2.742H31.532ZM2.742,69.919a1.372,1.372,0,0,1,1.371-1.371H80.887a1.372,1.372,0,0,1,1.371,1.371V71.29H2.742ZM80.43,82.258H4.57V74.032H80.43v8.226Z"/>
      </g>
    </g>
  </g>
</svg>
