<svg xmlns="http://www.w3.org/2000/svg" xmlns:xlink="http://www.w3.org/1999/xlink" width="85" height="85" viewBox="0 0 85 85">
  <defs>
    <clipPath id="clip-path">
      <rect id="Rectángulo_35519" data-name="Rectángulo 35519" width="85" height="85" transform="translate(265 5616)" fill="#fff" stroke="#707070" stroke-width="1"/>
    </clipPath>
  </defs>
  <g id="Grupo_158912" data-name="Grupo 158912" transform="translate(-265 -5584)">
    <circle id="Elipse_4878" data-name="Elipse 4878" cx="42.5" cy="42.5" r="42.5" transform="translate(265 5584)" fill="#ffd947"/>
    <g id="Enmascarar_grupo_97" data-name="Enmascarar grupo 97" transform="translate(0 -32)" clip-path="url(#clip-path)">
      <g id="soldado" transform="translate(263.629 5614.629)">
        <g id="Grupo_93433" data-name="Grupo 93433">
          <g id="Grupo_93411" data-name="Grupo 93411">
            <path id="Trazado_120520" data-name="Trazado 120520" d="M63.065,74.032V85H57.581V78.145a1.375,1.375,0,0,0-1.371-1.371H47.984a1.375,1.375,0,0,0-1.371,1.371V85H41.129V78.145a1.375,1.375,0,0,0-1.371-1.371H31.532a1.375,1.375,0,0,0-1.371,1.371V85H24.677V45.927L32.9,44.556V54.839a2.75,2.75,0,0,0,2.742,2.742H52.1a2.75,2.75,0,0,0,2.742-2.742V44.6l7.485,1.316a.082.082,0,0,1,.055.014c.233.027.466.069.685.11Z" fill="#aab2bd"/>
          </g>
          <g id="Grupo_93412" data-name="Grupo 93412">
            <path id="Trazado_120521" data-name="Trazado 120521" d="M41.129,78.145V85H30.161V78.145a1.375,1.375,0,0,1,1.371-1.371h8.226A1.375,1.375,0,0,1,41.129,78.145Z" fill="#ffeaa7"/>
          </g>
          <g id="Grupo_93413" data-name="Grupo 93413">
            <path id="Trazado_120522" data-name="Trazado 120522" d="M57.581,78.145V85H46.613V78.145a1.375,1.375,0,0,1,1.371-1.371H56.21A1.375,1.375,0,0,1,57.581,78.145Z" fill="#ffeaa7"/>
          </g>
          <g id="Grupo_93414" data-name="Grupo 93414">
            <path id="Trazado_120523" data-name="Trazado 120523" d="M57.581,64.435v5.484A1.375,1.375,0,0,1,56.21,71.29H31.532a1.375,1.375,0,0,1-1.371-1.371V64.435a1.375,1.375,0,0,1,1.371-1.371H56.21A1.375,1.375,0,0,1,57.581,64.435Z" fill="#fcd770"/>
          </g>
          <g id="Grupo_93415" data-name="Grupo 93415">
            <path id="Trazado_120524" data-name="Trazado 120524" d="M54.839,53.468v1.371A2.75,2.75,0,0,1,52.1,57.581H35.645A2.75,2.75,0,0,1,32.9,54.839V53.468l10.968-4.113Z" fill="#5cd6b3"/>
          </g>
          <g id="Grupo_93416" data-name="Grupo 93416">
            <path id="Trazado_120525" data-name="Trazado 120525" d="M43.871,49.355,32.9,53.468V44.556l4.113-.685Z" fill="#48cfad"/>
          </g>
          <g id="Grupo_93417" data-name="Grupo 93417">
            <path id="Trazado_120526" data-name="Trazado 120526" d="M54.839,44.6v8.87L43.871,49.355l6.855-5.484,1.179.206Z" fill="#48cfad"/>
          </g>
          <g id="Grupo_93418" data-name="Grupo 93418">
            <path id="Trazado_120527" data-name="Trazado 120527" d="M20.112,46.7l4.565-.768V63.065H11.269a8.517,8.517,0,0,1-6.032-2.5c-.014-.014-.041-.041-.041-.055a8.458,8.458,0,0,1-2.454-5.977,8.612,8.612,0,0,1,1.289-4.51l.343-.535,11.1-17.781a3.308,3.308,0,0,1,2.8-1.549,2.984,2.984,0,0,1,.919.137,2.788,2.788,0,0,1,.781.329l4.483,2.687a3.213,3.213,0,0,1,1.22,1.316,3.1,3.1,0,0,1,.37,1.494,3.211,3.211,0,0,1-.452,1.659l-2.125,3.455Z" fill="#5cd6b3"/>
          </g>
          <g id="Grupo_93419" data-name="Grupo 93419">
            <path id="Trazado_120528" data-name="Trazado 120528" d="M76.774,79.516V85H63.065V46.037a16.171,16.171,0,0,1,3.578,1.11,16.522,16.522,0,0,1,4.25,2.66,17,17,0,0,1,3.99,5.031c.123.233.247.466.356.713a17.353,17.353,0,0,1,1.385,4.771h-6.7a1.375,1.375,0,0,0-1.371,1.371v5.484a1.375,1.375,0,0,0,1.371,1.371h6.855Z" fill="#5cd6b3"/>
          </g>
          <g id="Grupo_93420" data-name="Grupo 93420">
            <path id="Trazado_120529" data-name="Trazado 120529" d="M76.774,62.585v5.964H69.919a1.375,1.375,0,0,1-1.371-1.371V61.694a1.375,1.375,0,0,1,1.371-1.371h6.7A17.576,17.576,0,0,1,76.774,62.585Z" fill="#37bc9b"/>
          </g>
          <g id="Grupo_93421" data-name="Grupo 93421">
            <path id="Trazado_120530" data-name="Trazado 120530" d="M62.379,45.927a.082.082,0,0,0-.055-.014L54.839,44.6,51.9,44.077v-.014l4.3-4.3Z" fill="#969faa"/>
          </g>
          <g id="Grupo_93422" data-name="Grupo 93422">
            <path id="Trazado_120531" data-name="Trazado 120531" d="M59.637,36.331l.6-.6a4.945,4.945,0,0,1,6.169-.672,4.362,4.362,0,0,1,.85.672l3.057,3.057c.1.1.178.192.26.288a3.316,3.316,0,0,1-.26,4.4l-3.674,3.674a16.171,16.171,0,0,0-3.578-1.11c-.219-.041-.452-.082-.685-.11L56.21,39.758Z" fill="#969faa"/>
          </g>
          <g id="Grupo_93423" data-name="Grupo 93423">
            <path id="Trazado_120532" data-name="Trazado 120532" d="M74.718,26.734,70.6,30.847,68.548,28.79V24.677h4.113Z" fill="#ccd1d9"/>
          </g>
          <g id="Grupo_93424" data-name="Grupo 93424">
            <path id="Trazado_120533" data-name="Trazado 120533" d="M82.258,27.419,70.577,39.073c-.082-.1-.165-.192-.26-.288L67.26,35.727a4.362,4.362,0,0,0-.85-.672v-.014l4.2-4.2,4.113-4.113,3.427-3.427Z" fill="#aab2bd"/>
          </g>
          <g id="Grupo_93425" data-name="Grupo 93425">
            <path id="Trazado_120534" data-name="Trazado 120534" d="M84.15,21.415a2.913,2.913,0,0,1,0,4.113l-1.892,1.892-4.113-4.113,1.892-1.892a2.913,2.913,0,0,1,4.113,0Z" fill="#ccd1d9"/>
          </g>
          <g id="Grupo_93426" data-name="Grupo 93426">
            <path id="Trazado_120535" data-name="Trazado 120535" d="M60.323,13.71h-32.9A10.965,10.965,0,0,1,38.387,2.742H49.355A10.965,10.965,0,0,1,60.323,13.71Z" fill="#48cfad"/>
          </g>
          <g id="Grupo_93427" data-name="Grupo 93427">
            <path id="Trazado_120536" data-name="Trazado 120536" d="M47.984,13.71H27.419v5.484l5.018-2.509a2.218,2.218,0,0,1,3.208,1.988,3.208,3.208,0,0,1-.041.521H60.323V13.71Z" fill="#37bc9b"/>
          </g>
          <g id="Grupo_93428" data-name="Grupo 93428">
            <path id="Trazado_120537" data-name="Trazado 120537" d="M34.37,34.274l-1.714-.535a7.839,7.839,0,0,1-3.578-2.5l2.852-2.852a3.3,3.3,0,0,0,.973-2.344V28.79A10.89,10.89,0,0,0,34.37,34.274Z" fill="#656d78"/>
          </g>
          <g id="Grupo_93429" data-name="Grupo 93429">
            <path id="Trazado_120538" data-name="Trazado 120538" d="M60.323,19.194v7.28a7.664,7.664,0,0,1-5.237,7.266l-1.714.535a10.89,10.89,0,0,0,1.467-5.484v-9.6Z" fill="#656d78"/>
          </g>
          <g id="Grupo_93430" data-name="Grupo 93430">
            <path id="Trazado_120539" data-name="Trazado 120539" d="M49.355,38.387l1.371,5.484-6.855,5.484-6.855-5.484,1.371-5.484.041-.082a10.919,10.919,0,0,0,10.885,0Z" fill="#f0d0b4"/>
          </g>
          <g id="Grupo_93431" data-name="Grupo 93431">
            <path id="Trazado_120540" data-name="Trazado 120540" d="M54.839,19.194v9.6A10.957,10.957,0,0,1,38.428,38.3a10.745,10.745,0,0,1-2.317-1.755A11,11,0,0,1,32.9,28.79V26.048A3.3,3.3,0,0,0,31.93,23.7l-.288-.288,2.468-1.755A3.65,3.65,0,0,0,35.6,19.194H54.839Z" fill="#f0d0b4"/>
          </g>
          <g id="Grupo_93432" data-name="Grupo 93432">
            <path id="Trazado_120541" data-name="Trazado 120541" d="M31.642,23.416l.288.288a3.31,3.31,0,0,1,0,4.689l-2.852,2.852-3.386,3.386h-.014a3.213,3.213,0,0,0-1.22-1.316l-4.483-2.687a2.788,2.788,0,0,0-.781-.329V27.543a6.85,6.85,0,0,1,3.784-6.128l4.442-2.221,5.018-2.509a2.218,2.218,0,0,1,3.208,1.988,3.208,3.208,0,0,1-.041.521,3.65,3.65,0,0,1-1.494,2.468Z" fill="#f0d0b4"/>
          </g>
        </g>
        <g id="Grupo_93434" data-name="Grupo 93434">
          <path id="Trazado_120542" data-name="Trazado 120542" d="M31.532,72.661H56.21a2.745,2.745,0,0,0,2.742-2.742V64.435a2.745,2.745,0,0,0-2.742-2.742H31.532a2.745,2.745,0,0,0-2.742,2.742v5.484A2.745,2.745,0,0,0,31.532,72.661Zm0-8.226H56.21v5.484H31.532Z"/>
          <path id="Trazado_120543" data-name="Trazado 120543" d="M86.371,23.472a4.279,4.279,0,0,0-7.3-3.026L74.718,24.8l-1.489-1.489H67.177v6.051l1.489,1.489-2.525,2.525A6.334,6.334,0,0,0,59.27,34.76l-7.527,7.527L50.9,38.918a12.433,12.433,0,0,0,3.351-3.482l1.272-.4a9.022,9.022,0,0,0,6.169-8.562V13.71A12.354,12.354,0,0,0,49.355,1.371H38.387A12.354,12.354,0,0,0,26.048,13.71v4.637L22.37,20.185a8.181,8.181,0,0,0-4.547,7.358v1.305a4.614,4.614,0,0,0-3.5,2.137L2.875,49.3a9.893,9.893,0,0,0,8.39,15.137H23.306V86.371H78.145V62.579a18.126,18.126,0,0,0-9.19-15.8l2.335-2.338a4.677,4.677,0,0,0,1-5.138l12.83-12.8a4.252,4.252,0,0,0,1.253-3.026ZM68.43,34.96l9.715-9.715,2.17,2.17-9.726,9.7Zm1.489-6.737V26.048h2.174l.685.685L70.6,28.908ZM22.858,44.842l3.928-6.368a4.657,4.657,0,0,0,.633-2.343,4.589,4.589,0,0,0-.147-1.141l1.8-1.8a9.025,9.025,0,0,0,3.172,1.848l1.25.393a12.414,12.414,0,0,0,3.351,3.482l-.938,3.75Zm8.819-14.258a12.064,12.064,0,0,0,.269,1.322,6.22,6.22,0,0,1-.934-.657Zm4.96,14.741,4.493,3.595-6.856,2.571V45.718Zm-2.364,9.094,9.6-3.6,9.6,3.6v.421A1.372,1.372,0,0,1,52.1,56.21H35.645a1.372,1.372,0,0,1-1.371-1.371Zm19.194-2.928-6.856-2.571L51.1,45.33l2.37.418Zm1.254-8.305L56.21,41.7l2.125,2.125Zm-5.54.166L43.871,47.6,38.56,43.35l.775-3.1a12.184,12.184,0,0,0,9.073,0Zm-5.311-4.963a9.607,9.607,0,0,1-9.6-9.6V26.048A4.638,4.638,0,0,0,33.62,23.7l1.279-.914a5.033,5.033,0,0,0,1.711-2.217H53.468V28.79A9.607,9.607,0,0,1,43.871,38.387Zm2.742-23.306v2.742H41.129V15.081Zm2.742,2.742V15.081h9.6v2.742ZM57.9,29.958a6.311,6.311,0,0,1-2.1,1.95,12.259,12.259,0,0,0,.415-3.118V20.565h2.742v5.909A6.263,6.263,0,0,1,57.9,29.958ZM38.387,4.113H49.355a9.6,9.6,0,0,1,9.487,8.226H28.9a9.6,9.6,0,0,1,9.487-8.226Zm-9.6,10.968h9.6v2.742H36.9a3.589,3.589,0,0,0-3.478-2.742,3.626,3.626,0,0,0-1.605.378l-3.03,1.516ZM23.6,22.639l9.451-4.726a.87.87,0,0,1,1.227.757,2.313,2.313,0,0,1-.968,1.88L25.252,26.3l1.593,2.232L31.377,25.3a1.934,1.934,0,0,1,.155.751,1.954,1.954,0,0,1-.568,1.371L25.782,32.6a4.627,4.627,0,0,0-.62-.457l-4.48-2.688c-.038-.023-.08-.038-.118-.06V27.543a5.45,5.45,0,0,1,3.031-4.9ZM17.823,61.694V58.952H15.081v2.742H11.265a7.076,7.076,0,0,1-3.74-1.084l2.832-1.888L8.837,56.44,5.463,58.69a7.029,7.029,0,0,1-.55-7.4l4.069,2.035,1.227-2.453L6.335,48.934,11.043,41.4l6.073,3.644,1.411-2.351L12.5,39.075l4.149-6.638a1.972,1.972,0,0,1,2.625-.631l4.48,2.688a1.916,1.916,0,0,1,.927,1.636,1.88,1.88,0,0,1-.243.932l-1.386,2.248-3.094-2.063-1.52,2.281,3.175,2.117-4.45,7.215-4.206-2.1-1.227,2.453,3.987,1.993-1.8,2.916,2.333,1.441,4.7-7.62,2.359-.4V52.1H20.565v2.742h2.742v6.855Zm8.226-14.6,5.484-.914v8.665a4.118,4.118,0,0,0,4.113,4.113H52.1a4.118,4.118,0,0,0,4.113-4.113V46.232l5.484.968V83.629H58.952V78.145A2.745,2.745,0,0,0,56.21,75.4H47.984a2.745,2.745,0,0,0-2.742,2.742v5.484H42.5V78.145A2.745,2.745,0,0,0,39.758,75.4H31.532a2.745,2.745,0,0,0-2.742,2.742v5.484H26.048ZM56.21,83.629H47.984V78.145H56.21Zm-16.452,0H31.532V78.145h8.226ZM75.4,62.579v4.6H69.919V61.694h5.436C75.372,61.988,75.4,62.282,75.4,62.579Zm-2.982-9.111h-2.5V56.21h4.107a15.458,15.458,0,0,1,.932,2.742h-5.04a2.745,2.745,0,0,0-2.742,2.742v5.484a2.745,2.745,0,0,0,2.742,2.742H75.4v8.226H69.919v2.742H75.4v2.742H64.435V75.4h8.226V72.661H64.435V47.8a15.249,15.249,0,0,1,7.986,5.669ZM69.352,42.5l-3.03,3.031a17.979,17.979,0,0,0-3.275-.875l-4.9-4.9,1.489-1.489L63.466,42.1,65.4,40.16,61.615,36.37a3.685,3.685,0,0,1,4.676.328l3.06,3.06a1.94,1.94,0,0,1,0,2.742ZM83.179,24.558l-.923.921-2.173-2.173.921-.921a1.537,1.537,0,0,1,2.174,2.173Z"/>
        </g>
      </g>
    </g>
  </g>
</svg>
