<svg xmlns="http://www.w3.org/2000/svg" xmlns:xlink="http://www.w3.org/1999/xlink" width="85" height="85" viewBox="0 0 85 85">
  <defs>
    <clipPath id="clip-path">
      <rect id="Rectángulo_35524" data-name="Rectángulo 35524" width="85" height="85" transform="translate(810 5616)" fill="#fff" stroke="#707070" stroke-width="1"/>
    </clipPath>
  </defs>
  <g id="Grupo_158913" data-name="Grupo 158913" transform="translate(-810 -5584)">
    <circle id="Elipse_4872" data-name="Elipse 4872" cx="42.5" cy="42.5" r="42.5" transform="translate(810 5584)" fill="#ffd947"/>
    <g id="Enmascarar_grupo_98" data-name="Enmascarar grupo 98" transform="translate(0 -32)" clip-path="url(#clip-path)">
      <g id="francia" transform="translate(810 5616)">
        <g id="Grupo_93435" data-name="Grupo 93435">
          <path id="Trazado_120544" data-name="Trazado 120544" d="M29.176,78.006V15.413a4.668,4.668,0,0,1-2-2.058c-1.387-2.671-6.321-3.246-5.567-.28.608,2.39,2.348,7.117.526,7.4.036.449-1.922.458-2.039-.111-.7-.242-4.065,2.282-5.646-2.285-7.007-1.45-2.066,2.931-7.113-.5-1.326-.9-7.313,1-3.618,2.585,2.446,1.048-3.83,3.307.5,5.458,2.024,1,1.623-.171,4.639,1.544,2.5,1.42,9.8,6.123,7.124,9.882-.116.164.823,4.392,3.192,5.073,1.858.534.692,5.371,2.062,6.541.732.625-1.138,2.52-1.244,4.651-.4,8.072-8.648,16.434-6.517,17.3,3.856,1.562.89,3.032,2.987,4.242a13.362,13.362,0,0,0,3.215,1.232c.726.194.864,1.121,3.53,1.121C24.355,77.205,24.376,78.832,29.176,78.006Z" fill="#60a4ff" fill-rule="evenodd"/>
          <path id="Trazado_120545" data-name="Trazado 120545" d="M29.176,15.413V78.006q.354-.061.743-.14c2.874-.586.653,2.578,5.254,1.467,2.743-.662.114,3.954,4.29,3.1,1.393-.284,2.092,1.921,4.348.315.564-.4,1.843.207,2.262.58-1.073-5.007.595-7.787,5.634-9.083,3.5-.9,2.7.528,4.113,1.186V8.441a6.409,6.409,0,0,0-1.3-1.2c-2.26-1.6-3.186-3.7-4.493-5.583-9.984,2.4-2.981,1.646-6.619,6.756-.373.524.975,1.683-3.6,3.426-2.788,1.062-5.409-.633-5.7,2.857-.074.887-2.739,1.851-4.934.714Z" fill="#fff" fill-rule="evenodd"/>
          <path id="Trazado_120546" data-name="Trazado 120546" d="M55.821,8.441V75.434c.634.295,1.712.436,3.817.146,3.355-.461,4.463,3.292,7.341,3.443,1.545.082,3.836-1.08,4.208-2.906.4-1.941,6.313-.69,6.855-5.1C78.4,68.1,80.261,69,75.927,68.614c-.078-.007-4.552-2.6-1.133-4.739,1.842-1.153-6.165-5.975-.638-5.757.746.029,2.333-1.8-.28-3.595-1.769-1.217,1.657-1.745,1.121-2.992-1.278-2.978.866-3.77-3.639-4.977-2.2-.59-2.312-5.206,1.078-5.578,2.274-.249,3.424-2.6,4.8-2.875,2.57-.52.8-8.9,3.741-11.472,4.017-3.51-.852-4.359-5.623-5.331-1.835-.374-1.307-1.779-4.033-2.42-2.474-.581-.909-2.275-5.2-2.688-4.686-.452-2.194-4.044-4.6-4.044-4.962,0-4.075-1.7-5.7-3.7Z" fill="#ff5a58" fill-rule="evenodd"/>
        </g>
        <g id="Grupo_93436" data-name="Grupo 93436">
          <path id="Trazado_120547" data-name="Trazado 120547" d="M84.032,23.654c-.641-2.421-4.006-3.1-7.9-3.893l-.446-.09c-.3-.061-.348-.115-.665-.467a5.716,5.716,0,0,0-3.32-1.942.971.971,0,0,1-.76-.519c-.754-1-1.678-1.919-4.656-2.206-1.527-.147-1.6-.478-1.808-1.362a2.953,2.953,0,0,0-2.956-2.69,5.7,5.7,0,0,1-2.675-.391c-.227-.136-.341-.337-.637-.923A7.989,7.989,0,0,0,55.48,5.888a11.914,11.914,0,0,1-3.147-3.727c-.3-.475-.607-.965-.944-1.449A1.661,1.661,0,0,0,49.64.046C45.117,1.132,43.7,1.617,43.012,2.74a2.651,2.651,0,0,0-.2,2.148c.134.549.272,1.116-.759,2.565a2.293,2.293,0,0,0-.385,1.439c0,.024,0,.052,0,.077a6.206,6.206,0,0,1-2.453,1.321,6.962,6.962,0,0,1-2.2.333c-1.517.066-4.007.174-4.507,3.438A3.246,3.246,0,0,1,30.7,14.2a2.906,2.906,0,0,1-2.048-1.614,6.048,6.048,0,0,0-6.832-2.906A3.024,3.024,0,0,0,20,13.484c.108.426.247.908.393,1.419a20.967,20.967,0,0,1,.9,4.145q-.055.032-.106.068a1.656,1.656,0,0,0-.548-.317,2.923,2.923,0,0,0-1.877.132c-1.321.4-2.048.616-2.743-1.391a1.66,1.66,0,0,0-1.233-1.083c-2.7-.559-4.371-.429-5.408.477-.262-.163-.619-.4-1.107-.727-1.468-1-4.272-.389-5.732.436A2.733,2.733,0,0,0,.875,19.181,2.572,2.572,0,0,0,2.152,21.2a3.925,3.925,0,0,0-1.093,3.288,4,4,0,0,0,2.425,2.618,5.481,5.481,0,0,0,2.363.659,4.443,4.443,0,0,1,2.194.841c3.088,1.756,6.4,4.395,6.824,6.33a1.319,1.319,0,0,1-.232,1.145c-.264.371-.625.878.148,3.09.478,1.368,1.585,3.722,3.711,4.469a10.138,10.138,0,0,1,.272,2,7.731,7.731,0,0,0,.855,3.66c-.069.155-.152.33-.222.477a9.1,9.1,0,0,0-1.059,3.444c-.206,4.125-2.771,8.522-4.643,11.732-1.669,2.861-2.588,4.436-2.1,5.863a2.17,2.17,0,0,0,1.261,1.323,2.988,2.988,0,0,1,1.113.635,3.2,3.2,0,0,1,0,.325,3.124,3.124,0,0,0,1.671,3.181,14.784,14.784,0,0,0,3.523,1.372l.1.075a5.779,5.779,0,0,0,3.826,1.128l.151.09c1.226.745,2.777,1.4,7.013.537l.113-.021c.971,1.59,2.365,2.062,4.742,1.577a3.78,3.78,0,0,0,1.472,2.609,4.047,4.047,0,0,0,3.109.426c.09.042.236.128.348.193A4.332,4.332,0,0,0,42.278,85a4.077,4.077,0,0,0,2.175-.682,2.15,2.15,0,0,1,.518.254A1.66,1.66,0,0,0,47.7,82.983c-.9-4.191.259-6.056,4.424-7.127a5.365,5.365,0,0,1,1.443-.236l.076.095c1.077,1.351,2.441,2.031,6.225,1.51,1.039-.143,1.683.365,2.825,1.35a6.954,6.954,0,0,0,4.2,2.106c2.279.121,5.152-1.454,5.85-3.932A10.856,10.856,0,0,1,74,76.37c1.954-.511,5.224-1.367,5.689-5.145a3.217,3.217,0,0,1,.4-1.275,1.911,1.911,0,0,0,.084-1.937,2.21,2.21,0,0,0-2.135-.936c-.36-.012-.879-.03-1.6-.087a3.57,3.57,0,0,1-1.263-1.284,1.6,1.6,0,0,1,.5-.425,2.2,2.2,0,0,0,1.035-1.547c.2-1.329-.779-2.48-1.82-3.7-.079-.092-.169-.2-.263-.309a3.123,3.123,0,0,0,2.187-2.07,3.626,3.626,0,0,0-1.164-3.831,2.482,2.482,0,0,0,.873-2.952,4.769,4.769,0,0,1-.379-1.786,3.627,3.627,0,0,0-.93-2.524,7.159,7.159,0,0,0-3.426-1.616,1.184,1.184,0,0,1-.338-1.076,1.23,1.23,0,0,1,1.167-1.248,7.118,7.118,0,0,0,4.005-2.145,5.556,5.556,0,0,1,.943-.753c2.466-.5,2.759-3.452,3.041-6.308.206-2.079.462-4.666,1.463-5.541.618-.541,2.5-2.187,1.962-4.224ZM51.294,72.64c-4.916,1.264-7.286,4-7.184,8.326a2.392,2.392,0,0,0-1.262.432c-.523.372-.522.372-1.134.014a3.861,3.861,0,0,0-1.994-.664,2.932,2.932,0,0,0-.589.06,2.711,2.711,0,0,1-.659.07c-.045-.145-.09-.374-.122-.54A3.273,3.273,0,0,0,37.061,78a2.842,2.842,0,0,0-2.276-.282,4.146,4.146,0,0,1-1.49.177c-.031-.047-.072-.115-.1-.169a2.866,2.866,0,0,0-2.354-1.581V54.176a1.66,1.66,0,0,0-3.32,0V76.551a3.626,3.626,0,0,1-2.554-.434,3.227,3.227,0,0,0-1.753-.573c-1.332,0-1.657-.242-1.972-.475a3.213,3.213,0,0,0-1.129-.59A11.964,11.964,0,0,1,17.3,73.414l-.019-.011c0-.05,0-.105.006-.152a3.645,3.645,0,0,0-2.288-3.767c.334-.732,1-1.879,1.569-2.849,2.044-3.505,4.844-8.306,5.091-13.239a6.321,6.321,0,0,1,.741-2.182c.5-1.046,1.248-2.62-.02-3.766a8.489,8.489,0,0,1-.3-2.046c-.134-1.8-.318-4.266-2.439-4.876-.886-.255-1.682-2.123-1.93-3.116a4.628,4.628,0,0,0,.4-3.187c-.847-3.83-6.174-7.22-8.425-8.5a7.5,7.5,0,0,0-3.617-1.267,2.3,2.3,0,0,1-1.105-.32,3.176,3.176,0,0,1-.579-.353,7.412,7.412,0,0,1,.513-.692A3.248,3.248,0,0,0,5.9,20.283a2.217,2.217,0,0,0-.7-1.132,3.668,3.668,0,0,1,1.3-.134c1.862,1.264,2.735,1.754,3.731,1.517a2.066,2.066,0,0,0,1.328-1.064,5.373,5.373,0,0,1,1.7.081c1.817,3.844,5.114,2.962,6.37,2.587a3.933,3.933,0,0,0,2.218.287,2.472,2.472,0,0,0,1.325-.56A2.464,2.464,0,0,0,24.11,21c.951-1.491.382-3.846-.525-7.01-.13-.455-.254-.886-.348-1.248A3.019,3.019,0,0,1,25.7,14.12a6.476,6.476,0,0,0,1.814,2.2V39.234a1.66,1.66,0,0,0,3.32,0V17.565a6.689,6.689,0,0,0,1.839-.1c1.8-.361,2.984-1.367,3.089-2.625a1.846,1.846,0,0,1,.168-.759,5.036,5.036,0,0,1,1.232-.138,9.869,9.869,0,0,0,3.236-.547c3.176-1.21,4.527-2.481,4.589-4.347A5.732,5.732,0,0,0,46.12,4.458c.734-.283,2.105-.644,3.165-.908l.239.379A14.957,14.957,0,0,0,53.561,8.6a5.37,5.37,0,0,1,.6.489V72.353a7.188,7.188,0,0,0-2.867.287Zm28.59-47.262c-1.991,1.74-2.305,4.914-2.582,7.714a13.831,13.831,0,0,1-.585,3.425A5.814,5.814,0,0,0,74.4,38.011a4.24,4.24,0,0,1-2.146,1.313,4.55,4.55,0,0,0-4.116,4.3,4.2,4.2,0,0,0,2.79,4.536,6.238,6.238,0,0,1,1.862.687c.017.107.03.305.04.457a8.347,8.347,0,0,0,.391,2.224l-.057.043a2.9,2.9,0,0,0-1.46,2.314,2.478,2.478,0,0,0,1.23,2.008,2.627,2.627,0,0,1,.623.559,3.015,3.015,0,0,0-2.82,1.424c-.748,1.542.46,2.955,1.628,4.321.21.246.5.588.732.885a3.392,3.392,0,0,0-1.156,3.38,5.184,5.184,0,0,0,1.834,2.672,4.241,4.241,0,0,0,2,1.135c.251.022.481.041.693.056-.029.156-.055.321-.077.5-.171,1.39-1.165,1.8-3.234,2.338-1.442.377-3.237.847-3.6,2.629a2.759,2.759,0,0,1-2.494,1.58c-.705-.037-1.3-.52-2.208-1.3-1.213-1.046-2.873-2.48-5.447-2.126a12.442,12.442,0,0,1-1.931.141V13.133a8.965,8.965,0,0,0,3.732.671l.028.121c.266,1.149.82,3.541,4.724,3.918,1.773.171,2.017.494,2.325.9a4.163,4.163,0,0,0,2.651,1.75,2.5,2.5,0,0,1,1.613.933,4.151,4.151,0,0,0,2.468,1.5l.449.091c1.692.343,4.435.9,5.246,1.473A4.609,4.609,0,0,1,79.885,25.378Z"/>
          <path id="Trazado_120548" data-name="Trazado 120548" d="M29.176,45.045a1.661,1.661,0,1,0,1.66,1.661h0A1.66,1.66,0,0,0,29.176,45.045Z"/>
        </g>
      </g>
    </g>
  </g>
</svg>
