<svg xmlns="http://www.w3.org/2000/svg" width="114" height="114" viewBox="0 0 114 114">
  <g id="Grupo_88526" data-name="Grupo 88526" transform="translate(-324 -5316)">
    <circle id="Elipse_4825" data-name="Elipse 4825" cx="57" cy="57" r="57" transform="translate(324 5316)" fill="#ffd947"/>
    <path id="Trazado_120453" data-name="Trazado 120453" d="M-26.44,2.258h-4.426L-17.208-26.3h4.444ZM-9.169,0h-5.962l3.4-19.548h5.962ZM-11.21-24.48a2.756,2.756,0,0,1,.93-2.2,3.34,3.34,0,0,1,2.34-.885,3.449,3.449,0,0,1,2.322.795A2.709,2.709,0,0,1-4.652-24.7a2.762,2.762,0,0,1-.921,2.213,3.351,3.351,0,0,1-2.349.876,3.492,3.492,0,0,1-2.3-.786A2.678,2.678,0,0,1-11.21-24.48ZM-4.417-9.81A14.218,14.218,0,0,1-1.6-17.217a6.984,6.984,0,0,1,5.89-2.692,5.327,5.327,0,0,1,4.137,2.1l1.9-9.937h5.962L11.481,0H6.188l.253-2.114A6.1,6.1,0,0,1,1.581.379,5.385,5.385,0,0,1-2.836-1.707a9.2,9.2,0,0,1-1.707-5.5,16.92,16.92,0,0,1,.072-2.222Zm5.926.416a14.188,14.188,0,0,0-.126,2.023q0,3,2.023,3.053A3.79,3.79,0,0,0,6.531-6l1.337-7.5a2.407,2.407,0,0,0-2.385-1.716A3.039,3.039,0,0,0,2.8-13.776,9.264,9.264,0,0,0,1.509-9.395ZM16.739,2.258H12.312L25.97-26.3h4.444Z" transform="translate(381 5386)" fill="#12263f"/>
  </g>
</svg>
