<svg xmlns="http://www.w3.org/2000/svg" xmlns:xlink="http://www.w3.org/1999/xlink" width="85" height="85" viewBox="0 0 85 85">
  <defs>
    <clipPath id="clip-path">
      <rect id="Rectángulo_35523" data-name="Rectángulo 35523" width="85" height="85" transform="translate(810 5739)" fill="#fff" stroke="#707070" stroke-width="1"/>
    </clipPath>
  </defs>
  <g id="Grupo_158915" data-name="Grupo 158915" transform="translate(-810 -5707)">
    <circle id="Elipse_4871" data-name="Elipse 4871" cx="42.5" cy="42.5" r="42.5" transform="translate(810 5707)" fill="#ffd947"/>
    <g id="Enmascarar_grupo_100" data-name="Enmascarar grupo 100" transform="translate(0 -32)" clip-path="url(#clip-path)">
      <g id="programador" transform="translate(808.629 5737.629)">
        <g id="Grupo_93452" data-name="Grupo 93452">
          <g id="Grupo_93438" data-name="Grupo 93438">
            <circle id="Elipse_4883" data-name="Elipse 4883" cx="13.71" cy="13.71" r="13.71" transform="translate(52.097 5.484)" fill="#ff826e"/>
          </g>
          <g id="Grupo_93439" data-name="Grupo 93439">
            <path id="Trazado_120616" data-name="Trazado 120616" d="M30.367,13.038a18.945,18.945,0,0,1-14,6.156H13.71v6.937a15.412,15.412,0,0,0,8.226,13.627l-1.371,5.484-4.113.631L13.2,46.38a12.161,12.161,0,0,0-4.977,1.933V19.194A16.447,16.447,0,0,1,24.677,2.742h5.484A16.447,16.447,0,0,1,46.613,19.194V38.387H45.242a1.375,1.375,0,0,0-1.371,1.371v7.17a12.1,12.1,0,0,0-2.235-.548l-3.249-.507-4.113-.631L32.9,39.758a15.442,15.442,0,0,0,8.226-13.627V19.194H41.1a12.313,12.313,0,0,1-6.183-1.659,12.371,12.371,0,0,1-4.538-4.483Z" fill="#b27946"/>
          </g>
          <g id="Grupo_93440" data-name="Grupo 93440">
            <path id="Trazado_120617" data-name="Trazado 120617" d="M45.242,68.548a1.375,1.375,0,0,1-1.371-1.371V46.928a12.1,12.1,0,0,0-2.235-.548l-3.249-.507v.411a14.029,14.029,0,0,1-4.113,9.926,24.72,24.72,0,0,0-6.855-6.855,24.72,24.72,0,0,0-6.855,6.855,14.029,14.029,0,0,1-4.113-9.926v-.411L13.2,46.38a12.161,12.161,0,0,0-4.977,1.933A12.306,12.306,0,0,0,2.742,58.568V69.919A1.375,1.375,0,0,0,4.113,71.29h9.6v5.484H38.387L43.4,74.265a2.218,2.218,0,0,1,3.208,1.988v.521h2.742V68.548Z" fill="#fcd770"/>
          </g>
          <g id="Grupo_93441" data-name="Grupo 93441">
            <path id="Trazado_120618" data-name="Trazado 120618" d="M27.419,49.355a7.779,7.779,0,0,0,3.619-.9,7.869,7.869,0,0,0,2.769-2.523l.466-.685,4.113.631v.411a14.029,14.029,0,0,1-4.113,9.926A24.72,24.72,0,0,0,27.419,49.355Z" fill="#ffc729"/>
          </g>
          <g id="Grupo_93442" data-name="Grupo 93442">
            <path id="Trazado_120619" data-name="Trazado 120619" d="M21.031,45.927a7.687,7.687,0,0,0,6.389,3.427,24.72,24.72,0,0,0-6.855,6.855,14.029,14.029,0,0,1-4.113-9.926v-.411l4.113-.631Z" fill="#ffc729"/>
          </g>
          <g id="Grupo_93443" data-name="Grupo 93443">
            <path id="Trazado_120620" data-name="Trazado 120620" d="M71.29,60.323H63.065a2.75,2.75,0,0,0-2.742,2.742V79.516h13.71V63.065A2.75,2.75,0,0,0,71.29,60.323Z" fill="#969faa"/>
          </g>
          <g id="Grupo_93444" data-name="Grupo 93444">
            <path id="Trazado_120621" data-name="Trazado 120621" d="M49.355,38.387V68.548H45.242a1.375,1.375,0,0,1-1.371-1.371V39.758a1.375,1.375,0,0,1,1.371-1.371h4.113Z" fill="#aab2bd"/>
          </g>
          <g id="Grupo_93445" data-name="Grupo 93445">
            <path id="Trazado_120622" data-name="Trazado 120622" d="M85,39.758V67.177a1.375,1.375,0,0,1-1.371,1.371h-9.6V63.065a2.75,2.75,0,0,0-2.742-2.742H63.065a2.75,2.75,0,0,0-2.742,2.742v5.484H49.355V38.387H83.629A1.375,1.375,0,0,1,85,39.758Z" fill="#ccd1d9"/>
          </g>
          <g id="Grupo_93446" data-name="Grupo 93446">
            <path id="Trazado_120623" data-name="Trazado 120623" d="M5.484,79.516V71.29H13.71v5.484H38.387L43.4,74.265a2.218,2.218,0,0,1,3.208,1.988v.521h2.742A2.75,2.75,0,0,1,52.1,79.516v2.742A2.75,2.75,0,0,1,49.355,85H10.968A5.482,5.482,0,0,1,5.484,79.516Z" fill="#f0d0b4"/>
          </g>
          <g id="Grupo_93447" data-name="Grupo 93447">
            <path id="Trazado_120624" data-name="Trazado 120624" d="M32.9,39.758l1.371,5.484-.466.685a7.869,7.869,0,0,1-2.769,2.523,7.779,7.779,0,0,1-3.619.9,7.687,7.687,0,0,1-6.389-3.427l-.466-.685,1.371-5.484c.1.055.192.1.288.151a11.673,11.673,0,0,0,10.392,0C32.711,39.854,32.807,39.813,32.9,39.758Z" fill="#f0d0b4"/>
          </g>
          <g id="Grupo_93448" data-name="Grupo 93448">
            <path id="Trazado_120625" data-name="Trazado 120625" d="M41.129,21.935v4.2A15.442,15.442,0,0,1,32.9,39.758c-.1.055-.192.1-.288.151a11.673,11.673,0,0,1-10.392,0c-.1-.055-.192-.1-.288-.151A15.412,15.412,0,0,1,13.71,26.131v-4.2a5.484,5.484,0,0,0,10.968,0V19.194h5.484v2.742a5.484,5.484,0,1,0,10.968,0Z" fill="#f0d0b4"/>
          </g>
          <g id="Grupo_93449" data-name="Grupo 93449">
            <path id="Trazado_120626" data-name="Trazado 120626" d="M24.677,19.194H16.369a18.945,18.945,0,0,0,14-6.156l.014.014a12.371,12.371,0,0,0,4.538,4.483A12.313,12.313,0,0,0,41.1,19.194H24.677Z" fill="#f0d0b4"/>
          </g>
          <g id="Grupo_93450" data-name="Grupo 93450">
            <path id="Trazado_120627" data-name="Trazado 120627" d="M41.129,21.935a5.484,5.484,0,1,1-10.968,0V19.194H41.129Z" fill="#69d6f4"/>
          </g>
          <g id="Grupo_93451" data-name="Grupo 93451">
            <path id="Trazado_120628" data-name="Trazado 120628" d="M16.369,19.194h8.308v2.742a5.484,5.484,0,1,1-10.968,0V19.194Z" fill="#69d6f4"/>
          </g>
        </g>
        <g id="Grupo_93453" data-name="Grupo 93453">
          <path id="Trazado_120629" data-name="Trazado 120629" d="M27.419,37.016a5.775,5.775,0,0,0,5.195-3.211l.144-.289-2.453-1.227-.144.291a3.066,3.066,0,0,1-5.484,0l-.144-.289-2.453,1.227.144.289A5.776,5.776,0,0,0,27.419,37.016Z"/>
          <path id="Trazado_120630" data-name="Trazado 120630" d="M31.532,61.694h2.742v2.742H31.532Z"/>
          <path id="Trazado_120631" data-name="Trazado 120631" d="M83.629,37.016H47.984V19.194A17.843,17.843,0,0,0,30.161,1.371H24.677A17.843,17.843,0,0,0,6.855,19.194v28.4A13.631,13.631,0,0,0,1.371,58.57V69.919a2.745,2.745,0,0,0,2.742,2.742v6.855a6.863,6.863,0,0,0,6.855,6.855H49.355a4.118,4.118,0,0,0,4.113-4.113V80.887H80.887V78.145H75.4V69.919h8.226a2.745,2.745,0,0,0,2.742-2.742V39.758A2.745,2.745,0,0,0,83.629,37.016ZM58.952,78.145H53.215a4.109,4.109,0,0,0-2.49-2.49V69.919h8.226ZM47.984,75.4h-.1a3.592,3.592,0,0,0-5.095-2.364L38.064,75.4H28.79V52.119a23.23,23.23,0,0,1,4.343,4.852l.928,1.392,1.182-1.182A15.287,15.287,0,0,0,39.7,47.466l1.725.265a10.909,10.909,0,0,1,1.075.223V67.177a2.745,2.745,0,0,0,2.742,2.742h2.742ZM30.176,15.167a13.834,13.834,0,0,0,2.693,2.656h-6.3a20.535,20.535,0,0,0,3.607-2.656Zm9.582,6.768a4.113,4.113,0,1,1-8.226,0V20.565h8.226ZM23.306,20.565v1.371a4.113,4.113,0,1,1-8.226,0V20.565ZM19.194,28.79a6.863,6.863,0,0,0,6.855-6.855V20.565H28.79v1.371a6.863,6.863,0,0,0,6.855,6.855,6.786,6.786,0,0,0,4.02-1.33A13.924,13.924,0,0,1,32,38.676a10.413,10.413,0,0,1-9.164,0A13.927,13.927,0,0,1,15.171,27.46,6.8,6.8,0,0,0,19.194,28.79ZM27.419,42.5a13.039,13.039,0,0,0,4.549-.832l.829,3.318-.125.186a6.314,6.314,0,0,1-10.507,0l-.125-.186.829-3.318A13.039,13.039,0,0,0,27.419,42.5Zm7.507,4.229,2.058.317a12.547,12.547,0,0,1-2.6,6.966,25.929,25.929,0,0,0-3.718-3.889A9.029,9.029,0,0,0,34.927,46.729Zm-15.015,0a9.037,9.037,0,0,0,4.258,3.393,25.861,25.861,0,0,0-3.718,3.889,12.547,12.547,0,0,1-2.6-6.966Zm25.33,20.448V39.758h2.742V67.177ZM9.6,19.194A15.1,15.1,0,0,1,24.677,4.113h5.484A15.1,15.1,0,0,1,45.242,19.194V37.016A2.745,2.745,0,0,0,42.5,39.758v5.395c-.219-.045-.436-.1-.657-.133l-6.46-1-.9-3.6a16.668,16.668,0,0,0,8.016-14.3v-8.3H41.129a11.134,11.134,0,0,1-9.031-4.68,20.23,20.23,0,0,0,1.995-2.865l-2.38-1.36a17.714,17.714,0,0,1-15.347,8.906H12.339v8.3a16.668,16.668,0,0,0,8.017,14.3l-.9,3.6-6.46,1A13.8,13.8,0,0,0,9.6,46ZM4.113,58.57a10.907,10.907,0,0,1,9.3-10.84l1.725-.265A15.287,15.287,0,0,0,19.6,57.18l1.182,1.182.928-1.392a23.231,23.231,0,0,1,4.343-4.852V75.4H15.081V61.694H12.339v8.226H4.113ZM50.726,82.258a1.371,1.371,0,0,1-1.371,1.371H10.968a4.118,4.118,0,0,1-4.113-4.113V72.661h5.484V75.4H9.6v2.742H38.711l5.3-2.653a.874.874,0,0,1,1.227.758v1.895h4.113a1.371,1.371,0,0,1,1.371,1.371Zm21.935-4.113H61.694V63.065a1.371,1.371,0,0,1,1.371-1.371h1.371v4.113a4.118,4.118,0,0,0,4.113,4.113h4.113Zm0-10.968H68.548a1.371,1.371,0,0,1-1.371-1.371V61.694H71.29a1.371,1.371,0,0,1,1.371,1.371Zm10.968,0H75.4V63.065a4.118,4.118,0,0,0-4.113-4.113H63.065a4.118,4.118,0,0,0-4.113,4.113v4.113H50.726V39.758h32.9Z"/>
          <path id="Trazado_120632" data-name="Trazado 120632" d="M65.806,34.274A15.081,15.081,0,1,0,50.726,19.194,15.1,15.1,0,0,0,65.806,34.274Zm0-27.419A12.339,12.339,0,1,1,53.468,19.194,12.352,12.352,0,0,1,65.806,6.855Z"/>
          <path id="Trazado_120633" data-name="Trazado 120633" d="M61.533,23.693l-2.4-4.5,2.4-4.5L59.112,13.4l-3.085,5.791,3.085,5.791Z"/>
          <path id="Trazado_120634" data-name="Trazado 120634" d="M72.5,24.985l3.085-5.791L72.5,13.4,70.08,14.694l2.4,4.5-2.4,4.5Z"/>
          <path id="Trazado_120635" data-name="Trazado 120635" d="M59.647,17.814H71.9v2.741H59.647Z" transform="translate(19.21 69.47) rotate(-63.435)"/>
          <path id="Trazado_120636" data-name="Trazado 120636" d="M31.532,67.177h2.742v2.742H31.532Z"/>
        </g>
      </g>
    </g>
  </g>
</svg>
