<svg xmlns="http://www.w3.org/2000/svg" width="114" height="114" viewBox="0 0 114 114">
  <g id="Grupo_88527" data-name="Grupo 88527" transform="translate(-744 -5316)">
    <circle id="Elipse_4826" data-name="Elipse 4826" cx="57" cy="57" r="57" transform="translate(744 5316)" fill="#ffd947"/>
    <path id="Trazado_120454" data-name="Trazado 120454" d="M-17.488,2.258h-4.426L-8.256-26.3h4.444ZM4.661-24.408l-.849,4.86H6.938L6.2-15.32H3.071L1.554-6.341A2.393,2.393,0,0,0,1.671-4.95q.244.47,1.219.506a14.128,14.128,0,0,0,1.554-.09L4.011-.126a9.606,9.606,0,0,1-3.2.452A5.268,5.268,0,0,1-3.324-1.3a5.553,5.553,0,0,1-1.12-4.318l1.59-9.7H-5.275l.723-4.228h2.421l.849-4.86ZM7.787,2.258H3.36L17.019-26.3h4.444Z" transform="translate(801 5386)" fill="#12263f"/>
  </g>
</svg>
